<svg xmlns="http://www.w3.org/2000/svg" xmlns:xlink="http://www.w3.org/1999/xlink" width="883" height="667.245" viewBox="0 0 883 667.245">
  <defs>
    <linearGradient id="linear-gradient" x1="0.5" y1="1" x2="0.5" gradientUnits="objectBoundingBox">
      <stop offset="0" stop-color="gray" stop-opacity="0.251"/>
      <stop offset="0.54" stop-color="gray" stop-opacity="0.122"/>
      <stop offset="1" stop-color="gray" stop-opacity="0.102"/>
    </linearGradient>
    <linearGradient id="linear-gradient-2" x1="0.5" x2="0.5" y2="0" xlink:href="#linear-gradient"/>
    <linearGradient id="linear-gradient-3" x1="0.5" x2="0.5" y2="0" xlink:href="#linear-gradient"/>
    <linearGradient id="linear-gradient-4" x1="1.096" x2="1.096" y2="0" xlink:href="#linear-gradient"/>
    <linearGradient id="linear-gradient-5" x1="0.5" x2="0.5" y2="0" xlink:href="#linear-gradient"/>
  </defs>
  <g id="Group_71" data-name="Group 71" transform="translate(0.013 -0.004)">
    <path id="Path_1658" data-name="Path 1658" d="M43.44,426.65c13.97,54.446,43.549,101.51,90.3,124.321,97.187,47.414,316.235,22.958,479.743-5.107,84.6-14.521,158.905-54.562,212.916-110.987Z" transform="translate(-33.912 -111.144)" fill="#6c63ff" opacity="0.1"/>
    <path id="Path_1659" data-name="Path 1659" d="M907.4,79.375H817.689c-4.269,0-7.761-3.182-7.761-7.071s3.485-7.071,7.761-7.071h15.523c-4.269,0-7.761-3.182-7.761-7.071s3.485-7.063,7.761-7.063H822.136c-4.269,0-7.761-3.182-7.761-7.071s3.485-7.071,7.761-7.071H868.96a132.66,132.66,0,0,0-36.525-9.174C704.754,12.83,659.164,22.718,643.059,32.893a187.909,187.909,0,0,1-65.622,26.226C498.66,73.935,351.334,91.762,217.8,53.406,151.434,34.352,102.111,66.6,72.54,120.394H922.979c-1.11-15.647-4.432-30.1-10.532-42.742A8.134,8.134,0,0,1,907.4,79.375Z" transform="translate(-40.427 -20.14)" fill="#6c63ff" opacity="0.1"/>
    <path id="Path_1660" data-name="Path 1660" d="M33.074,280.23a329.033,329.033,0,0,0,3.485,94.991L824.24,401.485a336.183,336.183,0,0,0,54.725-76.061ZM344.59,347.994H329.068c4.261,0,7.761,3.182,7.761,7.071s-3.493,7.063-7.761,7.063H239.393c-4.261,0-7.761-3.174-7.761-7.063s3.493-7.071,7.761-7.071h15.523c-4.261,0-7.761-3.182-7.761-7.071s3.493-7.071,7.761-7.071H243.825c-4.261,0-7.761-3.174-7.761-7.063s3.493-7.071,7.761-7.071h89.713c4.269,0,7.761,3.182,7.761,7.071s-3.485,7.063-7.761,7.063H344.59c4.269,0,7.761,3.182,7.761,7.071S348.882,347.994,344.59,347.994Z" transform="translate(-31.16 -78.365)" fill="#6c63ff" opacity="0.1"/>
    <path id="Path_1661" data-name="Path 1661" d="M914.341,149.94,54.386,169.01c-10.478,24.518-17.409,52.234-20.606,80.966H899.268a309.672,309.672,0,0,0,12.5-51.605C914.341,181.482,915.373,165.152,914.341,149.94ZM208.386,212.426H192.864c4.261,0,7.761,3.182,7.761,7.071s-3.493,7.071-7.761,7.071H103.158c-4.261,0-7.761-3.182-7.761-7.071s3.493-7.071,7.761-7.071h15.523c-4.261,0-7.761-3.174-7.761-7.063s3.493-7.071,7.761-7.071H107.59c-4.261,0-7.761-3.182-7.761-7.071s3.493-7.071,7.761-7.071H197.3c4.269,0,7.761,3.182,7.761,7.071s-3.485,7.071-7.761,7.071h11.083c4.261,0,7.761,3.182,7.761,7.071S212.647,212.426,208.386,212.426Z" transform="translate(-31.749 -49.197)" fill="#6c63ff" opacity="0.1"/>
    <ellipse id="Ellipse_354" data-name="Ellipse 354" cx="58.388" cy="13.109" rx="58.388" ry="13.109" transform="translate(457.224 568.945)" fill="#6c63ff" opacity="0.1"/>
    <ellipse id="Ellipse_355" data-name="Ellipse 355" cx="105.337" cy="8.646" rx="105.337" ry="8.646" transform="translate(545.952 615.039)" fill="#6c63ff" opacity="0.1"/>
    <ellipse id="Ellipse_356" data-name="Ellipse 356" cx="105.337" cy="13.109" rx="105.337" ry="13.109" transform="translate(123.014 597.467)" fill="#6c63ff" opacity="0.1"/>
    <ellipse id="Ellipse_357" data-name="Ellipse 357" cx="79.259" cy="13.109" rx="79.259" ry="13.109" transform="translate(309.697 531.845)" fill="#6c63ff" opacity="0.1"/>
    <ellipse id="Ellipse_358" data-name="Ellipse 358" cx="63.449" cy="13.109" rx="63.449" ry="13.109" transform="translate(347.634 641.032)" fill="#6c63ff" opacity="0.1"/>
    <path id="Path_1662" data-name="Path 1662" d="M564.5,279.915c-1.676-11.285-11.929-37.619-11.929-37.619h0q-.268-1.164-.605-2.328C544.7,214.976,534.63,212.8,534.63,212.8l-36.059-7.761a2.794,2.794,0,0,1,.776.722,5,5,0,0,0-.567.085,14.125,14.125,0,0,1-3.159-6.83c-.07-.373-.132-.776-.178-1.156a25.364,25.364,0,0,0-2.064-38.131c-.38-.295-.776-.582-1.156-.854,1.7-1.808,1.754-4.323.481-6.838-2.841-5.9-9.019-9.632-15.367-11.456-4.851-1.389-10.09-1.839-14.917-.318a53.888,53.888,0,0,0-7.808,3.625c-4.789,2.39-10.09,4.284-13.668,8.219a4.011,4.011,0,0,0-1.366,3.3,8.9,8.9,0,0,0,1.358,2.4c1.032,1.793.776,4.051.07,6.007a58.208,58.208,0,0,0-2.227,5.774c-.489,2-.3,4.362,1.2,5.8a25.547,25.547,0,0,0,2.251,1.552,11.8,11.8,0,0,1,2.15,2.414q2.142,2.872,4.269,5.767A59.406,59.406,0,0,1,454,193.244a39.6,39.6,0,0,0,3.306,6.209,9.207,9.207,0,0,0,1.42,1.49l-.419-.163a6.465,6.465,0,0,0,4.742,1.933h.217a1.3,1.3,0,0,0,.869-.357c0,.264,0,.528,0,.776.085,2.771.07,5.72-.124,8.491l-.334-.171a2.911,2.911,0,0,0-3.1.326l-33.2,26.637s-7.218,9.872-6.209,26.916l-5.821,25.558s-7.272,21.685-1.676,37.169,8.84,24.339,8.84,24.339,2.235,17.595,5.6,19.031,4.812,2.212,4.812,2.212l.667,4.207h0s.225.411.621,1.1c2.445,4.253,11.5,19.264,16.764,17.657a67.288,67.288,0,0,1,.854,12.333l5.208,34.965s3.632,9.508,3.407,14.49,4.238,12.084,4.238,12.084a23.09,23.09,0,0,0-2.235,16.26c2.127,9.314,4.812,52.218,4.812,52.218l3.881,10.4-.109,12.193a11.642,11.642,0,0,1-2.406,5.433c-2.515,2.732-2.328,5.891-8.39,9.624s-9.9,5.146-9.9,10.09a12.977,12.977,0,0,1-.186,2.057c-.559,3.632-1.645,5.6,9.5,6.659a29.385,29.385,0,0,0,21.825-7.3s1.925-3.493,10.99-4.905c0,0,3.1-.163,3.268-2.9.062-.947.047-2.755,0-4.75-.147-3.8-.512-8.227-.993-8.444-.605-.272-1.661-4.09-2.026-5.472h2.522s2.328-17.595,0-28.989S495,513.182,495,513.182l-.45-30.091s-3.1-3.322-.667-9.189,0-34.848,0-34.848.9-10.4,3.469-12.837.124-15.235,0-15.9l4.579,15.36s2.01,30.533,6.271,36.059l1.226,13.831s8.724,12.729,7.047,19.582,1.793,31.643,1.793,31.643v25.341s-3.919,10.175,1.552,13.831l2.328-.093c-.776.722-1.374,1.808-2.282,2.747-1.048,1.079-1.645,5.185-1.979,8.716-.279,2.988-.373,5.557-.373,5.557a9.151,9.151,0,0,0,6.714,3.982c4.385.256,18.837,11.246,18.837,11.246s14.273,0,17.967-.776l.217-.054a4.851,4.851,0,0,0,2.786-2.274,5.821,5.821,0,0,0,.667-4.183c-.458-2.181-2.189-4.571-6.023-6.6-9.539-5.029-10.959-9.74-10.959-9.74l-6.263-9.4h.893s-.551-9.958,6.263-21.134l-.442-49.23s2.794-16.927-2.01-26.117c0,0-.4-9.733,2.817-12.721s-4.276-33.187-4.276-33.187-1.552-16.213-3.376-31.006h0c7.552,7.164,15.383-18.627,16.7-23.214h.194l-.085-.334c.054-.217.085-.326.085-.326h0s-1.676-5.961-.45-4.75,4.253-3.322,4.253-3.322-.45-24.673,4.812-37.107S564.5,279.915,564.5,279.915ZM542,295.616l.039-.07c.776,15.065-.147,47.212-.147,47.212s-1.04,4.121-2.15,8.972l-.776-30.541h0l-.776-28.771ZM445.67,285.232s3.8,47.569,0,54.43c-1.079,1.956-1.987,5.433-2.74,9.4-1.257-3.3-3.919-11.044-2.965-15.15,1.234-5.309-2.46-19.256-2.46-19.582s-.334-7.761,2.328-13.443.916-8.142.916-8.142S442.984,283.431,445.67,285.232Z" transform="translate(-116.321 -46.819)" fill="url(#linear-gradient)"/>
    <path id="Path_1663" data-name="Path 1663" d="M461.652,458.541c-3.314,14.568-16.493-7.459-19.5-12.744-.388-.691-.605-1.094-.605-1.094l1.428-6.7,7.552-3.1a21.093,21.093,0,0,1,3.384,2.2C458.051,440.356,464.205,447.256,461.652,458.541Z" transform="translate(-123.036 -112.991)" fill="#d38884"/>
    <path id="Path_1664" data-name="Path 1664" d="M592.915,433.573a1.018,1.018,0,0,1-.085.326,1.653,1.653,0,0,1-.1.349c-1.3,4.548-8.98,30.153-16.4,23.043-8.118-7.761-4.176-25.705-4.176-25.705h.054l17.075-1.746,3.384,3.477h0Z" transform="translate(-152.06 -111.858)" fill="#d38884"/>
    <path id="Path_1665" data-name="Path 1665" d="M556.324,560.147l.435,48.9c-6.7,11.1-6.147,20.956-6.147,20.956l-22.073.869c-5.386-3.625-1.552-13.722-1.552-13.722V591.968s-3.407-24.6-1.762-31.41-6.915-19.4-6.915-19.4l-1.211-13.73c-4.176-5.487-6.155-35.8-6.155-35.8l-4.478-15.305c.124.66,2.453,13.435,0,15.787s-3.407,12.736-3.407,12.736,2.414,28.779,0,34.592.652,9.12.652,9.12l.442,29.873s-2.088,8.017.217,19.326,0,28.779,0,28.779H480.69l.109-12.193-3.834-10.323s-2.639-42.61-4.727-51.838a23.16,23.16,0,0,1,2.189-16.143s-4.385-7.024-4.168-11.968-3.384-14.374-3.384-14.374L461.768,475a67.414,67.414,0,0,0-2.53-19.768c-2.965-9.888-7.358-22.849-7.358-22.849l4.96.442,25.022,2.228s60.841-4.09,63.565-.691a11.418,11.418,0,0,1,1.149,3.547c2.732,12.271,6.341,50.712,6.341,50.712s7.358,29.982,4.2,32.947-2.771,12.62-2.771,12.62C559.079,543.3,556.324,560.147,556.324,560.147Z" transform="translate(-125.349 -112.426)" fill="#444053"/>
    <path id="Path_1666" data-name="Path 1666" d="M507.188,699.721c-.171,2.724-3.205,2.887-3.205,2.887-8.894,1.4-10.788,4.859-10.788,4.859a28.568,28.568,0,0,1-21.413,7.249c-10.943-1.056-9.88-3-9.314-6.613a13.675,13.675,0,0,0,.178-2.033c0-4.944,3.788-6.349,9.717-10.09s5.767-6.838,8.235-9.554,2.724-7.986,2.724-7.986c2.794-4.866,9.88.776,9.88.776.334,1.723,10.866,1.482,10.866,1.482s1.4,5.6,2.119,5.93c.473.217.83,4.61.97,8.382C507.234,696.989,507.25,698.782,507.188,699.721Z" transform="translate(-127.646 -167.068)" fill="#b07473"/>
    <path id="Path_1667" data-name="Path 1667" d="M507.188,705.076c-.171,2.724-3.205,2.887-3.205,2.887-8.894,1.4-10.788,4.859-10.788,4.859a28.568,28.568,0,0,1-21.413,7.249c-10.943-1.056-9.88-3-9.314-6.613,4.89,1.211,14.234,2.9,19.69-.062,7.583-4.113,13.023-6.985,13.023-6.985l11.983-6.031C507.234,702.344,507.25,704.136,507.188,705.076Z" transform="translate(-127.646 -172.423)" opacity="0.1"/>
    <path id="Path_1668" data-name="Path 1668" d="M593.393,715.288a4.734,4.734,0,0,1-2.732,2.259l-.21.054c-3.625.776-17.634.776-17.634.776s-14.164-10.951-18.449-11.2a9.01,9.01,0,0,1-6.589-3.958s.085-2.546.357-5.51c.334-3.508.916-7.583,1.948-8.654,1.894-1.979,2.328-4.657,6.589-2.965,0,0,6.085-10.726,13.256-2.437l7.42,11.254s1.4,4.657,10.8,9.709c3.757,2.018,5.433,4.393,5.906,6.558A5.782,5.782,0,0,1,593.393,715.288Z" transform="translate(-146.818 -167.975)" fill="#b07473"/>
    <path id="Path_1669" data-name="Path 1669" d="M593.393,720.249c-.838.706-1.762,1.467-2.732,2.259l-.21.054c-3.625.776-17.634.776-17.634.776s-14.164-10.951-18.449-11.2a9.01,9.01,0,0,1-6.589-3.958s.085-2.546.357-5.51c4.362,1.3,10.967,3.609,12.736,6.093,2.716,3.78,10.967,9.057,10.967,9.057s15.383-1.482,22.213-1.684A5.782,5.782,0,0,1,593.393,720.249Z" transform="translate(-146.818 -172.936)" opacity="0.1"/>
    <path id="Path_1670" data-name="Path 1670" d="M517.587,224.1,497.33,245.513s-24.549-1.808-20.265-9.057c2.181-3.694,2.522-11.425,2.328-18.146-.178-6.481-.846-12-.846-12s34.429-17.137,31.821-1.156a26.3,26.3,0,0,0-.093,9.12C511.743,222.346,517.587,224.1,517.587,224.1Z" transform="translate(-130.874 -60.032)" fill="#d38884"/>
    <path id="Path_1671" data-name="Path 1671" d="M510.91,205.154a26.3,26.3,0,0,0-.093,9.12,25.271,25.271,0,0,1-18.022,7.521c-4.657,0-9.694-3.826-13.458-6.038-.179-6.488-.217-9.446-.217-9.446S513.549,189.174,510.91,205.154Z" transform="translate(-131.447 -60.032)" opacity="0.1"/>
    <path id="Path_1672" data-name="Path 1672" d="M514.783,186.854a25.372,25.372,0,1,1-9.546-19.822A25.372,25.372,0,0,1,514.783,186.854Z" transform="translate(-128.07 -51.783)" fill="#d38884"/>
    <path id="Path_1673" data-name="Path 1673" d="M547.684,438.029c-6.318,15.034-46.956,15.344-46.956,15.344V436.981l-2.46-.163c1.063,4.7-1.49,16.144-1.49,16.144-32.116,4.533-39.948-13.769-39.948-13.769l1.118-6.263,25.022,2.228s60.841-4.09,63.565-.691a11.417,11.417,0,0,1,1.149,3.562Z" transform="translate(-126.457 -112.55)" opacity="0.1"/>
    <path id="Path_1674" data-name="Path 1674" d="M500.728,405.423V389.031l-2.46-.155c1.063,4.657-1.49,16.144-1.49,16.144-24.169,3.407-34.584-6.108-38.256-11.029a15.017,15.017,0,0,1-1.692-2.732l9.81-55.183,2.328-81.214,3.516-14.25.815-6.838V233.7h.085l2.5,1.071,14.956,6.465L507.83,228.4l.248-.179.846-.644,1.4,1.125,3.493,2.8,11.2,72.328s19.4,55.687,23.036,78.164c.147.9.264,1.739.357,2.522C550.812,405.043,500.728,405.423,500.728,405.423Z" transform="translate(-126.457 -66.578)" fill="#6c63ff"/>
    <circle id="Ellipse_359" data-name="Ellipse 359" cx="1.444" cy="1.444" r="1.444" transform="translate(364.756 174.809)" fill="#67647e"/>
    <circle id="Ellipse_360" data-name="Ellipse 360" cx="1.444" cy="1.444" r="1.444" transform="translate(365.423 187.988)" fill="#67647e"/>
    <circle id="Ellipse_361" data-name="Ellipse 361" cx="1.444" cy="1.444" r="1.444" transform="translate(366.867 209.324)" fill="#67647e"/>
    <circle id="Ellipse_362" data-name="Ellipse 362" cx="1.444" cy="1.444" r="1.444" transform="translate(369.25 232.305)" fill="#67647e"/>
    <circle id="Ellipse_363" data-name="Ellipse 363" cx="1.444" cy="1.444" r="1.444" transform="translate(370.693 253.881)" fill="#67647e"/>
    <circle id="Ellipse_364" data-name="Ellipse 364" cx="1.444" cy="1.444" r="1.444" transform="translate(372.137 276.863)" fill="#67647e"/>
    <circle id="Ellipse_365" data-name="Ellipse 365" cx="1.444" cy="1.444" r="1.444" transform="translate(371.563 299.596)" fill="#67647e"/>
    <path id="Path_1675" data-name="Path 1675" d="M474.26,345.8s-1.614,21.134-4.579,27.281-4.284,23.393-4.284,23.393l-6.884-.776a15.019,15.019,0,0,1-1.692-2.732l9.81-55.183,2.328-81.214,3.524-14.258.815-6.838.093-.039a2.779,2.779,0,0,1,2.453.039l.326.171q-.147.419-.279.862c-2.685,8.406-3.687,23.9-3.687,23.9s3.881,28.337,4.284,41.515S474.26,345.8,474.26,345.8Z" transform="translate(-126.455 -68.277)" opacity="0.1"/>
    <path id="Path_1676" data-name="Path 1676" d="M453.914,437.128a3.972,3.972,0,0,1-.264.512c-2.67,4.509-9.438,7.373-11.495,8.157-.388-.691-.605-1.094-.605-1.094l1.428-6.7,7.552-3.1A21.094,21.094,0,0,1,453.914,437.128Z" transform="translate(-123.036 -112.991)" opacity="0.1"/>
    <path id="Path_1677" data-name="Path 1677" d="M429.383,298.81l-6.263,3.733-5.7,25.372s-7.14,21.522-1.653,36.9,8.677,24.177,8.677,24.177,2.2,17.463,5.5,18.891,4.719,2.2,4.719,2.2l.66,4.176s8.941-3.035,12.1-8.382-2.328-18.627-2.328-18.627-4.719-11.316-3.508-16.586-2.422-19.108-2.422-19.4-.326-7.691,2.328-13.349.885-8.072.885-8.072l-1.653-16.144Z" transform="translate(-116.799 -82.524)" fill="#67647e"/>
    <path id="Path_1678" data-name="Path 1678" d="M562.8,387.467s-16.586,6.256-21.856.776-4.727-31.193-4.727-31.193-5.045-47.445-8.235-55.237-1.552-64.031-1.552-64.031-2.142-7.272-4.013-9.174a2.035,2.035,0,0,0-.4-.318l.644.14,2.251.481,3.493,2.8,11.2,72.328s19.4,55.688,23.036,78.164Z" transform="translate(-141.051 -66.737)" opacity="0.1"/>
    <path id="Path_1679" data-name="Path 1679" d="M593.187,434.228H593c-2.088.272-20.513,2.5-20.591-1.335a11.224,11.224,0,0,1,.07-1.327l17.075-1.746,3.384,3.477h0c.062.225.109.419.155.574Z" transform="translate(-152.331 -111.853)" opacity="0.1"/>
    <path id="Path_1680" data-name="Path 1680" d="M575.506,266.07l12.108,6.318s10.09,26.125,11.7,37.324c0,0,7.474,30.005,2.328,42.346s-4.719,36.835-4.719,36.835-2.965,4.5-4.176,3.3.442,4.719.442,4.719-20.7,2.747-20.785-1.319,4.75-23.5,4.75-23.5,1.319-46.234-.551-53.483S575.506,266.07,575.506,266.07Z" transform="translate(-152.331 -75.195)" fill="#67647e"/>
    <path id="Path_1681" data-name="Path 1681" d="M527,329.52s-6.814,16.687-9.011,17.789.442,5.487.442,5.487S530.841,335.45,527,329.52Z" transform="translate(-139.953 -89.399)" opacity="0.1"/>
    <path id="Path_1682" data-name="Path 1682" d="M521.544,254.1c.078-.318-8.126,8.048-10.323,9.314S519.239,263.333,521.544,254.1Z" transform="translate(-138.564 -72.513)" opacity="0.1"/>
    <path id="Path_1683" data-name="Path 1683" d="M492,327.82s-12.519,8.1-10.866,11.3S492,327.82,492,327.82Z" transform="translate(-131.865 -89.019)" opacity="0.1"/>
    <path id="Path_1684" data-name="Path 1684" d="M524.47,480.07s10.656,6.853,27.234,8.537Z" transform="translate(-141.599 -123.103)" opacity="0.1"/>
    <path id="Path_1685" data-name="Path 1685" d="M491.5,501.3s9.88,12.418,14.389,12.736S491.5,501.3,491.5,501.3Z" transform="translate(-134.218 -127.855)" opacity="0.1"/>
    <path id="Path_1686" data-name="Path 1686" d="M505.891,564c-.442.217-5.6,11.2-10.866,11.533S505.891,564,505.891,564Z" transform="translate(-134.771 -141.892)" opacity="0.1"/>
    <path id="Path_1687" data-name="Path 1687" d="M568.33,594.906s9.795-2.2,11.976,4.828C580.306,599.71,579.646,597.514,568.33,594.906Z" transform="translate(-151.418 -148.738)" opacity="0.1"/>
    <path id="Path_1688" data-name="Path 1688" d="M559.84,646.513s11.867-2.422,14.389.877S559.84,646.513,559.84,646.513Z" transform="translate(-149.517 -160.172)" opacity="0.1"/>
    <path id="Path_1689" data-name="Path 1689" d="M513.229,654c0,.109-12.077,2.422-11.642,3.958s12.884,1.319,13.326-1.1A2.328,2.328,0,0,0,513.229,654Z" transform="translate(-136.474 -162.04)" opacity="0.1"/>
    <path id="Path_1690" data-name="Path 1690" d="M554.75,667.219s19.846-2.422,18.627,1.754S554.75,667.219,554.75,667.219Z" transform="translate(-148.378 -164.843)" opacity="0.1"/>
    <path id="Path_1691" data-name="Path 1691" d="M420.89,352.44c.109.326,13.07,2.088,14.824,6.263,0,0-12.736-5.937-14.747-5.937" transform="translate(-118.411 -94.53)" opacity="0.1"/>
    <path id="Path_1692" data-name="Path 1692" d="M441.485,396.16s-10.765,3.407-10,8.537S430.394,402.322,441.485,396.16Z" transform="translate(-120.775 -104.318)" opacity="0.1"/>
    <path id="Path_1693" data-name="Path 1693" d="M437.92,428.538s3.919-5.379,7.653-4.393S437.92,428.538,437.92,428.538Z" transform="translate(-122.223 -110.556)" opacity="0.1"/>
    <path id="Path_1694" data-name="Path 1694" d="M505.247,167.031a6.108,6.108,0,0,1-1.257.939c-3.1,1.808-3.958,4.595-5.433,7.808-1.374,2.942-2.887,6.054-5.658,7.723-3.578,2.158-8.289,1.366-12.007,3.244a9.314,9.314,0,0,0-4.967,9.182,26.494,26.494,0,0,0,1.056,4.207,30,30,0,0,1,1.133,9.135,1.553,1.553,0,0,1,0,.272,25.364,25.364,0,1,1,27.165-42.509Z" transform="translate(-128.081 -51.782)" opacity="0.1"/>
    <path id="Path_1695" data-name="Path 1695" d="M500.934,155.148c-2.786-5.852-8.848-9.562-15.08-11.37-4.758-1.374-9.927-1.824-14.646-.31a53.722,53.722,0,0,0-7.66,3.593c-4.7,2.375-9.872,4.253-13.412,8.157a4.087,4.087,0,0,0-1.343,3.275,9.146,9.146,0,0,0,1.327,2.375,7.207,7.207,0,0,1,.07,5.968A54.74,54.74,0,0,0,448,172.572c-.481,1.995-.295,4.331,1.18,5.751a21.51,21.51,0,0,0,2.22,1.552,11.682,11.682,0,0,1,2.1,2.39l4.191,5.728a58.1,58.1,0,0,1,5.247,8.064,38.426,38.426,0,0,0,3.244,6.155c1.4,1.855,3.57,3.345,5.883,3.143a1.141,1.141,0,0,0,.931-.442,1.226,1.226,0,0,0,.116-.582,29.788,29.788,0,0,0-1.11-9.1,26.275,26.275,0,0,1-1.056-4.207,9.352,9.352,0,0,1,4.967-9.182c3.725-1.878,8.437-1.087,12.007-3.236,2.779-1.676,4.292-4.789,5.658-7.761,1.5-3.213,2.328-6,5.433-7.808S502.478,158.229,500.934,155.148Z" transform="translate(-124.427 -47.536)" fill="#585268"/>
    <path id="Path_1696" data-name="Path 1696" d="M501.63,693.06s3.881,4.944,2.872,7.761S501.63,693.06,501.63,693.06Z" transform="translate(-136.486 -170.784)" opacity="0.1"/>
    <path id="Path_1697" data-name="Path 1697" d="M569.28,707.045s.862-6.628,4.315-6.69,3.625-.357,6.263.66,5.115,2.592,4.323,2.825-4.54-3.787-8.39-1.731a27.723,27.723,0,0,0-6.512,4.936Z" transform="translate(-151.631 -172.398)" opacity="0.1"/>
    <path id="Path_1698" data-name="Path 1698" d="M483.791,251.319l10.866-7.614s-15.9-9.391-17.789-8.072-3.2,13.194-3.2,13.194Z" transform="translate(-130.227 -68.353)" opacity="0.1"/>
    <path id="Path_1699" data-name="Path 1699" d="M483.731,250.646l10.866-7.761s-15.9-9.391-17.789-8.072-3.2,13.846-3.2,13.846Z" transform="translate(-130.213 -68.169)" fill="#e1e7ef"/>
    <path id="Path_1700" data-name="Path 1700" d="M483.731,250.646l10.866-7.761s-15.9-9.391-17.789-8.072-3.2,13.846-3.2,13.846Z" transform="translate(-130.213 -68.169)" fill="#6c63ff"/>
    <path id="Path_1701" data-name="Path 1701" d="M467.887,234.794l-.326-.163a2.817,2.817,0,0,0-3.05.318l-32.6,26.443s-7.086,9.8-6.1,26.714l19.225,27.234s2.2-9.22,4.828-7.466c0,0,3.733,47.228,0,54.034s-5.379,32.287-5.379,32.287l12.628,1.428s1.319-17.246,4.284-23.393,4.579-27.281,4.579-27.281,2.67-30.7,2.227-43.883-4.284-41.515-4.284-41.515S465,242.944,467.887,234.794Z" transform="translate(-119.492 -68.088)" fill="#67647e"/>
    <path id="Path_1702" data-name="Path 1702" d="M517.984,244.894,504.44,239.88s17.246-18.891,19.4-8.413Z" transform="translate(-137.115 -66.74)" opacity="0.1"/>
    <path id="Path_1703" data-name="Path 1703" d="M517.984,244.044,504.44,239.03s17.246-18.891,19.4-8.413Z" transform="translate(-137.115 -66.55)" fill="#e1e7ef"/>
    <path id="Path_1704" data-name="Path 1704" d="M517.984,244.044,504.44,239.03s17.246-18.891,19.4-8.413Z" transform="translate(-137.115 -66.55)" fill="#6c63ff"/>
    <path id="Path_1705" data-name="Path 1705" d="M521.32,228.117a.776.776,0,0,1,.559.124Z" transform="translate(-140.894 -66.696)" opacity="0.1"/>
    <path id="Path_1706" data-name="Path 1706" d="M523,226.426l35.935,7.761s9.888,2.2,17.028,27.017-9.779,55.23-9.779,55.23l-3.733-3.174,1.87,72.483s-16.586,6.256-21.856.776-4.719-31.216-4.719-31.216-5.053-47.437-8.242-55.237-1.552-64.023-1.552-64.023S525.018,225.991,523,226.426Z" transform="translate(-141.27 -66.317)" fill="#67647e"/>
    <path id="Path_1707" data-name="Path 1707" d="M565.224,285.846c-.5.466-1.094,22.4,1.1,39.094a213.052,213.052,0,0,0,6.209,30.091l-3.26-66.879S566.761,284.418,565.224,285.846Z" transform="translate(-150.617 -79.549)" opacity="0.1"/>
    <path id="Path_1708" data-name="Path 1708" d="M559.7,261.6c.877.551,4.727,9.663,2.965,13.4S559.7,261.6,559.7,261.6Z" transform="translate(-149.486 -74.194)" opacity="0.1"/>
    <path id="Path_1709" data-name="Path 1709" d="M506.327,156.4a19.838,19.838,0,0,0-7.9-8.274,18.791,18.791,0,0,1,5.922,6.985c1.552,3.1,1.094,6.209-1.925,7.909s-3.958,4.595-5.433,7.808c-1.374,2.942-2.887,6.054-5.666,7.761-3.57,2.158-8.281,1.358-12.007,3.236a9.376,9.376,0,0,0-4.967,9.189,26.391,26.391,0,0,0,1.063,4.2,30.022,30.022,0,0,1,1.133,9.135,1.226,1.226,0,0,1-.124.582,1.11,1.11,0,0,1-.924.442,5.347,5.347,0,0,1-2.709-.5,6.3,6.3,0,0,0,4.657,1.824.916.916,0,0,0,1.04-1.025,29.78,29.78,0,0,0-1.125-9.135,25.5,25.5,0,0,1-1.063-4.207,9.352,9.352,0,0,1,4.967-9.182c3.725-1.878,8.437-1.087,12.007-3.236,2.779-1.676,4.292-4.789,5.658-7.761,1.5-3.213,2.328-6,5.433-7.808S507.879,159.485,506.327,156.4Z" transform="translate(-130.03 -48.792)" opacity="0.1"/>
    <path id="Path_1710" data-name="Path 1710" d="M757.231,259.017c-10.7-.21-20.133-7.761-25.48-16.99a17.074,17.074,0,0,1-2.577-7.272,8.4,8.4,0,0,1,.295-1.739,18.048,18.048,0,0,0,.776-2.662,4.658,4.658,0,0,0,0-1.087s0,0,0-.062c.256-1.964-.9-3.881-2.328-5.223s-3.221-2.328-4.711-3.663c-4.595-4.036-5.992-10.509-6.077-16.671v-.326c.054-2.639.264-5.285.241-7.924a33.324,33.324,0,0,0-.194-4.486c-.442-3.733-1.863-7.536-4.8-9.919-7.653-6.209-20.521.256-28.445-5.611-1.925-1.436-3.485-3.555-5.821-4.114-1.762-.427-3.594.147-5.317.722-5.836,1.925-12.348,4.455-14.63,10.09-1.3,3.236-.939,6.931-2.134,10.206-.776,2.2-2.259,4.082-3.337,6.162a9.648,9.648,0,0,0-1.242,5.146,5.806,5.806,0,0,0,.38,2.74,6.985,6.985,0,0,0,1.9,2.724,9.047,9.047,0,0,1-1.133,1.816c-1.49,1.824-3.78,3.1-5.332,4.921-2.872,3.33-2.763,7.854-1.35,11.766s3.966,7.474,5.728,11.285c.776,1.653,1.366,3.5.582,5.146a14.754,14.754,0,0,1-2.577,3,9.414,9.414,0,0,0-2.328,5.2c-17.471,3.989-17.486,18.03-17.486,18.03h0L620.4,293.95s-1.513,4-3.291,9.275l-11.169-2,7.761,12.992c-1.467,5.293-2.507,10.2-2.165,12.666,0,0-3.469,16.3,2.7,19.147l13.613,6.124a8.063,8.063,0,0,0,1.886.846l.551.248a1.459,1.459,0,0,0,1.273,0h.186a1.832,1.832,0,0,0,.776-.116,1.552,1.552,0,0,0,.683-.737.23.23,0,0,1,0-.078l4.075-1.18,3.454,4.09c1.552,1.094,3.1,2.041,4.571,2.895l-5.348,53.1s-.861,70.628-3.469,86.725a45.082,45.082,0,0,0-.605,12.791l-.1.171c.644,4.54,2.328,5.433,2.328,5.433v-.062a.506.506,0,0,0,.1.062,45.737,45.737,0,0,1,2.794-5.992v1.164c-.054,5.992-.241,14.382-.861,19.838-1.056,9.314,2.7,40.01,2.7,40.01l1.3,27.941a25.831,25.831,0,0,1-3.182,13.613c-3.1,5.58-7.07,13.435-7.358,16.92a3.512,3.512,0,0,0,0,.567h0l-6.659,8.01s-2.6,4.02,3.275,5.643c3.159.877,8.607,0,12.985-1.032a8.677,8.677,0,0,0,6.729-8.444,29.882,29.882,0,0,1,5.495-10.548l1.094,6.434,7.327,1.816.939-17.634a7.762,7.762,0,0,0,.5-3.1h0c1.444-12.542-3.4-11.417-3.4-11.417a.675.675,0,0,1,.233.435l-.233-.427h0c-2.973-5.868-1.552-15.523-1.552-15.523s3.881-27.941,5.208-35.322c.955-5.216.559-22.291.241-31.821a11.357,11.357,0,0,0-.039-1.156c11.363-.147,25.286-.528,35.058-1.475v1.149l-1.8,66.01a36.237,36.237,0,0,1-2.53,12.279.671.671,0,0,1-.085.225,53.552,53.552,0,0,0-3.578,17.3l-.838,20.956v.582h0c-1.459.559-3.764,2.181-3.826,6.884-.1,6.892,12.046,4.595,12.046,4.595,12.139,0,12.24-12.635,12.24-12.635s.38-11.588.962-19.341-1.832-6.046-1.832-6.046l-.186,22.058V609.689l.186-2.8v-.078h0v-.6l1.529-22.748s11.184-37.906,12.915-45.179c1.234-5.169.722-20.738.318-29.346a6.838,6.838,0,0,0-.062-1.141c3.469-.31,6.535-.342,7.761-.342h.567s-.574-60.88-2.026-83.822-3.756-43.937-9.539-50.255c-3.493-3.819-8.359-15.608-11.642-24.339a121.761,121.761,0,0,0,21.4,6.985c18.309,3.834,15.8-12.061,15.8-12.061L746.73,313.9h.124a153.268,153.268,0,0,0-2.018-23.5,69.144,69.144,0,0,0-4.719-17.075c1.987-.776,3.951-1.607,5.875-2.46,4.975-2.2,10.579-5.309,11.293-10.672h-.241a6.92,6.92,0,0,0,.186-1.18ZM643.738,302.48h0c.039,3.1-.078,8.491-.264,14.444l-5.813-7.761,5.829-9.453ZM721.63,318.243Zm2.422,11.743-9.686-3.1a43.46,43.46,0,0,1,5.984-7.4l.838-.776-.3.062.466-.427.279-.062-.442.427.528-.109a16.523,16.523,0,0,0,3.3,6.636c3.477,3.8-.955,4.758-.955,4.758Z" transform="translate(-159.838 -53.938)" fill="url(#linear-gradient-2)"/>
    <path id="Path_1711" data-name="Path 1711" d="M648.3,715.66l-1.133,21.483-7.226-1.808L638.42,726.4Z" transform="translate(-142.925 -160.212)" fill="#a27772"/>
    <path id="Path_1712" data-name="Path 1712" d="M648.3,715.66l-1.133,21.483-7.226-1.808L638.42,726.4Z" transform="translate(-142.925 -160.212)" opacity="0.1"/>
    <path id="Path_1713" data-name="Path 1713" d="M716.48,727.615,727.5,729.9l8.173-7.218V702.336l.186-2.779v-.085h0v-.59l1.521-22.609s11.029-37.635,12.744-44.86c1.211-5.122.706-20.583.3-29.128-.163-3.5-.3-5.844-.3-5.844l-24.332-5.891-.512,18.7L723.5,674.791a36.317,36.317,0,0,1-2.491,12.193l-.085.225a53.337,53.337,0,0,0-3.531,17.168l-.823,20.839v.574Z" transform="translate(-184.584 -147.836)" fill="#cc818c"/>
    <path id="Path_1714" data-name="Path 1714" d="M741.45,730.146v.574h0v-.59Z" transform="translate(-190.174 -179.083)" opacity="0.1"/>
    <path id="Path_1715" data-name="Path 1715" d="M716.48,765.227l11.021,2.282,8.173-7.218V758.56a2.328,2.328,0,0,1-1.172,1.863l-.117.07a21.964,21.964,0,0,1-12.372,2.445l-4.3-.365a4.028,4.028,0,0,0-1.141.279v.574Z" transform="translate(-184.584 -185.448)" opacity="0.1"/>
    <path id="Path_1716" data-name="Path 1716" d="M733.315,754.819l.116-.062a2.328,2.328,0,0,0,1.188-2.018l.179-21.895s2.375-1.7,1.8,6-.947,19.2-.947,19.2-.093,12.542-12.069,12.542c0,0-11.976,2.282-11.883-4.564s4.944-7.125,4.944-7.125l4.3.373A21.91,21.91,0,0,0,733.315,754.819Z" transform="translate(-183.514 -179.207)" fill="#b07473"/>
    <path id="Path_1717" data-name="Path 1717" d="M642.52,725.027c.279,4.944,14.824,2.088,14.824,2.088l9.787-19s8.173-6.279,4.083-11.789a8.8,8.8,0,0,1-.6-.939l-.039-.047h0c-.085-.14-.163-.287-.241-.442h0c-2.934-5.821-1.49-15.367-1.49-15.367s3.8-27.754,5.13-35.073c.939-5.169.551-22.128.241-31.612-.124-3.943-.241-6.589-.241-6.589l-24.145-6.465v7.2c-.054,5.953-.241,14.281-.854,19.7-1.04,9.213,2.662,39.722,2.662,39.722l1.281,27.762a25.713,25.713,0,0,1-3.1,13.512c-3.027,5.542-6.985,13.349-7.257,16.8a3.4,3.4,0,0,0-.039.535Z" transform="translate(-168.027 -149.904)" fill="#cc818c"/>
    <path id="Path_1718" data-name="Path 1718" d="M642.518,752.6c.279,4.944,14.824,2.088,14.824,2.088l9.787-19s8.173-6.279,4.082-11.789a8.8,8.8,0,0,1-.6-.939c-.132,2.88-3.291,10.09-3.291,10.09s-8.08,16.167-10.649,19.869-13.73-.691-14.149-.846a3.4,3.4,0,0,0-.008.528Z" transform="translate(-168.025 -177.478)" opacity="0.1"/>
    <path id="Path_1719" data-name="Path 1719" d="M668.254,722.293s4.781-1.11,3.353,11.339h0a8.017,8.017,0,0,1-3.78,7.117c-3.423,2.15-8.7,6.776-11.37,15.771h0a8.6,8.6,0,0,1-6.636,8.382c-4.315,1.009-9.694,1.894-12.806,1.024-5.8-1.614-3.229-5.6-3.229-5.6l6.651-7.893s11.6,4.564,14.157.854,10.649-19.861,10.649-19.861S669.675,723.34,668.254,722.293Z" transform="translate(-165.945 -177.323)" fill="#b07473"/>
    <path id="Path_1720" data-name="Path 1720" d="M728.332,593.52l-.512,18.7c6.481-.629,11.122-1.506,11.914-2.74,1.715-2.654,7.94-3.772,13.233-4.23-.163-3.5-.3-5.844-.3-5.844Z" transform="translate(-187.123 -148.501)" opacity="0.1"/>
    <path id="Path_1721" data-name="Path 1721" d="M651.94,609.922a8.879,8.879,0,0,1,2.662-3.213c2.561-1.42,2.282,9.127,2.282,9.127s8.537.078,19.442-.062c-.124-3.943-.241-6.6-.241-6.6L651.94,602.72S651.987,605.716,651.94,609.922Z" transform="translate(-170.136 -150.56)" opacity="0.1"/>
    <path id="Path_1722" data-name="Path 1722" d="M647.664,564.391s2.856-7.761,5.433-9.143,2.282,9.12,2.282,9.12,62.727.574,65.863-4.276,21.382-4.564,21.382-4.564-.567-60.445-1.995-83.248-3.7-43.626-9.407-49.9c-3.687-4.059-8.933-17.191-12.178-25.946-1.762-4.781-2.934-8.266-2.934-8.266l-59.871,3.415-.489,4.851L649.4,460.016s-.854,70.139-3.423,86.1S647.664,564.391,647.664,564.391Z" transform="translate(-168.615 -102.529)" fill="#444053"/>
    <g id="Group_63" data-name="Group 63" transform="translate(476.604 285.641)" opacity="0.1">
      <path id="Path_1723" data-name="Path 1723" d="M720.33,560.091c3.1-4.843,21.382-4.564,21.382-4.564s-.567-60.445-1.995-83.248-3.7-43.626-9.407-49.9c-3.7-4.075-8.933-17.191-12.177-25.946-1.482-4.02-2.546-7.117-2.841-8l4.657-.264s1.172,3.485,2.942,8.266c3.244,8.755,8.483,21.887,12.17,25.946,5.7,6.271,7.986,27.087,9.407,49.9s2,83.248,2,83.248-18.247-.279-21.39,4.564c-2.678,4.137-48.834,4.331-62.23,4.292C680.041,564.344,717.909,563.832,720.33,560.091Z" transform="translate(-649.182 -388.17)"/>
      <path id="Path_1724" data-name="Path 1724" d="M648.244,603.4c1.156-.644,1.731,1.141,2.018,3.306a44.771,44.771,0,0,0-2.693,5.836s-1.653-.893-2.328-5.433C646.187,605.489,647.235,603.96,648.244,603.4Z" transform="translate(-645.24 -436.324)"/>
    </g>
    <path id="Path_1725" data-name="Path 1725" d="M668.786,197.266c-4.145,5.65.047,13.683-4.4,19.178-1.467,1.816-3.725,3.1-5.254,4.89-2.833,3.306-2.724,7.8-1.335,11.681s3.881,7.42,5.65,11.207c.776,1.638,1.35,3.477.574,5.107a14.465,14.465,0,0,1-2.546,2.973c-2.856,3.19-2.934,7.622-1.4,11.378s4.471,6.985,7.366,10.167c1.141,1.25,2.585,2.631,4.486,2.592a6.209,6.209,0,0,0,2.817-.924,28.717,28.717,0,0,0,13.07-37.479c-2.406-5.767-6.419-11.293-6.457-17.385,0-4.835,2.484-9.453,2.926-14.265.536-5.852-2.926-15.142-9.989-17.7C674.762,192.446,670.889,194.364,668.786,197.266Z" transform="translate(-171.234 -57.872)" fill="#585268"/>
    <path id="Path_1726" data-name="Path 1726" d="M668.786,197.266c-4.145,5.65.047,13.683-4.4,19.178-1.467,1.816-3.725,3.1-5.254,4.89-2.833,3.306-2.724,7.8-1.335,11.681s3.881,7.42,5.65,11.207c.776,1.638,1.35,3.477.574,5.107a14.465,14.465,0,0,1-2.546,2.973c-2.856,3.19-2.934,7.622-1.4,11.378s4.471,6.985,7.366,10.167c1.141,1.25,2.585,2.631,4.486,2.592a6.209,6.209,0,0,0,2.817-.924,28.717,28.717,0,0,0,13.07-37.479c-2.406-5.767-6.419-11.293-6.457-17.385,0-4.835,2.484-9.453,2.926-14.265.536-5.852-2.926-15.142-9.989-17.7C674.762,192.446,670.889,194.364,668.786,197.266Z" transform="translate(-171.234 -57.872)" opacity="0.1"/>
    <path id="Path_1727" data-name="Path 1727" d="M718.331,464.55c-8.3.435-16.1,4-23.369,8.041s-14.3,8.607-22.112,11.471" transform="translate(-174.817 -119.628)" opacity="0.1"/>
    <path id="Path_1728" data-name="Path 1728" d="M713.576,489.74a34.2,34.2,0,0,0-21.538,10.478c-2.018,2.134-3.756,4.525-5.86,6.574a26.032,26.032,0,0,1-11.549,6.543" transform="translate(-175.215 -125.268)" opacity="0.1"/>
    <path id="Path_1729" data-name="Path 1729" d="M713.454,508.91a37.657,37.657,0,0,0-17.323,10.447c-1.273,1.374-2.429,2.841-3.7,4.214-6.869,7.373-16.57,11.285-25.938,14.987" transform="translate(-173.393 -129.559)" opacity="0.1"/>
    <path id="Path_1730" data-name="Path 1730" d="M716.591,242.944a170.307,170.307,0,0,0,1.708,19.807c.776,4.657,1.863,8.848,3.423,10.7,4.564,5.433-22.236,12.69-22.236,12.69L683.66,273.881s12.542-11.549,6.7-22.811S716.591,242.944,716.591,242.944Z" transform="translate(-177.237 -69.928)" fill="#cc818c"/>
    <path id="Path_1731" data-name="Path 1731" d="M658.79,396.436h63.294c-1.762-4.781-2.934-8.266-2.934-8.266l-59.871,3.415Z" transform="translate(-171.669 -102.529)" opacity="0.1"/>
    <path id="Path_1732" data-name="Path 1732" d="M649.976,369.342h67.671c-1.9-6.807,0-13.1,2.709-17.944a39.659,39.659,0,0,1,7.086-9.189l.466-.427,23.625-5.231,1.273-.279s.194-42.959-15.018-48.858a88.935,88.935,0,0,1-24.332-13.869L692.555,280l-15.4-7.761c-4.944,5.316-18.061,3.229-18.061,3.229C637.62,277.937,637.62,294.1,637.62,294.1s12.542,29.268,13.5,29.268S649.976,369.342,649.976,369.342Z" transform="translate(-166.93 -76.576)" fill="#6c63ff"/>
    <path id="Path_1733" data-name="Path 1733" d="M678.305,359.736s-13.8-3.058-18.5-8.406" transform="translate(-171.897 -94.282)" opacity="0.1"/>
    <path id="Path_1734" data-name="Path 1734" d="M768.674,341.51l-16,13.117a27.25,27.25,0,0,0,.528,3.1l.466-.427,23.625-5.231Z" transform="translate(-192.686 -92.084)" opacity="0.1"/>
    <path id="Path_1735" data-name="Path 1735" d="M717.46,386.1s3.5,1.971,8.863,4.564h9.2c-1.9-6.807,0-13.1,2.709-17.944l-16.213-5.247C727.534,372.6,717.46,386.1,717.46,386.1Z" transform="translate(-184.803 -97.895)" opacity="0.1"/>
    <path id="Path_1736" data-name="Path 1736" d="M641.635,293.76l-9.5,5.13-9.314,23.571s-9.694,25.845-8.747,32.691c0,0-3.415,16.159,2.662,19.007l15.833,7.171a1.475,1.475,0,0,0,1.9-2.033c-2.259-4.276-4.742-10.967-.776-14.646l-4.564-9.5,16.493-26.994,5.511-9.314Z" transform="translate(-161.445 -81.394)" fill="#6c63ff"/>
    <path id="Path_1737" data-name="Path 1737" d="M677.054,353.321c.823,3.353,3.6,8.537,12.8,10.47l10.09,8.266,10.734,4.866,4.377,1.979,1.855-13.4-4.214-2.328-4.913-2.685S696.7,340.406,679.15,348.843a3.881,3.881,0,0,0-2.1,4.478Z" transform="translate(-175.73 -93.262)" opacity="0.1"/>
    <path id="Path_1738" data-name="Path 1738" d="M677.8,351.864c.823,3.361,3.594,8.537,12.791,10.47l10.09,8.266,10.742,4.866,4.37,1.979,1.855-13.4-4.214-2.328-4.874-2.662s-11.091-20.079-28.639-11.6a3.881,3.881,0,0,0-2.119,4.416Z" transform="translate(-175.901 -92.946)" fill="#cc818c"/>
    <circle id="Ellipse_366" data-name="Ellipse 366" cx="24.518" cy="24.518" r="24.518" transform="translate(497.156 141.366)" opacity="0.1"/>
    <circle id="Ellipse_367" data-name="Ellipse 367" cx="24.518" cy="24.518" r="24.518" transform="translate(497.156 140.799)" fill="#cc818c"/>
    <path id="Path_1739" data-name="Path 1739" d="M720.753,293.415l-7.373-14.327s10.788-4.362,11.572-9.414,10.338,5.922,8.274,9.562S720.753,293.415,720.753,293.415Z" transform="translate(-183.89 -75.709)" opacity="0.1"/>
    <path id="Path_1740" data-name="Path 1740" d="M720.753,291.945l-7.373-14.327s10.788-4.362,11.572-9.414,10.338,5.93,8.274,9.562S720.753,291.945,720.753,291.945Z" transform="translate(-183.89 -75.38)" fill="#6c63ff"/>
    <path id="Path_1741" data-name="Path 1741" d="M636.65,345.324,677.389,400.1s-15.018,8.173-35.7-6.457l-8.933-10.649L607.25,340Z" transform="translate(-160.131 -91.746)" fill="#f6f8fb"/>
    <path id="Path_1742" data-name="Path 1742" d="M634.525,381.16l3.71-.1s22.663-22,28.228-10.866-14.118,21.53-14.118,21.53l-5.984,3.229-7.8,2.328-4.991-6.7Z" transform="translate(-166.023 -97.801)" fill="#cc818c"/>
    <path id="Path_1743" data-name="Path 1743" d="M638.516,396.44a5.537,5.537,0,0,1,.093,3.834,1.552,1.552,0,0,1-.675.737,1.731,1.731,0,0,1-.776.109,7.8,7.8,0,0,1-5.115-2.53,23.357,23.357,0,0,1-3.314-4.8c-1.009-1.762-2.057-3.71-1.7-5.712.4-2.181,2.328-3.694,4.214-4.921,3.756-2.484,3.881.411,4.7,3.609S637.655,393.211,638.516,396.44Z" transform="translate(-164.543 -101.198)" opacity="0.1"/>
    <path id="Path_1744" data-name="Path 1744" d="M637.785,396.44a5.582,5.582,0,0,1,.093,3.834,1.552,1.552,0,0,1-.675.737,1.746,1.746,0,0,1-.776.109,7.761,7.761,0,0,1-5.115-2.53,23.091,23.091,0,0,1-3.322-4.8c-1.009-1.762-2.057-3.71-1.692-5.712.4-2.181,2.328-3.694,4.207-4.921,3.764-2.484,3.881.411,4.711,3.609S636.916,393.211,637.785,396.44Z" transform="translate(-164.379 -101.198)" fill="#6c63ff"/>
    <path id="Path_1745" data-name="Path 1745" d="M623.85,317.015l1.894-3.205-1.653,5.953Z" transform="translate(-139.663 -70.251)" opacity="0.1"/>
    <path id="Path_1746" data-name="Path 1746" d="M721.19,380.183l4.37,1.979,1.855-13.4L723.2,366.43C726.111,369.767,723.565,375.938,721.19,380.183Z" transform="translate(-185.638 -97.662)" opacity="0.1"/>
    <path id="Path_1747" data-name="Path 1747" d="M737.992,363.238s-14.11.862-20.1-2.988" transform="translate(-184.9 -96.279)" opacity="0.1"/>
    <g id="Group_64" data-name="Group 64" transform="translate(491.265 196.781)" opacity="0.1">
      <path id="Path_1748" data-name="Path 1748" d="M739.717,353.244a39.724,39.724,0,0,1,7.086-9.2,18.931,18.931,0,0,1,2.088-1.133l22-4.517,1.273-.279s.194-42.959-15.01-48.858A91.367,91.367,0,0,1,733.43,275.9l1.669-.512a88.7,88.7,0,0,0,24.332,13.869c15.212,5.891,15.01,48.858,15.01,48.858h-2.282l-22.508,4.308s-.97.939-1.265,1.211a43.622,43.622,0,0,0-7.195,9.515,23.858,23.858,0,0,0-1.886,18.037h-2.328C735.1,364.381,737.039,358.087,739.717,353.244Z" transform="translate(-679.644 -274.063)"/>
      <path id="Path_1749" data-name="Path 1749" d="M664.13,277.957c.365-.054.714-.109,1.094-.147a39.349,39.349,0,0,0,4.657.38,42.325,42.325,0,0,1-5.751-.233Z" transform="translate(-664.13 -274.605)"/>
      <path id="Path_1750" data-name="Path 1750" d="M701.684,281.465l-13.924-7.047a7.36,7.36,0,0,0,.776-.737l14.529,7.35Z" transform="translate(-669.42 -273.68)"/>
    </g>
    <path id="Path_1751" data-name="Path 1751" d="M761.506,340l9.314,11.409,1.9,30.983s2.468,15.771-15.585,11.968-38.946-15.554-38.946-15.554,10.09-13.5,4.564-18.627l25.853,8.367s4.37-.955.947-4.75-4.028-10.649-4.028-10.649Z" transform="translate(-184.967 -91.746)" fill="#6c63ff"/>
    <path id="Path_1752" data-name="Path 1752" d="M779.42,382.17l5.13,5.891a7.4,7.4,0,0,1-5.13-5.891Z" transform="translate(-198.674 -101.186)" opacity="0.1"/>
    <path id="Path_1753" data-name="Path 1753" d="M736.99,360.8l7.986,10.26-3.989.955Z" transform="translate(-164.991 -80.771)" opacity="0.1"/>
    <path id="Path_1754" data-name="Path 1754" d="M665.464,208.878c-.877-2.15-.2-4.657.854-6.682s2.507-3.943,3.3-6.124c1.172-3.244.815-6.915,2.1-10.09,2.259-5.627,8.677-8.142,14.428-10.09a9.7,9.7,0,0,1,5.247-.714c2.328.551,3.842,2.662,5.743,4.082,7.808,5.821,20.505-.59,28.057,5.573,2.887,2.328,4.292,6.139,4.727,9.841s0,7.459-.047,11.192c-.124,6.535,1.1,13.683,5.992,18.014,1.475,1.3,3.213,2.282,4.657,3.632a6.359,6.359,0,0,1,2.328,5.192,18,18,0,0,1-.776,2.639c-.97,3.407.481,6.985,2.251,10.09,5.278,9.135,14.583,16.664,25.131,16.873-.706,5.324-6.209,8.413-11.137,10.594-6.209,2.786-12.822,5.518-19.659,5.169s-13.97-4.727-15.166-11.463c-.411-2.328-.357-5.13-2.328-6.341-1.211-.737-2.779-.551-4.082-1.1-1.886-.776-2.817-2.895-3.438-4.843a43.59,43.59,0,0,1-2.026-12.418c-.085-5,.574-10.454-2.259-14.568-2.623-3.811-7.28-5.743-10.307-9.244-2.794-3.244-5.829-7.156-10.408-7.761C682.306,209.437,669.2,218.044,665.464,208.878Z" transform="translate(-173.073 -54.815)" opacity="0.1"/>
    <path id="Path_1755" data-name="Path 1755" d="M665.464,207.408c-.877-2.15-.2-4.657.854-6.682s2.507-3.943,3.3-6.124c1.172-3.244.815-6.915,2.1-10.09,2.259-5.635,8.677-8.149,14.428-10.09a9.7,9.7,0,0,1,5.247-.714c2.328.551,3.842,2.662,5.743,4.082,7.808,5.821,20.505-.59,28.057,5.573,2.887,2.328,4.292,6.139,4.727,9.849s0,7.451-.047,11.184c-.124,6.535,1.1,13.683,5.992,18.014,1.475,1.3,3.213,2.282,4.657,3.632a6.359,6.359,0,0,1,2.328,5.192,18,18,0,0,1-.776,2.639c-.97,3.407.481,6.985,2.251,10.09,5.293,9.1,14.56,16.656,25.108,16.865-.706,5.324-6.209,8.413-11.138,10.6-6.209,2.779-12.822,5.511-19.659,5.161s-13.97-4.727-15.166-11.463c-.411-2.328-.357-5.13-2.328-6.341-1.211-.737-2.779-.551-4.082-1.1-1.886-.776-2.817-2.895-3.438-4.843a43.544,43.544,0,0,1-2.026-12.418c-.085-5,.574-10.454-2.259-14.568-2.623-3.811-7.28-5.743-10.307-9.244-2.794-3.244-5.829-7.156-10.408-7.761C682.306,207.967,669.2,216.589,665.464,207.408Z" transform="translate(-173.073 -54.486)" fill="#585268"/>
    <path id="Path_1756" data-name="Path 1756" d="M686.6,291.843l14.056-11.409s-9.624-5.216-10.773-9.663-8.848,2.111-8.064,6.1S686.6,291.843,686.6,291.843Z" transform="translate(-176.813 -75.914)" opacity="0.1"/>
    <path id="Path_1757" data-name="Path 1757" d="M687.328,289.635l14.056-11.4s-9.624-5.216-10.726-9.663-8.848,2.111-8.064,6.1S687.328,289.635,687.328,289.635Z" transform="translate(-176.986 -75.422)" fill="#6c63ff"/>
    <circle id="Ellipse_368" data-name="Ellipse 368" cx="1.118" cy="1.118" r="1.118" transform="translate(523.832 211.241)" opacity="0.1"/>
    <circle id="Ellipse_369" data-name="Ellipse 369" cx="1.118" cy="1.118" r="1.118" transform="translate(523.832 217.45)" opacity="0.1"/>
    <circle id="Ellipse_370" data-name="Ellipse 370" cx="1.118" cy="1.118" r="1.118" transform="translate(523.832 223.651)" opacity="0.1"/>
    <g id="Group_65" data-name="Group 65" transform="translate(492.164 127.527)" opacity="0.1">
      <path id="Path_1758" data-name="Path 1758" d="M672.469,194c1.11-3.05.869-6.473,1.909-9.546a10.43,10.43,0,0,0-1.187,2.189c-1.288,3.205-.924,6.877-2.1,10.09l-.078.186A17.736,17.736,0,0,0,672.469,194Z" transform="translate(-666.569 -184.45)"/>
      <path id="Path_1759" data-name="Path 1759" d="M759.861,275.753c-6.209,2.779-12.822,5.511-19.659,5.161s-13.97-4.727-15.166-11.456c-.411-2.328-.357-5.138-2.328-6.349-1.211-.737-2.779-.551-4.082-1.1-1.886-.776-2.817-2.895-3.438-4.843a43.542,43.542,0,0,1-2.026-12.418c-.085-4.991.582-10.447-2.251-14.568-2.631-3.811-7.288-5.736-10.315-9.244-2.794-3.236-5.829-7.156-10.408-7.761-6.279-.854-19.4,7.761-23.113-1.413a7.218,7.218,0,0,1,.241-5.3c-.272.458-.535.916-.776,1.382-1.056,2.065-1.723,4.54-.846,6.69,3.733,9.158,16.834.551,23.113,1.413,4.579.621,7.614,4.54,10.408,7.761,3.027,3.508,7.684,5.433,10.307,9.251,2.841,4.114,2.173,9.57,2.259,14.56a43.544,43.544,0,0,0,2.026,12.418c.621,1.956,1.552,4.051,3.438,4.843,1.3.551,2.872.373,4.082,1.1,2,1.211,1.948,4.044,2.328,6.349,1.211,6.729,8.336,11.106,15.166,11.456s13.412-2.375,19.659-5.161c4.5-2,9.515-4.773,10.866-9.314C767.188,272.16,763.369,274.193,759.861,275.753Z" transform="translate(-665.288 -189.377)"/>
    </g>
    <path id="Path_1760" data-name="Path 1760" d="M920.964,327.03c-16.431-9.453-22.64-11.782-22.671-11.782l-.341-.241a13.668,13.668,0,0,1-4.137-5.231,10.917,10.917,0,0,1,0-1.125.469.469,0,0,0,0,.109c.256-5.006,3.819-9.562,7.195-13.536l8.638-10.16a10.012,10.012,0,0,0,2.228-3.524,8.131,8.131,0,0,0,.233-2.165q0-.442,0-.885c-.047-2.522-.116-5.053-.21-7.575-.078-2.2-.644-4.983-2.848-5.433-1.149-.233-2.67.179-3.275-.776a1.886,1.886,0,0,1-.147-1.312.45.45,0,0,0,0,.109v-.124a29.231,29.231,0,0,0,.815-5.192,7.078,7.078,0,0,0-.357-2.631c-1.273-3.656-5.674-5.161-9.562-5.852s-8.25-1.281-10.687-4.323a31.621,31.621,0,0,0-2.127-2.926,8.39,8.39,0,0,0-3.974-1.964,22.508,22.508,0,0,0-14.459,1.257c-1.878.838-3.764,1.971-5.829,1.847s-3.974-1.614-6.085-1.971c-3.415-.582-6.682,1.925-8.367,4.9a11.976,11.976,0,0,0-1.552,5.774v.341h0a8.445,8.445,0,0,0,2.22,5.9c1.475,1.552,3.663,2.577,4.276,4.587.248.815.186,1.7.411,2.53a2.27,2.27,0,0,0,.093.3l-.109.147A25.612,25.612,0,0,0,844.9,281.89a26.2,26.2,0,0,0,18.41,24.836c0,.256,0,.512,0,.776a11.166,11.166,0,0,1-3.57,8.693l-23.276,9.3s-14.032-1.669-19.093,18.837a34.965,34.965,0,0,0-.869,10.4c.186,3.1-.241,8.537-3.881,15.577-5.751,11.269-4.439,37.138,7.327,39.7,11.106,2.422,15.453,1.413,15.911,1.3v.45c-.186,4.859-1.948,46.723-8.351,51.784-1.77,1.4-1.444,2.328,0,2.988,0,0,0,.272-.039.776-.194,3.1-1.18,14.746-5.433,21.359-4.975,7.684-4.455,52-4.455,52l-3.392,26.125s2.088,16.136,0,18.953c-1.87,2.507-4.354,62.2-4.874,75.145H809.1a6.3,6.3,0,0,0-5.029,3.1C801.323,668.451,791.7,676.7,791.7,676.7c-2.088,2.965-9.81,5.805-13.893,7.14a8.627,8.627,0,0,0-1.552.683,8.281,8.281,0,0,0-3.508,3.694,3.966,3.966,0,0,0-.373,3.1c1.04,2.553,22.748,4.354,28.243,1.785,4.315-2.01,21.421-4.657,28.523-5.7a5.852,5.852,0,0,0,5.076-5.076,3.345,3.345,0,0,0-.652-2.538h0c-1.358-1.684-2.049-6.287-2.328-9.314a6.3,6.3,0,0,0,1.6-.947,68.184,68.184,0,0,1,3.881-27.405c5.231-13.831,6.8-39.443,5.495-56.091,0,0,15.95-68.641,28.507-75.044h0c.194.248,6.287,8.064,7.063,32.272.776,24.588,9.671,40.724,9.671,40.724s-3.927,41.748,0,57.372l-5.13,24.642c-.38-.318-.621-.567-.621-.567s.155.683.365,1.777l-.109.528.225.047c.582,3.1,1.444,8.452,1.087,11.642-.2,1.793-.706,4.253-1.048,6.667-.543,3.8-.691,7.474,1.3,8.281,3.275,1.319,22.508,3.1,25.768-1.118a6.046,6.046,0,0,0,.947-6.325,6.4,6.4,0,0,0-.947-1.614s-5.107-8.343-3.663-14.227a4.331,4.331,0,0,0-.613-3.376c.225-2.887,1.389-16.252,4.4-27.6,3.275-12.325,10.175-39.35,5.1-57.116h0q-.287-1.048-.652-2.049a76.712,76.712,0,0,1-2.879-29.966,61.076,61.076,0,0,1,0-26.125c3.143-14.343,5.34-28.43,5.34-28.43s1.731-18.953.217-30.572a7.63,7.63,0,0,0-.1-.776l.823-.186s-4.447-19.722-6.015-32.272c-.373-2.965-.854-6.714-1.382-10.718a27.358,27.358,0,0,0,4.261-1.063c14.118-4.866,18.565-48.9,18.565-48.9v-13.97S937.441,336.507,920.964,327.03ZM815.752,667.162c-.435-.217-.691-.365-.691-.365h0Z" transform="translate(-197.061 -69.322)" fill="url(#linear-gradient-3)"/>
    <path id="Path_1761" data-name="Path 1761" d="M923.431,643.607c6.124,17.61-1.025,46.2-4.346,58.986s-4.339,28.08-4.339,28.08a59.136,59.136,0,0,1-22.461-.512l5.363-26.288c-3.834-15.569,0-57.178,0-57.178s-8.677-16.081-9.445-40.584c-.776-24.114-6.7-31.915-6.884-32.155h0c-12.247,6.38-27.817,74.788-27.817,74.788,1.273,16.586-.264,42.113-5.363,55.882a69.076,69.076,0,0,0-3.826,27.3c-1.785,1.552-4.269,1.77-6.985,1.335-7.288-1.18-16.027-7.459-16.027-7.459s2.8-74.509,4.851-77.334,0-18.891,0-18.891l3.314-26.031s-.512-44.162,4.339-51.815c4.191-6.613,5.154-18.239,5.34-21.289v-.776l7.389-8.848s71.466-5.363,76.837,0c1.312,1.312,2.127,4.307,2.608,8.072,1.475,11.58-.217,30.463-.217,30.463s-2.142,14.04-5.208,28.329a62.185,62.185,0,0,0,0,26.039A77.946,77.946,0,0,0,923.431,643.607Z" transform="translate(-208.05 -131.692)" fill="#65617d"/>
    <path id="Path_1762" data-name="Path 1762" d="M939.357,814.806c-3.19,4.214-21.949,2.429-25.147,1.118-1.948-.776-1.8-4.478-1.273-8.258.334-2.4.823-4.851,1.025-6.636.5-4.595-1.552-13.916-1.552-13.916s4.207,4.471,5.223,0a4.868,4.868,0,0,1,3.648-3.462,9.531,9.531,0,0,1,6.628.411c3.314,1.444,8.84,4.509,7.854,8.654-1.4,5.86,3.57,14.18,3.57,14.18a6.459,6.459,0,0,1,.931,1.6,6.124,6.124,0,0,1-.908,6.31Z" transform="translate(-228.447 -190.974)" fill="#a27772"/>
    <path id="Path_1763" data-name="Path 1763" d="M939.411,821.85c-3.19,4.214-21.949,2.429-25.147,1.118-1.948-.776-1.8-4.478-1.273-8.258,2.018.947,5.433,1.731,11.153,1.2a31.451,31.451,0,0,1,4.013-.124,93.316,93.316,0,0,0,12.185-.248A6.124,6.124,0,0,1,939.411,821.85Z" transform="translate(-228.5 -198.018)" opacity="0.1"/>
    <path id="Path_1764" data-name="Path 1764" d="M858.115,663.3c1.273,16.586-.264,42.113-5.363,55.882a69.076,69.076,0,0,0-3.826,27.3c-1.785,1.552-4.269,1.77-6.985,1.335,1.552-10.765,8.1-57.147,12.3-93.8,4.789-41.733,27.165-70.442,27.165-70.442l4.463,4.913C873.684,594.888,858.115,663.3,858.115,663.3Z" transform="translate(-212.671 -146.275)" opacity="0.1"/>
    <path id="Path_1765" data-name="Path 1765" d="M922.256,331.816l-3.1,15.313L903.885,372.78l-18.821-8.041s-25.612-26.8-9.508-30.626a14.25,14.25,0,0,0,5.34-2.375c3.159-2.383,4.152-5.844,4.168-9.236a28.314,28.314,0,0,0-2.592-10.975L915.4,301.19a52.855,52.855,0,0,0-2.328,13.334c-.256,8.972,3.1,13.388,5.813,15.523A9.888,9.888,0,0,0,922.256,331.816Z" transform="translate(-219.006 -83.057)" fill="#fbbebe"/>
    <path id="Path_1766" data-name="Path 1766" d="M918.892,301.19a52.844,52.844,0,0,0-2.328,13.334,25.06,25.06,0,0,1-1.917,2.041,26.047,26.047,0,0,1-26.031,5.937A28.313,28.313,0,0,0,886,311.528Z" transform="translate(-222.534 -83.057)" opacity="0.1"/>
    <path id="Path_1767" data-name="Path 1767" d="M918.229,288.251a25.915,25.915,0,1,1-7.592-18.443,26.039,26.039,0,0,1,7.592,18.443Z" transform="translate(-218.09 -74.333)" fill="#fbbebe"/>
    <path id="Path_1768" data-name="Path 1768" d="M922.256,340.133l-3.1,15.313L903.885,381.1l-18.821-8.041s-25.612-26.8-9.508-30.626a14.25,14.25,0,0,0,5.34-2.375c-2.9,7.979,9.081,24.58,9.081,24.58,1.4,2.057,4.595.776,4.595.776,7.722-1.172,21.933-23.377,24.254-27.072a9.888,9.888,0,0,0,3.431,1.793Z" transform="translate(-219.006 -91.374)" opacity="0.1"/>
    <path id="Path_1769" data-name="Path 1769" d="M931.195,528.905c-4.533,1.032-29.609,6.582-39.117,5.192-10.462-1.552-30.8-2.546-30.8-2.546s-12.954.7-16.943-1.125v-.776l7.389-8.848s71.466-5.363,76.837,0C929.9,522.145,930.714,525.141,931.195,528.905Z" transform="translate(-213.206 -131.688)" opacity="0.1"/>
    <path id="Path_1770" data-name="Path 1770" d="M879.048,365.473s-13.466-18.627-8.39-25.923l-22.748,9.314s-13.691-1.661-18.627,18.775a35.554,35.554,0,0,0-.846,10.369c.186,3.1-.233,8.537-3.749,15.523-5.611,11.231-4.339,37.014,7.148,39.583s15.561,1.273,15.561,1.273-1.552,46.708-8.165,52.071,16.92,4.082,16.92,4.082,20.342,1.025,30.812,2.553,39.816-5.363,39.816-5.363-4.339-19.652-5.875-32.155-5.115-39.14-5.115-39.14l26.031-35.267s4.595-21.313-11.487-30.758-22.128-11.758-22.128-11.758-16.159,26.311-24.58,27.584C883.642,366.234,880.445,367.522,879.048,365.473Z" transform="translate(-208.084 -91.443)" fill="#6c63ff"/>
    <path id="Path_1771" data-name="Path 1771" d="M855.929,382.74s-.248,8.429,1.281,11.743,7.148,21.732,7.148,21.732H851.59s6.892-7.4,6.388-10.982S855.929,382.74,855.929,382.74Z" transform="translate(-214.831 -101.314)" opacity="0.1"/>
    <path id="Path_1772" data-name="Path 1772" d="M894.127,454.312s-28.189-6.892-30.812-12.76-9.865-19.007-9.865-19.007l2.973-4L870.129,429.3s16.3,13.016,24,14.3S894.127,454.312,894.127,454.312Z" transform="translate(-215.247 -109.328)" fill="#fbbebe"/>
    <path id="Path_1773" data-name="Path 1773" d="M894.127,454.312s-28.189-6.892-30.812-12.76-9.865-19.007-9.865-19.007l2.973-4L870.129,429.3s16.3,13.016,24,14.3S894.127,454.312,894.127,454.312Z" transform="translate(-215.247 -109.328)" opacity="0.05"/>
    <path id="Path_1774" data-name="Path 1774" d="M922.572,421.831v15.29h-2.453a71.472,71.472,0,0,0-34.721,8.995l-4.6,2.547-1.234.691L871.65,431.5l7.4-6.636h.38c1.808.178,9.64.83,12.961-.287,3.151-1.071,7.063-4.463,16.345-2.1,4.571,1.172,8.483,6.294,12.915,4.7Z" transform="translate(-219.322 -110.027)" fill="#fbbebe"/>
    <path id="Path_1775" data-name="Path 1775" d="M952.969,381l5.1,5.743v13.916s-4.339,43.9-18.115,48.749-38.388-2.81-38.388-2.81-6.356-16.842-3.384-17.851,26.272-7.171,26.272-7.171-.326-25.752,4.773-33.412c0,0-3.314-23.99,8.173-24.5S952.969,381,952.969,381Z" transform="translate(-225.084 -97.039)" opacity="0.1"/>
    <path id="Path_1776" data-name="Path 1776" d="M953.97,381l5.107,5.743v13.916s-4.339,43.9-18.123,48.749-38.388-2.81-38.388-2.81-6.357-16.842-3.376-17.851,26.272-7.171,26.272-7.171-.334-25.752,4.773-33.412c0,0-3.322-23.99,8.165-24.5S953.97,381,953.97,381Z" transform="translate(-225.309 -97.039)" fill="#6c63ff"/>
    <path id="Path_1777" data-name="Path 1777" d="M912.624,299.277a10.26,10.26,0,0,0-.582-4.975,3.788,3.788,0,0,0-4.051-2.328c-2.181.512-3.1,3.353-5.262,4.036-1.808.574-3.78-.706-4.657-2.391a11.907,11.907,0,0,1-.885-5.557v-6.4c0-2.328-.078-4.828-1.506-6.651-1.777-2.266-5.961-3.26-8.755-3.167a7.428,7.428,0,0,0-5,2.01,6.433,6.433,0,0,1-5.254,1.87,4.525,4.525,0,0,1-3.663-3.167v-.078a26.031,26.031,0,1,1,38.7,34.553,70.192,70.192,0,0,0,.916-7.761Z" transform="translate(-219.626 -74.306)" opacity="0.1"/>
    <path id="Path_1778" data-name="Path 1778" d="M874.727,270.42a4.564,4.564,0,0,1-3.671-3.174c-.21-.823-.155-1.7-.4-2.515-.6-2.01-2.74-3.05-4.176-4.579-2.872-3.05-2.685-8.064-.652-11.735,1.645-2.957,4.828-5.433,8.165-4.874,2.064.357,3.881,1.824,5.945,1.964s3.881-1,5.689-1.839a21.437,21.437,0,0,1,14.141-1.257,8.149,8.149,0,0,1,3.881,1.964,33.958,33.958,0,0,1,2.072,2.91c2.375,3.027,6.636,3.625,10.431,4.308s8.087,2.189,9.314,5.837c.83,2.422,0,5.045-.45,7.56a2.282,2.282,0,0,0,.1,1.552c.6.978,2.08.567,3.2.776,2.15.458,2.7,3.229,2.786,5.433q.132,3.772.2,7.552a9.616,9.616,0,0,1-.225,2.794,9.864,9.864,0,0,1-2.165,3.516l-8.429,10.129c-3.741,4.486-7.707,9.717-6.985,15.523-1.77.776-3.881-.737-4.455-2.592s-.116-3.881.279-5.751a70.513,70.513,0,0,0,1.35-9.973,10.23,10.23,0,0,0-.582-4.967,3.787,3.787,0,0,0-4.051-2.328c-2.189.512-3.1,3.353-5.262,4.036-1.808.574-3.78-.706-4.657-2.39a11.875,11.875,0,0,1-.885-5.549v-6.4c0-2.328-.078-4.828-1.506-6.651-1.777-2.266-5.961-3.26-8.755-3.167a7.428,7.428,0,0,0-4.991,2.01A6.444,6.444,0,0,1,874.727,270.42Z" transform="translate(-217.679 -69.75)" fill="#7c5c5c"/>
    <path id="Path_1779" data-name="Path 1779" d="M885.3,381.92l7.994,32.838S899.6,414.719,885.3,381.92Z" transform="translate(-222.377 -101.13)" opacity="0.1"/>
    <path id="Path_1780" data-name="Path 1780" d="M918.377,374.85s-10.462,17.137-6.38,34.864l1.948.14S910.468,401.65,918.377,374.85Z" transform="translate(-228.142 -99.547)" opacity="0.1"/>
    <path id="Path_1781" data-name="Path 1781" d="M929,499.557s12.853-4.253,13.784,5.611C942.815,505.168,940.394,498.408,929,499.557Z" transform="translate(-232.16 -127.261)" opacity="0.1"/>
    <path id="Path_1782" data-name="Path 1782" d="M874.852,426.81s-2.553,17.851,2.041,25.015a55.98,55.98,0,0,1-22.461,3.066L852.88,426.81Z" transform="translate(-215.12 -111.179)" opacity="0.1"/>
    <path id="Path_1783" data-name="Path 1783" d="M880.8,449.586l-1.234.691-7.917-17.851,7.4-6.636h.38C879.318,426.675,877.254,442.019,880.8,449.586Z" transform="translate(-219.322 -110.951)" opacity="0.1"/>
    <path id="Path_1784" data-name="Path 1784" d="M872.723,425.83s-2.553,17.851,2.041,25.007A55.815,55.815,0,0,1,852.3,453.9L843.37,425.83Z" transform="translate(-212.991 -110.96)" fill="#6c63ff"/>
    <path id="Path_1785" data-name="Path 1785" d="M835.292,803.752a5.782,5.782,0,0,1-4.96,5.06c-6.931,1.032-23.625,3.671-27.84,5.681-5.363,2.553-26.544.776-27.568-1.785a4.051,4.051,0,0,1,.365-3.1,8.181,8.181,0,0,1,3.423-3.679,9.08,9.08,0,0,1,1.552-.683c3.989-1.327,11.526-4.152,13.559-7.117,0,0,9.4-8.219,12.077-12.659a6.131,6.131,0,0,1,4.905-3.058c2.235-.1,4.727,1.025,5.751,5.922,0,0,12.24,6.985,15.523.862,0,0,.512,9.407,2.546,11.984h0A3.415,3.415,0,0,1,835.292,803.752Z" transform="translate(-197.633 -190.785)" fill="#a27772"/>
    <path id="Path_1786" data-name="Path 1786" d="M835.292,809.167a5.782,5.782,0,0,1-4.96,5.06c-6.931,1.032-23.625,3.671-27.84,5.681-5.363,2.553-26.544.776-27.568-1.785a4.051,4.051,0,0,1,.365-3.1,8.181,8.181,0,0,1,3.423-3.679c3.454,2.328,11.122,4.533,27.987,1.9,16.089-2.515,24.06-4.975,27.941-6.651h0a3.415,3.415,0,0,1,.652,2.577Z" transform="translate(-197.633 -196.2)" opacity="0.1"/>
    <g id="Group_66" data-name="Group 66" transform="translate(646.612 184.068)" opacity="0.1">
      <path id="Path_1787" data-name="Path 1787" d="M942.459,270.442v-.124a22.854,22.854,0,0,0,.776-5.8,38.25,38.25,0,0,1-.776,4.657A2.826,2.826,0,0,0,942.459,270.442Z" transform="translate(-881.77 -258.916)"/>
      <path id="Path_1788" data-name="Path 1788" d="M910.081,292.715a7.38,7.38,0,0,1,.629,2.918,8.8,8.8,0,0,0-.629-4.067,3.773,3.773,0,0,0-4.044-2.328c-2.189.512-3.1,3.353-5.27,4.036-1.8.574-3.772-.706-4.657-2.39a11.808,11.808,0,0,1-.885-5.557v-6.4c0-2.328-.078-4.828-1.506-6.651-1.785-2.274-5.961-3.26-8.755-3.174a7.436,7.436,0,0,0-5,2.018,6.449,6.449,0,0,1-5.262,1.871,4.548,4.548,0,0,1-3.663-3.167c-.209-.823-.155-1.708-.4-2.522-.6-2-2.74-3.05-4.176-4.571a8.359,8.359,0,0,1-2.15-5.433,8.7,8.7,0,0,0,2.15,6.543c1.436,1.552,3.578,2.569,4.176,4.571.241.776.186,1.7.4,2.522A4.548,4.548,0,0,0,874.7,274.1a6.449,6.449,0,0,0,5.262-1.87,7.435,7.435,0,0,1,5-2.018c2.794-.085,6.985.9,8.755,3.174,1.428,1.824,1.5,4.331,1.506,6.651v6.4a11.745,11.745,0,0,0,.885,5.549c.885,1.669,2.833,2.973,4.657,2.4,2.142-.683,3.1-3.524,5.27-4.036A3.92,3.92,0,0,1,910.081,292.715Z" transform="translate(-864.285 -257.3)"/>
      <path id="Path_1789" data-name="Path 1789" d="M945.242,293.4a9.81,9.81,0,0,1-2.173,3.508L934.64,307.04c-3.547,4.261-7.3,9.2-6.985,14.638.256-4.991,3.733-9.531,6.985-13.489l8.429-10.129a9.81,9.81,0,0,0,2.173-3.508,9.684,9.684,0,0,0,.225-2.8A7.379,7.379,0,0,1,945.242,293.4Z" transform="translate(-878.467 -265.012)"/>
      <path id="Path_1790" data-name="Path 1790" d="M921.919,327.716a5.966,5.966,0,0,1-.256-1.366,6.884,6.884,0,0,0,.256,2.515c.574,1.847,2.678,3.376,4.455,2.585a10.872,10.872,0,0,1-.093-1.118C924.512,331.038,922.463,329.532,921.919,327.716Z" transform="translate(-877.125 -272.758)"/>
    </g>
    <path id="Path_1791" data-name="Path 1791" d="M812.69,789.36s2.67,4.657,12.34.559" transform="translate(-206.122 -192.343)" opacity="0.1"/>
    <path id="Path_1792" data-name="Path 1792" d="M918,790.82s8.336,9.818,18.845,3.221" transform="translate(-229.698 -192.67)" opacity="0.1"/>
    <path id="Path_1793" data-name="Path 1793" d="M947.5,641.23s-5.891,3.679-6.077,5.782,3.042-1.552,3.042-1.552Z" transform="translate(-234.941 -159.181)" opacity="0.1"/>
    <path id="Path_1794" data-name="Path 1794" d="M949.21,677.59a12.317,12.317,0,0,1-7.257,2.833c-4.409.194-4.036,5.937-1.156,4.214S949.21,677.59,949.21,677.59Z" transform="translate(-234.317 -167.321)" opacity="0.1"/>
    <path id="Path_1795" data-name="Path 1795" d="M952.223,682.34s-2.825,13.885-5.122,11.207" transform="translate(-236.213 -168.384)" opacity="0.1"/>
    <path id="Path_1796" data-name="Path 1796" d="M248.027,685.116s17.735,4.866,26.272-1.607,12.24-4.393,12.24-4.393,20.358-1.125,22.034-5.937-7.808-22.29-7.808-22.29c-.675-1.552-1.661-3.524-2.1-3.524l.093-7.373h0L301.7,609.14c6.807-17.455.124-40.01.124-40.01l-1.219-5.6a14.157,14.157,0,0,1,1.156-9.314l12.364-24.836a37.168,37.168,0,0,1,2.328-4.765c.776-1.42,1.808-3.174,3.1-5.278.38-.605.776-1.234,1.211-1.894,1.5-2.328,3.314-4.967,5.511-8.01,5.472-7.583,8.351-17.075,9.841-24.06l.66,2.189h.147l.178.039h.295l.318.054h.116l3.8,48.4c.233,18.876,7.164,29.322,7.164,29.322l-.955,41.671c1.3,10.035-1.552,23.416-2.864,28.756l-3,6.76a8.126,8.126,0,0,0-4.416,6.147c-.59,4.991-5.844,15.748-5.844,15.748-2.033,2.577-6.45,9.539-6.45,9.539s-2.08,6.721-.792,9.236,12.061,2.258,12.061,2.258c12.3,2.724,21.732-3.881,21.134-8.429s1.917-5.7,1.917-5.7c4.89-1.552,4.416-4.866,4.416-4.866a30.455,30.455,0,0,0-3.7-19.822l-.776,1.793a27.3,27.3,0,0,1,1.475-10.579l-.45.31-.14.085h-.047c.776-6.807,7.924-19.4,7.924-19.4,13.132-23.036,8.359-54.252,8.359-54.252L374.63,554.9l-.116-3.671a122.528,122.528,0,0,1,1.979-26.156c.706-3.819,1.436-8.429,1.995-13.512,1.18-10.742,4.983-21.825,6.737-26.52l.52-.093h.062c.714-.124,1.436-.248,2.165-.388h.14s.419-2.266.776-6.124c.21-2.46.38-5.58.38-9.166a103.126,103.126,0,0,0-4.9-31.907l.4-.567s.939-1.273,2.654-3.477h0c3.151-4,8.056-10.09,14.1-16.951,10.827-12.348,7.645-24.836,7.645-24.836s-7.839-28.725-11.332-45.97a52.278,52.278,0,0,0-8.6-20.451,40.7,40.7,0,0,0,1.087-8.289c.233-5.107.054-10.431-2.243-15.018s-7.187-8.211-12.294-7.6a4.7,4.7,0,0,1-2.2,0,3.353,3.353,0,0,1-1.451-1.265c-2.988-4.121-3.182-9.663-2.251-14.661s2.841-9.779,3.694-14.793.466-10.579-2.724-14.552c-3.749-4.657-10.284-5.968-15.158-9.469-3.423-2.46-5.992-5.992-9.6-8.173s-6.985-1.35-10.9-.528c-6.589,1.389-12.853,2.026-19.085,4.859a50.829,50.829,0,0,0-16.632,12.1,15.787,15.787,0,0,0-3.71,5.852c-1.552,5.13,1.482,10.594.846,15.9-.45,3.764-2.67,7.04-4.432,10.4s-3.1,7.35-1.723,10.866c2.173,5.5,9.259,6.659,14.413,9.585a4.4,4.4,0,0,1,1.707,1.482c1.273,2.22-1.327,4.525-2.965,6.5a9.787,9.787,0,0,0-1.94,3.943,14.063,14.063,0,0,0-8.437,10.183c-1.746,7.816.939,17.68,3.306,24.2-2.585,14.521.776,20.249,3.252,22.446a12.457,12.457,0,0,1,4.315,8.491v.272c.163,2.639.442,5.27.815,7.893h0c-.085-.613-.171-1.265-.217-1.552-2.026,3.749-5.883,13.326-8.056,29.439a88.48,88.48,0,0,1-1.964,10.253,56.068,56.068,0,0,0-1.645,18.332l.388,5.223a1.645,1.645,0,0,1-1.056-.349l2.724,4.991v8.421a31.047,31.047,0,0,1-2.065,11.106c-.194.512-.4,1.024-.629,1.552a9.034,9.034,0,0,0-.916,4.571c-5.86,8.98-19.295,59.3-19.295,59.3-7.288,16.5.6,27.165.6,27.165s3.819,45.939,4.533,48.314,2.3,30.378,2.3,30.378h0v2.227a5.224,5.224,0,0,0-1.327-.38c-6.388-.357-8.118,9.733-8.118,9.733l-13.07,12.48s-5.968-1.009-14.746,5.58S248.027,685.116,248.027,685.116ZM378.534,419.609l-.039-.14-.357.21h0l-.147.085-.07.047h0L371.9,398.552a35.3,35.3,0,0,1-.442-17.486l4.657-20.4h0v-4.905l14.8,39.443C391.86,400.524,383.067,413.4,378.534,419.609Z" transform="translate(-77.809 -67.097)" fill="url(#linear-gradient-4)"/>
    <path id="Path_1797" data-name="Path 1797" d="M413.266,557s-5.976,14.537-7.5,28.484c-.551,5.029-1.265,9.577-1.964,13.349a121.993,121.993,0,0,0-1.909,25.822l.116,3.625,1.94,9.6s4.657,30.836-8.2,53.553c0,0-7.622,13.606-7.854,20.047l-5.161,1.995L372.3,710.55s5.037-18.061,3.4-30.719l.939-41.135s-6.776-10.292-7.008-28.919l-3.982-51.116Z" transform="translate(-106.044 -140.325)" fill="#fdc2cc"/>
    <path id="Path_1798" data-name="Path 1798" d="M346.241,547.62s-1.281,19.931-11.137,33.669-11.952,19.7-11.952,19.7l-12.139,24.541a14.055,14.055,0,0,0-1.141,9.182l1.2,5.526s6.566,22.275-.116,39.513l-3.167,33.3H289.265s-1.552-27.669-2.228-30.013-4.455-47.717-4.455-47.717-7.761-10.555-.59-26.846c0,0,16.182-60.965,20.513-59.91S346.241,547.62,346.241,547.62Z" transform="translate(-86.635 -138.225)" fill="#fdc2cc"/>
    <g id="Group_67" data-name="Group 67" transform="translate(219.27 409.395)" opacity="0.1">
      <path id="Path_1799" data-name="Path 1799" d="M316.963,640.275l-1.187-5.526a13.97,13.97,0,0,1,1.133-9.22l12.139-24.565s2.1-5.976,11.952-19.7c9.461-13.194,11.021-32.1,11.13-33.552l1.886-.093s-1.281,19.931-11.137,33.669-11.952,19.7-11.952,19.7l-12.139,24.541a14.056,14.056,0,0,0-1.141,9.182l1.2,5.526s6.566,22.275-.116,39.513l-3.167,33.3H313.68l3.167-33.3C323.529,662.511,316.963,640.275,316.963,640.275Z" transform="translate(-313.68 -547.62)"/>
    </g>
    <path id="Path_1800" data-name="Path 1800" d="M390.661,711.5c.233-6.442,7.854-20.047,7.854-20.047,12.9-22.741,8.2-53.553,8.2-53.553l-1.987-9.609-.116-3.625a121.992,121.992,0,0,1,1.909-25.822c.691-3.772,1.4-8.32,1.956-13.349,1.467-13.427,7.063-27.4,7.474-28.422L417.88,557s-5.976,14.537-7.5,28.484c-.551,5.029-1.265,9.577-1.964,13.349a121.993,121.993,0,0,0-1.909,25.822l.116,3.625,1.94,9.6s4.657,30.836-8.2,53.553c0,0-7.622,13.606-7.854,20.047l-5.161,1.995-1.087-.3Z" transform="translate(-110.658 -140.325)" opacity="0.1"/>
    <path id="Path_1801" data-name="Path 1801" d="M380.809,754.9a8.972,8.972,0,0,0,8.537-1.055,27.553,27.553,0,0,0-.7,15.476c2.111,8.444-19.7-6.8-19.7-6.8l4.657-10.641S375.415,755.248,380.809,754.9Z" transform="translate(-106.783 -183.952)" fill="#d39999"/>
    <path id="Path_1802" data-name="Path 1802" d="M382.436,755.366a8.716,8.716,0,0,0,6.931-1.552,27.552,27.552,0,0,0-.7,15.476c2.111,8.444-19.7-6.8-19.7-6.8l4.657-10.641a6.654,6.654,0,0,0,5.317,3C380.146,754.986,381.295,755.149,382.436,755.366Z" transform="translate(-106.788 -183.946)" opacity="0.1"/>
    <path id="Path_1803" data-name="Path 1803" d="M289.32,466.234h9.112v-51.7l-6.838-1.226Z" transform="translate(-64.772 -92.526)" fill="#fdc2cc"/>
    <path id="Path_1804" data-name="Path 1804" d="M289.32,466.234h9.112v-51.7l-6.838-1.226Z" transform="translate(-64.772 -92.526)" opacity="0.05"/>
    <path id="Path_1805" data-name="Path 1805" d="M371.062,760.642s5.743-.357,8.32,4.8l3.167,2.46,1.552-3.632a30.269,30.269,0,0,1,3.586,19.582s.466,3.275-4.339,4.8c0,0-2.46,1.172-1.878,5.627s-8.669,11.021-20.746,8.32c0,0-10.555.241-11.844-2.227s.823-9.026.823-9.026,4.339-6.876,6.325-9.414c0,0,5.161-10.633,5.751-15.523S368.011,757.942,371.062,760.642Z" transform="translate(-102.197 -185.706)" fill="#7e5659"/>
    <path id="Path_1806" data-name="Path 1806" d="M310.7,764.284l.093-7.288s-10.486,3.019-18.976-.4c0,0,.714,7.327-.466,8.328s3.927,10.431,3.927,10.431l5.7,5.976,9.81-3.57,2.662-8.382S311.4,764.284,310.7,764.284Z" transform="translate(-89.371 -185.009)" fill="#d39999"/>
    <path id="Path_1807" data-name="Path 1807" d="M310.7,764.284l.093-7.288s-10.486,3.019-18.976-.4c0,0,.714,7.327-.466,8.328s3.927,10.431,3.927,10.431l5.7,5.976,9.81-3.57,2.662-8.382S311.4,764.284,310.7,764.284Z" transform="translate(-89.371 -185.009)" opacity="0.1"/>
    <path id="Path_1808" data-name="Path 1808" d="M279.591,763.1s5.573.644,4.866,7.761.295,0,.295,0,5.922,2.4,8.033,5.743,5.922-2.988,6.209-4.8,2.662-2.569,2.662-2.569,9.314,17.269,7.668,22.019-21.639,5.844-21.639,5.844-3.64-2.049-12.022,4.339-25.791,1.552-25.791,1.552-14.188-5.922-5.565-12.418,14.475-5.51,14.475-5.51l12.837-12.372S273.32,762.74,279.591,763.1Z" transform="translate(-78.258 -186.461)" fill="#7e5659"/>
    <path id="Path_1809" data-name="Path 1809" d="M360.4,236.688c3.547,2.15,6.069,5.642,9.43,8.072,4.781,3.454,11.2,4.742,14.878,9.352,3.1,3.927,3.508,9.414,2.67,14.366s-2.716,9.678-3.625,14.615-.722,10.408,2.212,14.475a3.283,3.283,0,0,0,1.42,1.25,4.657,4.657,0,0,0,2.165,0c5.014-.605,9.826,2.98,12.077,7.505s2.429,9.787,2.2,14.832c-.194,4.137-.66,8.359-2.476,12.084-3.1,6.333-9.562,10.245-15.934,13.241a123.42,123.42,0,0,1-12.721,5.138c-2.98,1.009-6.124,1.917-9.22,1.389-5.3-.916-9.057-5.736-14.087-7.622-4.121-1.552-8.693-.993-13.078-.605-3.741.326-8.017.318-10.594-2.414-3.306-3.508-1.816-9.166-.124-13.683a9.74,9.74,0,0,1-6.892-15.926c1.6-1.948,4.152-4.222,2.9-6.419a4.253,4.253,0,0,0-1.676-1.459c-5.053-2.887-12.015-4.044-14.141-9.461-1.366-3.485-.047-7.428,1.684-10.742s3.881-6.558,4.354-10.268c.621-5.247-2.328-10.641-.83-15.7a15.74,15.74,0,0,1,3.64-5.79,49.952,49.952,0,0,1,16.3-11.945c6.124-2.8,12.263-3.431,18.736-4.8C353.55,235.353,356.763,234.483,360.4,236.688Z" transform="translate(-92.516 -68.305)" fill="#865a61"/>
    <path id="Path_1810" data-name="Path 1810" d="M326.959,337.757s-14.847-.776-17.657,11.883,6.093,30.789,6.093,30.789Z" transform="translate(-93.307 -91.241)" fill="#fdc2cc"/>
    <path id="Path_1811" data-name="Path 1811" d="M326.959,337.757s-14.847-.776-17.657,11.883,6.093,30.789,6.093,30.789Z" transform="translate(-93.307 -91.241)" opacity="0.05"/>
    <path id="Path_1812" data-name="Path 1812" d="M320,366.578l5.627,4.455,26.257,1.172,16.392-11.254,16.671-28.608c-10.191-2.6-14.312-9.64-15.849-16.221a35.515,35.515,0,0,1-.326-13.551s-26.73-13.838-23.447,7.761a29.337,29.337,0,0,1,.248,8.025c-1.552,12.651-13.831,10.268-13.831,10.268l-4.711,7.265-5.394,17.851Z" transform="translate(-95.825 -82.389)" fill="#fdc2cc"/>
    <path id="Path_1813" data-name="Path 1813" d="M352.579,310.3a29.338,29.338,0,0,1,.248,8.025,23.7,23.7,0,0,0,23.525-2.2,35.516,35.516,0,0,1-.326-13.551S349.3,288.731,352.579,310.3Z" transform="translate(-103.056 -82.387)" opacity="0.1"/>
    <circle id="Ellipse_371" data-name="Ellipse 371" cx="23.68" cy="23.68" r="23.68" transform="translate(235.941 189.781)" fill="#fdc2cc"/>
    <path id="Path_1814" data-name="Path 1814" d="M337.02,370.71c.574,0,1.141.085,1.707.14,3.1.31,16.074,1.009,23.463-7.816,8.266-9.872,19.271-22.065,19.721-22.562l11.2,3.384s-8.863-3.151-14.747,13.334a17.075,17.075,0,0,0,5.767,19.644,17.742,17.742,0,0,0,7.327,3.1.039.039,0,0,1,0,.039v7.234h0l-4.579,20.179a34.981,34.981,0,0,0,.435,17.269l6.985,24.689c-1.056.73-44.395,30.207-73.344,9.849h0c.109-.885,3.687-29.858,1.2-44.038a97.931,97.931,0,0,1-1.3-10.959c0-.093,0-.179,0-.272a12.356,12.356,0,0,0-4.245-8.382c-2.608-2.328-6.139-8.537-2.647-24.945a60.274,60.274,0,0,1,3.881-11.821l9.709-21.941h0l8.949.179v.062c-.776.962-11.153,13.924-12.278,22.275C323.127,367.3,321.769,369.732,337.02,370.71Z" transform="translate(-94.147 -91.038)" fill="#6c63ff"/>
    <path id="Path_1815" data-name="Path 1815" d="M413.538,349.633s8.755,7.505,12.193,24.541,11.1,45.334,11.1,45.334,3.1,12.348-7.505,24.541-17.665,21.732-17.665,21.732l-6.985,10.292a8.762,8.762,0,0,1-5.029,3.555c-3.182.838-8.072,1.444-12.309-.877a7.171,7.171,0,0,1-3.1-9.057l1.552-3.593s-14.382,9.065-15.631,4.059,16.726-10,16.726-10,14.847-2.5,17.851-9.531c0,0,15.942-20.482,14.692-27.514l-15.4-41.267s-19.256-2.546-12.69-24.176S413.538,349.633,413.538,349.633Z" transform="translate(-107.038 -92.958)" fill="#fdc2cc"/>
    <path id="Path_1816" data-name="Path 1816" d="M307.4,534.678s35.174,7.032,43.463,6.093l.893,2.973s13.349,2.988,43.533-1.8q2.957-.466,6.139-1.048l.706-.124s.411-2.235.737-6.046c.722-8.654.978-25.411-5.115-42.563l-5.076-15.631s-31.371,18.806-52.141,17.075c-1.855-.155-3.694-.3-5.549-.365-4.261-.163-10.866,0-15.158-3.438l-9,1.552v25.612a30.688,30.688,0,0,1-2.033,10.959c-.194.512-.4,1.017-.621,1.552A8.15,8.15,0,0,0,307.4,534.678Z" transform="translate(-92.975 -122.31)" fill="#65617d"/>
    <path id="Path_1817" data-name="Path 1817" d="M364.58,552.558v7.971s15.367,3.438,50.379-2.973c0,0,.411-2.235.737-6.046C404.954,553.233,375.329,557.378,364.58,552.558Z" transform="translate(-105.805 -139.096)" opacity="0.1"/>
    <path id="Path_1818" data-name="Path 1818" d="M307.4,549.511s35.174,7.032,43.463,6.093l.893,2.973v-7.971c-4,1.661-32.6-5.231-42.959-7.816-.194.512-.4,1.017-.621,1.552a8.15,8.15,0,0,0-.776,5.169Z" transform="translate(-92.976 -137.144)" opacity="0.1"/>
    <path id="Path_1819" data-name="Path 1819" d="M417.31,538.558l2.608,16.175q2.957-.466,6.139-1.048c-.815-4.727-2.592-15.523-2.1-17.315l-3.283-2.81Z" transform="translate(-117.609 -135.077)" fill="#65617d"/>
    <path id="Path_1820" data-name="Path 1820" d="M417.78,538.108l2.608,16.182q2.957-.473,6.139-1.048c-.815-4.727-2.592-15.523-2.1-17.315l-3.283-2.817Z" transform="translate(-117.715 -134.977)" opacity="0.1"/>
    <g id="Group_68" data-name="Group 68" transform="translate(225.347 354.197)" opacity="0.05">
      <path id="Path_1821" data-name="Path 1821" d="M341.845,497.423c-1.847-.155-3.694-.3-5.549-.365-4.145-.155-10.47,0-14.785-3.174l1.506-.264c4.315,3.423,10.866,3.275,15.158,3.438,1.855.062,3.694.21,5.549.365.605.054,1.226.085,1.855.1a34.824,34.824,0,0,1-3.733-.1Z" transform="translate(-321.51 -480.333)"/>
      <path id="Path_1822" data-name="Path 1822" d="M409.66,541.936q2.957-.466,6.139-1.04l.714-.132s.411-2.235.73-6.046c.73-8.654.986-25.411-5.115-42.563l-4.781-14.746c1.017-.574,1.552-.908,1.552-.908l5.076,15.631c6.093,17.152,5.837,33.909,5.115,42.563-.326,3.811-.737,6.046-.737,6.046l-.706.132q-3.174.574-6.139,1.04a193.335,193.335,0,0,1-31.627,2.716A199.469,199.469,0,0,0,409.66,541.936Z" transform="translate(-334.577 -476.5)"/>
      <path id="Path_1823" data-name="Path 1823" d="M360.709,559.3v.085H359.7Q360.274,559.347,360.709,559.3Z" transform="translate(-330.06 -495.036)"/>
    </g>
    <ellipse id="Ellipse_372" data-name="Ellipse 372" cx="1.327" cy="2.732" rx="1.327" ry="2.732" transform="translate(302.743 401.036)" fill="#d39999"/>
    <path id="Path_1824" data-name="Path 1824" d="M312.734,460.706c2.142-15.911,5.922-25.364,7.917-29.066.078.5.279,2.142.373,2.647.4,2.328.047,5.262.171,8.219l-1.987,35.982,2.662,11.254c2.5,8.91-6.76,1.87-6.76,1.87-1.917,4.222-5.433,3.757-5.433,3.757l-.481-6.457a55.774,55.774,0,0,1,1.614-18.107,86.277,86.277,0,0,0,1.925-10.1Z" transform="translate(-93.371 -112.261)" fill="#fdc2cc"/>
    <path id="Path_1825" data-name="Path 1825" d="M312.734,460.706c2.142-15.911,5.922-25.364,7.917-29.066.078.5.279,2.142.373,2.647.4,2.328.047,5.262.171,8.219l-1.987,35.982,2.662,11.254c2.5,8.91-6.76,1.87-6.76,1.87-1.917,4.222-5.433,3.757-5.433,3.757l-.481-6.457a55.774,55.774,0,0,1,1.614-18.107,86.277,86.277,0,0,0,1.925-10.1Z" transform="translate(-93.371 -112.261)" opacity="0.05"/>
    <path id="Path_1826" data-name="Path 1826" d="M415.837,489.5c-1.684,2.181-2.608,3.43-2.608,3.43l-6.985,10.284a8.724,8.724,0,0,1-5.029,3.555c-3.182.838-8.072,1.451-12.309-.877a7.156,7.156,0,0,1-3.1-9.05l1.552-3.6s-14.382,9.065-15.631,4.067,16.726-10,16.726-10,14.847-2.5,17.851-9.539c0,0,1.3-1.661,3.1-4.207" transform="translate(-107.39 -121.645)" fill="#fdc2cc"/>
    <path id="Path_1827" data-name="Path 1827" d="M410.14,513.028s-17.005-1.653-22.391-11.378l-2.468,8.033s17.851,12.325,21.926,10.726Z" transform="translate(-110.439 -127.934)" fill="#65617d"/>
    <path id="Path_1828" data-name="Path 1828" d="M409.362,512.926s-17-1.653-22.391-11.386l-2.46,8.01s17.851,12.325,21.918,10.726Z" transform="translate(-110.267 -127.909)" opacity="0.1"/>
    <path id="Path_1829" data-name="Path 1829" d="M315.525,510.46s-5.953,2.111-7.125.939l2.678,4.928,5.06-3.881Z" transform="translate(-93.228 -129.906)" fill="#65617d"/>
    <path id="Path_1830" data-name="Path 1830" d="M315.525,510.46s-5.953,2.111-7.125.939l2.678,4.928,5.06-3.881Z" transform="translate(-93.228 -129.906)" opacity="0.1"/>
    <path id="Path_1831" data-name="Path 1831" d="M332.715,529.754V519.47L330.27,530Z" transform="translate(-73.94 -116.292)" opacity="0.1"/>
    <path id="Path_1832" data-name="Path 1832" d="M380.155,272.636a9.133,9.133,0,0,1-6.38,3.361,50.271,50.271,0,0,1-7.412,0c-3.881-.062-8.01.536-11.184,2.817a28.435,28.435,0,0,0-5.13,5.433c-4.8,5.86-11.456,11.347-19.015,10.734a4.929,4.929,0,0,1-3.532-1.49,5.666,5.666,0,0,1-.9-3.213,73.45,73.45,0,0,1,.458-14.483,30.533,30.533,0,0,1,2.189-8.638,29.493,29.493,0,0,1,5.262-7.513,32.186,32.186,0,0,1,9.182-7.358,16.469,16.469,0,0,1,11.487-1.482c4.525,1.234,8.048,4.773,12.364,6.6C372.472,259.473,385.557,265.007,380.155,272.636Z" transform="translate(-97.266 -71.679)" opacity="0.1"/>
    <path id="Path_1833" data-name="Path 1833" d="M380.155,271.424a9.133,9.133,0,0,1-6.38,3.361,50.271,50.271,0,0,1-7.412,0c-3.881-.07-8.01.528-11.184,2.81a28.435,28.435,0,0,0-5.13,5.433c-4.8,5.86-11.456,11.347-19.015,10.734a4.9,4.9,0,0,1-3.531-1.49,5.643,5.643,0,0,1-.9-3.213,73.453,73.453,0,0,1,.458-14.483,30.535,30.535,0,0,1,2.189-8.638,29.291,29.291,0,0,1,5.262-7.505,32.077,32.077,0,0,1,9.182-7.365,16.47,16.47,0,0,1,11.487-1.482c4.525,1.234,8.049,4.773,12.364,6.6C372.472,258.261,385.557,263.779,380.155,271.424Z" transform="translate(-97.266 -71.406)" fill="#865a61"/>
    <path id="Path_1834" data-name="Path 1834" d="M292.1,473.47l-.062,2.833-.636-2.709Z" transform="translate(-65.238 -105.994)" fill="#fdc2cc"/>
    <path id="Path_1835" data-name="Path 1835" d="M292.1,473.47l-.062,2.833-.636-2.709Z" transform="translate(-65.238 -105.994)" opacity="0.05"/>
    <g id="Group_69" data-name="Group 69" transform="translate(282.528 253.121)" opacity="0.05">
      <path id="Path_1836" data-name="Path 1836" d="M399.372,356.375c-6.574,21.631,12.589,24.169,12.589,24.169l15.4,41.267c1.25,7.032-14.7,27.514-14.7,27.514-1.11,2.623-3.881,4.618-6.908,6.093a10.819,10.819,0,0,0,4.1-4.5s15.942-20.474,14.692-27.506l-15.4-41.275s-19.155-2.538-12.589-24.169c2.2-7.226,5.433-10.517,8.708-11.7C403,348.086,400.932,351.229,399.372,356.375Z" transform="translate(-395.184 -346.27)"/>
    </g>
    <g id="Group_70" data-name="Group 70" transform="translate(218.414 245.794)" opacity="0.1">
      <path id="Path_1837" data-name="Path 1837" d="M401,384.61a16.173,16.173,0,0,0,3.1,2.942,17.642,17.642,0,0,0,7.327,3.1v.815a17.587,17.587,0,0,1-6.644-2.942A16.1,16.1,0,0,1,401,384.61Z" transform="translate(-332.372 -347.526)"/>
      <path id="Path_1838" data-name="Path 1838" d="M323.481,422.517v.272a100.249,100.249,0,0,0,1.335,11c2.328,13.38-.722,39.948-1.156,43.619-.248-.163-.5-.318-.776-.5.116-.885,3.694-29.858,1.211-44.03a98.362,98.362,0,0,1-1.3-10.959v-.272a11.976,11.976,0,0,0-2.088-5.937,12.069,12.069,0,0,1,2.771,6.807Z" transform="translate(-314.398 -354.489)"/>
      <path id="Path_1839" data-name="Path 1839" d="M335.949,337.893l-7.591-.147a.039.039,0,0,0-.039,0l-9.7,21.934a60.47,60.47,0,0,0-3.881,11.82c-2.825,13.272-1.048,19.884,1.11,23.152-2.429-2.864-4.936-9.391-1.808-24.06a59.83,59.83,0,0,1,3.842-11.828l9.771-21.934h0l8.949.179v.054C336.531,337.156,336.29,337.451,335.949,337.893Z" transform="translate(-312.577 -336.83)"/>
      <path id="Path_1840" data-name="Path 1840" d="M416.39,345.87l.132.039Z" transform="translate(-335.818 -338.854)"/>
      <path id="Path_1841" data-name="Path 1841" d="M393.917,344.779l-7.606-2.29h-.039c-.45.5-11.448,12.69-19.714,22.562-7.389,8.825-20.342,8.134-23.462,7.823-.567-.062-1.141-.109-1.708-.147-8.483-.543-11.82-1.552-12.938-3.694,1.591,1.552,5.091,2.328,12.232,2.763.574,0,1.141.085,1.707.14,3.1.31,16.074,1,23.462-7.816,8.266-9.88,19.271-22.073,19.721-22.57h0l11.068,3.353a6.915,6.915,0,0,0-2.724-.124Z" transform="translate(-316.131 -337.887)"/>
    </g>
    <path id="Path_1842" data-name="Path 1842" d="M293.083,777.149s-10.711,2.926-12.783-1.669" transform="translate(-86.937 -189.236)" opacity="0.1"/>
    <path id="Path_1843" data-name="Path 1843" d="M379.97,774.294s-12.418,3.205-15.29-1.754" transform="translate(-105.827 -188.577)" opacity="0.1"/>
    <path id="Path_1844" data-name="Path 1844" d="M590.886,759.569c.178-1.552.435-3.1.714-4.657,1.226-6.706-.644-13.1-1.552-15.74h0c-.287-.815-.5-1.273-.5-1.273-4.944-1.35-24.433,13.769-31.534,19.465-2.46,0-5.13.109-8.048.3-1.273.093-2.546.124-3.819.1h-4.657c-6.589-5.309-26.986-21.274-32.062-19.892,0,0-.21.458-.5,1.273h0a31.893,31.893,0,0,0-1.591,15.74c.279,1.552.536,3.1.714,4.657.38,3.407,1.808,9.95,6.985,14.366,1.11,8.072,5.262,18.682,8.46,25.123a17.989,17.989,0,0,0,1.087,3.547c-1.319,5.091-2.841,11.735-2.406,13.97,0,0-6.892-1.669-7.591,6.628v.256c-2.491,1.141-5.6,3.757-2.1,9.236a3.593,3.593,0,0,0,1.8,1.467c.621.217,1.226.217,1.164-.652l4.308,4.851s7.808.9,7.9-3.632l.458.07c1.048.155,2.142.287,3.268.4l.543,1.793s-5.86-.124-4.261,3.485c0,0,1.475,1.366,1.979.869,0,0-.776,2.367,2.282,2.367,0,0,3.283,1.739,4.564.5s3.935-3.1,4.183-3.881c.07-.21.1-2.049.116-4.595h.5c6.543.155,13.489-.054,19.807-.4h.512c0,2.755.039,4.789.109,5.006.256.776,2.918,2.616,4.191,3.881s4.556-.5,4.556-.5c3.042,0,2.282-2.367,2.282-2.367.512.5,1.987-.869,1.987-.869,1.6-3.609-4.269-3.485-4.269-3.485l.7-2.328,3.237-.272.512-.047c-.31,4.928,7.893,3.982,7.893,3.982l4.315-4.851c-.07.869.536.869,1.156.652a3.562,3.562,0,0,0,1.746-1.482c5.285-8.266-4.478-10.02-4.478-10.02a4.787,4.787,0,0,0-.924-.148,1.594,1.594,0,0,1,.039-.427h0a17.029,17.029,0,0,0,.062-3.275c-.365-1.5-2.771-3.881-5.813-4.23-1.987-.248-2.026-9.376-1.824-15.7a18.056,18.056,0,0,0,.31-3.6,19,19,0,0,0-.776-5.767c3.881-6.582,6.985-13.481,7.334-15.523C589.078,769.5,590.506,762.976,590.886,759.569Z" transform="translate(-137.675 -180.798)" fill="url(#linear-gradient-5)"/>
    <path id="Path_1845" data-name="Path 1845" d="M585.912,838.686h0c-.31,4.3-1.141,11.2-1.141,11.2s-3.454.419-8.794.9l-3.625.31c-2.779.225-5.9.442-9.2.629-6.093.334-12.783.543-19.093.388-3.151-.07-6.209-.233-9.042-.512-1.265-.124-2.491-.272-3.656-.442-7.234-1.079-12.418-3.143-12.861-6.768a20.955,20.955,0,0,1-.163-4.657c.675-8.149,7.311-6.5,7.311-6.5-.427-2.251,1.18-9.244,2.484-14.3.823-3.19,1.552-5.611,1.552-5.611l46.661-3.1h.155a2.282,2.282,0,0,1,2.282,2.4c-.279,5.6-.675,18.41,1.614,18.7,2.934.365,5.254,2.685,5.611,4.152A17.413,17.413,0,0,1,585.912,838.686Z" transform="translate(-140.214 -197.01)" fill="#6c63ff"/>
    <path id="Path_1846" data-name="Path 1846" d="M544.173,761.627s-17.595,21.181-26.07,15.313c-.2-.14-.4-.279-.582-.427-5.7-4.315-7.195-11.269-7.591-14.8-.171-1.552-.419-3.05-.691-4.564a31.69,31.69,0,0,1,1.552-15.453h0c.279-.776.473-1.25.473-1.25C517.125,738.816,544.173,761.627,544.173,761.627Z" transform="translate(-138.103 -181.374)" fill="#6c63ff"/>
    <path id="Path_1847" data-name="Path 1847" d="M534.708,763.967s-5.542,3.881-13.357,10.26a28.233,28.233,0,0,1-3.881,2.67c-5.7-4.315-7.195-11.269-7.591-14.8-.171-1.552-.419-3.05-.691-4.564a31.69,31.69,0,0,1,1.552-15.453h0C521.7,742.841,534.708,763.967,534.708,763.967Z" transform="translate(-138.092 -181.758)" fill="#6c63ff"/>
    <path id="Path_1848" data-name="Path 1848" d="M534.708,763.967s-5.542,3.881-13.357,10.26a28.233,28.233,0,0,1-3.881,2.67c-5.7-4.315-7.195-11.269-7.591-14.8-.171-1.552-.419-3.05-.691-4.564a31.69,31.69,0,0,1,1.552-15.453h0C521.7,742.841,534.708,763.967,534.708,763.967Z" transform="translate(-138.092 -181.758)" fill="#fff" opacity="0.5"/>
    <path id="Path_1849" data-name="Path 1849" d="M530.438,764.221s-2.957,2.088-7.133,5.479a15.026,15.026,0,0,1-2.049,1.42,11.425,11.425,0,0,1-4.051-7.893c-.085-.823-.217-1.63-.365-2.445a16.967,16.967,0,0,1,.861-8.243h0C523.5,752.944,530.438,764.221,530.438,764.221Z" transform="translate(-139.853 -184.1)" opacity="0.1"/>
    <path id="Path_1850" data-name="Path 1850" d="M569.05,761.627s17.595,21.181,26.07,15.313c.194-.14.4-.279.582-.427,5.7-4.315,7.195-11.269,7.591-14.8.171-1.552.419-3.05.683-4.564a31.594,31.594,0,0,0-1.552-15.453h0c-.279-.776-.481-1.25-.481-1.25C596.1,738.816,569.05,761.627,569.05,761.627Z" transform="translate(-151.579 -181.374)" fill="#6c63ff"/>
    <path id="Path_1851" data-name="Path 1851" d="M581.22,763.967s5.549,3.881,13.365,10.26a28.213,28.213,0,0,0,3.842,2.67c5.7-4.315,7.195-11.269,7.591-14.8.171-1.552.419-3.05.683-4.564a31.6,31.6,0,0,0-1.552-15.453h0C594.244,742.841,581.22,763.967,581.22,763.967Z" transform="translate(-154.304 -181.758)" fill="#6c63ff"/>
    <path id="Path_1852" data-name="Path 1852" d="M581.22,763.967s5.549,3.881,13.365,10.26a28.213,28.213,0,0,0,3.842,2.67c5.7-4.315,7.195-11.269,7.591-14.8.171-1.552.419-3.05.683-4.564a31.6,31.6,0,0,0-1.552-15.453h0C594.244,742.841,581.22,763.967,581.22,763.967Z" transform="translate(-154.304 -181.758)" fill="#fff" opacity="0.5"/>
    <path id="Path_1853" data-name="Path 1853" d="M589.05,764.216s2.942,2.08,7.086,5.433a14.209,14.209,0,0,0,2.041,1.413c3.019-2.29,3.819-5.976,4.028-7.847.085-.776.217-1.622.365-2.429a17,17,0,0,0-.815-8.2h0C595.95,753.009,589.05,764.216,589.05,764.216Z" transform="translate(-156.057 -184.111)" opacity="0.1"/>
    <path id="Path_1854" data-name="Path 1854" d="M579.167,810.23a42.143,42.143,0,0,1-6.737,8.584c-6.985,6.209-37.146,3.741-39.1,3.423-.411-.07-1.265-1.288-2.328-3.267.823-3.19,1.552-5.611,1.552-5.611Z" transform="translate(-143.061 -197.015)" opacity="0.1"/>
    <path id="Path_1855" data-name="Path 1855" d="M552.511,765.382c-1.226.085-2.453.116-3.687.093-6.294-.109-27.5.171-29.85,8.731-2.771,10.09,9.616,37.107,11.564,37.433s32.1,2.771,39.109-3.423,16.128-25.612,15.639-27.374C585.287,780.843,593.979,762.51,552.511,765.382Z" transform="translate(-140.279 -186.907)" fill="#6c63ff"/>
    <path id="Path_1856" data-name="Path 1856" d="M554.312,786.511s-15.523-2.391-22.8,12.884a18.627,18.627,0,0,0,1.374,18.775c2.421,3.407,5.976,5.945,10.92,3.881C554.793,817.525,554.312,786.511,554.312,786.511Z" transform="translate(-142.748 -191.675)" opacity="0.1"/>
    <path id="Path_1857" data-name="Path 1857" d="M553.682,785.251s-15.523-2.391-22.8,12.884a18.627,18.627,0,0,0,1.374,18.775c2.422,3.407,5.976,5.945,10.92,3.881C554.163,816.265,553.682,785.251,553.682,785.251Z" transform="translate(-142.607 -191.392)" opacity="0.1"/>
    <path id="Path_1858" data-name="Path 1858" d="M553.682,785.881s-15.523-2.391-22.8,12.884a18.627,18.627,0,0,0,1.374,18.775c2.422,3.407,5.976,5.945,10.92,3.881C554.163,816.9,553.682,785.881,553.682,785.881Z" transform="translate(-142.607 -191.534)" fill="#6c63ff"/>
    <path id="Path_1859" data-name="Path 1859" d="M553.682,785.881s-15.523-2.391-22.8,12.884a18.627,18.627,0,0,0,1.374,18.775c2.422,3.407,5.976,5.945,10.92,3.881C554.163,816.9,553.682,785.881,553.682,785.881Z" transform="translate(-142.607 -191.534)" fill="#fff" opacity="0.5"/>
    <path id="Path_1860" data-name="Path 1860" d="M538.81,803.13s-2.119,1.956-1.3,2.445S538.81,803.13,538.81,803.13Z" transform="translate(-144.476 -195.425)" fill="#3f2b3b"/>
    <path id="Path_1861" data-name="Path 1861" d="M542,806.35s-1.156,2.553-.334,2.833,1.312-1.832,1.312-1.832Z" transform="translate(-145.382 -196.146)" fill="#3f2b3b"/>
    <path id="Path_1862" data-name="Path 1862" d="M535.445,811.32s-1.133,3.011,0,3.011S535.445,811.32,535.445,811.32Z" transform="translate(-143.943 -197.259)" fill="#3f2b3b"/>
    <path id="Path_1863" data-name="Path 1863" d="M533.78,821.71s2.266,5.79,8.165,5.379" transform="translate(-143.683 -199.585)" fill="none" stroke="#3f2b3b" stroke-miterlimit="10" stroke-width="1"/>
    <path id="Path_1864" data-name="Path 1864" d="M540.61,823.91s2.328,2.282,4.882.652" transform="translate(-145.212 -200.077)" fill="none" stroke="#3f2b3b" stroke-miterlimit="10" stroke-width="1"/>
    <path id="Path_1865" data-name="Path 1865" d="M564,786.511s15.523-2.391,22.8,12.884a18.627,18.627,0,0,1-1.374,18.775c-2.414,3.407-5.976,5.945-10.92,3.881C563.487,817.525,564,786.511,564,786.511Z" transform="translate(-150.448 -191.675)" opacity="0.1"/>
    <path id="Path_1866" data-name="Path 1866" d="M564.589,785.251s15.523-2.391,22.8,12.884a18.627,18.627,0,0,1-1.374,18.775c-2.414,3.407-5.976,5.945-10.92,3.881C564.131,816.265,564.589,785.251,564.589,785.251Z" transform="translate(-150.58 -191.392)" opacity="0.1"/>
    <path id="Path_1867" data-name="Path 1867" d="M564.589,785.881s15.523-2.391,22.8,12.884a18.627,18.627,0,0,1-1.374,18.775c-2.414,3.407-5.976,5.945-10.92,3.881C564.131,816.9,564.589,785.881,564.589,785.881Z" transform="translate(-150.58 -191.534)" fill="#6c63ff"/>
    <path id="Path_1868" data-name="Path 1868" d="M564.589,785.881s15.523-2.391,22.8,12.884a18.627,18.627,0,0,1-1.374,18.775c-2.414,3.407-5.976,5.945-10.92,3.881C564.131,816.9,564.589,785.881,564.589,785.881Z" transform="translate(-150.58 -191.534)" fill="#fff" opacity="0.5"/>
    <path id="Path_1869" data-name="Path 1869" d="M586.16,803.13s2.119,1.956,1.3,2.445S586.16,803.13,586.16,803.13Z" transform="translate(-155.41 -195.425)" fill="#3f2b3b"/>
    <path id="Path_1870" data-name="Path 1870" d="M582.938,806.35s1.156,2.553.334,2.833-1.312-1.832-1.312-1.832Z" transform="translate(-154.469 -196.146)" fill="#3f2b3b"/>
    <path id="Path_1871" data-name="Path 1871" d="M589.676,811.32s1.125,3.011,0,3.011S589.676,811.32,589.676,811.32Z" transform="translate(-156.085 -197.259)" fill="#3f2b3b"/>
    <path id="Path_1872" data-name="Path 1872" d="M589.265,821.71S587,827.5,581.1,827.089" transform="translate(-154.277 -199.585)" fill="none" stroke="#3f2b3b" stroke-miterlimit="10" stroke-width="1"/>
    <path id="Path_1873" data-name="Path 1873" d="M583.39,823.91s-2.328,2.282-4.89.652" transform="translate(-153.695 -200.077)" fill="none" stroke="#3f2b3b" stroke-miterlimit="10" stroke-width="1"/>
    <path id="Path_1874" data-name="Path 1874" d="M553.2,842.466c.411-.078,8.149-3.423,16.128,0Z" transform="translate(-148.031 -203.887)" fill="#3f2b3b"/>
    <path id="Path_1875" data-name="Path 1875" d="M531.366,859.368c-7.234-1.079-12.418-3.143-12.861-6.768a20.954,20.954,0,0,1-.163-4.657,10.445,10.445,0,0,1,2.763-1.009c1.312-.365,2.934-.116,6.357.862s3.174,5.006,3.881,10.26a4.341,4.341,0,0,1,.023,1.312Z" transform="translate(-140.214 -205.196)" opacity="0.1"/>
    <path id="Path_1876" data-name="Path 1876" d="M519.609,847.585s-9.407,1.723-4.315,9.841a3.469,3.469,0,0,0,1.739,1.436c.6.21,1.172.21,1.11-.644l4.16,4.765s8.3.978,7.575-4.276-.489-9.314-3.881-10.26S520.937,847.221,519.609,847.585Z" transform="translate(-139.207 -205.343)" fill="#6c63ff"/>
    <path id="Path_1877" data-name="Path 1877" d="M524.18,854.67s1.995,4.556,4.765.73" transform="translate(-141.534 -206.964)" fill="none" stroke="#3f2b3b" stroke-miterlimit="10" stroke-width="1"/>
    <path id="Path_1878" data-name="Path 1878" d="M518.28,857s1.032,4.315,4.944,1.1" transform="translate(-140.213 -207.485)" fill="none" stroke="#3f2b3b" stroke-miterlimit="10" stroke-width="1"/>
    <path id="Path_1879" data-name="Path 1879" d="M602.548,846.878h0c-.31,4.3-1.141,11.2-1.141,11.2s-3.454.419-8.794.9a4.506,4.506,0,0,1,0-.9c.73-5.254.489-9.314,3.881-10.26C599.676,846.955,601.3,846.637,602.548,846.878Z" transform="translate(-156.849 -205.202)" opacity="0.1"/>
    <path id="Path_1880" data-name="Path 1880" d="M603.547,847.585s9.414,1.723,4.323,9.841a3.5,3.5,0,0,1-1.739,1.436c-.6.21-1.18.21-1.118-.644l-4.152,4.765s-8.312.978-7.575-4.276.489-9.314,3.881-10.26S602.243,847.221,603.547,847.585Z" transform="translate(-156.995 -205.343)" fill="#6c63ff"/>
    <path id="Path_1881" data-name="Path 1881" d="M602.266,854.67s-2,4.556-4.766.73" transform="translate(-157.948 -206.964)" fill="none" stroke="#3f2b3b" stroke-miterlimit="10" stroke-width="1"/>
    <path id="Path_1882" data-name="Path 1882" d="M608.112,857s-1.04,4.315-4.952,1.1" transform="translate(-159.215 -207.485)" fill="none" stroke="#3f2b3b" stroke-miterlimit="10" stroke-width="1"/>
    <path id="Path_1883" data-name="Path 1883" d="M548.005,859.132c-3.151-.07-6.209-.233-9.042-.512l-2.817-9.484a6.156,6.156,0,0,1-.256-1.731,6.038,6.038,0,0,1,12.069-.039C547.99,851.06,548.021,855.74,548.005,859.132Z" transform="translate(-144.156 -204.029)" opacity="0.1"/>
    <path id="Path_1884" data-name="Path 1884" d="M535.287,849.077l3.322,11.192s-5.65-.124-4.106,3.423c0,0,1.42,1.343,1.909.854,0,0-.737,2.328,2.2,2.328,0,0,3.167,1.715,4.393.489s3.8-3.058,4.044-3.788c.155-.481.109-9.841.054-16.3a6.023,6.023,0,0,0-6.031-5.976h0a6.031,6.031,0,0,0-5.782,7.777Z" transform="translate(-143.785 -203.97)" fill="#6c63ff"/>
    <path id="Path_1885" data-name="Path 1885" d="M540.924,869.47s-2.468,2.328-1.164,3.7" transform="translate(-144.937 -210.277)" fill="none" stroke="#3f2b3b" stroke-miterlimit="10" stroke-width="1"/>
    <path id="Path_1886" data-name="Path 1886" d="M539.342,867.56s-2.282.776-2.282,2.864" transform="translate(-144.418 -209.849)" fill="none" stroke="#3f2b3b" stroke-miterlimit="10" stroke-width="1"/>
    <path id="Path_1887" data-name="Path 1887" d="M588.227,847.345a6.144,6.144,0,0,1-.248,1.731l-2.631,8.98c-2.779.225-5.9.442-9.2.629,0-3.353,0-7.816.054-11.378a6.031,6.031,0,0,1,12.061.039Z" transform="translate(-153.169 -203.969)" opacity="0.1"/>
    <path id="Path_1888" data-name="Path 1888" d="M588.58,849.077l-3.322,11.192s5.658-.124,4.114,3.423c0,0-1.42,1.343-1.909.854,0,0,.73,2.328-2.2,2.328,0,0-3.167,1.715-4.393.489s-3.788-3.058-4.036-3.788c-.155-.481-.109-9.841-.054-16.3a6.023,6.023,0,0,1,6.031-5.976h0a6.03,6.03,0,0,1,5.774,7.777Z" transform="translate(-153.297 -203.97)" fill="#6c63ff"/>
    <path id="Path_1889" data-name="Path 1889" d="M586.23,869.47s2.468,2.328,1.164,3.7" transform="translate(-155.425 -210.277)" fill="none" stroke="#3f2b3b" stroke-miterlimit="10" stroke-width="1"/>
    <path id="Path_1890" data-name="Path 1890" d="M587.63,867.56s2.282.776,2.282,2.864" transform="translate(-155.739 -209.849)" fill="none" stroke="#3f2b3b" stroke-miterlimit="10" stroke-width="1"/>
    <path id="Path_1891" data-name="Path 1891" d="M557.4,782.769s-11.495-.365-11.859,8.537,17.96,5.13,17.96,5.13,7.7-1.032,6.357-6.442S565.71,783.258,557.4,782.769Z" transform="translate(-146.315 -190.867)" opacity="0.1"/>
    <path id="Path_1892" data-name="Path 1892" d="M557.4,781.509s-11.495-.365-11.859,8.537,17.96,5.13,17.96,5.13,7.7-1.032,6.357-6.442S565.71,782,557.4,781.509Z" transform="translate(-146.315 -190.585)" opacity="0.1"/>
    <path id="Path_1893" data-name="Path 1893" d="M557.4,782.139s-11.495-.365-11.859,8.537,17.96,5.13,17.96,5.13,7.7-1.032,6.357-6.442S565.71,782.628,557.4,782.139Z" transform="translate(-146.315 -190.726)" fill="#3f2b3b"/>
    <path id="Path_1894" data-name="Path 1894" d="M527.78,839.92s3.881,1.382,4.657,4.028" transform="translate(-142.34 -203.662)" opacity="0.1"/>
    <path id="Path_1895" data-name="Path 1895" d="M597.538,837.4s-2.755,1.156-2.561,5.984" transform="translate(-157.381 -203.097)" opacity="0.1"/>
    <ellipse id="Ellipse_373" data-name="Ellipse 373" cx="1.799" cy="2.983" rx="1.799" ry="2.983" transform="translate(384.026 654.745) rotate(-29.887)" fill="#6c63ff"/>
    <ellipse id="Ellipse_374" data-name="Ellipse 374" cx="2.973" cy="1.793" rx="2.973" ry="1.793" transform="translate(438.653 655.446) rotate(-60)" fill="#6c63ff"/>
    <ellipse id="Ellipse_375" data-name="Ellipse 375" cx="1.799" cy="2.983" rx="1.799" ry="2.983" transform="translate(384.026 654.745) rotate(-29.887)" fill="#fff" opacity="0.5"/>
    <ellipse id="Ellipse_376" data-name="Ellipse 376" cx="2.973" cy="1.793" rx="2.973" ry="1.793" transform="translate(438.653 655.446) rotate(-60)" fill="#fff" opacity="0.5"/>
    <ellipse id="Ellipse_377" data-name="Ellipse 377" cx="20.901" cy="3.531" rx="20.901" ry="3.531" transform="translate(128.579 552.227)" fill="#6c63ff" opacity="0.1"/>
    <ellipse id="Ellipse_378" data-name="Ellipse 378" cx="20.901" cy="3.531" rx="20.901" ry="3.531" transform="translate(46.239 602.31)" fill="#6c63ff" opacity="0.1"/>
    <ellipse id="Ellipse_379" data-name="Ellipse 379" cx="31.208" cy="5.278" rx="31.208" ry="5.278" transform="translate(14.169 555.758)" fill="#6c63ff"/>
    <path id="Path_1896" data-name="Path 1896" d="M72.113,727.732a9.026,9.026,0,0,1-2.98-4.486c-.38-1.785.38-3.919,2.08-4.571,1.909-.729,3.951.59,5.5,1.925s3.322,2.864,5.348,2.585a8.142,8.142,0,0,1-2.515-7.622,3.1,3.1,0,0,1,.7-1.552c1.056-1.133,2.98-.644,4.253.248,4.028,2.841,5.161,8.32,5.177,13.256.411-1.785.07-3.632.078-5.433s.512-3.881,2.049-4.828a6.209,6.209,0,0,1,3.1-.776c1.816-.062,3.834.116,5.076,1.444,1.552,1.645,1.141,4.416-.2,6.209s-3.376,2.949-5.247,4.207a11.58,11.58,0,0,0-3.756,3.578,3.663,3.663,0,0,0-.279.637H79.152a31.389,31.389,0,0,1-7.04-4.82Z" transform="translate(-39.642 -175.327)" fill="#6c63ff"/>
    <ellipse id="Ellipse_380" data-name="Ellipse 380" cx="20.901" cy="3.531" rx="20.901" ry="3.531" transform="translate(778.38 581.766)" fill="#6c63ff" opacity="0.1"/>
    <path id="Path_1897" data-name="Path 1897" d="M1042.91,751.252s11.921-.365,15.523-2.926,18.332-5.611,19.225-1.506,17.921,20.4,4.455,20.513-31.271-2.1-34.856-4.284S1042.91,751.252,1042.91,751.252Z" transform="translate(-257.661 -182.37)" fill="#a8a8a8"/>
    <path id="Path_1898" data-name="Path 1898" d="M1082.345,767.769c-13.458.109-31.27-2.1-34.856-4.284-2.732-1.661-3.819-7.629-4.183-10.385h-.4s.776,9.616,4.339,11.8,21.4,4.393,34.856,4.284c3.881,0,5.231-1.413,5.153-3.462C1086.723,766.993,1085.24,767.769,1082.345,767.769Z" transform="translate(-257.661 -184.225)" opacity="0.2"/>
  </g>
</svg>
