<svg id="Component_32_1" data-name="Component 32 – 1" xmlns="http://www.w3.org/2000/svg" width="211.052" height="180.066" viewBox="0 0 211.052 180.066">
  <defs>
    <style>
      .cls-1 {
        fill: #57b894;
      }

      .cls-2 {
        fill: #f2f2f2;
      }

      .cls-3, .cls-4 {
        fill: #6c63ff;
      }

      .cls-4 {
        opacity: 0.3;
      }

      .cls-5 {
        fill: #e6e6e6;
      }

      .cls-6 {
        fill: #3f3d56;
      }

      .cls-7 {
        fill: #fbbebe;
      }

      .cls-8 {
        opacity: 0.1;
      }

      .cls-9 {
        fill: #2f2e41;
      }
    </style>
  </defs>
  <path id="Path_1532" data-name="Path 1532" class="cls-1" d="M971,471.385c-.034,2.687-.157,5.7-.433,8.869l7.74-9.65.054.151a24.144,24.144,0,0,0-2.784-6.172l.061.142Z" transform="translate(-780.905 -371.238)"/>
  <path id="Path_1533" data-name="Path 1533" class="cls-1" d="M971.175,455.156l4.492-6.452a12.716,12.716,0,0,0-4.6-4.371c-.092-.048-.184-.092-.276-.137C970.855,444.923,971.229,449.2,971.175,455.156Z" transform="translate(-781.073 -355.481)"/>
  <path id="Path_1534" data-name="Path 1534" class="cls-1" d="M968.768,563.5q.285-1.688.443-3.368L957.54,569.3l-.016-.081q-.263.992-.549,1.95l11.766-7.846Z" transform="translate(-770.398 -445.092)"/>
  <path id="Path_1535" data-name="Path 1535" class="cls-1" d="M965.328,510.838l10.446-9.681.041.167a37.951,37.951,0,0,0-1.454-8.839l-7.887,9.834Q966.064,506.776,965.328,510.838Z" transform="translate(-776.855 -392.806)"/>
  <path id="Path_1536" data-name="Path 1536" class="cls-1" d="M912.5,487.215l-13.973-13.885.061-.17a31.692,31.692,0,0,0-2.828,5.726l15.9,15.08C912.043,491.609,912.313,489.332,912.5,487.215Z" transform="translate(-723.085 -377.868)"/>
  <path id="Path_1537" data-name="Path 1537" class="cls-1" d="M908.553,516.138q.16-.864.3-1.716l-15.959-15.136.059-.171q-.4,1.056-.743,2.181l.058-.171Z" transform="translate(-720.338 -397.931)"/>
  <path id="Path_1538" data-name="Path 1538" class="cls-1" d="M959.831,547.3l11.574-9.09.034.174a45.292,45.292,0,0,0,.136-6.107l-10.587,9.812Q960.482,544.8,959.831,547.3Z" transform="translate(-772.606 -423.566)"/>
  <path id="Path_1539" data-name="Path 1539" class="cls-1" d="M886.064,552.043l13.087,15.172a54.488,54.488,0,0,0,2.3-6.114L885.7,546.364a43.86,43.86,0,0,0,.29,5.861Z" transform="translate(-715.301 -434.452)"/>
  <path id="Path_1540" data-name="Path 1540" class="cls-1" d="M941.891,441.347l.106-.055a8.6,8.6,0,0,0-8.305.654l8.6,10.363C942.345,445.86,941.9,441.411,941.891,441.347Z" transform="translate(-752.402 -352.632)"/>
  <path id="Path_1541" data-name="Path 1541" class="cls-1" d="M948.429,584.47a54.141,54.141,0,0,1-2.079,5.514l11.874-7.041.023.175a21.46,21.46,0,0,0,1.859-5.09q.232-1.043.413-2.089l-11.906,7.939C948.551,584.076,948.491,584.275,948.429,584.47Z" transform="translate(-762.185 -457.312)"/>
  <path id="Path_1542" data-name="Path 1542" class="cls-1" d="M922.9,457.949l-8.793-10.6.067-.162a18.273,18.273,0,0,0-5.558,5.757l13.859,13.772C922.749,463.58,922.869,460.6,922.9,457.949Z" transform="translate(-733.022 -357.792)"/>
  <path id="Path_1543" data-name="Path 1543" class="cls-1" d="M901.625,532.237a73.558,73.558,0,0,0,1.88-7.692L887.18,509.5q-.464,1.525-.831,3.166a26.351,26.351,0,0,0-.576,4.764l15.84,14.82Z" transform="translate(-715.363 -405.954)"/>
  <path id="Path_1544" data-name="Path 1544" class="cls-1" d="M1009.257,673.475c-1.74,2.047-3.755,4.287-5.99,6.554l12.116-2.5-.054.151a24.141,24.141,0,0,0,1.792-6.53l-.043.148Z" transform="translate(-806.179 -530.908)"/>
  <path id="Path_1545" data-name="Path 1545" class="cls-1" d="M1037.813,641.8c-.04-.1-.083-.189-.126-.281-.411.6-2.847,4.133-6.691,8.689l7.575-2.1A12.734,12.734,0,0,0,1037.813,641.8Z" transform="translate(-827.613 -508.002)"/>
  <path id="Path_1546" data-name="Path 1546" class="cls-1" d="M946.547,754.365q-.836.6-1.667,1.151l14.066,1.462-.093.155q1.3-1.118,2.489-2.311l-14.836-.384Z" transform="translate(-761.049 -595.226)"/>
  <path id="Path_1547" data-name="Path 1547" class="cls-1" d="M973.9,708.974l14.22-.794-.075.155a37.955,37.955,0,0,0,4.517-7.736l-12.347,2.544Q977.061,706.316,973.9,708.974Z" transform="translate(-783.483 -553.668)"/>
  <path id="Path_1548" data-name="Path 1548" class="cls-1" d="M953.638,739.446l14.712.381-.085.155a45.314,45.314,0,0,0,4-4.617l-14.412.8Q955.738,737.93,953.638,739.446Z" transform="translate(-767.819 -580.54)"/>
  <path id="Path_1549" data-name="Path 1549" class="cls-1" d="M820.539,620.713c.1-.111.2-.225.3-.343a37.712,37.712,0,0,0,8.548-2.992l-.212-10.552q.154-.414.3-.833l.226,11.234a54.5,54.5,0,0,0,5.671-3.243l-2.495-19.537.309-.186,2.491,19.512h.014a73.568,73.568,0,0,0,6.354-4.725l-2.6-19.216.3-.25,2.6,19.216q.674-.563,1.326-1.13L841.316,588.2l.3-.278,2.354,19.484c1.795-1.574,3.455-3.155,4.953-4.664l-1.905-19.606.155-.092c-.537.174-1.08.371-1.627.586a27.769,27.769,0,0,0,2.6-4.014l-11.987,7.108a41.677,41.677,0,0,1-2.6,4.84c-.213.225-.425.454-.634.689l.03.239q-.139.208-.281.412l-.04-.317c-.119.137-.237.277-.355.418a39.24,39.24,0,0,0,3.66-6.4l-12.991-15.061c.163,1.4.382,2.8.639,4.2a23.839,23.839,0,0,0-4.332-4.7l.1.116-2.352,7.768c.8,2.566,1.611,5.467,2.329,8.568l4.317-11.41q.049.259.1.517l-4.306,11.381q.989,4.365,1.544,8.455l5.4-9.673.125.394-5.458,9.778q.355,2.729.51,5.315l6.707-10,.135.363-6.777,10.106-.04-.072q.056,1.025.08,2.024l7.657-9.7.142.348-7.789,9.863c0,.207.008.414.009.619a54.16,54.16,0,0,1-.273,5.886l.744-.846q-.2.479-.385.944l-.423.481q-.05.437-.109.867-.216.558-.416,1.089.162-1,.28-2.008L804.1,601.908c4.9,10.672,13.538,20.594,14.09,21.223q.557-1.2,1.005-2.461l.3-.049c-.035.1-.069.2-.105.3l-.159.027.138.03q-.319.881-.681,1.722c.34-.344.85-.874,1.468-1.561,3.907.76,14.39,2.258,23.08-1.357l-13.766-2.171a38.089,38.089,0,0,1-8.934,3.1Zm8.557-17.756.307-.349.01.5-.307.349Z" transform="translate(-652.232 -453.524)"/>
  <path id="Path_1550" data-name="Path 1550" class="cls-1" d="M1036.913,624.658l.117.025a8.6,8.6,0,0,0-6.813-4.794l.01,13.464C1034.383,628.423,1036.876,624.711,1036.913,624.658Z" transform="translate(-827.01 -491.283)"/>
  <path id="Path_1551" data-name="Path 1551" class="cls-1" d="M923.279,761.025a54.164,54.164,0,0,1-5.118,2.921L931.8,766.1l-.095.15a21.472,21.472,0,0,0,4.678-2.735q.844-.655,1.651-1.345L923.8,760.685C923.625,760.8,923.452,760.913,923.279,761.025Z" transform="translate(-740.397 -600.112)"/>
  <path id="Path_1552" data-name="Path 1552" class="cls-1" d="M996.4,639.679c2.208-2.243,4.2-4.457,5.918-6.481l-.011-13.773.155-.082a18.276,18.276,0,0,0-7.953.889Z" transform="translate(-799.408 -490.761)"/>
  <path id="Path_1553" data-name="Path 1553" class="cls-1" d="M849.811,561.181a12.716,12.716,0,0,0-5.731-2.734c-.1-.017-.2-.031-.3-.044.29.67,1.967,4.617,3.758,10.3Z" transform="translate(-682.901 -443.757)"/>
  <path id="Path_1554" data-name="Path 1554" class="cls-1" d="M807.671,614.353l-17.58-8.887.005-.18a31.7,31.7,0,0,0-.92,6.32l19.783,9.427C808.59,618.675,808.144,616.426,807.671,614.353Z" transform="translate(-640.697 -479.996)"/>
  <path id="Path_1555" data-name="Path 1555" class="cls-1" d="M808.863,643.55l-19.856-9.462,0-.181q-.05,1.127-.033,2.3l0-.181,20.128,9.245Q808.993,644.4,808.863,643.55Z" transform="translate(-640.541 -502.119)"/>
  <path id="Path_1556" data-name="Path 1556" class="cls-1" d="M813.992,691.007l-19.534-9.146a43.825,43.825,0,0,0,2.088,5.485l.014-.2L813.7,697.532A54.49,54.49,0,0,0,813.992,691.007Z" transform="translate(-644.781 -539.184)"/>
  <path id="Path_1557" data-name="Path 1557" class="cls-1" d="M816.926,558.2l.084-.085a8.6,8.6,0,0,0-7.7,3.189l11.378,7.2C818.753,562.352,816.952,558.26,816.926,558.2Z" transform="translate(-656.263 -443.487)"/>
  <path id="Path_1558" data-name="Path 1558" class="cls-1" d="M808.547,580.435l-11.639-7.364.014-.175a18.273,18.273,0,0,0-3.506,7.193l17.437,8.814C810.141,585.837,809.336,582.97,808.547,580.435Z" transform="translate(-643.975 -454.959)"/>
  <path id="Path_1559" data-name="Path 1559" class="cls-1" d="M809.769,662.029a73.547,73.547,0,0,0-.589-7.9L789,644.866q.03,1.594.189,3.267a26.366,26.366,0,0,0,.924,4.708l19.646,9.2Z" transform="translate(-640.563 -510.589)"/>
  <path id="Path_1560" data-name="Path 1560" class="cls-2" d="M605.731,267.606l-58.6-7.387c-2.656-22.094,1.357-43.664,8.208-65.114l58.6,7.387A120.519,120.519,0,0,0,605.731,267.606Z" transform="translate(-452.968 -162.946)"/>
  <rect id="Rectangle_537" data-name="Rectangle 537" class="cls-3" width="36.096" height="3.878" transform="matrix(0.992, 0.125, -0.125, 0.992, 110.556, 39.955)"/>
  <rect id="Rectangle_538" data-name="Rectangle 538" class="cls-4" width="48.924" height="1.939" transform="matrix(0.992, 0.125, -0.125, 0.992, 102.278, 48.383)"/>
  <rect id="Rectangle_539" data-name="Rectangle 539" class="cls-4" width="48.924" height="1.939" transform="matrix(0.992, 0.125, -0.125, 0.992, 101.494, 54.598)"/>
  <rect id="Rectangle_540" data-name="Rectangle 540" class="cls-4" width="48.924" height="1.939" transform="matrix(0.992, 0.125, -0.125, 0.992, 100.711, 60.813)"/>
  <rect id="Rectangle_541" data-name="Rectangle 541" class="cls-4" width="48.924" height="1.939" transform="matrix(0.992, 0.125, -0.125, 0.992, 99.927, 67.029)"/>
  <rect id="Rectangle_542" data-name="Rectangle 542" class="cls-4" width="48.924" height="1.939" transform="matrix(0.992, 0.125, -0.125, 0.992, 99.144, 73.244)"/>
  <rect id="Rectangle_543" data-name="Rectangle 543" class="cls-4" width="48.924" height="1.939" transform="matrix(0.992, 0.125, -0.125, 0.992, 98.36, 79.46)"/>
  <rect id="Rectangle_544" data-name="Rectangle 544" class="cls-4" width="48.924" height="1.939" transform="matrix(0.992, 0.125, -0.125, 0.992, 97.577, 85.676)"/>
  <path id="Path_1561" data-name="Path 1561" class="cls-5" d="M499.174,136.359l-54.827-21.975c3.021-22.047,12.361-41.9,24.417-60.919L523.591,75.44A120.517,120.517,0,0,0,499.174,136.359Z" transform="translate(-374.162 -53.465)"/>
  <rect id="Rectangle_545" data-name="Rectangle 545" class="cls-3" width="36.096" height="3.878" transform="translate(100.55 9.61) rotate(21.841)"/>
  <rect id="Rectangle_546" data-name="Rectangle 546" class="cls-4" width="48.924" height="1.939" transform="translate(90.409 15.669) rotate(21.841)"/>
  <rect id="Rectangle_547" data-name="Rectangle 547" class="cls-4" width="48.924" height="1.939" transform="translate(88.078 21.484) rotate(21.841)"/>
  <rect id="Rectangle_548" data-name="Rectangle 548" class="cls-4" width="48.924" height="1.939" transform="translate(85.747 27.299) rotate(21.841)"/>
  <rect id="Rectangle_549" data-name="Rectangle 549" class="cls-4" width="48.924" height="1.939" transform="translate(83.416 33.114) rotate(21.841)"/>
  <rect id="Rectangle_550" data-name="Rectangle 550" class="cls-4" width="48.924" height="1.939" transform="translate(81.086 38.929) rotate(21.841)"/>
  <rect id="Rectangle_551" data-name="Rectangle 551" class="cls-4" width="48.924" height="1.939" transform="translate(78.755 44.744) rotate(21.841)"/>
  <rect id="Rectangle_552" data-name="Rectangle 552" class="cls-4" width="48.924" height="1.939" transform="translate(76.424 50.559) rotate(21.841)"/>
  <path id="Path_1562" data-name="Path 1562" class="cls-2" d="M412.821,218.442H353.754c-5.4-21.589-4.115-43.491,0-65.63h59.067A120.52,120.52,0,0,0,412.821,218.442Z" transform="translate(-301.368 -130.255)"/>
  <rect id="Rectangle_553" data-name="Rectangle 553" class="cls-3" width="36.096" height="3.878" transform="translate(61.485 29.269)"/>
  <rect id="Rectangle_554" data-name="Rectangle 554" class="cls-4" width="48.924" height="1.939" transform="translate(54.325 38.666)"/>
  <rect id="Rectangle_555" data-name="Rectangle 555" class="cls-4" width="48.924" height="1.939" transform="translate(54.325 44.931)"/>
  <rect id="Rectangle_556" data-name="Rectangle 556" class="cls-4" width="48.924" height="1.939" transform="translate(54.325 51.195)"/>
  <rect id="Rectangle_557" data-name="Rectangle 557" class="cls-4" width="48.924" height="1.939" transform="translate(54.325 57.46)"/>
  <rect id="Rectangle_558" data-name="Rectangle 558" class="cls-4" width="48.924" height="1.939" transform="translate(54.325 63.724)"/>
  <rect id="Rectangle_559" data-name="Rectangle 559" class="cls-4" width="48.924" height="1.939" transform="translate(54.325 69.989)"/>
  <rect id="Rectangle_560" data-name="Rectangle 560" class="cls-4" width="48.924" height="1.939" transform="translate(54.325 76.254)"/>
  <path id="Path_1563" data-name="Path 1563" class="cls-6" d="M329.321,326.34l-20.349-15.82a2.323,2.323,0,0,0-2.014-1.165H295.975a2.323,2.323,0,0,0-2.323,2.323v96.937a7.535,7.535,0,0,0,7.535,7.535H413.931a7.535,7.535,0,0,0,7.535-7.535V333.188a6.848,6.848,0,0,0-6.848-6.848Z" transform="translate(-257.682 -251.255)"/>
  <rect id="Rectangle_561" data-name="Rectangle 561" class="cls-3" width="20.45" height="7.158" transform="translate(139.499 97.565)"/>
  <path id="Path_1564" data-name="Path 1564" class="cls-2" d="M135.228,763.644s93.531-53.49,206.473,0" transform="translate(-135.228 -584.023)"/>
  <path id="Path_1565" data-name="Path 1565" class="cls-7" d="M219.011,301.058s1,5.32.3,5.722a12.2,12.2,0,0,0-1.606,1.2l1.807,2.51,4.316.9,4.116-3.815v-3.815s-1.2-1.907-1-3.112S219.011,301.058,219.011,301.058Z" transform="translate(-198.98 -244.185)"/>
  <path id="Path_1566" data-name="Path 1566" class="cls-8" d="M219.011,301.058s1,5.32.3,5.722a12.2,12.2,0,0,0-1.606,1.2l1.807,2.51,4.316.9,4.116-3.815v-3.815s-1.2-1.907-1-3.112S219.011,301.058,219.011,301.058Z" transform="translate(-198.98 -244.185)"/>
  <path id="Path_1567" data-name="Path 1567" class="cls-9" d="M178.7,344.183l-.6.3s-1.3.5-1.907,4.818-2.008,14.656-1.606,14.957.2,2.309.2,2.309l3.011-15.76Z" transform="translate(-165.59 -278.176)"/>
  <path id="Path_1568" data-name="Path 1568" class="cls-9" d="M209.573,233.056c-.092.192-.124.415-.21.611-.391.887-1.5.688-2.308,1.023a2.23,2.23,0,0,0-1.241,1.906c-.023.358.03.719,0,1.075-.059.659-.4,1.239-.52,1.887-.294,1.573.392,4.056,1.166,3.207.244-.268.55-.445.813-.686a14.368,14.368,0,0,0,1.589-2.4.839.839,0,0,1,.282-.28c.406-.2.768.339,1.089.693a1.706,1.706,0,0,0,2.559-.049,1.5,1.5,0,0,1,.36-.368.769.769,0,0,1,.5-.049,3.289,3.289,0,0,1,2.006,1.194,6.064,6.064,0,0,0,.814.969.8.8,0,0,0,1.08.036,2.562,2.562,0,0,1,.8,2.083c0,.8-.162,1.588-.122,2.383a2.228,2.228,0,0,0,.986,1.945,2.832,2.832,0,0,1,1.049-1.835,7.208,7.208,0,0,0,1.321-.9c.731-.839.5-2.235.527-3.433.035-1.477.546-2.889.637-4.362a2.775,2.775,0,0,0-1.51-3.054l-3.445-2.21a1.47,1.47,0,0,0-.511-.242c-.507-.091-.946.385-1.426.594a2.889,2.889,0,0,1-1.252.152c-1.338-.036-1.714.224-2.613-.648a.634.634,0,0,0-.543-.181C210.911,232.2,209.867,232.442,209.573,233.056Z" transform="translate(-189.329 -191.548)"/>
  <path id="Path_1569" data-name="Path 1569" class="cls-7" d="M83.5,716.92l2.108,4.617-4.116,1.405-2.108-1.1.5-4.919Z" transform="translate(-61.36 -554.144)"/>
  <path id="Path_1570" data-name="Path 1570" class="cls-9" d="M179.376,782.677s-3.313-2.008-3.915-1.305-5.421,5.822-5.421,5.822-7.428,4.015-1.706,4.618,15.057-3.513,15.057-3.513.5-5.421.1-5.521-2.108.9-2.911.6A3.6,3.6,0,0,1,179.376,782.677Z" transform="translate(-159.144 -615.986)"/>
  <path id="Path_1571" data-name="Path 1571" class="cls-7" d="M102.932,734.141v4.116l-5.421-1.2,1.2-4.216Z" transform="translate(-75.371 -566.446)"/>
  <path id="Path_1572" data-name="Path 1572" class="cls-9" d="M226.8,797.746s5.521-.9,6.023,1.807,1.807,6.726.5,7.729-8.031,2.309-8.131.6a23.985,23.985,0,0,1,.7-5.019s.5-2.61.2-3.313S226.8,797.746,226.8,797.746Z" transform="translate(-204.759 -628.646)"/>
  <path id="Path_1573" data-name="Path 1573" class="cls-9" d="M175.965,499.628s-4.532,28.735-.818,42.789,6.324,22.385,6.324,22.385,6.424-1.807,6.424-3.011-2.51-19.073-3.112-20.779-1.606-2.309-.7-3.714,2.409-10.44,2.409-10.44S189.8,541.814,190,542.216,187.9,565.6,187.9,565.6s6.626,4.809,7.027,1.2c.1-.9,4.517-32.925,4.517-33.327s1.807-31.119-1.1-32.624S175.965,499.628,175.965,499.628Z" transform="translate(-164.953 -398.312)"/>
  <circle id="Ellipse_311" data-name="Ellipse 311" class="cls-7" cx="6.826" cy="6.826" r="6.826" transform="translate(17.121 45.228)"/>
  <path id="Path_1574" data-name="Path 1574" class="cls-3" d="M194.424,319.413v-.7l-2.008-3.313s-2.008.2-2.309,1.1-3.714,8.131-3.714,8.131l-3.614,32.424s9.938,2.409,11.444.7,7.228-38.848,7.228-38.848l.8-4.517s-1.379-2.008-1.693-1.706-5.534,6.123-5.534,6.123l-.1.9Z" transform="translate(-171.983 -253.807)"/>
  <path id="Path_1575" data-name="Path 1575" class="cls-9" d="M177.773,321.545s-1.857-.452-2.459.652-.6,1.506-1.2,1.907-4.116,2.208-4.316,2.911-4.517,22.887-4.517,22.887-2.108,6.625-1.1,11.142.3,5.421,2.409,5.822,2.409.4,2.409-.2,2.71-20.98,4.618-22.385,1.405-16.764,1.405-16.764,2.71-3.313,2.71-3.815S178.175,321.507,177.773,321.545Z" transform="translate(-157.39 -260.607)"/>
  <path id="Path_1576" data-name="Path 1576" class="cls-9" d="M222.228,321.911c.28.047,4.116-4.919,4.417-4.718S228.452,320,228.653,320s8.733,2.108,9.436,6.023-4.919,16.362-4.919,16.362-2.409,7.127-1.907,10.239a20.963,20.963,0,0,1-.2,7.127c-.2.8-.9,1.707-.7,2.108s-4.417-.5-6.324.6-10.44,1.907-9.938.7.8-5.923,2.208-10.942,5.019-16.864,4.417-17.667S221.626,321.811,222.228,321.911Z" transform="translate(-196.173 -257.309)"/>
  <path id="Path_1577" data-name="Path 1577" class="cls-9" d="M289.642,350.814l1.3,1.2s1.506,2.61,1.3,3.815,4.216,19.374,2.409,19.976-6.123,3.614-6.625,4.417a8.911,8.911,0,0,1-2.509,2.61c-.8.4-1.606,1.1-2.108.7s-1.606-8.633-.8-8.934,1.606-1.2,2.409-1.2a1.44,1.44,0,0,0,1.3-1.506c0-.7-.6-4.919-.6-4.919l-1.3-9.938Z" transform="translate(-248.932 -283.301)"/>
  <path id="Path_1578" data-name="Path 1578" class="cls-9" d="M216.592,238.24c-.081.145-.11.314-.186.462-.346.67-1.331.52-2.041.774a1.7,1.7,0,0,0-1.1,1.441c-.02.27.026.543,0,.813a13.748,13.748,0,0,1-.46,1.426c-.26,1.189.346,3.066,1.031,2.425.216-.2.486-.336.719-.519a10.9,10.9,0,0,0,1.405-1.815.7.7,0,0,1,.25-.212c.359-.153.679.256.963.524a1.683,1.683,0,0,0,2.263-.037,1.244,1.244,0,0,1,.319-.278.786.786,0,0,1,.443-.037,3.035,3.035,0,0,1,1.774.9,4.851,4.851,0,0,0,.72.733.8.8,0,0,0,.955.027,1.8,1.8,0,0,1,.709,1.575c0,.6-.143,1.2-.108,1.8a1.628,1.628,0,0,0,.871,1.47,2.1,2.1,0,0,1,.927-1.387,6.518,6.518,0,0,0,1.168-.68c.646-.635.441-1.69.466-2.6.031-1.116.483-2.184.563-3.3a2.312,2.312,0,0,0-.37-1.594,2.979,2.979,0,0,0-.965-.715l-3.047-1.671a1.407,1.407,0,0,0-.452-.183c-.448-.069-.836.291-1.261.449a2.961,2.961,0,0,1-1.107.115c-1.183-.027-1.516.169-2.311-.49a.622.622,0,0,0-.48-.137C217.776,237.594,216.852,237.776,216.592,238.24Z" transform="translate(-195.144 -195.733)"/>
</svg>
