<svg id="Component_36_1" data-name="Component 36 – 1" xmlns="http://www.w3.org/2000/svg" width="255.748" height="199.166" viewBox="0 0 255.748 199.166">
  <defs>
    <style>
      .cls-1 {
        fill: #f2f2f2;
      }

      .cls-2 {
        fill: #ff6584;
      }

      .cls-3 {
        fill: none;
        stroke: #2f2e41;
        stroke-width: 2px;
      }

      .cls-4 {
        fill: #fff;
        opacity: 0.4;
      }

      .cls-5 {
        fill: #3f3d56;
      }

      .cls-6 {
        opacity: 0.1;
      }

      .cls-7 {
        fill: #2f2e41;
      }

      .cls-8 {
        fill: #f0efff;
      }

      .cls-9 {
        fill: #6c63ff;
      }

      .cls-10 {
        opacity: 0.15;
      }
    </style>
  </defs>
  <path id="Path_1626" data-name="Path 1626" class="cls-1" d="M365.972,108.23C355.216,65.935,318.051,35.4,274.428,34.18c-23.062-.647-47.331,7-65,33.767-31.585,47.847,1.941,80.911,25.315,96.622a146.254,146.254,0,0,1,30.23,27.171c15.788,18.735,46.161,42.016,82.333,5.538C373.524,170.839,373.136,136.4,365.972,108.23Z" transform="translate(-165.281 -34.143)"/>
  <path id="Path_1627" data-name="Path 1627" class="cls-2" d="M1007.751,319.733c0,10.977-8.9,28.5-19.876,28.5S968,330.709,968,319.733a19.876,19.876,0,1,1,39.751,0Z" transform="translate(-752.003 -236.228)"/>
  <path id="Path_1628" data-name="Path 1628" class="cls-3" d="M1024.08,504.809c-2.5.86-3.1,4.266-2.236,6.764s2.679,4.57,3.594,7.048a21.122,21.122,0,0,1,.9,3.841,32.152,32.152,0,0,1,.644,9.4,26.721,26.721,0,0,1-2.924,8.435,78.9,78.9,0,0,1-9.417,14.533" transform="translate(-787.473 -392.101)"/>
  <path id="Path_1629" data-name="Path 1629" class="cls-2" d="M1046.831,497.688a3.293,3.293,0,0,0-3.831,0v-3.831h3.831Z" transform="translate(-809.044 -383.772)"/>
  <path id="Path_1630" data-name="Path 1630" class="cls-3" d="M1043.04,501.468a4.214,4.214,0,0,0,3.838-.016" transform="translate(-809.074 -389.548)"/>
  <ellipse id="Ellipse_348" data-name="Ellipse 348" class="cls-4" cx="4.191" cy="5.029" rx="4.191" ry="5.029" transform="translate(239.943 70.094)"/>
  <path id="Path_1631" data-name="Path 1631" class="cls-2" d="M66,306.732c0,10.977,8.9,28.5,19.876,28.5s19.876-17.519,19.876-28.5a19.876,19.876,0,0,0-39.751,0Z" transform="translate(-66 -226.341)"/>
  <path id="Path_1632" data-name="Path 1632" class="cls-3" d="M136.269,491.809c2.5.86,3.1,4.266,2.237,6.764s-2.679,4.57-3.594,7.048a21.121,21.121,0,0,0-.9,3.841,32.148,32.148,0,0,0-.645,9.4,26.721,26.721,0,0,0,2.924,8.435,78.908,78.908,0,0,0,9.416,14.533" transform="translate(-117.129 -382.214)"/>
  <path id="Path_1633" data-name="Path 1633" class="cls-2" d="M141,484.688a3.293,3.293,0,0,1,3.831,0v-3.831H141Z" transform="translate(-123.04 -373.885)"/>
  <path id="Path_1634" data-name="Path 1634" class="cls-3" d="M144.768,488.468a4.215,4.215,0,0,1-3.838-.016" transform="translate(-122.987 -379.661)"/>
  <ellipse id="Ellipse_349" data-name="Ellipse 349" class="cls-4" cx="4.191" cy="5.029" rx="4.191" ry="5.029" transform="translate(7.423 66.981)"/>
  <path id="Path_1635" data-name="Path 1635" class="cls-5" d="M339.322,659.3c0,11.308-53.177,31.37-118.774,31.37S108,650.012,108,638.7s46.951,11.015,112.548,11.015S339.322,647.99,339.322,659.3Z" transform="translate(-97.943 -491.502)"/>
  <path id="Path_1636" data-name="Path 1636" class="cls-6" d="M339.322,659.3c0,11.308-53.177,31.37-118.774,31.37S108,650.012,108,638.7s46.951,11.015,112.548,11.015S339.322,647.99,339.322,659.3Z" transform="translate(-97.943 -491.502)"/>
  <path id="Path_1637" data-name="Path 1637" class="cls-5" d="M339.322,653.37c0,11.308-53.177,20.474-118.774,20.474S108,644.2,108,632.9s46.951,0,112.548,0S339.322,642.063,339.322,653.37Z" transform="translate(-97.943 -485.694)"/>
  <path id="Path_1638" data-name="Path 1638" class="cls-7" d="M473.963,598.35l-2.405,15.357s-11.842,6.291-3.516,6.476,47.552,0,47.552,0,7.586,0-4.441-6.661l-2.405-16.1Z" transform="translate(-369.511 -462.539)"/>
  <path id="Path_1639" data-name="Path 1639" class="cls-6" d="M466.375,620.016a32.753,32.753,0,0,1,5.19-3.436l2.405-15.357,34.785.033L511.16,616.4a31.586,31.586,0,0,1,5.558,3.657c1.545-.352,3.233-1.662-5.558-6.531l-2.405-16.1-34.785.925-2.405,15.357S461.614,618.994,466.375,620.016Z" transform="translate(-369.519 -462.539)"/>
  <rect id="Rectangle_572" data-name="Rectangle 572" class="cls-7" width="156.717" height="109.165" rx="7" transform="translate(43.301 28.774)"/>
  <rect id="Rectangle_573" data-name="Rectangle 573" class="cls-8" width="146.171" height="81.782" transform="translate(48.574 34.602)"/>
  <circle id="Ellipse_350" data-name="Ellipse 350" class="cls-1" cx="0.925" cy="0.925" r="0.925" transform="translate(120.734 31.086)"/>
  <path id="Path_1640" data-name="Path 1640" class="cls-7" d="M403.541,547.2v9.569a5.51,5.51,0,0,1-5.511,5.51h-145.7a5.51,5.51,0,0,1-5.51-5.511V547.2Z" transform="translate(-203.523 -424.343)"/>
  <path id="Path_1641" data-name="Path 1641" class="cls-7" d="M362.657,678.889v1.85H263.113v-1.48l.137-.37,2.453-6.661h94.918Z" transform="translate(-200.107 -511.254)"/>
  <path id="Path_1642" data-name="Path 1642" class="cls-7" d="M816.024,706.389c-.181.775-.866,1.593-2.413,2.367-5.551,2.775-16.837-.74-16.837-.74s-8.7-1.48-8.7-5.366a6.96,6.96,0,0,1,.762-.453c2.334-1.235,10.071-4.281,23.791.129a5.723,5.723,0,0,1,2.608,1.709A2.729,2.729,0,0,1,816.024,706.389Z" transform="translate(-615.166 -540.565)"/>
  <path id="Path_1643" data-name="Path 1643" class="cls-6" d="M818.445,706.389c-6.794,2.6-12.85,2.8-19.065-1.519a13.649,13.649,0,0,0-8.119-2.674c2.334-1.235,10.072-4.281,23.792.129a5.722,5.722,0,0,1,2.608,1.709A2.729,2.729,0,0,1,818.445,706.389Z" transform="translate(-617.587 -540.565)"/>
  <ellipse id="Ellipse_351" data-name="Ellipse 351" class="cls-1" cx="2.405" cy="0.74" rx="2.405" ry="0.74" transform="translate(189.934 162.825)"/>
  <circle id="Ellipse_352" data-name="Ellipse 352" class="cls-1" cx="3.515" cy="3.515" r="3.515" transform="translate(118.144 126.93)"/>
  <path id="Path_1644" data-name="Path 1644" class="cls-6" d="M362.657,700.044v1.85H263.113v-1.48l.137-.37Z" transform="translate(-200.107 -532.409)"/>
  <path id="Path_1645" data-name="Path 1645" class="cls-3" d="M907.084,338.809c-2.5.86-3.1,4.266-2.237,6.764s2.679,4.57,3.594,7.048a21.122,21.122,0,0,1,.9,3.841,32.145,32.145,0,0,1,.644,9.4,26.722,26.722,0,0,1-2.924,8.435,78.909,78.909,0,0,1-9.416,14.533" transform="translate(-698.493 -265.852)"/>
  <path id="Path_1646" data-name="Path 1646" class="cls-9" d="M890.751,153.732c0,10.977-8.9,28.5-19.876,28.5S851,164.709,851,153.732a19.876,19.876,0,0,1,39.751,0Z" transform="translate(-663.021 -109.979)"/>
  <path id="Path_1647" data-name="Path 1647" class="cls-9" d="M929.831,331.688a3.292,3.292,0,0,0-3.831,0v-3.831h3.831Z" transform="translate(-720.061 -257.523)"/>
  <path id="Path_1648" data-name="Path 1648" class="cls-3" d="M926.042,335.468a4.214,4.214,0,0,0,3.838-.016" transform="translate(-720.093 -263.299)"/>
  <ellipse id="Ellipse_353" data-name="Ellipse 353" class="cls-4" cx="4.191" cy="5.029" rx="4.191" ry="5.029" transform="translate(211.926 30.343)"/>
  <path id="Path_1649" data-name="Path 1649" class="cls-9" d="M480.782,288.552v20.725L475.3,320.33h0l-.174.349-14.5-.958-5.576-.369-12.941-.855v-24.79l12.941.365,5.787.164,14.64.414Z" transform="translate(-336.24 -219.454)"/>
  <path id="Path_1650" data-name="Path 1650" class="cls-6" d="M586.207,293.658v19.5l-1.339,2.7h0l-1.373,2.768h0l-2.767,5.584.309-20.725.063-4.181,2.632-2.911h0l1.147-1.269Z" transform="translate(-441.665 -223.338)"/>
  <path id="Path_1651" data-name="Path 1651" class="cls-9" d="M477.9,260.846v7.239l-.744,1.185-1.329,2.117-1.177,1.875-2.6,4.144-.062,0-34.644-1.782v-7.14l.087-.094,4.136-4.477,1.5-1.62,2.708-2.931Z" transform="translate(-332.618 -197.251)"/>
  <path id="Path_1652" data-name="Path 1652" class="cls-6" d="M472.053,298.941v7.14L437.347,304.3v-7.14l.087-.094Z" transform="translate(-332.618 -225.926)"/>
  <path id="Path_1653" data-name="Path 1653" class="cls-10" d="M588.132,265.57v7.239l-5.851,9.321v-7.14Z" transform="translate(-442.846 -201.976)"/>
  <path id="Path_1654" data-name="Path 1654" class="cls-7" d="M489.249,273.486l0,4.864V280.7l-.01,18.388h0l-1.373,2.768.205-19.281.031-2.951h0l.047-4.356-33.161-2.044,1.5-1.62Z" transform="translate(-346.032 -206.561)"/>
  <path id="Path_1655" data-name="Path 1655" class="cls-7" d="M504.28,280.477l-2.324,5.046-.021,2.572-.211,25.485-5.576-.369V285.187l2.975-4.71Z" transform="translate(-377.339 -213.313)"/>
  <path id="Path_1656" data-name="Path 1656" class="cls-7" d="M545.94,288.177a7.367,7.367,0,0,1-4.156.146,1.669,1.669,0,0,1-.729-.338,1.887,1.887,0,0,1-.451-.893,7.061,7.061,0,0,1-.4-2.138,2.387,2.387,0,0,1,.889-1.909,2.1,2.1,0,0,0,.338-.254,1.4,1.4,0,0,0,.261-.531c.406-1.212,1.194-2.491,2.457-2.685,1.166-.179,2.226.635,3.124,1.4l1.971,1.677a3.11,3.11,0,0,1,5.8-.079,11.029,11.029,0,0,1,4.385-3.009,1.349,1.349,0,0,1,1.152-.045,1.321,1.321,0,0,1,.459.615,9.473,9.473,0,0,1,.854,3.737.654.654,0,0,1,.76.262,1.725,1.725,0,0,1,.253.824,11.672,11.672,0,0,1,.078,1.357,2.047,2.047,0,0,1-.356,1.358,2.255,2.255,0,0,1-1.716.533.688.688,0,0,1-.177,1.019,1.988,1.988,0,0,1-1.152.224,8.024,8.024,0,0,1-4.44-.91c-.5-.336-.926-.784-1.43-1.118a6.954,6.954,0,0,0-4.224-.79C548.2,286.69,547.171,287.764,545.94,288.177Z" transform="translate(-426.651 -220.673)"/>
  <path id="Path_1657" data-name="Path 1657" class="cls-7" d="M516.682,314.62S503.89,316.4,502.1,324.139l2.677-.4,1.884,3.371s1.983-7.536,7.834-9.321a64.057,64.057,0,0,1,7.933-2.082s4.066.992,7.735,12.792l2.082-2.876,3.669.793s-2.677-9.222-9.916-11.8Z" transform="translate(-397.673 -247.456)"/>
</svg>
