<svg id="Component_26_1" data-name="Component 26 – 1" xmlns="http://www.w3.org/2000/svg" width="227.879" height="255.789" viewBox="0 0 227.879 255.789">
  <defs>
    <style>
      .cls-1 {
        opacity: 0.1;
      }

      .cls-2 {
        fill: #6c63ff;
      }

      .cls-3 {
        fill: #ff6584;
      }

      .cls-4 {
        fill: #ffb9b9;
      }

      .cls-5 {
        fill: #2f2e41;
      }

      .cls-6 {
        fill: #3f3d56;
      }

      .cls-7 {
        opacity: 0.15;
      }
    </style>
  </defs>
  <path id="Path_880" data-name="Path 880" class="cls-1" d="M824.425,305.061h18.989a66.411,66.411,0,0,0,0-22.64H824.425a40.738,40.738,0,0,1,0,22.64Z" transform="translate(-781.836 -212.95)"/>
  <path id="Path_881" data-name="Path 881" class="cls-2" d="M830.29,297.241h18.989a66.413,66.413,0,0,0,0-22.64H830.29A40.738,40.738,0,0,1,830.29,297.241Z" transform="translate(-784.943 -208.808)"/>
  <path id="Path_885" data-name="Path 885" class="cls-1" d="M746.217,337.058h-23.03a80.547,80.547,0,0,1,0-27.458h23.03A49.408,49.408,0,0,0,746.217,337.058Z" transform="translate(-722.009 -275.053)"/>
  <path id="Path_886" data-name="Path 886" class="cls-3" d="M752.083,331.193H729.053a80.55,80.55,0,0,1,0-27.459h23.03A49.406,49.406,0,0,0,752.083,331.193Z" transform="translate(-724.529 -272.533)"/>
  <path id="Path_887" data-name="Path 887" class="cls-4" d="M941.119,760.482l3.5,11.143-10.825.955.955-12.1Z" transform="translate(-735.243 -537.624)"/>
  <path id="Path_889" data-name="Path 889" class="cls-5" d="M945.95,540.89l5.094,48.394s6.368,42.663,5.094,49.349.318,7.641.318,7.641h-9.551s.318-4.139-1.592-6.049-.955-7.641-.955-7.641l-24.2-73.865-13.691,41.389s-2.229,45.529-2.547,46.165-1.273,9.233-1.273,9.233h-11.78s1.592-5.094-.637-6.686-4.139-.318-2.229-3.184,2.547-6.368,1.91-7.96-.637-7.96-.637-7.96.955-85.963,6.368-88.828S945.95,540.89,945.95,540.89Z" transform="translate(-748.354 -420.551)"/>
  <path id="Path_891" data-name="Path 891" class="cls-5" d="M1031.774,812.259s-5.444-.817-5.444-.544-6.533,17.965,0,17.693,31.3-3.811,29.67-10.344-9.8-4.627-9.8-4.627l-7.347-4.083Z" transform="translate(-828.198 -579.259)"/>
  <path id="Path_892" data-name="Path 892" class="cls-2" d="M955.568,613.258H935.675a69.582,69.582,0,0,1,0-23.719h19.893A42.678,42.678,0,0,0,955.568,613.258Z" transform="translate(-776.16 -449.816)"/>
  <ellipse id="Ellipse_159" data-name="Ellipse 159" class="cls-4" cx="12.529" cy="12.529" rx="12.529" ry="12.529" transform="translate(158.875 4.329)"/>
  <path id="Path_893" data-name="Path 893" class="cls-4" d="M966,288.783s2.229,22.287,5.094,23.879-21.968,3.184-21.968,3.184,6.049-20.376,4.139-22.287S966,288.783,966,288.783Z" transform="translate(-784.645 -273.51)"/>
  <path id="Path_894" data-name="Path 894" class="cls-6" d="M910.846,334.749s8.915-8.6,19.1-7,17.511,3.5,17.511,3.5,15.6,8.278,15.919,14.964-5.731,31.838-5.731,31.838-2.866,41.071-3.184,41.071-53.806-.637-53.806-.637L910.527,365Z" transform="translate(-756.229 -296.234)"/>
  <path id="Path_895" data-name="Path 895" class="cls-4" d="M927.715,466.216c2.063.557,5.619-.213,9.332-1.43a115.8,115.8,0,0,0,13.738-5.775s22.923-9.233,29.609-14.009,2.229-23.879,2.229-23.879l-10.188,3.184.637,11.78-25.152,16.237a56.745,56.745,0,0,0-11.643,2.34c-4.234,1.391-8.348,3.56-9.835,6.89a6.443,6.443,0,0,0-.49,1.6C925.648,464.908,926.361,465.847,927.715,466.216Z" transform="translate(-771.016 -351.089)"/>
  <path id="Path_897" data-name="Path 897" class="cls-4" d="M921.208,406.5l1.91,16.874,3.168,41.636s17.527,21.086,7.657,21.723-15.282-20.695-15.282-20.695-9.87-33.748-9.551-40.753,0-18.785,0-18.785Z" transform="translate(-761.18 -342.52)"/>
  <path id="Path_898" data-name="Path 898" class="cls-5" d="M929.662,267.333a3.265,3.265,0,0,1-.9-.543,2.628,2.628,0,0,1-.272-2.694,5.337,5.337,0,0,0,.518-2.771c-.1-.433-.335-.829-.4-1.268a2.686,2.686,0,0,1,1.594-2.511c.922-.515,1.982-.769,2.853-1.366,1.336-.916,2.074-2.531,3.43-3.416a8.278,8.278,0,0,1,4.6-.891l4.729.005c2.471,0,5.187.094,7.026,1.745.559.5,1,1.124,1.569,1.618,1.141.995,2.681,1.392,3.948,2.22a6.847,6.847,0,0,1,3.04,5.766c-.045,2.1-1.068,4.137-.8,6.218.178,1.4.932,2.738.734,4.132-.235,1.653-1.751,2.837-3.306,3.445s-3.25.826-4.763,1.532c-1.235.576-2.525,1.5-3.827,1.092a3.83,3.83,0,0,1-2.1-2.588,21.116,21.116,0,0,1-1.012-3.907,6.612,6.612,0,0,0-.849-2.874A3.309,3.309,0,0,0,942.507,269c-2.553.224-3.991,4.573-6.339,3.545-1.164-.51-2.059-2.036-2.991-2.868A15.024,15.024,0,0,0,929.662,267.333Z" transform="translate(-772.407 -251.873)"/>
  <path id="Path_899" data-name="Path 899" class="cls-6" d="M1038.941,365.726s6.368,2.229,8.915,11.143,1.592,14.964,1.592,14.964l-13.372,2.229Z" transform="translate(-835.613 -318.615)"/>
  <path id="Path_888" data-name="Path 888" class="cls-4" d="M806.947,781.256v15.283H794.53l3.5-15.283Z" transform="translate(-653.604 -549.802)"/>
  <path id="Path_890" data-name="Path 890" class="cls-5" d="M879.639,825.883s5.444-.817,5.444-.544,6.533,17.965,0,17.693-31.3-3.811-29.67-10.344,9.8-4.627,9.8-4.627l7.349-4.083Z" transform="translate(-729.662 -587.246)"/>
  <path id="Path_896" data-name="Path 896" class="cls-7" d="M927.233,509.073c.443,1.649.872,3.219,1.274,4.661,2.063.557,5.619-.213,9.332-1.43l-.771-10.121C932.833,503.575,928.72,505.743,927.233,509.073Z" transform="translate(-771.808 -398.607)"/>
  <path id="Path_900" data-name="Path 900" class="cls-6" d="M919.919,343.042s-11.462-2.547-13.054,8.278a173.254,173.254,0,0,0-1.592,21.968s10.825-5.094,15.6,0Z" transform="translate(-758.935 -305.165)"/>
</svg>
