<svg id="Component_6_1" data-name="Component 6 – 1" xmlns="http://www.w3.org/2000/svg"  viewBox="0 0 18.764 18.764">
  <defs>
    <style>
      .cls-1 {
        fill: #6c63ff;
      }

      .cls-2 {
        opacity: 0.1;
      }
    </style>
  </defs>
  <path id="Path_868" data-name="Path 868" class="cls-1" d="M503.146,444.043a8.876,8.876,0,0,0,2.819-17.413l.043,3.656L504,426.306h0a8.876,8.876,0,0,0-9.3,8.429,8.767,8.767,0,0,0,.382,3.028A8.868,8.868,0,0,0,503.146,444.043Z" transform="translate(-494.685 -426.295)"/>
  <path id="Path_869" data-name="Path 869" class="cls-2" d="M503.3,446.075a8.868,8.868,0,0,0,8.515-12.5,7.088,7.088,0,0,0-1.875,1.8,29.709,29.709,0,0,1-1.925,2.992c-1.5,1.666-4.016,2.257-6.287,2.163s-4.326-.584-6.489-.721a8.868,8.868,0,0,0,8.061,6.258Z" transform="translate(-494.84 -428.327)"/>
</svg>
