<svg id="Component_39_1" data-name="Component 39 – 1" xmlns="http://www.w3.org/2000/svg" width="38.762" height="38.762" viewBox="0 0 38.762 38.762">
  <defs>
    <style>
      .cls-1 {
        fill: #6c63ff;
      }

      .cls-2 {
        fill: #fff;
      }
    </style>
  </defs>
  <ellipse id="Ellipse_138" data-name="Ellipse 138" class="cls-1" cx="19.381" cy="19.381" rx="19.381" ry="19.381"/>
  <path id="Path_773" data-name="Path 773" class="cls-2" d="M803.323,369.081a14.686,14.686,0,0,0-3.1-2.073c-.929-.446-1.27-.438-1.927.037-.547.388-.9.762-1.53.624a9.209,9.209,0,0,1-3.077-2.276,8.941,8.941,0,0,1-2.272-3.075c-.134-.638.235-.985.626-1.532.473-.657.487-1,.037-1.927a14.872,14.872,0,0,0-2.075-3.1c-.681-.679-.828-.529-1.2-.388a6.937,6.937,0,0,0-1.1.582,3.317,3.317,0,0,0-1.318,1.394c-.266.566-.566,1.617.979,4.368a24.368,24.368,0,0,0,4.285,5.714h0a24.4,24.4,0,0,0,5.733,4.293c2.749,1.551,3.8,1.243,4.368.979a3.254,3.254,0,0,0,1.392-1.318,6.852,6.852,0,0,0,.582-1.1C803.853,369.909,804,369.757,803.323,369.081Z" transform="translate(-775.622 -344.676)"/>
</svg>
