<svg xmlns="http://www.w3.org/2000/svg" xmlns:xlink="http://www.w3.org/1999/xlink" width="1152.78" height="277.948" viewBox="0 0 1152.78 277.948">
  <defs>
    <style>
      .cls-1 {
        fill: #e5e5e5;
      }

      .cls-11, .cls-2 {
        fill: none;
        stroke-miterlimit: 10;
      }

      .cls-2 {
        stroke: #3f3d56;
        stroke-width: 4px;
      }

      .cls-3 {
        fill: #6c63ff;
      }

      .cls-10, .cls-11, .cls-4 {
        opacity: 0.1;
      }

      .cls-5 {
        fill: #3f3d56;
      }

      .cls-17, .cls-6 {
        fill: #fff;
      }

      .cls-7 {
        fill: url(#linear-gradient);
      }

      .cls-8 {
        fill: #be6f72;
      }

      .cls-9 {
        fill: #ff6f61;
      }

      .cls-11 {
        stroke: #000;
      }

      .cls-12 {
        fill: url(#linear-gradient-2);
      }

      .cls-13 {
        fill: #2f2e41;
      }

      .cls-14 {
        fill: #fbbebe;
      }

      .cls-15 {
        fill: #e8e8f0;
      }

      .cls-16 {
        fill: #f86d70;
      }

      .cls-17 {
        font-size: 19px;
        font-family: SegoeUI-Semibold, Segoe UI;
        font-weight: 600;
      }

      .cls-18 {
        font-family: "Segoe UI", "HelveticaNeue", "Helvetica Neue", Helvetica, Arial, sans-serif;
        font-weight: 400;
      }
    </style>
    <linearGradient id="linear-gradient" x1="0.5" y1="1" x2="0.5" gradientUnits="objectBoundingBox">
      <stop offset="0" stop-color="gray" stop-opacity="0.251"/>
      <stop offset="0.54" stop-color="gray" stop-opacity="0.122"/>
      <stop offset="1" stop-color="gray" stop-opacity="0.102"/>
    </linearGradient>
    <linearGradient id="linear-gradient-2" x1="0.5" y1="1" x2="0.5" y2="-0.001" xlink:href="#linear-gradient"/>
  </defs>
  <g id="Component_29_1" data-name="Component 29 – 1" transform="translate(2)">
    <g id="Component_27_1" data-name="Component 27 – 1" transform="translate(0 22.856)">
      <path id="Path_1014" data-name="Path 1014" class="cls-1" d="M54.139,12.343c17.212,0,18.125,11.379,34.424,23.741s30.77,8.144,30.77,25.708A59.667,59.667,0,0,1,0,61.791C0,50.818,6.18,48.446,19.715,36.084S36.927,12.343,54.139,12.343Z" transform="translate(336.162 -10.688)"/>
      <path id="Path_1015" data-name="Path 1015" class="cls-1" d="M59.667,24.561c14.183-.756,20.079-18.819,35-9.509S119.333,43.676,119.333,61.8A59.667,59.667,0,0,1,0,61.8C0,30.33,28.746,12.674,37.931,18.077S45.484,25.317,59.667,24.561Z" transform="translate(198.255 80.76)"/>
      <path id="Path_1016" data-name="Path 1016" class="cls-1" d="M69.8,12.332c21.163,6.166,49.532,16.293,49.532,49.246A59.667,59.667,0,0,1,0,61.578C0,47.112,17.232,49.227,34.682,36.916S48.639,6.167,69.8,12.332Z" transform="translate(54.995 38.078)"/>
      <path id="Path_616" data-name="Path 616" class="cls-2" d="M711.787,609.969c1.558-2.889-.209-6.423-2.238-9s-4.513-5.253-4.459-8.53c.078-4.709,5.08-7.5,9.073-9.992a44.356,44.356,0,0,0,8.148-6.566,12.015,12.015,0,0,0,2.5-3.355,13.568,13.568,0,0,0,.752-5.969q-.257-10.082-1-20.151" transform="translate(-389.82 -410.053)"/>
      <path id="Path_617" data-name="Path 617" class="cls-3" d="M740.531,541.117a7.348,7.348,0,0,0-3.671-6.023l-1.647,3.253.054-3.94a7.348,7.348,0,1,0,5.265,6.709Z" transform="translate(-398.186 -405.094)"/>
      <path id="Path_618" data-name="Path 618" class="cls-3" d="M719.115,621.98A7.348,7.348,0,0,1,705.243,619a7.162,7.162,0,0,1,.477-2.985,7.354,7.354,0,0,1,13.729.078l-4.59,3.737,5.05-1.194A7.306,7.306,0,0,1,719.115,621.98Z" transform="translate(-389.878 -436.223)"/>
      <path id="Path_619" data-name="Path 619" class="cls-3" d="M717.214,595.348a7.348,7.348,0,0,1-2.328-14.415l-.042,3.026,1.665-3.295h0a7.35,7.35,0,1,1,.687,14.684Z" transform="translate(-391.606 -423.857)"/>
      <path id="Path_620" data-name="Path 620" class="cls-3" d="M747.082,575.462a7.348,7.348,0,1,1,3.247-13.729l-1.3,3.581,2.644-2.615a7.348,7.348,0,0,1-4.62,12.756Z" transform="translate(-403.632 -415.844)"/>
      <path id="Path_621" data-name="Path 621" class="cls-4" d="M739.533,545.8c-1.7.185-3.343.71-5.05.818a5.464,5.464,0,0,1-4.644-1.624,23.569,23.569,0,0,1-1.361-2.388,5.229,5.229,0,0,0-1.85-1.743,7.348,7.348,0,1,0,13.729,4.883C740.088,545.749,739.807,545.767,739.533,545.8Z" transform="translate(-398.178 -407.815)"/>
      <path id="Path_622" data-name="Path 622" class="cls-4" d="M747.1,578.3a7.348,7.348,0,0,1-6.99-10.482,5.437,5.437,0,0,1,1.474,1.48,24.892,24.892,0,0,0,1.456,2.43,5.994,5.994,0,0,0,4.877,1.7c1.773-.09,3.486-.6,5.253-.746.245,0,.49-.036.74-.042A7.348,7.348,0,0,1,747.1,578.3Z" transform="translate(-403.654 -418.683)"/>
      <path id="Path_623" data-name="Path 623" class="cls-4" d="M717.216,598.284a7.348,7.348,0,0,1-7.049-10.344,5.972,5.972,0,0,1,1.558,1.492,24.6,24.6,0,0,0,1.594,2.477,6.654,6.654,0,0,0,5.2,1.791c1.874-.078,3.581-.484,5.372-.6A7.36,7.36,0,0,1,717.216,598.284Z" transform="translate(-391.608 -426.793)"/>
      <path id="Path_624" data-name="Path 624" class="cls-4" d="M719.115,625.139a7.348,7.348,0,0,1-13.872-2.984,7.162,7.162,0,0,1,.477-2.984,7.333,7.333,0,0,1,1.612,1.439c.7.848,1.158,1.791,1.97,2.609a9.182,9.182,0,0,0,6.082,2.137A30.839,30.839,0,0,0,719.115,625.139Z" transform="translate(-389.878 -439.382)"/>
      <path id="Path_625" data-name="Path 625" class="cls-2" d="M101.787,537.969c1.558-2.889-.209-6.423-2.238-9s-4.513-5.265-4.459-8.53c.078-4.71,5.08-7.5,9.073-9.992a44.354,44.354,0,0,0,8.148-6.566,12.017,12.017,0,0,0,2.5-3.355,13.567,13.567,0,0,0,.752-5.969q-.263-10.082-1-20.152" transform="translate(-95.089 -345.431)"/>
      <path id="Path_626" data-name="Path 626" class="cls-3" d="M130.531,469.117a7.348,7.348,0,0,0-3.671-6.023l-1.647,3.253.054-3.94a7.348,7.348,0,1,0,5.265,6.709Z" transform="translate(-103.455 -340.473)"/>
      <path id="Path_627" data-name="Path 627" class="cls-3" d="M109.115,549.98A7.348,7.348,0,0,1,95.243,547a7.163,7.163,0,0,1,.478-2.984,7.354,7.354,0,0,1,13.729.078l-4.59,3.737,5.05-1.194a7.307,7.307,0,0,1-.794,3.349Z" transform="translate(-95.147 -371.602)"/>
      <path id="Path_628" data-name="Path 628" class="cls-3" d="M107.214,523.348a7.348,7.348,0,0,1-2.328-14.415l-.042,3.026,1.665-3.295h0a7.35,7.35,0,0,1,.686,14.684Z" transform="translate(-96.875 -359.236)"/>
      <path id="Path_629" data-name="Path 629" class="cls-3" d="M137.082,503.462a7.348,7.348,0,1,1,3.247-13.729l-1.3,3.581,2.644-2.614a7.348,7.348,0,0,1-4.62,12.756Z" transform="translate(-108.901 -351.222)"/>
      <path id="Path_630" data-name="Path 630" class="cls-4" d="M129.533,473.8c-1.7.185-3.343.71-5.05.818a5.464,5.464,0,0,1-4.644-1.624,23.566,23.566,0,0,1-1.361-2.388,5.23,5.23,0,0,0-1.85-1.743,7.348,7.348,0,1,0,13.729,4.883C130.088,473.749,129.807,473.767,129.533,473.8Z" transform="translate(-103.447 -343.194)"/>
      <path id="Path_631" data-name="Path 631" class="cls-4" d="M137.1,506.3a7.348,7.348,0,0,1-6.99-10.482,5.438,5.438,0,0,1,1.474,1.48,24.894,24.894,0,0,0,1.456,2.429,5.994,5.994,0,0,0,4.877,1.7c1.773-.09,3.486-.6,5.253-.746.245,0,.489-.036.74-.042A7.348,7.348,0,0,1,137.1,506.3Z" transform="translate(-108.922 -354.062)"/>
      <path id="Path_632" data-name="Path 632" class="cls-4" d="M107.216,526.284a7.348,7.348,0,0,1-7.049-10.344,5.969,5.969,0,0,1,1.558,1.492,24.614,24.614,0,0,0,1.594,2.477,6.654,6.654,0,0,0,5.2,1.791c1.874-.078,3.581-.483,5.372-.6A7.36,7.36,0,0,1,107.216,526.284Z" transform="translate(-96.876 -362.172)"/>
      <path id="Path_633" data-name="Path 633" class="cls-4" d="M109.115,553.139a7.348,7.348,0,0,1-13.872-2.984,7.163,7.163,0,0,1,.478-2.985,7.336,7.336,0,0,1,1.612,1.439c.7.848,1.158,1.791,1.97,2.608a9.182,9.182,0,0,0,6.082,2.137,30.853,30.853,0,0,0,3.731-.215Z" transform="translate(-95.147 -374.76)"/>
      <path id="Path_634" data-name="Path 634" class="cls-2" d="M503.2,455.607c-1.558-2.883.209-6.417,2.244-8.989s4.507-5.253,4.453-8.53c-.072-4.716-5.074-7.5-9.073-9.992a44.169,44.169,0,0,1-8.142-6.566,11.8,11.8,0,0,1-2.507-3.349,13.755,13.755,0,0,1-.752-5.969q.269-10.082,1-20.152" transform="translate(-302.88 -347.835)"/>
      <path id="Path_635" data-name="Path 635" class="cls-3" d="M478.385,386.757a7.342,7.342,0,0,1,3.665-6.023l1.647,3.253-.048-3.94a7.535,7.535,0,0,1,2.417-.292,7.348,7.348,0,1,1-7.682,7Z" transform="translate(-298.434 -342.872)"/>
      <path id="Path_636" data-name="Path 636" class="cls-3" d="M499.792,467.58a7.348,7.348,0,1,0-.352-5.915l4.59,3.737-5.05-1.194A7.306,7.306,0,0,0,499.792,467.58Z" transform="translate(-306.739 -373.961)"/>
      <path id="Path_637" data-name="Path 637" class="cls-3" d="M501.69,440.988a7.348,7.348,0,0,0,2.334-14.415l.036,3.026-1.665-3.295h0a7.348,7.348,0,0,0-7.7,6.978,7.258,7.258,0,0,0,.316,2.507A7.342,7.342,0,0,0,501.69,440.988Z" transform="translate(-305.008 -361.635)"/>
      <path id="Path_638" data-name="Path 638" class="cls-3" d="M471.8,421.082a7.348,7.348,0,1,0-3.253-13.729l1.3,3.581-2.674-2.561a7.288,7.288,0,0,0-2.388,5.074,7.111,7.111,0,0,0,.185,2.023A7.342,7.342,0,0,0,471.8,421.082Z" transform="translate(-292.951 -353.614)"/>
      <path id="Path_639" data-name="Path 639" class="cls-4" d="M479.494,391.436c1.7.185,3.343.71,5.044.818a5.488,5.488,0,0,0,4.65-1.624,23.5,23.5,0,0,0,1.355-2.388A5.247,5.247,0,0,1,492.4,386.5a7.348,7.348,0,1,1-13.729,4.877C478.939,391.383,479.213,391.407,479.494,391.436Z" transform="translate(-298.552 -345.594)"/>
      <path id="Path_640" data-name="Path 640" class="cls-4" d="M471.941,423.922a7.354,7.354,0,0,0,6.99-10.482,5.463,5.463,0,0,0-1.48,1.48,24.9,24.9,0,0,1-1.456,2.429,5.975,5.975,0,0,1-4.871,1.7c-1.773-.09-3.486-.6-5.253-.746-.245,0-.5-.036-.74-.042a7.342,7.342,0,0,0,6.811,5.659Z" transform="translate(-293.094 -356.453)"/>
      <path id="Path_641" data-name="Path 641" class="cls-4" d="M501.913,443.924a7.342,7.342,0,0,0,7.049-10.344,5.868,5.868,0,0,0-1.552,1.492,24.586,24.586,0,0,1-1.594,2.477,6.667,6.667,0,0,1-5.2,1.791c-1.88-.078-3.581-.483-5.372-.6a7.342,7.342,0,0,0,6.673,5.181Z" transform="translate(-305.231 -364.571)"/>
      <path id="Path_642" data-name="Path 642" class="cls-4" d="M500.34,470.779a7.348,7.348,0,0,0,13.4-5.969,7.06,7.06,0,0,0-1.612,1.439c-.7.848-1.194,1.791-1.97,2.609a9.2,9.2,0,0,1-6.088,2.137A32.179,32.179,0,0,1,500.34,470.779Z" transform="translate(-307.287 -377.16)"/>
      <path id="Path_977" data-name="Path 977" class="cls-5" d="M54.139,12.343c17.212,0,18.125,11.379,34.424,23.741s30.77,8.144,30.77,25.708A59.667,59.667,0,0,1,0,61.791C0,50.818,6.18,48.446,19.715,36.084S36.927,12.343,54.139,12.343Z" transform="translate(331.195 -12.343)"/>
      <path id="Path_643" data-name="Path 643" class="cls-6" d="M838.978,397.833a45.206,45.206,0,0,0-9.55-6.381c-2.859-1.373-3.91-1.349-5.933.113-1.683,1.194-2.776,2.346-4.71,1.922s-5.766-3.313-9.473-7.008-6.584-7.5-7-9.467.722-3.032,1.928-4.716c1.456-2.024,1.5-3.074.114-5.933a45.783,45.783,0,0,0-6.387-9.55c-2.1-2.089-2.549-1.63-3.695-1.194a21.361,21.361,0,0,0-3.384,1.791,10.212,10.212,0,0,0-4.059,4.292c-.818,1.743-1.743,4.978,3.014,13.448a75.022,75.022,0,0,0,13.192,17.591h0a75.137,75.137,0,0,0,17.65,13.216c8.464,4.775,11.705,3.826,13.448,3.014a10.021,10.021,0,0,0,4.286-4.059,21.1,21.1,0,0,0,1.791-3.384C840.608,400.381,841.074,399.916,838.978,397.833Z" transform="translate(-422.504 -332.996)"/>
      <path id="Path_976" data-name="Path 976" class="cls-5" d="M59.667,24.561c14.183-.756,20.079-18.819,35-9.509S119.333,43.676,119.333,61.8A59.667,59.667,0,0,1,0,61.8C0,30.33,28.746,12.674,37.931,18.077S45.484,25.317,59.667,24.561Z" transform="translate(194.115 78.277)"/>
      <path id="Path_645" data-name="Path 645" class="cls-6" d="M612.7,522.354,594.834,540.53a.322.322,0,0,0,0,.466l12.535,13.329a2.157,2.157,0,1,1-3.05,3.05l-12.469-13.281a.34.34,0,0,0-.478,0l-3.038,3.068a13.353,13.353,0,0,1-9.551,4.017,13.645,13.645,0,0,1-9.718-4.131l-2.919-2.984a.34.34,0,0,0-.478,0l-12.44,13.251a2.157,2.157,0,1,1-3.05-3.05l12.487-13.3a.358.358,0,0,0,0-.466L544.8,522.325a.328.328,0,0,0-.561.233v36.37a5.324,5.324,0,0,0,5.307,5.306h58.419a5.324,5.324,0,0,0,5.306-5.307v-36.34a.328.328,0,0,0-.573-.233Z" transform="translate(-324.983 -400.305)"/>
      <path id="Path_646" data-name="Path 646" class="cls-6" d="M580.14,542.995a9.037,9.037,0,0,0,6.518-2.686l26.019-26.485a5.193,5.193,0,0,0-3.283-1.194H550.933a5.158,5.158,0,0,0-3.283,1.194l26.025,26.485A9,9,0,0,0,580.14,542.995Z" transform="translate(-326.358 -396.436)"/>
      <path id="Path_975" data-name="Path 975" class="cls-5" d="M69.8,12.332c21.163,6.166,49.532,16.293,49.532,49.246A59.667,59.667,0,0,1,0,61.578C0,47.112,17.232,49.227,34.682,36.916S48.639,6.167,69.8,12.332Z" transform="translate(52.511 33.939)"/>
      <path id="Path_648" data-name="Path 648" class="cls-6" d="M348.787,430.16,325,485.04l2.22,2.22,21.572-9.515,21.572,9.515,2.221-2.22Z" transform="translate(-236.609 -363.193)"/>
      <path id="Path_650" data-name="Path 650" class="cls-7" d="M821.689,586.378q-.812-1.982-1.665-3.952a11.729,11.729,0,0,0-2.035-3.516,3.725,3.725,0,0,0-1.194-.9,5.09,5.09,0,0,0-1.558-.31,12.426,12.426,0,0,0-2.447-.066c-.316-.1-.674-.221-1.027-.364a8.524,8.524,0,0,0,6.351-7.909V569a8.506,8.506,0,0,0-8.47-8.542,8.357,8.357,0,0,0-4.447,1.271,7.98,7.98,0,0,0-8.954,4.316,9.867,9.867,0,0,0-3.044,7.342v.376c.155,4.638,3.152,8.357,6.936,8.733a3.982,3.982,0,0,0-1.1.734c-1.158,1.116-1.349,2.889-1.474,4.5l-.09,1.194-2.006.716a.37.37,0,0,0-.09.651l1.916,1.367V592a1.494,1.494,0,0,0,.036.388,2.741,2.741,0,0,0-.74,1.057,4.882,4.882,0,0,0-.173,1.934l.072,1.665a13.081,13.081,0,0,0,.507,3.707c.251.74,1.337,2.525,2.119,2.537A77.237,77.237,0,0,0,798.2,613.5c-.09.09.161.173.6.245.43,3.295,1.832,12.535,4.322,16.6a34.991,34.991,0,0,1,.937,4.035s.71,8.78,1.647,11.389c.8,2.22,1.433,7.7,1.606,9.288a.913.913,0,0,0-.662.68c-.472,1.421-3.528,3.581-3.528,3.581A14.779,14.779,0,0,0,800.481,661c-.961.865-.925,1.647,3.343,1.158,8.237-.949,9.646-3.581,9.646-3.581s-.131-.442-.328-1.015a11.02,11.02,0,0,0-1.08-2.549c-.12-.113-.239.078-.382.376a51.112,51.112,0,0,1-.561-11.526,18.7,18.7,0,0,0-.943-6.882,13.032,13.032,0,0,1,0-4.507c.472-1.9-1.88-11.156-1.88-11.156l-1.349-6.817a1.958,1.958,0,0,1,.376.794l.036.137.036.2a.371.371,0,0,0,.1.185c.919,3.82,3.438,14.4,3.438,15.955,0,1.9,2.352,6.644,2.352,6.644s.937,7.831,2.585,10.911c1.253,2.346,1.283,5.784,1.224,7.3h0a6.761,6.761,0,0,1-.752,2.423,5.763,5.763,0,0,0-.889,1.546l-.054.114s-.7,1.427-.233,1.665a11.562,11.562,0,0,0,5.647.71s.943-1.194.943-1.659a7.484,7.484,0,0,0-.107-.848c-.173-1.122-.5-2.889-.5-2.907a8.144,8.144,0,0,0-.6-2.889l-.239-6.644a30.667,30.667,0,0,0-1.647-13.293s-1.194-4.268-.937-5.456-.472-13.765-.472-13.765l-.072-.179a13.579,13.579,0,0,1,.072-2.668,35.445,35.445,0,0,0-.943-9.013,7.818,7.818,0,0,1-.334-1.964c.054-.5.215-1.946.436-3.749a67.353,67.353,0,0,0,6.936-.6.866.866,0,0,0,.6-.239.837.837,0,0,0,.137-.484C824.351,593.159,823.044,589.685,821.689,586.378Zm-4.734,7.527c.245-1.7.507-3.349.77-4.572l.036.107a33.183,33.183,0,0,1,1.134,3.76A12.78,12.78,0,0,1,816.955,593.9Z" transform="translate(-425.336 -415.716)"/>
      <path id="Path_651" data-name="Path 651" class="cls-8" d="M802.37,648.366s1.409,12.672,4.459,17.6a34.169,34.169,0,0,1,.937,3.987s.7,8.679,1.642,11.258,1.641,9.622,1.641,9.622,3.283,3.749,4.459.7a49.438,49.438,0,0,1-.7-12.2,18.375,18.375,0,0,0-.937-6.8,12.727,12.727,0,0,1,0-4.453c.466-1.88-1.88-11.025-1.88-11.025l-1.874-9.151Z" transform="translate(-429.034 -450.962)"/>
      <path id="Path_652" data-name="Path 652" class="cls-9" d="M818.041,722.528s-1.409,2.579-9.616,3.516c-4.262.484-4.292-.286-3.331-1.146a14.856,14.856,0,0,1,2.626-1.671s3.05-2.107,3.516-3.516,2.113-.233,2.113-.233c2.346,3.516,2.817-.943,3.283-.471a10.584,10.584,0,0,1,1.08,2.513C817.91,722.086,818.041,722.528,818.041,722.528Z" transform="translate(-429.925 -479.611)"/>
      <path id="Path_653" data-name="Path 653" class="cls-4" d="M818.041,724.249s-1.409,2.579-9.616,3.516c-4.262.484-4.292-.286-3.331-1.146.669.424,2.018.6,4.733-.5,3.91-1.6,6.745-2.525,7.885-2.883C817.91,723.807,818.041,724.249,818.041,724.249Z" transform="translate(-429.925 -481.332)"/>
      <path id="Path_654" data-name="Path 654" class="cls-4" d="M818.935,679.333a18.375,18.375,0,0,0-.937-6.8,12.72,12.72,0,0,1,0-4.453c.466-1.88-1.88-11.025-1.88-11.025l-1.874-9.151-1.623.1,1.856,9.055s2.346,9.145,1.88,11.025a12.722,12.722,0,0,0,0,4.453,17.838,17.838,0,0,1,.937,6.8,49.426,49.426,0,0,0,.7,12.2,2.054,2.054,0,0,1-.681.967,1.533,1.533,0,0,0,2.322-.967A49.432,49.432,0,0,1,818.935,679.333Z" transform="translate(-433.165 -450.962)"/>
      <path id="Path_655" data-name="Path 655" class="cls-5" d="M809.55,562.42a8.356,8.356,0,0,0-4.429,1.259,7.969,7.969,0,0,0-8.954,4.268,9.717,9.717,0,0,0-3.038,7.258c0,4.99,3.361,9.031,7.5,9.031,2.985,0,5.6-2.125,6.8-5.2a8.236,8.236,0,0,0,2.113.275,8.446,8.446,0,0,0,0-16.892Z" transform="translate(-425.308 -416.506)"/>
      <path id="Path_656" data-name="Path 656" class="cls-8" d="M825.879,650.65l.7,1.874s.7,12.434.465,13.609.943,5.372.943,5.372a30.031,30.031,0,0,1,1.641,13.132l.233,6.566s.937,2.579.471,3.05-4.005-.418-4.005-.418.472-4.924-1.194-7.975-2.579-10.792-2.579-10.792-2.346-4.692-2.346-6.566-3.755-17.125-3.755-17.125Z" transform="translate(-434.713 -452.071)"/>
      <path id="Path_657" data-name="Path 657" class="cls-5" d="M801.568,640.287s.239-8.446,1.194-11.025a17.518,17.518,0,0,0,1.045-3.743s14.2,2.567,15.376,1.63a20.366,20.366,0,0,0,.472,3.516,33.729,33.729,0,0,1,.937,8.918c-.257,2.817,0,2.811,0,2.811s-9.622,1.409-9.855,0-.937-1.4-.937-1.4S801.1,640.729,801.568,640.287Z" transform="translate(-428.703 -441.941)"/>
      <g id="Group_29" data-name="Group 29" class="cls-10" transform="translate(372.865 185.208)">
        <path id="Path_658" data-name="Path 658" d="M809.322,649.934s-5.933-.161-7.724-.483v.483c-.466.466,8.213.7,8.213.7a.6.6,0,0,1,.322.131C809.817,649.934,809.322,649.934,809.322,649.934Z" transform="translate(-801.58 -636.796)"/>
        <path id="Path_659" data-name="Path 659" d="M825.78,631.766a20.362,20.362,0,0,1-.472-3.516,1.009,1.009,0,0,1-.4.143,11.858,11.858,0,0,0,.4,2.668,37.263,37.263,0,0,1,.937,8.918c-.257,2.817,0,2.811,0,2.811s-7.611,1.116-9.455.37a2.831,2.831,0,0,0,.072.334c.233,1.409,9.855,0,9.855,0s-.239,0,0-2.811A34.875,34.875,0,0,0,825.78,631.766Z" transform="translate(-807.711 -628.25)"/>
        <path id="Path_660" data-name="Path 660" d="M809.322,649.934s-5.933-.161-7.724-.483v.483c-.466.466,8.213.7,8.213.7a.6.6,0,0,1,.322.131C809.817,649.934,809.322,649.934,809.322,649.934Z" transform="translate(-801.58 -636.796)"/>
        <path id="Path_661" data-name="Path 661" d="M825.78,631.766a20.362,20.362,0,0,1-.472-3.516,1.009,1.009,0,0,1-.4.143,11.858,11.858,0,0,0,.4,2.668,37.263,37.263,0,0,1,.937,8.918c-.257,2.817,0,2.811,0,2.811s-7.611,1.116-9.455.37a2.831,2.831,0,0,0,.072.334c.233,1.409,9.855,0,9.855,0s-.239,0,0-2.811A34.875,34.875,0,0,0,825.78,631.766Z" transform="translate(-807.711 -628.25)"/>
      </g>
      <path id="Path_662" data-name="Path 662" class="cls-8" d="M815.49,585.551a3.11,3.11,0,0,0,.9,1.158,2.006,2.006,0,0,0,.842.364c-.525.3-1.1.531-1.624.836a28.878,28.878,0,0,0-2.388,1.791,4.858,4.858,0,0,1-2.74,1.063,3.354,3.354,0,0,0,.382-3.337,3.116,3.116,0,0,1-.418-1.158,2.081,2.081,0,0,1,1.152-1.552c.448-.3.907-.6,1.373-.889.364-.227.913-.7,1.373-.687s.513.424.6.842A6.619,6.619,0,0,0,815.49,585.551Z" transform="translate(-432.287 -424.858)"/>
      <path id="Path_663" data-name="Path 663" class="cls-4" d="M815.49,585.551a3.11,3.11,0,0,0,.9,1.158,2.006,2.006,0,0,0,.842.364c-.525.3-1.1.531-1.624.836a28.878,28.878,0,0,0-2.388,1.791,4.858,4.858,0,0,1-2.74,1.063,3.354,3.354,0,0,0,.382-3.337,3.116,3.116,0,0,1-.418-1.158,2.081,2.081,0,0,1,1.152-1.552c.448-.3.907-.6,1.373-.889.364-.227.913-.7,1.373-.687s.513.424.6.842A6.619,6.619,0,0,0,815.49,585.551Z" transform="translate(-432.287 -424.858)"/>
      <ellipse id="Ellipse_132" data-name="Ellipse 132" class="cls-8" cx="5.396" cy="5.396" rx="5.396" ry="5.396" transform="translate(383.305 163.744)"/>
      <path id="Path_664" data-name="Path 664" class="cls-9" d="M836.336,725.872c0,.471-.937,1.641-.937,1.641a11.615,11.615,0,0,1-5.629-.7c-.472-.233.233-1.641.233-1.641l.054-.113a5.7,5.7,0,0,1,.889-1.528,6.678,6.678,0,0,0,.746-2.388c1.456-2.388,4.041,1.033,4.041,1.033s.328,1.791.5,2.877A8.185,8.185,0,0,1,836.336,725.872Z" transform="translate(-440.013 -480.143)"/>
      <path id="Path_665" data-name="Path 665" class="cls-4" d="M836.336,729.076c0,.472-.937,1.642-.937,1.642a11.617,11.617,0,0,1-5.629-.7c-.472-.233.233-1.641.233-1.641l.054-.113a11.342,11.342,0,0,0,5.11,1.051l1.068-1.068C836.294,728.64,836.336,728.956,836.336,729.076Z" transform="translate(-440.013 -483.347)"/>
      <ellipse id="Ellipse_133" data-name="Ellipse 133" class="cls-8" cx="5.277" cy="5.277" rx="5.277" ry="5.277" transform="translate(372.632 152.599)"/>
      <path id="Path_666" data-name="Path 666" class="cls-8" d="M801.746,599.187c-1.158,1.1-1.349,2.853-1.468,4.447l-.179,2.334a11.772,11.772,0,0,0-.042,1.892c0,.388.1.782.131,1.194s.048.931.054,1.4v3.45a4.069,4.069,0,0,0,.382,2.071,1.409,1.409,0,0,0,1.791.645,2.041,2.041,0,0,0,.74-1.146,17.82,17.82,0,0,0,1.194-4.37c.048-.519.054-1.039.1-1.558s.137-1.062.215-1.588c.334-2.2.484-4.417.633-6.631.042-.657.633-3.241-.227-3.528-.418-.137-1.283.292-1.683.436A4.738,4.738,0,0,0,801.746,599.187Z" transform="translate(-428.093 -430.758)"/>
      <path id="Path_667" data-name="Path 667" class="cls-4" d="M801.746,599.187c-1.158,1.1-1.349,2.853-1.468,4.447l-.179,2.334a11.772,11.772,0,0,0-.042,1.892c0,.388.1.782.131,1.194s.048.931.054,1.4v3.45a4.069,4.069,0,0,0,.382,2.071,1.409,1.409,0,0,0,1.791.645,2.041,2.041,0,0,0,.74-1.146,17.82,17.82,0,0,0,1.194-4.37c.048-.519.054-1.039.1-1.558s.137-1.062.215-1.588c.334-2.2.484-4.417.633-6.631.042-.657.633-3.241-.227-3.528-.418-.137-1.283.292-1.683.436A4.738,4.738,0,0,0,801.746,599.187Z" transform="translate(-428.093 -430.758)"/>
      <path id="Path_668" data-name="Path 668" class="cls-9" d="M814.474,588.16s-3.987,3.05-6.333,3.755c0,0-1.391,1.588-1.63,1.97s-.716,4.6-1.194,5.539-1.641,3.05,0,5.157a8.943,8.943,0,0,1,.233,2.817c-.233.7-1.086,3.283-.31,3.4s3.128,1.755,5.235,1.289,9.974,1.791,9.974,1.791,1.3-12.087,2.244-14.224l-2.113-.7s-5.862-3.516-2.346-8.912C818.229,590.04,814.934,589.336,814.474,588.16Z" transform="translate(-429.88 -426.882)"/>
      <path id="Path_669" data-name="Path 669" class="cls-5" d="M796.739,610.8l4.847,3.432a.358.358,0,0,0,.424,0l1.313-.985a.37.37,0,0,0,0-.561l-3.731-3.313a.358.358,0,0,0-.364-.072l-2.394.859a.364.364,0,0,0-.1.639Z" transform="translate(-426.703 -435.397)"/>
      <path id="Path_670" data-name="Path 670" class="cls-8" d="M799.159,622.913a12.985,12.985,0,0,1-.507-3.659l-.072-1.654a4.776,4.776,0,0,1,.173-1.91,3.121,3.121,0,0,1,2.012-1.761,6.947,6.947,0,0,1,2.74-.2.706.706,0,0,1,.352.1.658.658,0,0,1,.191.322,2.161,2.161,0,0,1,.107,1.725,1.79,1.79,0,0,1-.549.567c-.651.466-1.409.776-2.024,1.283a.734.734,0,0,0-.275.346.809.809,0,0,0,0,.376,6.02,6.02,0,0,0,.31.961.949.949,0,0,0,.269.406c.113.1.263.131.382.221.257.209.794.483.764.812a26.749,26.749,0,0,1-1.086,3.713C801.409,626.87,799.505,623.921,799.159,622.913Z" transform="translate(-427.494 -437.167)"/>
      <g id="Group_30" data-name="Group 30" class="cls-10" transform="translate(379.073 172.423)">
        <path id="Path_671" data-name="Path 671" d="M812.111,628.212h-.131a4.017,4.017,0,0,0,1.534,0h.149a5.373,5.373,0,0,0-1.552,0Z" transform="translate(-811.98 -615.426)"/>
        <path id="Path_672" data-name="Path 672" d="M831.274,606.83c-.842,1.892-2.083,12.141-2.3,14.177.824.215,1.367.37,1.367.37s1.289-12.057,2.232-14.194Z" transform="translate(-818.829 -606.83)"/>
      </g>
      <path id="Path_673" data-name="Path 673" class="cls-8" d="M821.764,597.264a1.791,1.791,0,0,0,.77,1.164,10.333,10.333,0,0,1,1.367,1.385,9.807,9.807,0,0,1,1.355,2.716,33.3,33.3,0,0,1,1.128,3.713c-2.985,1.385-6.375,1.319-9.551,2.232a7.622,7.622,0,0,0-3.581,2.119,4.936,4.936,0,0,0-1.319,3.886.506.506,0,0,0,.072.233.5.5,0,0,0,.418.167,3.582,3.582,0,0,0,2.191-.752,10.435,10.435,0,0,0,1.677-1.648,2.7,2.7,0,0,1,1.194-.883,19.538,19.538,0,0,1,5.372-.525,67.706,67.706,0,0,0,8-.633.645.645,0,0,0,.716-.716c.263-3.522-1.045-6.96-2.388-10.225q-.806-1.964-1.659-3.91a11.581,11.581,0,0,0-2.029-3.474,3.582,3.582,0,0,0-1.194-.883,5.047,5.047,0,0,0-1.6-.3,11.343,11.343,0,0,0-2.62-.048,5.581,5.581,0,0,0-.251,1.355,11.737,11.737,0,0,0,1.445,4.578C821.37,597.038,821.627,597.05,821.764,597.264Z" transform="translate(-432.878 -427.958)"/>
      <path id="Path_674" data-name="Path 674" class="cls-11" d="M812.007,606.67a4.375,4.375,0,0,0-.6,2.28,3.075,3.075,0,0,0,.149.931,3.02,3.02,0,0,0,1.9,1.791" transform="translate(-432.677 -434.343)"/>
      <path id="Path_675" data-name="Path 675" class="cls-5" d="M810.2,572.55a2.742,2.742,0,0,0-.866.137,5.723,5.723,0,0,0-4.775-2.018c-2.853,0-5.163,1.474-5.163,3.289s2.31,3.283,5.163,3.283a7.263,7.263,0,0,0,3.1-.656,2.811,2.811,0,1,0,2.531-4.035Z" transform="translate(-427.836 -419.831)"/>
      <path id="Path_676" data-name="Path 676" class="cls-4" d="M810.429,579A2.806,2.806,0,0,1,807.9,577.4a7.264,7.264,0,0,1-3.1.657c-2.847,0-5.157-1.468-5.157-3.283a1.965,1.965,0,0,1,0-.328,2.226,2.226,0,0,0-.263,1.033c0,1.791,2.31,3.283,5.163,3.283a7.267,7.267,0,0,0,3.1-.656,2.811,2.811,0,0,0,5.295-.7A2.8,2.8,0,0,1,810.429,579Z" transform="translate(-427.828 -421.355)"/>
      <path id="Path_677" data-name="Path 677" class="cls-4" d="M796.157,569.332a7.969,7.969,0,0,1,8.953-4.268,8.44,8.44,0,0,1,12.845,6.482v-.7a8.44,8.44,0,0,0-12.875-7.163,7.969,7.969,0,0,0-8.954,4.268,9.718,9.718,0,0,0-3.038,7.258v.7A9.55,9.55,0,0,1,796.157,569.332Z" transform="translate(-425.292 -416.506)"/>
      <path id="Path_678" data-name="Path 678" class="cls-2" d="M883.867,534.083c1.558-2.883-.209-6.423-2.244-9s-4.507-5.247-4.453-8.53c.072-4.71,5.074-7.491,9.073-9.992A44.11,44.11,0,0,0,894.384,500a11.9,11.9,0,0,0,2.507-3.349,13.755,13.755,0,0,0,.752-5.969q-.263-10.088-1-20.152" transform="translate(-459.185 -379.466)"/>
      <path id="Path_679" data-name="Path 679" class="cls-3" d="M912.6,465.2a7.336,7.336,0,0,0-3.665-6.017l-1.647,3.253.048-3.94a7.209,7.209,0,0,0-2.417-.292,7.348,7.348,0,1,0,7.682,7Z" transform="translate(-467.547 -374.494)"/>
      <path id="Path_680" data-name="Path 680" class="cls-3" d="M891.195,546.029a7.348,7.348,0,1,1,.352-5.921l-4.59,3.737,5.05-1.194a7.3,7.3,0,0,1-.812,3.378Z" transform="translate(-459.242 -405.582)"/>
      <path id="Path_681" data-name="Path 681" class="cls-3" d="M889.289,519.433a7.348,7.348,0,0,1-2.334-14.415l-.036,3.026,1.665-3.289h0a7.35,7.35,0,1,1,.686,14.684Z" transform="translate(-460.966 -393.259)"/>
      <path id="Path_682" data-name="Path 682" class="cls-3" d="M919.155,499.552a7.348,7.348,0,1,1,3.253-13.729l-1.3,3.581,2.674-2.567a7.306,7.306,0,0,1,2.388,5.074,7.089,7.089,0,0,1-.185,2.024A7.348,7.348,0,0,1,919.155,499.552Z" transform="translate(-472.997 -385.244)"/>
      <path id="Path_683" data-name="Path 683" class="cls-4" d="M911.611,469.876c-1.7.191-3.349.716-5.05.824a5.474,5.474,0,0,1-4.65-1.63,22.807,22.807,0,0,1-1.355-2.388,5.283,5.283,0,0,0-1.85-1.743,7.348,7.348,0,1,0,13.729,4.877C912.16,469.829,911.886,469.847,911.611,469.876Z" transform="translate(-467.541 -377.212)"/>
      <path id="Path_684" data-name="Path 684" class="cls-4" d="M919.176,502.392a7.354,7.354,0,0,1-6.99-10.482,5.437,5.437,0,0,1,1.48,1.474,23.57,23.57,0,0,0,1.456,2.43,5.979,5.979,0,0,0,4.871,1.707c1.773-.084,3.486-.6,5.253-.746.245,0,.5-.042.74-.048A7.348,7.348,0,0,1,919.176,502.392Z" transform="translate(-473.017 -388.084)"/>
      <path id="Path_685" data-name="Path 685" class="cls-4" d="M889.29,522.356A7.342,7.342,0,0,1,882.24,512a6.061,6.061,0,0,1,1.552,1.492c.6.806.925,1.737,1.594,2.477a6.8,6.8,0,0,0,5.2,1.827c1.88-.042,3.581-.489,5.372-.627A7.348,7.348,0,0,1,889.29,522.356Z" transform="translate(-460.966 -396.182)"/>
      <path id="Path_686" data-name="Path 686" class="cls-4" d="M891.223,549.229a7.354,7.354,0,0,1-13.4-5.969,7.2,7.2,0,0,1,1.612,1.439c.7.854,1.164,1.791,1.97,2.614a9.229,9.229,0,0,0,6.088,2.137A32.2,32.2,0,0,0,891.223,549.229Z" transform="translate(-459.271 -408.783)"/>
      <path id="Path_696" data-name="Path 696" class="cls-12" d="M475.955,576.591a5.855,5.855,0,0,0-2.334-4.727,6.865,6.865,0,0,0-5.736-6.733,6.852,6.852,0,0,0-4.566-5.1h0a5.814,5.814,0,0,0-.848-.2h-1.009a6.721,6.721,0,0,0-6.494,5.742c-2.1-.484-4.011.143-4.363,1.468a1.791,1.791,0,0,0,.06,1.063,4.62,4.62,0,0,0,3.08,2.495l.2.06.3.078h.066a5.278,5.278,0,0,0-.5,2.262,5.217,5.217,0,0,0,2.811,4.656l-.137.084a1.863,1.863,0,0,0-.454.633,9.464,9.464,0,0,0-.877,2.113c-.149.633-.173,1.289-.358,1.916-.346,1.152-1.23,2.125-1.331,3.325-.048.537.042,1.194-.34,1.54a1.85,1.85,0,0,1-.3.215,2.465,2.465,0,0,0-.663.7,2.316,2.316,0,0,1-.466.669c-.346.257-.913.233-1.08.633s.269.872.167,1.307-.472.519-.74.764a2.656,2.656,0,0,0-.639,1.194,3.915,3.915,0,0,1-3.223-.824,6.026,6.026,0,0,1,.334,1.194,5.23,5.23,0,0,0-1.737-.872,5.485,5.485,0,0,1-1.85-1.373l.991-.137-4.375-6.679-1.3-.269,1.158,2.226a.71.71,0,0,0-.394.472,2.023,2.023,0,0,0-.042.758,13.562,13.562,0,0,0,.3,1.791l.334,1.564c.03.143.066.292.107.436a4.114,4.114,0,0,0-1.3.143,11.268,11.268,0,0,0-2.692-.639,1.492,1.492,0,0,0-.6,0,1.545,1.545,0,0,0-.567.46,18.35,18.35,0,0,0-2,2.817c-2.388,4.095-5.5,7.67-8.44,11.371-2.029.824-4.077,1.606-6.124,2.388l-4.405,1.683a6.679,6.679,0,0,1-2.734.6c-.418,0-.937-.09-1.194.269a2.515,2.515,0,0,0-.269.6l-.454.048h0a5.216,5.216,0,0,0-1.057-1.946.668.668,0,0,0-.5.382c-.107.2-.173.412-.3.6-.233.346-.645.513-.937.806s-.478.746-.8,1.045a3.164,3.164,0,0,1-1.5.6,9.452,9.452,0,0,0-2.346.889,3.781,3.781,0,0,1-.866.4,3.25,3.25,0,0,1-1.021.036l-2.328-.173a1.838,1.838,0,0,0-.627.03,1.194,1.194,0,0,0-.74,1.194,1.88,1.88,0,0,0,.74,1.283,4.743,4.743,0,0,0,1.325.687,38.909,38.909,0,0,0,6.208,1.838v.472a10.6,10.6,0,0,0,4.775,1.134.74.74,0,0,0,.358-.066.788.788,0,0,0,.3-.466,19.2,19.2,0,0,0,.931-4.572h0a2.391,2.391,0,0,0,.842-.215c.8-.221,1.6.328,2.429.418a6.637,6.637,0,0,0,2.931-.848l.418-.137a4.584,4.584,0,0,1-.967.925c-.4.286-.848.5-1.236.8a8.523,8.523,0,0,1-1.051.812,6.585,6.585,0,0,1-.806.31,5.32,5.32,0,0,0-1.152.6,2.333,2.333,0,0,0-.782.764,1.146,1.146,0,0,0-.066,1.074,1.134,1.134,0,0,0,.77.537,3.163,3.163,0,0,0,.949,0c1.265-.1,2.525-.209,3.784-.322a10.1,10.1,0,0,0,1.582-.227c.275-.066.549-.155.824-.233a7.343,7.343,0,0,1,1.439-.215,1.194,1.194,0,0,1,.418.042c.293.1.5.394.8.454a1.194,1.194,0,0,0,.6-.078,13.314,13.314,0,0,1,2.8-.3,1.156,1.156,0,0,0,1.086-.483c.191-.382-.155-1-.31-1.5a4.6,4.6,0,0,1-.131-.991,6.2,6.2,0,0,0-.692-2.352,6.137,6.137,0,0,1-.519-1.074,27.143,27.143,0,0,0,5.151-2.614,9.209,9.209,0,0,1,2.937-1.415,7.987,7.987,0,0,1,3.689.43,83.889,83.889,0,0,1,8.458,2.949c1.319.543,2.632,1.116,3.993,1.528a6.228,6.228,0,0,0,1.421,1.379,6.567,6.567,0,0,0,3.074.842,40.277,40.277,0,0,0,4.328.161,7.3,7.3,0,0,0,3.223-.6,3.313,3.313,0,0,0,.674-.448,2.674,2.674,0,0,0,2.125-.782,5.151,5.151,0,0,0,1.618-2.555c.352-1.361.084-2.984.919-4.071.221-.3.513-.537.734-.836a2.352,2.352,0,0,0,.382-1.379.277.277,0,0,1,.036-.054,5.059,5.059,0,0,0,.358-1.373,7.849,7.849,0,0,1,.388-1.086,33.538,33.538,0,0,0,1.11-3.217,18.8,18.8,0,0,0,.513-2.209c.09-.6.143-1.194.191-1.791a11.121,11.121,0,0,1,.543-2.764,22.49,22.49,0,0,0,1.253-6.614v-.131a4.435,4.435,0,0,0,3.928-4.513,4.709,4.709,0,0,0-.412-1.928,5.968,5.968,0,0,0,.8-3.008ZM454.6,602.539c.066.233.143.46.221.686-.352-.34-.692-.692-1.045-1.039.137.048.281.09.412.143a2.221,2.221,0,0,1,.394.209Zm-1.689-1.146c-2.065-1.791-4.453-3.182-6.566-4.919,1.152.567,2.274,1.23,3.384,1.862q1.976,1.128,4.005,2.167a3.28,3.28,0,0,1-.842.889Zm.877-4.513.1-.1v.71l-.555-.191a4.951,4.951,0,0,0,.436-.418Zm-18.164,4.835a17.087,17.087,0,0,0,2.2-3.134,21.1,21.1,0,0,0,3.277,3.659C439.275,602.007,437.449,601.81,435.622,601.715Z" transform="translate(-265.198 -415.462)"/>
      <path id="Path_697" data-name="Path 697" class="cls-13" d="M415.35,438.25l1.3.263,4.435,6.56-1.952.263Z" transform="translate(-241.989 -269.379)"/>
      <path id="Path_698" data-name="Path 698" class="cls-14" d="M414.49,645.416a25.528,25.528,0,0,0,1.3,3.385,32.206,32.206,0,0,0,4.328-1.236,13.645,13.645,0,0,0-.9-1.194,4.451,4.451,0,0,0-1.224-.937,3.367,3.367,0,0,0-1.486,0C415.839,645.416,415.164,645.428,414.49,645.416Z" transform="translate(-272.682 -449.935)"/>
      <path id="Path_699" data-name="Path 699" class="cls-13" d="M410.47,645.895a2.7,2.7,0,0,1-1.48-1.683,5.421,5.421,0,0,0-1.128-2.012.645.645,0,0,0-.5.376c-.107.191-.173.406-.292.6-.239.34-.657.507-.955.794s-.477.734-.8,1.027a3.174,3.174,0,0,1-1.51.6,9.794,9.794,0,0,0-2.388.877,4.116,4.116,0,0,1-.877.394,3.47,3.47,0,0,1-1.027,0l-2.352-.167a1.841,1.841,0,0,0-.6,0,1.14,1.14,0,0,0-.746,1.194,1.791,1.791,0,0,0,.746,1.265,4.955,4.955,0,0,0,1.337.681,39.352,39.352,0,0,0,6.3,1.791v.466a10.911,10.911,0,0,0,4.805,1.116.812.812,0,0,0,.358-.06.788.788,0,0,0,.3-.466,18.625,18.625,0,0,0,.985-5.11,4.07,4.07,0,0,0-.1-1.319c-.131-.424.31-.245-.1-.412" transform="translate(-265.151 -448.665)"/>
      <path id="Path_700" data-name="Path 700" class="cls-13" d="M464.667,632.284c-6.972.418-13.86-1.624-20.844-1.839a10.175,10.175,0,0,0-2.591.161,13.05,13.05,0,0,0-2.567,1c-3.743,1.743-7.617,3.188-11.484,4.626l-4.447,1.654a6.735,6.735,0,0,1-2.752.6c-.424,0-.943-.09-1.194.263-.722,1.074-.382,2.644.1,3.85.155.388.418.812.836.854a2.429,2.429,0,0,0,.848-.215c.806-.215,1.612.328,2.447.418a6.877,6.877,0,0,0,2.955-.836,25.639,25.639,0,0,1,5.062-.86,22.68,22.68,0,0,0,7.927-3.289,9.251,9.251,0,0,1,2.955-1.4,8.178,8.178,0,0,1,3.719.424,85.333,85.333,0,0,1,8.53,2.9,39.769,39.769,0,0,0,4.453,1.63,16.116,16.116,0,0,0,9.986-.6c1.116-.442,2.328-1.194,2.388-2.423.042-.687-.5-1.289-.848-1.88-.227-.376-.46-.752-.7-1.116C468.243,634.474,466.786,632.158,464.667,632.284Z" transform="translate(-274.247 -443.917)"/>
      <path id="Path_701" data-name="Path 701" class="cls-4" d="M464.667,632.284c-6.972.418-13.86-1.624-20.844-1.839a10.175,10.175,0,0,0-2.591.161,13.05,13.05,0,0,0-2.567,1c-3.743,1.743-7.617,3.188-11.484,4.626l-4.447,1.654a6.735,6.735,0,0,1-2.752.6c-.424,0-.943-.09-1.194.263-.722,1.074-.382,2.644.1,3.85.155.388.418.812.836.854a2.429,2.429,0,0,0,.848-.215c.806-.215,1.612.328,2.447.418a6.877,6.877,0,0,0,2.955-.836,25.639,25.639,0,0,1,5.062-.86,22.68,22.68,0,0,0,7.927-3.289,9.251,9.251,0,0,1,2.955-1.4,8.178,8.178,0,0,1,3.719.424,85.333,85.333,0,0,1,8.53,2.9,39.769,39.769,0,0,0,4.453,1.63,16.116,16.116,0,0,0,9.986-.6c1.116-.442,2.328-1.194,2.388-2.423.042-.687-.5-1.289-.848-1.88-.227-.376-.46-.752-.7-1.116C468.243,634.474,466.786,632.158,464.667,632.284Z" transform="translate(-274.247 -443.917)"/>
      <path id="Path_702" data-name="Path 702" class="cls-14" d="M436.92,644.04q1.635.555,3.3,1.027c.6-1.021,1.791-1.731,2.047-2.9a.274.274,0,0,0,0-.155.286.286,0,0,0-.125-.113,6.253,6.253,0,0,0-2.591-.758c-.716-.042-1.045.7-1.367,1.229C438.06,642.6,437.212,644.153,436.92,644.04Z" transform="translate(-281.723 -448.237)"/>
      <path id="Path_703" data-name="Path 703" class="cls-13" d="M432.2,643.662a2.387,2.387,0,0,1-1.606-1.057c-.149-.269-.316-.633-.627-.6s-.412.358-.478.639a17.9,17.9,0,0,1-.9,3.1,5.814,5.814,0,0,1-1.928,2.537c-.406.281-.854.49-1.254.788a8.6,8.6,0,0,1-1.057.8,6.291,6.291,0,0,1-.812.3,5.628,5.628,0,0,0-1.158.6,2.3,2.3,0,0,0-.794.758,1.092,1.092,0,0,0-.06,1.057,1.128,1.128,0,0,0,.77.525,3.247,3.247,0,0,0,.961,0c1.271-.09,2.543-.2,3.814-.316a10.99,10.99,0,0,0,1.594-.221l.83-.227a6.6,6.6,0,0,1,1.45-.215,1.125,1.125,0,0,1,.424.042c.293.1.5.388.806.448a1.346,1.346,0,0,0,.6-.078,13.186,13.186,0,0,1,2.823-.292,1.192,1.192,0,0,0,1.1-.477c.239-.466-.155-.985-.316-1.486a4.773,4.773,0,0,1-.131-.973,5.931,5.931,0,0,0-.7-2.316c-.322-.6-.764-1.254-.537-1.886a1.791,1.791,0,0,0,.215-.651C435.136,643.429,432.785,643.793,432.2,643.662Z" transform="translate(-275.474 -448.587)"/>
      <path id="Path_704" data-name="Path 704" class="cls-14" d="M474.453,610.66a5.444,5.444,0,0,1-2.782-2.758c-.113-.263-.209-.543-.322-.806a6.126,6.126,0,0,0-1.659-2.31.818.818,0,0,0-.6-.257.651.651,0,0,0-.448.484,1.846,1.846,0,0,0-.048.746,13.3,13.3,0,0,0,.3,1.743l.34,1.54a3.386,3.386,0,0,0,.209.686,2.386,2.386,0,0,0,.567.674c.31.287.627.561.943.836a3.242,3.242,0,0,0,.6.412,3.471,3.471,0,0,0,1.057.31,8.99,8.99,0,0,1,3.963,1.528s0-1.033,0-1.146a1.517,1.517,0,0,0-.3-.83,5.292,5.292,0,0,0-1.821-.854Z" transform="translate(-294.485 -433.48)"/>
      <path id="Path_705" data-name="Path 705" class="cls-4" d="M474.453,610.66a5.444,5.444,0,0,1-2.782-2.758c-.113-.263-.209-.543-.322-.806a6.126,6.126,0,0,0-1.659-2.31.818.818,0,0,0-.6-.257.651.651,0,0,0-.448.484,1.846,1.846,0,0,0-.048.746,13.3,13.3,0,0,0,.3,1.743l.34,1.54a3.386,3.386,0,0,0,.209.686,2.386,2.386,0,0,0,.567.674c.31.287.627.561.943.836a3.242,3.242,0,0,0,.6.412,3.471,3.471,0,0,0,1.057.31,8.99,8.99,0,0,1,3.963,1.528s0-1.033,0-1.146a1.517,1.517,0,0,0-.3-.83,5.292,5.292,0,0,0-1.821-.854Z" transform="translate(-294.485 -433.48)"/>
      <ellipse id="Ellipse_134" data-name="Ellipse 134" class="cls-13" cx="1.695" cy="1.707" rx="1.695" ry="1.707" transform="translate(192.468 161.982)"/>
      <path id="Path_706" data-name="Path 706" class="cls-13" d="M492.519,590.446a1.832,1.832,0,0,0-1.337.191,1.856,1.856,0,0,0-.46.627,9.1,9.1,0,0,0-.883,2.077c-.149.6-.173,1.271-.364,1.886-.346,1.134-1.236,2.1-1.337,3.277-.048.531.042,1.152-.346,1.51a2.189,2.189,0,0,1-.3.221,2.294,2.294,0,0,0-.668.686,2.251,2.251,0,0,1-.472.651c-.346.257-.919.233-1.086.6s.269.86.167,1.289-.478.513-.746.752a2.608,2.608,0,0,0-.645,1.194,3.981,3.981,0,0,1-3.247-.806,10.34,10.34,0,0,1,.507,3.713,1.516,1.516,0,0,1-.3,1.146,20.676,20.676,0,0,1,3.981.692,2.747,2.747,0,0,0,1.737,0,2.9,2.9,0,0,0,.8-.633,5.1,5.1,0,0,0,1.641-2.531,14.86,14.86,0,0,0,.03-1.713,9.661,9.661,0,0,1,.436-2.083,24.785,24.785,0,0,0,.758-4.286c.078-.9.854-1.612,1.259-2.388a11.689,11.689,0,0,0,1.606-4.775C493.271,591.192,493.08,590.506,492.519,590.446Z" transform="translate(-299.407 -427.783)"/>
      <path id="Path_707" data-name="Path 707" class="cls-4" d="M492.519,590.446a1.832,1.832,0,0,0-1.337.191,1.856,1.856,0,0,0-.46.627,9.1,9.1,0,0,0-.883,2.077c-.149.6-.173,1.271-.364,1.886-.346,1.134-1.236,2.1-1.337,3.277-.048.531.042,1.152-.346,1.51a2.189,2.189,0,0,1-.3.221,2.294,2.294,0,0,0-.668.686,2.251,2.251,0,0,1-.472.651c-.346.257-.919.233-1.086.6s.269.86.167,1.289-.478.513-.746.752a2.608,2.608,0,0,0-.645,1.194,3.981,3.981,0,0,1-3.247-.806,10.34,10.34,0,0,1,.507,3.713,1.516,1.516,0,0,1-.3,1.146,20.676,20.676,0,0,1,3.981.692,2.747,2.747,0,0,0,1.737,0,2.9,2.9,0,0,0,.8-.633,5.1,5.1,0,0,0,1.641-2.531,14.86,14.86,0,0,0,.03-1.713,9.661,9.661,0,0,1,.436-2.083,24.785,24.785,0,0,0,.758-4.286c.078-.9.854-1.612,1.259-2.388a11.689,11.689,0,0,0,1.606-4.775C493.271,591.192,493.08,590.506,492.519,590.446Z" transform="translate(-299.407 -427.783)"/>
      <path id="Path_708" data-name="Path 708" class="cls-13" d="M474.27,626.3a15.732,15.732,0,0,1-3.689-3.08c-2.238-2.107-4.978-3.581-7.336-5.569a51.673,51.673,0,0,0-4.674-3.928,11.68,11.68,0,0,0-5.008-1.749,1.332,1.332,0,0,0-.6,0,1.374,1.374,0,0,0-.567.448,18.04,18.04,0,0,0-2.024,2.776c-2.985,5.074-7.229,9.336-10.744,14.051a.9.9,0,0,0-.173.334.83.83,0,0,0,.131.519l.716,1.4c.4.788,1.045,1.7,1.9,1.546a2.083,2.083,0,0,0,1-.639l3.211-3.074,3.367-3.217a25.82,25.82,0,0,0,5.265-6.22c1,1.743,2.788,2.883,4.005,4.477.466.6.848,1.271,1.265,1.916.663,1.027,1.421,1.994,2.173,2.985l3.862,4.924a7.391,7.391,0,0,0,1.791,1.791,6.833,6.833,0,0,0,3.1.83,40.943,40.943,0,0,0,4.363.155,7.521,7.521,0,0,0,3.253-.6,2.948,2.948,0,0,0,1.761-2.62,3.844,3.844,0,0,0-.555-1.63A13.3,13.3,0,0,0,474.27,626.3Z" transform="translate(-282.745 -436.469)"/>
      <ellipse id="Ellipse_135" data-name="Ellipse 135" class="cls-15" cx="1.307" cy="1.313" rx="1.307" ry="1.313" transform="translate(193.9 163.559)"/>
      <path id="Path_709" data-name="Path 709" class="cls-14" d="M502.261,589.761a2.513,2.513,0,0,1,.143,1.886,7.65,7.65,0,0,1-.842,1.737,8.271,8.271,0,0,1-1.092,1.552,11.244,11.244,0,0,0,5.742-1.647,8.339,8.339,0,0,0,3.623-3.158,1.672,1.672,0,0,1-1.337-.251,4.782,4.782,0,0,1-1.021-.949l-1.009-1.134a4.541,4.541,0,0,1-.6-.818,2.257,2.257,0,0,1-.269-1.319,7.683,7.683,0,0,1-1.337,1.11c-.722.471-1.516.812-2.244,1.277-.251.167-.824.43-.674.764S502.058,589.4,502.261,589.761Z" transform="translate(-307.34 -425.874)"/>
      <path id="Path_710" data-name="Path 710" class="cls-4" d="M502.261,589.761a2.513,2.513,0,0,1,.143,1.886,7.65,7.65,0,0,1-.842,1.737,8.271,8.271,0,0,1-1.092,1.552,11.244,11.244,0,0,0,5.742-1.647,8.339,8.339,0,0,0,3.623-3.158,1.672,1.672,0,0,1-1.337-.251,4.782,4.782,0,0,1-1.021-.949l-1.009-1.134a4.541,4.541,0,0,1-.6-.818,2.257,2.257,0,0,1-.269-1.319,7.683,7.683,0,0,1-1.337,1.11c-.722.471-1.516.812-2.244,1.277-.251.167-.824.43-.674.764S502.058,589.4,502.261,589.761Z" transform="translate(-307.34 -425.874)"/>
      <path id="Path_711" data-name="Path 711" class="cls-15" d="M498.145,592.717a1.7,1.7,0,0,0,0,1.97c.06.072.275.519.364.525a.328.328,0,0,0,.227-.119,14.98,14.98,0,0,0,1.277-1.522,2.841,2.841,0,0,1,1.624-1.062,3.51,3.51,0,0,1,2.238.7,2.125,2.125,0,0,1,.77.6,2.084,2.084,0,0,1,.251.854,41.13,41.13,0,0,1,.227,5.426,21.378,21.378,0,0,1-.257,3.91c-.131.663-.322,1.313-.412,1.988a12.683,12.683,0,0,0-.083,1.791v2.495a6.565,6.565,0,0,0,.1,1.367c.119.543.376,1.051.549,1.582a10.339,10.339,0,0,1,.364,1.868l.34,2.579a3.26,3.26,0,0,1-.3,2.388c-.221.292-.513.531-.74.824-.842,1.1-.6,2.668-.925,4.011a5,5,0,0,1-1.636,2.507,2.7,2.7,0,0,1-2.155.77A2.953,2.953,0,0,1,498,625.839a9.281,9.281,0,0,0-1.009-3.026,8.028,8.028,0,0,0-1.994-1.665,3.445,3.445,0,0,1-1.558-2.023c-.066-.376,0-.764-.066-1.146a2.7,2.7,0,0,0-1.665-2.191c-.537-.209-1.194-.286-1.5-.776a3.623,3.623,0,0,0,1.57-2.107,10.82,10.82,0,0,0,.382-2.662l.179-2.985a9.969,9.969,0,0,1,.71-3.874c.263-.537.6-1.045.866-1.576a17.1,17.1,0,0,0,.925-2.31c.43-1.23.86-2.459,1.242-3.7a6.975,6.975,0,0,1,.68-1.725C497.076,593.511,497.542,592.837,498.145,592.717Z" transform="translate(-303.2 -428.633)"/>
      <path id="Path_712" data-name="Path 712" class="cls-13" d="M492.3,611.835h.794l.167-1.194a2.489,2.489,0,0,1,.167-.7,4.179,4.179,0,0,1,.46-.669c.776-1.1.722-2.567.913-3.91a19.9,19.9,0,0,1,1.743-5.11l1.54-3.432a4.739,4.739,0,0,0,.334-.877,5.264,5.264,0,0,0,.1-1.015c0-.531.167-2.465.185-2.985,0-.2-.436-.09-.525-.263-.191-.382-.454.651-.818.877a2.005,2.005,0,0,0-.71,1.039c-.334.859-.537,1.791-.848,2.644a5.4,5.4,0,0,1-1.439,2.34c-.316.275-.68.5-.979.794-.955.943-1.051,2.441-1.08,3.79C492.279,603.992,492.123,611.835,492.3,611.835Z" transform="translate(-304.013 -428.268)"/>
      <path id="Path_713" data-name="Path 713" class="cls-13" d="M506.61,590.415a2.71,2.71,0,0,0-1.415,1.94,9.811,9.811,0,0,1-.716,2.388c-.967,1.683-3.432,2.173-4.119,3.993a7.341,7.341,0,0,0-.275,1.88c-.119,1.307-.549,2.567-.68,3.868a17.232,17.232,0,0,0,.072,3.038l.865,10.279a13.728,13.728,0,0,1-.257,4.525,4.358,4.358,0,0,0,2.591-.43c.806-.37,1.546-.877,2.328-1.307A23.982,23.982,0,0,0,509,618.345a2.442,2.442,0,0,0,.537-.6,5.161,5.161,0,0,0,.358-1.349,7.278,7.278,0,0,1,.388-1.062,31.286,31.286,0,0,0,1.122-3.176,18.214,18.214,0,0,0,.513-2.173c.1-.6.149-1.194.2-1.791a10.512,10.512,0,0,1,.549-2.716,21.88,21.88,0,0,0,1.259-6.518,3.409,3.409,0,0,0-.066-.955,5.11,5.11,0,0,0-.525-1.092c-.358-.675-.6-1.415-.907-2.1a10.331,10.331,0,0,0-3.528-3.707A2.686,2.686,0,0,0,506.61,590.415Z" transform="translate(-306.896 -427.758)"/>
      <path id="Path_714" data-name="Path 714" class="cls-14" d="M474.979,616.23a6.226,6.226,0,0,1-1.641-1.248c-.215-.251-.394-.531-.6-.782a4.065,4.065,0,0,0-2.065-1.194,10.09,10.09,0,0,0-2.388-.233,4.335,4.335,0,0,0-1.594.191,1.624,1.624,0,0,0-1.057,1.134,1.88,1.88,0,0,0,.806,1.671,3.8,3.8,0,0,0,1.606.776,12.826,12.826,0,0,0,1.451.173c2.853.3,5.4,1.85,7.9,3.265q3.295,1.874,6.721,3.486a13.98,13.98,0,0,0,.113-2.059c0-.513-.042-1.3-.525-1.606a10.538,10.538,0,0,0-2.137-.639,33.618,33.618,0,0,1-4.3-1.743A21.42,21.42,0,0,1,474.979,616.23Z" transform="translate(-293.297 -436.799)"/>
      <ellipse id="Ellipse_136" data-name="Ellipse 136" class="cls-14" cx="5.086" cy="5.115" rx="5.086" ry="5.115" transform="translate(189.077 153.071)"/>
      <path id="Path_715" data-name="Path 715" class="cls-13" d="M505.462,599.742a8.155,8.155,0,0,0-.985,1.844c-.6,1.289-1.612,2.388-2.107,3.755s-.5,3.122-1.522,4.238a1.486,1.486,0,0,0-.448.645,3.079,3.079,0,0,1-.048.466c-.149.406-.812.424-.937.842-.036.12,0,.251-.06.37-.1.269-.46.31-.692.472-.5.334-.394,1.11-.746,1.594a1.343,1.343,0,0,1-1.271.448,4.476,4.476,0,0,1-1.319-.5,1.274,1.274,0,0,0-.478-.149.985.985,0,0,0-.549.191,3.385,3.385,0,0,0-1.373,2.9,9.457,9.457,0,0,0,.788,3.241,1.3,1.3,0,0,0,.257.484,1.14,1.14,0,0,0,1.265.1,5.971,5.971,0,0,1,1.236-.555c.788-.143,1.558.4,2.358.352a3.278,3.278,0,0,0,1.588-.7,8.773,8.773,0,0,0,2.137-1.791c.346-.46.6-.979.907-1.469a18.846,18.846,0,0,1,1.283-1.713l2.937-3.581a8.244,8.244,0,0,0,.788-1.086,7.657,7.657,0,0,0,.6-1.641,12.571,12.571,0,0,0,.6-2.919,11.214,11.214,0,0,0-.215-2.447,8.651,8.651,0,0,0-.6-2.334C508.214,599.444,506.662,598.345,505.462,599.742Z" transform="translate(-304.297 -431.289)"/>
      <path id="Path_716" data-name="Path 716" class="cls-16" d="M513.759,577.792a5.73,5.73,0,0,0-2.352-4.656,6.811,6.811,0,0,0-5.784-6.632,6.608,6.608,0,0,0-13.019.352c-2.113-.477-4.047.143-4.4,1.445s1.14,2.985,3.367,3.581a6.275,6.275,0,0,0,2.161.215,6.614,6.614,0,0,0,4.548,2.835,6.787,6.787,0,0,0,4.966,5.122,5.7,5.7,0,0,0,1.534,2.119v.5a4.3,4.3,0,1,0,8.607,0,4.6,4.6,0,0,0-.412-1.9A5.754,5.754,0,0,0,513.759,577.792Z" transform="translate(-302.375 -416.012)"/>
      <path id="Path_717" data-name="Path 717" class="cls-4" d="M489.634,568.574c.352-1.3,2.286-1.922,4.4-1.445a6.721,6.721,0,0,1,6.566-5.659h.436a6.467,6.467,0,0,0-1.874-.281,6.721,6.721,0,0,0-6.566,5.659c-2.113-.477-4.047.143-4.4,1.445s1.14,2.984,3.367,3.581a6.564,6.564,0,0,0,1.277.221C490.708,571.457,489.282,569.9,489.634,568.574Z" transform="translate(-302.371 -416.01)"/>
      <path id="Path_718" data-name="Path 718" class="cls-4" d="M510.046,590.431a4.484,4.484,0,0,1,0-.489,5.574,5.574,0,0,1-1.534-2.119,6.769,6.769,0,0,1-4.966-5.128,6.6,6.6,0,0,1-4.554-2.829,5.73,5.73,0,0,1-1.271-.036,6.631,6.631,0,0,0,4.387,2.608,6.787,6.787,0,0,0,4.966,5.122,5.7,5.7,0,0,0,1.534,2.119v.5a4.381,4.381,0,0,0,4.28,4.453A4.453,4.453,0,0,1,510.046,590.431Z" transform="translate(-306.231 -423.524)"/>
      <ellipse id="Ellipse_137" data-name="Ellipse 137" class="cls-14" cx="0.782" cy="1.045" rx="0.782" ry="1.045" transform="translate(194.609 158.863) rotate(-37.22)"/>
    </g>
    <g id="Component_28_1" data-name="Component 28 – 1" transform="translate(528.634)">
      <path id="Path_1017" data-name="Path 1017" class="cls-5" d="M278.772,59.894c122.265,11.87,194.971-36.8,259.961,7.122s12.077,115.591-64.1,169.746S368,291.361,234.024,283.635c-81.728-4.713-162.442-8.478-222.335-32.628s-15.358-74.187,0-125.826-34.48-71,37.985-105.646S156.507,48.024,278.772,59.894Z" transform="translate(54.137 -9.262)"/>
      <text id="_Hlavná_24_080_01_Prešov_Slovensko_247_972_501_contact_webstudio.sk" data-name="
        Hlavná 24, 080 01 Prešov, Slovensko
        247 972 501
        contact@webstudio.sk" class="cls-17" transform="translate(145.03 80.806)"><tspan x="0" y="0"></tspan><tspan class="cls-18"><tspan x="0" y="40" xml:space="preserve">        Hlavná 24, 080 01 Prešov, Slovensko</tspan><tspan x="0" y="80" xml:space="preserve">        247 972 501</tspan><tspan x="0" y="120" xml:space="preserve">        contact@webstudio.sk</tspan></tspan></text>
      <path id="Path_979" data-name="Path 979" class="cls-2" d="M101.787,537.969c1.558-2.889-.209-6.423-2.238-9s-4.513-5.265-4.459-8.53c.078-4.71,5.08-7.5,9.073-9.992a44.354,44.354,0,0,0,8.148-6.566,12.017,12.017,0,0,0,2.5-3.355,13.567,13.567,0,0,0,.752-5.969q-.263-10.082-1-20.152" transform="translate(475.686 -279.526)"/>
      <path id="Path_980" data-name="Path 980" class="cls-3" d="M130.531,469.117a7.348,7.348,0,0,0-3.671-6.023l-1.647,3.253.054-3.94a7.348,7.348,0,1,0,5.265,6.709Z" transform="translate(467.32 -274.567)"/>
      <path id="Path_981" data-name="Path 981" class="cls-3" d="M109.115,549.98A7.348,7.348,0,0,1,95.243,547a7.163,7.163,0,0,1,.478-2.984,7.354,7.354,0,0,1,13.729.078l-4.59,3.737,5.05-1.194a7.307,7.307,0,0,1-.794,3.349Z" transform="translate(475.628 -305.697)"/>
      <path id="Path_982" data-name="Path 982" class="cls-3" d="M107.214,523.348a7.348,7.348,0,0,1-2.328-14.415l-.042,3.026,1.665-3.295h0a7.35,7.35,0,0,1,.686,14.684Z" transform="translate(473.9 -293.331)"/>
      <path id="Path_983" data-name="Path 983" class="cls-3" d="M137.082,503.462a7.348,7.348,0,1,1,3.247-13.729l-1.3,3.581,2.644-2.614a7.348,7.348,0,0,1-4.62,12.756Z" transform="translate(461.874 -285.317)"/>
      <path id="Path_984" data-name="Path 984" class="cls-4" d="M129.533,473.8c-1.7.185-3.343.71-5.05.818a5.464,5.464,0,0,1-4.644-1.624,23.566,23.566,0,0,1-1.361-2.388,5.23,5.23,0,0,0-1.85-1.743,7.348,7.348,0,1,0,13.729,4.883C130.088,473.749,129.807,473.767,129.533,473.8Z" transform="translate(467.327 -277.289)"/>
      <path id="Path_985" data-name="Path 985" class="cls-4" d="M137.1,506.3a7.348,7.348,0,0,1-6.99-10.482,5.438,5.438,0,0,1,1.474,1.48,24.894,24.894,0,0,0,1.456,2.429,5.994,5.994,0,0,0,4.877,1.7c1.773-.09,3.486-.6,5.253-.746.245,0,.489-.036.74-.042A7.348,7.348,0,0,1,137.1,506.3Z" transform="translate(461.852 -288.156)"/>
      <path id="Path_986" data-name="Path 986" class="cls-4" d="M107.216,526.284a7.348,7.348,0,0,1-7.049-10.344,5.969,5.969,0,0,1,1.558,1.492,24.614,24.614,0,0,0,1.594,2.477,6.654,6.654,0,0,0,5.2,1.791c1.874-.078,3.581-.483,5.372-.6A7.36,7.36,0,0,1,107.216,526.284Z" transform="translate(473.898 -296.267)"/>
      <path id="Path_987" data-name="Path 987" class="cls-4" d="M109.115,553.139a7.348,7.348,0,0,1-13.872-2.984,7.163,7.163,0,0,1,.478-2.985,7.336,7.336,0,0,1,1.612,1.439c.7.848,1.158,1.791,1.97,2.608a9.182,9.182,0,0,0,6.082,2.137,30.853,30.853,0,0,0,3.731-.215Z" transform="translate(475.628 -308.855)"/>
      <path id="Path_988" data-name="Path 988" class="cls-2" d="M503.2,455.607c-1.558-2.883.209-6.417,2.244-8.989s4.507-5.253,4.453-8.53c-.072-4.716-5.074-7.5-9.073-9.992a44.169,44.169,0,0,1-8.142-6.566,11.8,11.8,0,0,1-2.507-3.349,13.755,13.755,0,0,1-.752-5.969q.269-10.082,1-20.152" transform="translate(-474.704 -318.356)"/>
      <path id="Path_989" data-name="Path 989" class="cls-3" d="M478.385,386.757a7.342,7.342,0,0,1,3.665-6.023l1.647,3.253-.048-3.94a7.535,7.535,0,0,1,2.417-.292,7.348,7.348,0,1,1-7.682,7Z" transform="translate(-470.257 -313.393)"/>
      <path id="Path_990" data-name="Path 990" class="cls-3" d="M499.792,467.58a7.348,7.348,0,1,0-.352-5.915l4.59,3.737-5.05-1.194A7.306,7.306,0,0,0,499.792,467.58Z" transform="translate(-478.562 -344.482)"/>
      <path id="Path_991" data-name="Path 991" class="cls-3" d="M501.69,440.988a7.348,7.348,0,0,0,2.334-14.415l.036,3.026-1.665-3.295h0a7.348,7.348,0,0,0-7.7,6.978,7.258,7.258,0,0,0,.316,2.507A7.342,7.342,0,0,0,501.69,440.988Z" transform="translate(-476.831 -332.156)"/>
      <path id="Path_992" data-name="Path 992" class="cls-3" d="M471.8,421.082a7.348,7.348,0,1,0-3.253-13.729l1.3,3.581-2.674-2.561a7.288,7.288,0,0,0-2.388,5.074,7.111,7.111,0,0,0,.185,2.023A7.342,7.342,0,0,0,471.8,421.082Z" transform="translate(-464.774 -324.135)"/>
      <path id="Path_993" data-name="Path 993" class="cls-4" d="M479.494,391.436c1.7.185,3.343.71,5.044.818a5.488,5.488,0,0,0,4.65-1.624,23.5,23.5,0,0,0,1.355-2.388A5.247,5.247,0,0,1,492.4,386.5a7.348,7.348,0,1,1-13.729,4.877C478.939,391.383,479.213,391.407,479.494,391.436Z" transform="translate(-470.375 -316.115)"/>
      <path id="Path_994" data-name="Path 994" class="cls-4" d="M471.941,423.922a7.354,7.354,0,0,0,6.99-10.482,5.463,5.463,0,0,0-1.48,1.48,24.9,24.9,0,0,1-1.456,2.429,5.975,5.975,0,0,1-4.871,1.7c-1.773-.09-3.486-.6-5.253-.746-.245,0-.5-.036-.74-.042a7.342,7.342,0,0,0,6.811,5.659Z" transform="translate(-464.917 -326.974)"/>
      <path id="Path_995" data-name="Path 995" class="cls-4" d="M501.913,443.924a7.342,7.342,0,0,0,7.049-10.344,5.868,5.868,0,0,0-1.552,1.492,24.586,24.586,0,0,1-1.594,2.477,6.667,6.667,0,0,1-5.2,1.791c-1.88-.078-3.581-.483-5.372-.6a7.342,7.342,0,0,0,6.673,5.181Z" transform="translate(-477.055 -335.093)"/>
      <path id="Path_996" data-name="Path 996" class="cls-4" d="M500.34,470.779a7.348,7.348,0,0,0,13.4-5.969,7.06,7.06,0,0,0-1.612,1.439c-.7.848-1.194,1.791-1.97,2.609a9.2,9.2,0,0,1-6.088,2.137A32.179,32.179,0,0,1,500.34,470.779Z" transform="translate(-479.11 -347.681)"/>
      <path id="Path_997" data-name="Path 997" class="cls-6" d="M334.06,430.16l-9.06,20.9.846.846,8.217-3.624,8.217,3.624.846-.846Z" transform="translate(-174.145 -327.339)"/>
      <path id="Path_998" data-name="Path 998" class="cls-6" d="M807.218,372.222a18.019,18.019,0,0,0-3.807-2.543c-1.14-.547-1.558-.538-2.365.045-.671.476-1.106.935-1.877.766a11.3,11.3,0,0,1-3.776-2.793,10.972,10.972,0,0,1-2.788-3.773c-.164-.783.288-1.209.768-1.879.581-.807.6-1.225.045-2.365a18.246,18.246,0,0,0-2.546-3.807c-.835-.833-1.016-.649-1.473-.476a8.516,8.516,0,0,0-1.349.714,4.07,4.07,0,0,0-1.618,1.711c-.326.695-.695,1.984,1.2,5.36a29.9,29.9,0,0,0,5.258,7.011h0a29.95,29.95,0,0,0,7.035,5.267c3.374,1.9,4.665,1.525,5.36,1.2A3.994,3.994,0,0,0,807,375.043a8.412,8.412,0,0,0,.714-1.349C807.868,373.237,808.053,373.052,807.218,372.222Z" transform="translate(-636.955 -210.373)"/>
      <path id="Path_999" data-name="Path 999" class="cls-6" d="M565.949,522.268l-5.665,5.764a.1.1,0,0,0,0,.148l3.975,4.227a.684.684,0,1,1-.967.967l-3.954-4.212a.108.108,0,0,0-.151,0l-.964.973a4.234,4.234,0,0,1-3.029,1.274,4.327,4.327,0,0,1-3.082-1.31l-.926-.946a.108.108,0,0,0-.151,0l-3.945,4.2a.684.684,0,1,1-.967-.967l3.96-4.217a.114.114,0,0,0,0-.148l-5.665-5.764a.1.1,0,0,0-.178.074v11.533a1.688,1.688,0,0,0,1.683,1.683h18.526a1.688,1.688,0,0,0,1.683-1.683V522.342a.1.1,0,0,0-.182-.074Z" transform="translate(-395.025 -333.862)"/>
      <path id="Path_1000" data-name="Path 1000" class="cls-6" d="M557.953,522.259a2.866,2.866,0,0,0,2.067-.852l8.251-8.4a1.647,1.647,0,0,0-1.041-.379H548.691a1.636,1.636,0,0,0-1.041.379l8.253,8.4A2.854,2.854,0,0,0,557.953,522.259Z" transform="translate(-397.79 -326.081)"/>
    </g>
  </g>
</svg>
