<svg id="facebook" xmlns="http://www.w3.org/2000/svg" width="30.969" height="30.969" viewBox="0 0 30.969 30.969">
  <defs>
    <style>
      .cls-1 {
        fill: #3f3d56;
      }
    </style>
  </defs>
  <path id="Path_477" data-name="Path 477" class="cls-1" d="M291.246,508.668q-.195.032-.391.058Q291.051,508.7,291.246,508.668Zm0,0" transform="translate(-273.263 -477.901)"/>
  <path id="Path_478" data-name="Path 478" class="cls-1" d="M299.525,507.793l-.186.033Zm0,0" transform="translate(-281.234 -477.08)"/>
  <path id="Path_479" data-name="Path 479" class="cls-1" d="M278.068,510.34q-.228.026-.458.045Q277.839,510.366,278.068,510.34Zm0,0" transform="translate(-260.819 -479.472)"/>
  <path id="Path_480" data-name="Path 480" class="cls-1" d="M286.665,509.738l-.22.027Zm0,0" transform="translate(-269.12 -478.906)"/>
  <path id="Path_481" data-name="Path 481" class="cls-1" d="M306.828,506.41l-.164.034Zm0,0" transform="translate(-288.115 -475.781)"/>
  <path id="Path_482" data-name="Path 482" class="cls-1" d="M324.617,502.113l-.133.037Zm0,0" transform="translate(-304.858 -471.745)"/>
  <path id="Path_483" data-name="Path 483" class="cls-1" d="M319.2,503.543l-.144.038Zm0,0" transform="translate(-299.761 -473.088)"/>
  <path id="Path_484" data-name="Path 484" class="cls-1" d="M312.22,505.254l-.153.034Zm0,0" transform="translate(-293.191 -474.695)"/>
  <path id="Path_485" data-name="Path 485" class="cls-1" d="M273.726,511.09l-.246.019Zm0,0" transform="translate(-256.939 -480.176)"/>
  <path id="Path_486" data-name="Path 486" class="cls-1" d="M30.969,15.485A15.485,15.485,0,1,0,15.485,30.969c.091,0,.181,0,.272,0V18.912H12.43V15.035h3.327V12.181c0-3.309,2.02-5.11,4.972-5.11a27.385,27.385,0,0,1,2.983.152v3.458H21.676c-1.606,0-1.917.763-1.917,1.883v2.469H23.6l-.5,3.877H19.759V30.371a15.493,15.493,0,0,0,11.21-14.886Zm0,0"/>
  <path id="Path_487" data-name="Path 487" class="cls-1" d="M265.379,511.43c-.162.01-.325.019-.488.024C265.054,511.449,265.217,511.44,265.379,511.43Zm0,0" transform="translate(-248.87 -480.495)"/>
  <path id="Path_488" data-name="Path 488" class="cls-1" d="M260.762,511.836l-.258.006Zm0,0" transform="translate(-244.748 -480.877)"/>
</svg>
