<svg xmlns="http://www.w3.org/2000/svg" width="44.47" height="86.593" viewBox="0 0 44.47 86.593">
  <defs>
    <style>
      .cls-1 {
        fill: none;
        stroke: #3f3d56;
        stroke-miterlimit: 10;
        stroke-width: 4px;
      }

      .cls-2 {
        fill: #6c63ff;
      }

      .cls-3 {
        opacity: 0.1;
      }
    </style>
  </defs>
  <g id="Component_41_1" data-name="Component 41 – 1" transform="translate(2)">
    <path id="Path_746" data-name="Path 746" class="cls-1" d="M713.179,623.184c1.882-3.49-.252-7.758-2.7-10.866s-5.451-6.345-5.386-10.3c.094-5.689,6.136-9.056,10.959-12.07a53.572,53.572,0,0,0,9.842-7.931,14.512,14.512,0,0,0,3.021-4.052c1-2.221.973-4.759.909-7.21q-.31-12.178-1.2-24.342" transform="translate(-705.089 -537.54)"/>
    <path id="Path_747" data-name="Path 747" class="cls-2" d="M743.585,542.574a8.875,8.875,0,0,0-4.434-7.275l-1.99,3.93.065-4.759a8.876,8.876,0,1,0,6.359,8.1Z" transform="translate(-710.879 -534.108)"/>
    <path id="Path_748" data-name="Path 748" class="cls-2" d="M722,624.194a8.876,8.876,0,0,1-16.756-3.605,8.651,8.651,0,0,1,.577-3.605,8.883,8.883,0,0,1,16.583.094l-5.545,4.514,6.1-1.442A8.826,8.826,0,0,1,722,624.194Z" transform="translate(-705.129 -555.653)"/>
    <path id="Path_749" data-name="Path 749" class="cls-2" d="M718.814,598.4A8.876,8.876,0,0,1,716,580.991l-.05,3.656,2.012-3.98h0a8.878,8.878,0,1,1,.829,17.737Z" transform="translate(-706.325 -547.094)"/>
    <path id="Path_750" data-name="Path 750" class="cls-2" d="M748.688,578.516a8.876,8.876,0,1,1,3.922-16.583l-1.565,4.326,3.194-3.158a8.876,8.876,0,0,1-5.581,15.408Z" transform="translate(-714.648 -541.548)"/>
    <path id="Path_751" data-name="Path 751" class="cls-3" d="M742.383,546.823c-2.048.224-4.038.858-6.1.988s-4.326-.368-5.609-1.961a28.459,28.459,0,0,1-1.644-2.884,6.317,6.317,0,0,0-2.235-2.105,8.876,8.876,0,1,0,16.583,5.9C743.053,546.765,742.715,546.787,742.383,546.823Z" transform="translate(-710.873 -535.992)"/>
    <path id="Path_752" data-name="Path 752" class="cls-3" d="M748.7,580.481a8.876,8.876,0,0,1-8.443-12.661,6.57,6.57,0,0,1,1.781,1.788,30.046,30.046,0,0,0,1.759,2.935c1.384,1.622,3.749,2.163,5.891,2.055s4.211-.721,6.345-.9c.3,0,.591-.043.894-.05A8.876,8.876,0,0,1,748.7,580.481Z" transform="translate(-714.663 -543.513)"/>
    <path id="Path_753" data-name="Path 753" class="cls-3" d="M718.815,600.435a8.876,8.876,0,0,1-8.515-12.5,7.212,7.212,0,0,1,1.882,1.8,29.723,29.723,0,0,0,1.925,2.992c1.492,1.666,4.016,2.257,6.28,2.163s4.326-.584,6.489-.721A8.89,8.89,0,0,1,718.815,600.435Z" transform="translate(-706.326 -549.126)"/>
    <path id="Path_754" data-name="Path 754" class="cls-3" d="M722,626.38a8.876,8.876,0,0,1-16.756-3.605,8.652,8.652,0,0,1,.577-3.605,8.857,8.857,0,0,1,1.947,1.738c.844,1.024,1.4,2.163,2.379,3.151,1.81,1.781,4.744,2.516,7.347,2.581a37.274,37.274,0,0,0,4.506-.26Z" transform="translate(-705.129 -557.839)"/>
  </g>
</svg>
