<svg id="Component_25_1" data-name="Component 25 – 1" xmlns="http://www.w3.org/2000/svg" xmlns:xlink="http://www.w3.org/1999/xlink" width="251.12" height="167.875" viewBox="0 0 251.12 167.875">
  <defs>
    <style>
      .cls-1 {
        fill: #6c63ff;
      }

      .cls-1, .cls-5 {
        opacity: 0.1;
      }

      .cls-2 {
        fill: url(#linear-gradient);
      }

      .cls-3 {
        fill: #fbbebe;
      }

      .cls-4 {
        fill: #2f2e41;
      }

      .cls-6 {
        fill: #e8e8f0;
      }

      .cls-7 {
        fill: #f86d70;
      }
    </style>
    <linearGradient id="linear-gradient" x1="0.5" y1="1" x2="0.5" y2="-0.001" gradientUnits="objectBoundingBox">
      <stop offset="0" stop-color="gray" stop-opacity="0.251"/>
      <stop offset="0.54" stop-color="gray" stop-opacity="0.122"/>
      <stop offset="1" stop-color="gray" stop-opacity="0.102"/>
    </linearGradient>
  </defs>
  <ellipse id="Ellipse_164" data-name="Ellipse 164" class="cls-1" cx="96.21" cy="25.994" rx="96.21" ry="25.994" transform="translate(0 115.887)"/>
  <path id="Path_1166" data-name="Path 1166" class="cls-2" d="M395.925,604.953a15.764,15.764,0,0,1,6.283-12.727A18.48,18.48,0,0,1,417.651,574.1a18.448,18.448,0,0,1,12.293-13.74h0a15.681,15.681,0,0,1,2.282-.531h2.716a18.1,18.1,0,0,1,17.484,15.459c5.64-1.3,10.8.386,11.747,3.953a4.821,4.821,0,0,1-.161,2.86c-.964,2.764-4.1,5.415-8.292,6.717l-.546.16-.82.209h-.177a14.21,14.21,0,0,1,1.35,6.09,14.045,14.045,0,0,1-7.569,12.534l.37.225a5.015,5.015,0,0,1,1.221,1.7,25.482,25.482,0,0,1,2.362,5.689c.4,1.7.466,3.471.964,5.158.932,3.1,3.31,5.721,3.583,8.951.129,1.446-.112,3.214.916,4.146a4.965,4.965,0,0,0,.82.578,6.638,6.638,0,0,1,1.784,1.88,6.237,6.237,0,0,0,1.253,1.8c.932.691,2.459.627,2.909,1.7s-.723,2.346-.45,3.519,1.269,1.4,1.993,2.057a7.151,7.151,0,0,1,1.719,3.214,10.54,10.54,0,0,0,8.678-2.218,16.22,16.22,0,0,0-.9,3.214,14.077,14.077,0,0,1,4.676-2.346,14.773,14.773,0,0,0,4.982-3.7l-2.668-.37,11.779-17.982,3.487-.723-3.118,5.994a1.912,1.912,0,0,1,1.061,1.269,5.446,5.446,0,0,1,.113,2.041,36.507,36.507,0,0,1-.8,4.821l-.9,4.21c-.08.386-.177.788-.289,1.173a11.075,11.075,0,0,1,3.487.386,30.351,30.351,0,0,1,7.247-1.72,4.018,4.018,0,0,1,1.607,0,4.159,4.159,0,0,1,1.527,1.237,49.419,49.419,0,0,1,5.383,7.585c6.428,11.024,14.8,20.649,22.722,30.613,5.464,2.218,10.975,4.323,16.487,6.428l11.859,4.532a17.982,17.982,0,0,0,7.36,1.607c1.125,0,2.523-.241,3.214.723a6.765,6.765,0,0,1,.723,1.607l1.221.128h0a14.043,14.043,0,0,1,2.844-5.239,1.8,1.8,0,0,1,1.334,1.028c.289.53.466,1.109.8,1.607.627.932,1.735,1.382,2.523,2.169s1.286,2.009,2.153,2.812a8.519,8.519,0,0,0,4.033,1.607,25.443,25.443,0,0,1,6.315,2.394,10.183,10.183,0,0,0,2.33,1.077,8.756,8.756,0,0,0,2.748.1l6.267-.466a4.956,4.956,0,0,1,1.687.08,3.214,3.214,0,0,1,1.993,3.214,5.061,5.061,0,0,1-1.993,3.455,12.758,12.758,0,0,1-3.567,1.848,104.71,104.71,0,0,1-16.712,4.949v1.269a28.519,28.519,0,0,1-12.856,3.053,1.992,1.992,0,0,1-.964-.177,2.122,2.122,0,0,1-.8-1.253,51.7,51.7,0,0,1-2.507-12.309h0a6.429,6.429,0,0,1-2.266-.579c-2.153-.594-4.307.884-6.54,1.125-2.748.305-5.287-1.3-7.89-2.282l-1.125-.37a12.342,12.342,0,0,0,2.6,2.491c1.077.771,2.282,1.35,3.326,2.154a22.958,22.958,0,0,0,2.828,2.185,17.719,17.719,0,0,0,2.169.836,14.318,14.318,0,0,1,3.1,1.607,6.28,6.28,0,0,1,2.105,2.057,3.085,3.085,0,0,1,.177,2.892,3.052,3.052,0,0,1-2.073,1.446,8.517,8.517,0,0,1-2.555,0c-3.407-.257-6.8-.562-10.188-.868a27.18,27.18,0,0,1-4.258-.61c-.739-.177-1.478-.418-2.218-.627a19.759,19.759,0,0,0-3.873-.578,3.208,3.208,0,0,0-1.125.112c-.787.257-1.35,1.061-2.153,1.222a3.216,3.216,0,0,1-1.607-.209,35.852,35.852,0,0,0-7.537-.8c-1.109,0-2.41-.273-2.925-1.3s.418-2.684.836-4.05a12.392,12.392,0,0,0,.354-2.667A16.7,16.7,0,0,1,533,705.019a16.525,16.525,0,0,0,1.4-2.892,73.088,73.088,0,0,1-13.868-7.039,24.791,24.791,0,0,0-7.906-3.808,21.5,21.5,0,0,0-9.931,1.157,225.885,225.885,0,0,0-22.771,7.939c-3.551,1.462-7.087,3.005-10.751,4.114a16.766,16.766,0,0,1-3.825,3.712,17.682,17.682,0,0,1-8.276,2.266,108.513,108.513,0,0,1-11.651.434,19.648,19.648,0,0,1-8.678-1.607,8.922,8.922,0,0,1-1.816-1.205,7.2,7.2,0,0,1-5.721-2.105,13.868,13.868,0,0,1-4.355-6.878c-.948-3.664-.225-8.035-2.475-10.959-.594-.8-1.382-1.446-1.977-2.25a6.331,6.331,0,0,1-1.028-3.712.738.738,0,0,0-.1-.144,13.614,13.614,0,0,1-.964-3.7,21.118,21.118,0,0,0-1.045-2.925,90.258,90.258,0,0,1-2.989-8.661,50.6,50.6,0,0,1-1.382-5.946c-.241-1.607-.386-3.214-.514-4.821a29.939,29.939,0,0,0-1.462-7.44,60.552,60.552,0,0,1-3.375-17.8v-.354a11.939,11.939,0,0,1-10.574-12.148,12.678,12.678,0,0,1,1.109-5.191,16.068,16.068,0,0,1-2.154-8.1Zm57.5,69.855c-.177.627-.386,1.237-.595,1.848.948-.916,1.864-1.864,2.812-2.8-.37.128-.755.241-1.109.385a5.987,5.987,0,0,0-1.061.562Zm4.548-3.085c5.56-4.821,11.988-8.565,17.677-13.241-3.1,1.527-6.123,3.31-9.111,5.014q-5.319,3.038-10.783,5.833a8.827,8.827,0,0,0,2.266,2.394Zm-2.362-12.149-.273-.273v1.912l1.495-.514a13.314,13.314,0,0,1-1.173-1.125Zm48.9,13.016a46,46,0,0,1-5.913-8.436c-2.2,3.84-5.785,6.621-8.822,9.851C494.673,673.378,499.59,672.847,504.507,672.59Z" transform="translate(-360.444 -559.83)"/>
  <path id="Path_1168" data-name="Path 1168" class="cls-3" d="M429.644,645.526a68.734,68.734,0,0,1-3.5,9.112,86.775,86.775,0,0,1-11.65-3.327,36.762,36.762,0,0,1,2.426-3.214,11.982,11.982,0,0,1,3.294-2.523,9.058,9.058,0,0,1,4,0C426.012,645.526,427.828,645.559,429.644,645.526Z" transform="translate(-208.542 -507.923)"/>
  <path id="Path_1169" data-name="Path 1169" class="cls-4" d="M396.332,652.147a7.263,7.263,0,0,0,3.985-4.532,14.593,14.593,0,0,1,3.037-5.416,1.735,1.735,0,0,1,1.35,1.013c.289.514.466,1.093.787,1.607.643.916,1.768,1.366,2.571,2.137s1.285,1.977,2.153,2.764a8.545,8.545,0,0,0,4.066,1.607,26.361,26.361,0,0,1,6.428,2.362,11.079,11.079,0,0,0,2.362,1.061,9.349,9.349,0,0,0,2.764,0l6.331-.45a4.954,4.954,0,0,1,1.607,0,3.069,3.069,0,0,1,2.009,3.214,4.821,4.821,0,0,1-2.009,3.407,13.341,13.341,0,0,1-3.6,1.832,105.906,105.906,0,0,1-16.97,4.821v1.254a29.375,29.375,0,0,1-12.936,3,2.186,2.186,0,0,1-.964-.161,2.121,2.121,0,0,1-.8-1.253,50.135,50.135,0,0,1-2.651-13.756,10.958,10.958,0,0,1,.273-3.551c.354-1.141-.836-.659.257-1.109" transform="translate(-184.68 -509.835)"/>
  <path id="Path_1170" data-name="Path 1170" class="cls-4" d="M435.4,635.432c18.769,1.125,37.314-4.371,56.115-4.949a27.4,27.4,0,0,1,6.974.434,35.136,35.136,0,0,1,6.91,2.683c10.076,4.692,20.5,8.581,30.918,12.454l11.972,4.451a18.128,18.128,0,0,0,7.408,1.607c1.141,0,2.539-.241,3.214.707,1.944,2.892,1.029,7.119-.257,10.365-.418,1.044-1.125,2.185-2.25,2.3a6.537,6.537,0,0,1-2.282-.578c-2.169-.579-4.339.884-6.589,1.125-2.764.289-5.335-1.286-7.955-2.25-4.339-1.607-9.063-1.607-13.627-2.314-7.633-1.269-14.72-4.821-21.341-8.854a24.91,24.91,0,0,0-7.954-3.76,22.016,22.016,0,0,0-10.011,1.141,229.741,229.741,0,0,0-22.963,7.81,107.032,107.032,0,0,1-11.988,4.387,43.387,43.387,0,0,1-26.884-1.607c-3.005-1.189-6.267-3.214-6.428-6.524-.113-1.848,1.334-3.471,2.282-5.062.611-1.012,1.237-2.025,1.9-3C425.771,641.329,429.692,635.094,435.4,635.432Z" transform="translate(-345.166 -516.983)"/>
  <path id="Path_1171" data-name="Path 1171" class="cls-5" d="M435.4,635.432c18.769,1.125,37.314-4.371,56.115-4.949a27.4,27.4,0,0,1,6.974.434,35.136,35.136,0,0,1,6.91,2.683c10.076,4.692,20.5,8.581,30.918,12.454l11.972,4.451a18.128,18.128,0,0,0,7.408,1.607c1.141,0,2.539-.241,3.214.707,1.944,2.892,1.029,7.119-.257,10.365-.418,1.044-1.125,2.185-2.25,2.3a6.537,6.537,0,0,1-2.282-.578c-2.169-.579-4.339.884-6.589,1.125-2.764.289-5.335-1.286-7.955-2.25-4.339-1.607-9.063-1.607-13.627-2.314-7.633-1.269-14.72-4.821-21.341-8.854a24.91,24.91,0,0,0-7.954-3.76,22.016,22.016,0,0,0-10.011,1.141,229.741,229.741,0,0,0-22.963,7.81,107.032,107.032,0,0,1-11.988,4.387,43.387,43.387,0,0,1-26.884-1.607c-3.005-1.189-6.267-3.214-6.428-6.524-.113-1.848,1.334-3.471,2.282-5.062.611-1.012,1.237-2.025,1.9-3C425.771,641.329,429.692,635.094,435.4,635.432Z" transform="translate(-345.166 -516.983)"/>
  <path id="Path_1172" data-name="Path 1172" class="cls-3" d="M451.348,648.952q-4.4,1.494-8.886,2.764c-1.607-2.748-4.821-4.66-5.512-7.81a.741.741,0,0,1,0-.418.771.771,0,0,1,.338-.305,16.836,16.836,0,0,1,6.974-2.041c1.928-.113,2.812,1.9,3.68,3.31C448.279,645.079,450.561,649.257,451.348,648.952Z" transform="translate(-266.292 -510.48)"/>
  <path id="Path_1173" data-name="Path 1173" class="cls-4" d="M433.721,646.464a6.428,6.428,0,0,0,4.323-2.844c.4-.723.852-1.7,1.687-1.607s1.109.964,1.286,1.719a48.191,48.191,0,0,0,2.426,8.34,15.652,15.652,0,0,0,5.19,6.83c1.093.755,2.3,1.318,3.375,2.121a23.181,23.181,0,0,0,2.844,2.153,16.9,16.9,0,0,0,2.185.8,15.146,15.146,0,0,1,3.118,1.607,6.189,6.189,0,0,1,2.137,2.041,2.941,2.941,0,0,1,.161,2.844,3.038,3.038,0,0,1-2.073,1.414,8.739,8.739,0,0,1-2.587,0c-3.423-.241-6.846-.547-10.269-.852a29.64,29.64,0,0,1-4.291-.594L441,669.829a17.766,17.766,0,0,0-3.9-.578,3.033,3.033,0,0,0-1.141.112c-.787.257-1.35,1.045-2.169,1.205a3.629,3.629,0,0,1-1.607-.209,35.483,35.483,0,0,0-7.6-.787c-1.125,0-2.443-.289-2.957-1.286-.643-1.253.418-2.652.852-4a12.854,12.854,0,0,0,.354-2.619,15.97,15.97,0,0,1,1.88-6.235c.868-1.607,2.057-3.375,1.446-5.078a4.821,4.821,0,0,1-.578-1.752C425.815,645.837,432.146,646.817,433.721,646.464Z" transform="translate(-252.778 -509.953)"/>
  <path id="Path_1176" data-name="Path 1176" class="cls-4" d="M482.756,590.531a4.933,4.933,0,0,1,3.6.514,5,5,0,0,1,1.237,1.687,24.5,24.5,0,0,1,2.378,5.592c.4,1.607.466,3.423.98,5.078.932,3.053,3.326,5.64,3.6,8.822.128,1.43-.113,3.1.932,4.066a5.889,5.889,0,0,0,.82.595,6.173,6.173,0,0,1,1.8,1.848,6.058,6.058,0,0,0,1.269,1.752c.932.691,2.475.627,2.925,1.607s-.723,2.314-.45,3.471,1.286,1.382,2.009,2.025a7.022,7.022,0,0,1,1.736,3.214,10.719,10.719,0,0,0,8.742-2.169,27.832,27.832,0,0,0-1.366,10,4.081,4.081,0,0,0,.8,3.085,55.658,55.658,0,0,0-10.718,1.864,7.393,7.393,0,0,1-4.676,0,7.807,7.807,0,0,1-2.153-1.7c-1.928-1.961-3.953-4.1-4.419-6.814a39.989,39.989,0,0,1-.08-4.612,26.006,26.006,0,0,0-1.173-5.609,66.732,66.732,0,0,1-2.041-11.538c-.209-2.41-2.3-4.339-3.39-6.428-2.057-4.066-4.178-8.292-4.323-12.856C480.731,592.54,481.245,590.692,482.756,590.531Z" transform="translate(-399.772 -541.279)"/>
  <path id="Path_1177" data-name="Path 1177" class="cls-5" d="M482.756,590.531a4.933,4.933,0,0,1,3.6.514,5,5,0,0,1,1.237,1.687,24.5,24.5,0,0,1,2.378,5.592c.4,1.607.466,3.423.98,5.078.932,3.053,3.326,5.64,3.6,8.822.128,1.43-.113,3.1.932,4.066a5.889,5.889,0,0,0,.82.595,6.173,6.173,0,0,1,1.8,1.848,6.058,6.058,0,0,0,1.269,1.752c.932.691,2.475.627,2.925,1.607s-.723,2.314-.45,3.471,1.286,1.382,2.009,2.025a7.022,7.022,0,0,1,1.736,3.214,10.719,10.719,0,0,0,8.742-2.169,27.832,27.832,0,0,0-1.366,10,4.081,4.081,0,0,0,.8,3.085,55.658,55.658,0,0,0-10.718,1.864,7.393,7.393,0,0,1-4.676,0,7.807,7.807,0,0,1-2.153-1.7c-1.928-1.961-3.953-4.1-4.419-6.814a39.989,39.989,0,0,1-.08-4.612,26.006,26.006,0,0,0-1.173-5.609,66.732,66.732,0,0,1-2.041-11.538c-.209-2.41-2.3-4.339-3.39-6.428-2.057-4.066-4.178-8.292-4.323-12.856C480.731,592.54,481.245,590.692,482.756,590.531Z" transform="translate(-399.772 -541.279)"/>
  <path id="Path_1178" data-name="Path 1178" class="cls-4" d="M456.554,650.6c3.9-1.864,6.765-5.319,9.931-8.292,6.026-5.673,13.4-9.642,19.75-14.993,4.21-3.519,8.035-7.617,12.582-10.574a31.443,31.443,0,0,1,13.482-4.708,3.582,3.582,0,0,1,1.607,0,3.7,3.7,0,0,1,1.527,1.205,48.557,48.557,0,0,1,5.448,7.472c8.035,13.659,19.46,25.133,28.925,37.828a2.41,2.41,0,0,1,.466.9,2.235,2.235,0,0,1-.354,1.4l-1.928,3.76c-1.077,2.121-2.812,4.58-5.126,4.162a5.609,5.609,0,0,1-2.684-1.72l-8.646-8.276-9.063-8.661c-5.3-5.062-10.7-10.252-14.173-16.744-2.7,4.692-7.5,7.762-10.783,12.052-1.254,1.607-2.282,3.423-3.407,5.158-1.784,2.764-3.824,5.367-5.849,8.035l-10.4,13.257a19.89,19.89,0,0,1-4.821,4.821,18.4,18.4,0,0,1-8.34,2.234,110.142,110.142,0,0,1-11.747.418,20.252,20.252,0,0,1-8.758-1.607,7.938,7.938,0,0,1-4.74-7.054,10.349,10.349,0,0,1,1.495-4.387C444.71,659.584,449.563,653.928,456.554,650.6Z" transform="translate(-369.296 -528.2)"/>
  <path id="Path_1181" data-name="Path 1181" class="cls-6" d="M510.813,593.075a4.58,4.58,0,0,1,0,5.3c-.161.193-.739,1.4-.98,1.414a.882.882,0,0,1-.611-.321,40.349,40.349,0,0,1-3.439-4.1,7.648,7.648,0,0,0-4.371-2.86,9.449,9.449,0,0,0-6.026,1.88A5.719,5.719,0,0,0,493.313,596a5.613,5.613,0,0,0-.675,2.3,110.732,110.732,0,0,0-.611,14.607,57.555,57.555,0,0,0,.691,10.525c.354,1.784.868,3.535,1.109,5.351a34.157,34.157,0,0,1,.225,4.821v6.717A17.678,17.678,0,0,1,493.8,644c-.322,1.462-1.013,2.828-1.478,4.258a27.85,27.85,0,0,0-.98,5.03l-.916,6.942c-.289,2.185-.514,4.58.82,6.428.595.787,1.382,1.43,1.993,2.218,2.266,2.957,1.607,7.183,2.491,10.8a13.466,13.466,0,0,0,4.4,6.749,7.279,7.279,0,0,0,5.8,2.073c2.828-.53,4.516-3.471,5.287-6.251s1.044-5.8,2.716-8.147a21.606,21.606,0,0,1,5.367-4.483,9.273,9.273,0,0,0,4.194-5.448c.177-1.012,0-2.057.177-3.085a7.279,7.279,0,0,1,4.483-5.9c1.446-.563,3.214-.771,4.05-2.089a9.753,9.753,0,0,1-4.226-5.672,29.129,29.129,0,0,1-1.028-7.167l-.482-8.035c-.225-3.616-.321-7.183-1.912-10.429-.707-1.446-1.607-2.812-2.33-4.242a46.044,46.044,0,0,1-2.491-6.219c-1.157-3.31-2.314-6.621-3.342-9.963a18.78,18.78,0,0,0-1.832-4.644C513.689,595.212,512.436,593.4,510.813,593.075Z" transform="translate(-432.764 -539.997)"/>
  <path id="Path_1182" data-name="Path 1182" class="cls-4" d="M509.444,646.076h-2.137l-.45-3.214a6.706,6.706,0,0,0-.45-1.88,11.256,11.256,0,0,0-1.238-1.8c-2.089-2.973-1.944-6.91-2.459-10.526a53.565,53.565,0,0,0-4.692-13.756l-4.146-9.24a12.757,12.757,0,0,1-.9-2.362,14.171,14.171,0,0,1-.257-2.732c0-1.43-.45-6.637-.5-8.035,0-.53,1.173-.241,1.414-.707.514-1.028,1.221,1.752,2.2,2.362a5.4,5.4,0,0,1,1.912,2.8c.9,2.314,1.446,4.821,2.282,7.119a14.54,14.54,0,0,0,3.873,6.3c.852.739,1.832,1.334,2.635,2.137,2.571,2.539,2.828,6.572,2.909,10.2C509.508,624.961,509.926,646.076,509.444,646.076Z" transform="translate(-413.477 -540.548)"/>
  <path id="Path_1183" data-name="Path 1183" class="cls-4" d="M519.079,590.552a7.3,7.3,0,0,1,3.809,5.222,26.417,26.417,0,0,0,1.928,6.428c2.6,4.532,9.24,5.849,11.088,10.751a19.761,19.761,0,0,1,.739,5.062c.321,3.519,1.478,6.91,1.832,10.413a46.394,46.394,0,0,1-.193,8.179l-2.33,27.672a36.96,36.96,0,0,0,.691,12.181,11.731,11.731,0,0,1-6.974-1.157c-2.169-1-4.162-2.362-6.267-3.519-3.6-1.993-7.585-3.391-10.751-6.042a6.573,6.573,0,0,1-1.446-1.607,13.89,13.89,0,0,1-.964-3.632,19.576,19.576,0,0,0-1.044-2.86,84.307,84.307,0,0,1-3.021-8.549,49.109,49.109,0,0,1-1.382-5.849c-.257-1.607-.4-3.214-.53-4.821a28.285,28.285,0,0,0-1.478-7.312,58.9,58.9,0,0,1-3.391-17.548,9.183,9.183,0,0,1,.177-2.571,13.752,13.752,0,0,1,1.414-2.941c.964-1.816,1.607-3.809,2.443-5.656a27.812,27.812,0,0,1,9.5-9.979C514.788,591.147,516.974,589.8,519.079,590.552Z" transform="translate(-453.869 -541.315)"/>
  <path id="Path_1184" data-name="Path 1184" class="cls-3" d="M490.564,622.094a16.758,16.758,0,0,0,4.419-3.359c.579-.675,1.061-1.43,1.607-2.105a10.942,10.942,0,0,1,5.56-3.214,27.159,27.159,0,0,1,6.428-.627,11.664,11.664,0,0,1,4.291.514,4.371,4.371,0,0,1,2.844,3.053,5.063,5.063,0,0,1-2.169,4.5,10.22,10.22,0,0,1-4.323,2.089,34.5,34.5,0,0,1-3.905.466c-7.681.8-14.543,4.982-21.276,8.79q-8.87,5.046-18.094,9.385a37.626,37.626,0,0,1-.306-5.544c0-1.382.113-3.5,1.414-4.323A28.368,28.368,0,0,1,472.807,630a90.558,90.558,0,0,0,11.586-4.692A57.633,57.633,0,0,0,490.564,622.094Z" transform="translate(-376.807 -527.702)"/>
  <path id="Path_1185" data-name="Path 1185" class="cls-4" d="M504.243,600.839a21.958,21.958,0,0,1,2.652,4.966c1.607,3.471,4.339,6.428,5.673,10.108s1.35,8.4,4.1,11.409a4,4,0,0,1,1.205,1.735,8.3,8.3,0,0,0,.128,1.253c.4,1.093,2.185,1.141,2.523,2.266.1.321,0,.675.161,1,.273.723,1.237.836,1.864,1.269,1.334.9,1.061,2.989,2.009,4.291a3.616,3.616,0,0,0,3.423,1.205A12.054,12.054,0,0,0,531.529,639a3.425,3.425,0,0,1,1.286-.4,2.652,2.652,0,0,1,1.478.514,9.112,9.112,0,0,1,3.7,7.794,25.457,25.457,0,0,1-2.121,8.726,3.5,3.5,0,0,1-.691,1.3,3.069,3.069,0,0,1-3.407.257,16.061,16.061,0,0,0-3.326-1.495c-2.121-.386-4.194,1.077-6.348.948a8.824,8.824,0,0,1-4.274-1.88,23.625,23.625,0,0,1-5.753-4.821c-.932-1.238-1.607-2.635-2.443-3.953a50.7,50.7,0,0,0-3.455-4.612l-7.906-9.642a22.191,22.191,0,0,1-2.121-2.925,20.615,20.615,0,0,1-1.607-4.419,33.848,33.848,0,0,1-1.607-7.858,30.188,30.188,0,0,1,.579-6.589,23.283,23.283,0,0,1,1.607-6.283C496.835,600.036,501.013,597.079,504.243,600.839Z" transform="translate(-442.938 -535.999)"/>
  <path id="Path_1167" data-name="Path 1167" class="cls-4" d="M430.793,438.25l-3.5.707-11.94,17.66,5.255.707Z" transform="translate(-294.635 -372.284)"/>
  <path id="Path_1174" data-name="Path 1174" class="cls-3" d="M474.284,621.033a14.656,14.656,0,0,0,7.489-7.424c.305-.707.562-1.462.868-2.169a16.493,16.493,0,0,1,4.467-6.219,2.2,2.2,0,0,1,1.607-.691,1.752,1.752,0,0,1,1.205,1.3,4.969,4.969,0,0,1,.129,2.009,35.778,35.778,0,0,1-.8,4.692l-.916,4.146a9.106,9.106,0,0,1-.562,1.848,6.421,6.421,0,0,1-1.527,1.816c-.835.771-1.687,1.511-2.539,2.25a8.725,8.725,0,0,1-1.607,1.109,9.339,9.339,0,0,1-2.844.836,24.2,24.2,0,0,0-10.67,4.114s0-2.78,0-3.085a4.082,4.082,0,0,1,.8-2.234,14.248,14.248,0,0,1,4.9-2.3Z" transform="translate(-355.917 -532.699)"/>
  <path id="Path_1175" data-name="Path 1175" class="cls-5" d="M474.284,621.033a14.656,14.656,0,0,0,7.489-7.424c.305-.707.562-1.462.868-2.169a16.493,16.493,0,0,1,4.467-6.219,2.2,2.2,0,0,1,1.607-.691,1.752,1.752,0,0,1,1.205,1.3,4.969,4.969,0,0,1,.129,2.009,35.778,35.778,0,0,1-.8,4.692l-.916,4.146a9.106,9.106,0,0,1-.562,1.848,6.421,6.421,0,0,1-1.527,1.816c-.835.771-1.687,1.511-2.539,2.25a8.725,8.725,0,0,1-1.607,1.109,9.339,9.339,0,0,1-2.844.836,24.2,24.2,0,0,0-10.67,4.114s0-2.78,0-3.085a4.082,4.082,0,0,1,.8-2.234,14.248,14.248,0,0,1,4.9-2.3Z" transform="translate(-355.917 -532.699)"/>
  <ellipse id="Ellipse_217" data-name="Ellipse 217" class="cls-4" cx="4.564" cy="4.596" rx="4.564" ry="4.596" transform="translate(75.592 47.421)"/>
  <ellipse id="Ellipse_218" data-name="Ellipse 218" class="cls-6" cx="3.519" cy="3.535" rx="3.519" ry="3.535" transform="translate(73.824 51.664)"/>
  <path id="Path_1179" data-name="Path 1179" class="cls-3" d="M520.862,596.7a6.764,6.764,0,0,0-.386,5.078,20.6,20.6,0,0,0,2.266,4.676,22.269,22.269,0,0,0,2.941,4.178c-5.432.257-10.686-1.864-15.459-4.435-3.857-2.073-7.7-4.628-9.754-8.5a4.5,4.5,0,0,0,3.6-.675,12.866,12.866,0,0,0,2.748-2.555l2.716-3.053a12.226,12.226,0,0,0,1.607-2.2,6.076,6.076,0,0,0,.723-3.552,20.678,20.678,0,0,0,3.6,2.989c1.944,1.269,4.082,2.185,6.042,3.439.675.45,2.218,1.157,1.816,2.057S521.409,595.736,520.862,596.7Z" transform="translate(-442.749 -544.152)"/>
  <path id="Path_1180" data-name="Path 1180" class="cls-5" d="M520.862,596.7a6.764,6.764,0,0,0-.386,5.078,20.6,20.6,0,0,0,2.266,4.676,22.269,22.269,0,0,0,2.941,4.178c-5.432.257-10.686-1.864-15.459-4.435-3.857-2.073-7.7-4.628-9.754-8.5a4.5,4.5,0,0,0,3.6-.675,12.866,12.866,0,0,0,2.748-2.555l2.716-3.053a12.226,12.226,0,0,0,1.607-2.2,6.076,6.076,0,0,0,.723-3.552,20.678,20.678,0,0,0,3.6,2.989c1.944,1.269,4.082,2.185,6.042,3.439.675.45,2.218,1.157,1.816,2.057S521.409,595.736,520.862,596.7Z" transform="translate(-442.749 -544.152)"/>
  <ellipse id="Ellipse_219" data-name="Ellipse 219" class="cls-3" cx="13.691" cy="13.772" rx="13.691" ry="13.772" transform="translate(66.464 23.429)"/>
  <path id="Path_1186" data-name="Path 1186" class="cls-7" d="M488.155,605.876a15.427,15.427,0,0,1,6.331-12.534,18.335,18.335,0,0,1,15.571-17.853,17.789,17.789,0,0,1,35.048.948c5.689-1.285,10.9.386,11.843,3.889s-3.069,8.035-9.063,9.642a16.888,16.888,0,0,1-5.817.579,17.806,17.806,0,0,1-12.245,7.633,18.271,18.271,0,0,1-13.37,13.788,15.344,15.344,0,0,1-4.13,5.7v1.334a11.586,11.586,0,1,1-23.172,0,12.373,12.373,0,0,1,1.109-5.126A15.489,15.489,0,0,1,488.155,605.876Z" transform="translate(-454.361 -559.001)"/>
  <path id="Path_1187" data-name="Path 1187" class="cls-5" d="M518.837,581.068c-.948-3.5-6.155-5.174-11.843-3.889a18.094,18.094,0,0,0-17.676-15.234h-1.173a17.419,17.419,0,0,1,5.046-.755,18.1,18.1,0,0,1,17.677,15.234c5.689-1.286,10.9.386,11.843,3.889s-3.069,8.035-9.063,9.642a17.664,17.664,0,0,1-3.439.595C515.944,588.83,519.785,584.652,518.837,581.068Z" transform="translate(-420.106 -559.004)"/>
  <path id="Path_1188" data-name="Path 1188" class="cls-5" d="M505.369,608.37a12.034,12.034,0,0,0,0-1.318,15.006,15.006,0,0,0,4.13-5.7,18.223,18.223,0,0,0,13.37-13.8,17.756,17.756,0,0,0,12.261-7.617,15.422,15.422,0,0,0,3.423-.1,17.852,17.852,0,0,1-11.811,7.022,18.27,18.27,0,0,1-13.37,13.788,15.346,15.346,0,0,1-4.13,5.7v1.334a11.8,11.8,0,0,1-11.522,11.988A11.988,11.988,0,0,0,505.369,608.37Z" transform="translate(-451.199 -547.69)"/>
  <ellipse id="Ellipse_220" data-name="Ellipse 220" class="cls-3" cx="2.105" cy="2.812" rx="2.105" ry="2.812" transform="translate(75.192 46.195) rotate(-143)"/>
</svg>
