<svg id="Component_35_1" data-name="Component 35 – 1" xmlns="http://www.w3.org/2000/svg" xmlns:xlink="http://www.w3.org/1999/xlink" width="255.747" height="180.066" viewBox="0 0 255.747 180.066">
  <defs>
    <style>
      .cls-1, .cls-4 {
        fill: #6c63ff;
      }

      .cls-1, .cls-2, .cls-5 {
        opacity: 0.1;
      }

      .cls-3 {
        fill: #3f3d56;
      }

      .cls-6 {
        fill: none;
        stroke: #3f3d56;
        stroke-linecap: round;
        stroke-miterlimit: 10;
        stroke-width: 7px;
      }

      .cls-7 {
        fill: #a8a8a8;
      }

      .cls-8 {
        opacity: 0.2;
      }

      .cls-9 {
        fill: url(#linear-gradient);
      }

      .cls-10 {
        fill: #696791;
      }

      .cls-11 {
        fill: #a0616a;
      }

      .cls-12 {
        fill: #f86d70;
      }

      .cls-13 {
        fill: #2d293d;
      }
    </style>
    <linearGradient id="linear-gradient" x1="0.627" y1="0.5" x2="1.626" y2="0.5" gradientUnits="objectBoundingBox">
      <stop offset="0" stop-color="gray" stop-opacity="0.251"/>
      <stop offset="0.54" stop-color="gray" stop-opacity="0.122"/>
      <stop offset="1" stop-color="gray" stop-opacity="0.102"/>
    </linearGradient>
  </defs>
  <ellipse id="Ellipse_312" data-name="Ellipse 312" class="cls-1" cx="14.698" cy="3.902" rx="14.698" ry="3.902" transform="translate(206.92 172.262)"/>
  <path id="Path_1579" data-name="Path 1579" class="cls-1" d="M289.071,225.9c-5.592,4.639-13.55,6.559-21.246,7.772l-1.3.2a243.222,243.222,0,0,1-24.321,2.225c-4.363.211-8.727.361-13.09.494l-3.42.1q-6.66.2-13.345.388-6.545.186-13.09.349-8.382.2-16.765.34-6.545.1-13.09.142-8.385.048-16.765-.032-6.55-.067-13.09-.23-8.387-.216-16.765-.632-5.686-.278-11.366-.668l-1.725-.122c-16.253-1.171-32.8-3.273-47.02-9.914l-.384-.181c-.191-.09-.381-.179-.572-.273a51.47,51.47,0,0,1-7.478-4.384c-4.205-3-7.677-6.66-9.512-11-2.875-6.812-1.355-14.468,1.929-21.128s8.215-12.672,12.48-18.944c1.249-1.837,2.434-3.743,3.537-5.7,6.89-12.257,10.307-26.44,3.084-38.252a52.493,52.493,0,0,0-3.084-4.363,41.352,41.352,0,0,1-4.763-7.135c-2.822-5.916-2.216-12.569-1.187-18.889,1.378-8.4,3.9-17.454,11.8-22.7,8.192-5.452,19.819-5.176,29.986-3.215,15.807,3.029,30.4,9.37,45.125,15.088s30.156,10.948,46.349,11.51a73.972,73.972,0,0,0,10.422-.379h0A66.1,66.1,0,0,0,213.987,93.5c6.373-2.1,12.172-5.257,16.471-9.646,9.221-9.381,26.548-10.091,39.042-4.425,11.921,5.406,19.631,16.848,19.061,28.275-.648,12.721-10.174,23.179-18.9,33.906-1.059,1.3-2.1,2.6-3.121,3.918q-.852,1.1-1.672,2.2h0c-.958,1.3-1.883,2.607-2.756,3.929-4.46,6.782-7.613,14.928-4.543,22.249,1.722,4.1,5.009,7.227,8.97,9.958,8.876,6.116,21.128,10.231,26.64,18.793C297.927,210.039,296.167,220,289.071,225.9Z" transform="translate(-43.213 -66.389)"/>
  <g id="Group_56" data-name="Group 56" class="cls-2" transform="translate(105.146)">
    <path id="Path_1580" data-name="Path 1580" class="cls-3" d="M598.684,584.485q.014.324.048.634,2.68-1.068,5.261-2.3a4.265,4.265,0,0,0,2.432-1.19c.5-.253,1-.517,1.5-.781a6.146,6.146,0,0,0-.381-.689,4.364,4.364,0,0,0-7.942.255A7.914,7.914,0,0,0,598.684,584.485Z" transform="translate(-576.256 -458.402)"/>
    <path id="Path_1581" data-name="Path 1581" class="cls-3" d="M597.535,549.538a7.94,7.94,0,0,0,1.183,3.978,4.729,4.729,0,0,0,4.058,2.425c.113,0,.23-.016.333-.025a4.265,4.265,0,0,0,2.432-1.19,5.848,5.848,0,0,0,1.118-1.465,8.226,8.226,0,0,0-.262-8.038,4.364,4.364,0,0,0-7.942.255,7.917,7.917,0,0,0-.921,4.06Z" transform="translate(-575.372 -431.486)"/>
    <ellipse id="Ellipse_313" data-name="Ellipse 313" class="cls-3" cx="5.023" cy="6.575" rx="5.023" ry="6.575" transform="matrix(0.999, -0.033, 0.033, 0.999, 21.688, 103.445)"/>
    <ellipse id="Ellipse_314" data-name="Ellipse 314" class="cls-3" cx="5.023" cy="6.575" rx="5.023" ry="6.575" transform="matrix(0.999, -0.033, 0.033, 0.999, 21.425, 95.415)"/>
    <ellipse id="Ellipse_315" data-name="Ellipse 315" class="cls-3" cx="5.023" cy="6.575" rx="5.023" ry="6.575" transform="matrix(0.999, -0.033, 0.033, 0.999, 21.161, 87.383)"/>
    <path id="Path_1582" data-name="Path 1582" class="cls-4" d="M544.447,96.355a23.915,23.915,0,0,0,1.778-2.813l-13.26-1.732,14.266-.363a24.089,24.089,0,0,0-.165-19.061L528.253,82.938l17.224-13.55A24.057,24.057,0,1,0,506.64,97.6a24.15,24.15,0,0,0-2.6,4.474l17.41,8.332L503,104.884a24.068,24.068,0,0,0,4.618,22.449,24.054,24.054,0,1,0,37.792-1.252,24.061,24.061,0,0,0-.962-29.727Z" transform="translate(-501.054 -58.134)"/>
    <path id="Path_1583" data-name="Path 1583" class="cls-5" d="M505.1,294.1a23.944,23.944,0,0,0,5.634,14.7,24.054,24.054,0,1,0,37.792-1.245C551.614,303.364,505.012,291.406,505.1,294.1Z" transform="translate(-504.17 -239.61)"/>
  </g>
  <g id="Group_57" data-name="Group 57" class="cls-2" transform="translate(55.247 78.615)">
    <path id="Path_1584" data-name="Path 1584" class="cls-3" d="M347.32,775.307a3.938,3.938,0,0,1-.034.459q-1.906-.758-3.746-1.624a3.034,3.034,0,0,1-1.732-.843q-.537-.273-1.068-.556a4.327,4.327,0,0,1,.271-.487,3.1,3.1,0,0,1,5.64.174A5.627,5.627,0,0,1,347.32,775.307Z" transform="translate(-327.658 -685.534)"/>
    <path id="Path_1585" data-name="Path 1585" class="cls-3" d="M346.233,750.386a5.648,5.648,0,0,1-.836,2.832,3.366,3.366,0,0,1-2.884,1.729l-.23-.018a3.034,3.034,0,0,1-1.732-.843,4.132,4.132,0,0,1-.8-1.043,5.863,5.863,0,0,1,.179-5.716,3.106,3.106,0,0,1,5.652.175A5.627,5.627,0,0,1,346.233,750.386Z" transform="translate(-326.392 -666.33)"/>
    <ellipse id="Ellipse_316" data-name="Ellipse 316" class="cls-3" cx="4.678" cy="3.573" rx="4.678" ry="3.573" transform="translate(12.736 82.802) rotate(-88.19)"/>
    <ellipse id="Ellipse_317" data-name="Ellipse 317" class="cls-3" cx="4.678" cy="3.573" rx="4.678" ry="3.573" transform="translate(12.914 77.086) rotate(-88.19)"/>
    <ellipse id="Ellipse_318" data-name="Ellipse 318" class="cls-3" cx="4.678" cy="3.573" rx="4.678" ry="3.573" transform="translate(13.095 71.369) rotate(-88.19)"/>
    <path id="Path_1586" data-name="Path 1586" class="cls-4" d="M288.447,427.716a17.415,17.415,0,0,1-1.27-2l9.434-1.254-10.153-.23a17.142,17.142,0,0,1,.1-13.568l13.4,7.494-12.268-9.634a17.119,17.119,0,1,1,27.655,20.04,17.092,17.092,0,0,1,1.853,3.183l-12.383,5.943,13.129-3.95a17.144,17.144,0,0,1-3.266,15.984,17.119,17.119,0,1,1-26.9-.85,17.119,17.119,0,0,1,.668-21.156Z" transform="translate(-283.775 -400.451)"/>
    <path id="Path_1587" data-name="Path 1587" class="cls-5" d="M318.67,568.5a17.057,17.057,0,0,1-3.994,10.466,17.119,17.119,0,1,1-26.9-.85C285.576,575.126,318.734,566.574,318.67,568.5Z" transform="translate(-283.775 -529.689)"/>
  </g>
  <g id="Group_58" data-name="Group 58" class="cls-2" transform="translate(174.848 48.72)">
    <path id="Path_1588" data-name="Path 1588" class="cls-3" d="M868.09,645.257a4.446,4.446,0,0,1-.032.459q-1.908-.758-3.746-1.624a3.045,3.045,0,0,1-1.734-.843c-.356-.181-.714-.367-1.068-.556a4.74,4.74,0,0,1,.271-.487,3.1,3.1,0,0,1,5.64.175A5.627,5.627,0,0,1,868.09,645.257Z" transform="translate(-848.431 -555.456)"/>
    <path id="Path_1589" data-name="Path 1589" class="cls-3" d="M867.048,620.336a5.646,5.646,0,0,1-.838,2.832,3.363,3.363,0,0,1-2.885,1.729l-.23-.018a3.045,3.045,0,0,1-1.734-.843,4.208,4.208,0,0,1-.8-1.043,5.863,5.863,0,0,1,.179-5.716,3.106,3.106,0,0,1,5.652.175A5.625,5.625,0,0,1,867.048,620.336Z" transform="translate(-847.196 -536.251)"/>
    <ellipse id="Ellipse_319" data-name="Ellipse 319" class="cls-3" cx="4.678" cy="3.573" rx="4.678" ry="3.573" transform="translate(12.741 82.828) rotate(-88.19)"/>
    <ellipse id="Ellipse_320" data-name="Ellipse 320" class="cls-3" cx="4.678" cy="3.573" rx="4.678" ry="3.573" transform="translate(12.922 77.113) rotate(-88.19)"/>
    <ellipse id="Ellipse_321" data-name="Ellipse 321" class="cls-3" cx="4.678" cy="3.573" rx="4.678" ry="3.573" transform="translate(13.102 71.398) rotate(-88.19)"/>
    <path id="Path_1590" data-name="Path 1590" class="cls-4" d="M809.228,297.57a16.892,16.892,0,0,1-1.268-2l9.434-1.242-10.153-.246a17.155,17.155,0,0,1,.1-13.568l13.4,7.494-12.268-9.629a17.121,17.121,0,1,1,27.655,20.04,17.081,17.081,0,0,1,1.851,3.183l-12.383,5.943,13.13-3.95a17.125,17.125,0,0,1-3.266,15.982,17.116,17.116,0,1,1-26.891-.85,17.119,17.119,0,0,1,.668-21.156Z" transform="translate(-804.559 -270.277)"/>
    <path id="Path_1591" data-name="Path 1591" class="cls-5" d="M839.457,438.444a17.04,17.04,0,0,1-4,10.463,17.116,17.116,0,1,1-26.893-.85C806.364,445.074,839.517,436.52,839.457,438.444Z" transform="translate(-804.563 -399.608)"/>
  </g>
  <ellipse id="Ellipse_322" data-name="Ellipse 322" class="cls-4" cx="13.093" cy="2.517" rx="13.093" ry="2.517" transform="translate(31.345 169.851)"/>
  <ellipse id="Ellipse_323" data-name="Ellipse 323" class="cls-3" cx="1.525" cy="1.996" rx="1.525" ry="1.996" transform="translate(42.695 169.302)"/>
  <ellipse id="Ellipse_324" data-name="Ellipse 324" class="cls-3" cx="1.525" cy="1.996" rx="1.525" ry="1.996" transform="translate(42.695 166.863)"/>
  <ellipse id="Ellipse_325" data-name="Ellipse 325" class="cls-3" cx="1.525" cy="1.996" rx="1.525" ry="1.996" transform="translate(42.695 164.424)"/>
  <ellipse id="Ellipse_326" data-name="Ellipse 326" class="cls-3" cx="1.525" cy="1.996" rx="1.525" ry="1.996" transform="translate(42.695 161.985)"/>
  <ellipse id="Ellipse_327" data-name="Ellipse 327" class="cls-3" cx="1.525" cy="1.996" rx="1.525" ry="1.996" transform="translate(42.695 159.546)"/>
  <ellipse id="Ellipse_328" data-name="Ellipse 328" class="cls-3" cx="1.525" cy="1.996" rx="1.525" ry="1.996" transform="translate(42.695 157.107)"/>
  <ellipse id="Ellipse_329" data-name="Ellipse 329" class="cls-3" cx="1.525" cy="1.996" rx="1.525" ry="1.996" transform="translate(42.695 154.668)"/>
  <path id="Path_1592" data-name="Path 1592" class="cls-4" d="M216.862,627.967a7.43,7.43,0,0,0,.567-.836l-4.005-.659,4.331.034a7.324,7.324,0,0,0,.14-5.787l-5.813,3.015,5.36-3.948a7.3,7.3,0,1,0-12.062,8.174,7.349,7.349,0,0,0-.831,1.332l5.2,2.7-5.544-1.86a7.308,7.308,0,0,0,1.176,6.858,7.3,7.3,0,1,0,11.483,0,7.308,7.308,0,0,0,0-9.03Z" transform="translate(-166.935 -487.995)"/>
  <path id="Path_1593" data-name="Path 1593" class="cls-5" d="M203.82,686.919a7.274,7.274,0,0,0,1.562,4.515,7.3,7.3,0,1,0,11.483,0C217.84,690.192,203.82,686.1,203.82,686.919Z" transform="translate(-166.935 -542.431)"/>
  <path id="Path_1594" data-name="Path 1594" class="cls-3" d="M345.8,568.206v51.9q-5.686-.278-11.366-.668l-1.725-.122V568.206a2.026,2.026,0,0,1,2.026-2.026h9.039A2.026,2.026,0,0,1,345.8,568.206Z" transform="translate(-266.225 -449.504)"/>
  <path id="Path_1595" data-name="Path 1595" class="cls-3" d="M462.71,504.431V417.206a2.026,2.026,0,0,1,2.026-2.026h9.039a2.026,2.026,0,0,1,2.026,2.026v87.453Z" transform="translate(-366.37 -333.182)"/>
  <path id="Path_1596" data-name="Path 1596" class="cls-3" d="M592.71,565.562V496.206a2.026,2.026,0,0,1,2.026-2.026h9.039a2.026,2.026,0,0,1,2.026,2.026v69.207Z" transform="translate(-466.514 -394.039)"/>
  <path id="Path_1597" data-name="Path 1597" class="cls-3" d="M735.8,272.206V392.167q-6.545.186-13.09.349V272.206a2.026,2.026,0,0,1,2.026-2.026h9.039A2.026,2.026,0,0,1,735.8,272.206Z" transform="translate(-566.659 -221.482)"/>
  <path id="Path_1598" data-name="Path 1598" class="cls-3" d="M865.8,377.206v94.848c-4.363.211-8.727.361-13.09.494V377.206a2.026,2.026,0,0,1,2.026-2.026h9.039A2.025,2.025,0,0,1,865.8,377.206Z" transform="translate(-666.804 -302.368)"/>
  <path id="Path_1599" data-name="Path 1599" class="cls-6" d="M318.5,157.388l29.855-33.3,29.855,16.765L408.066,89.41l29.855,24.573" transform="translate(-245.355 -68.955)"/>
  <circle id="Ellipse_330" data-name="Ellipse 330" class="cls-4" cx="6.43" cy="6.43" r="6.43" transform="translate(66.6 82.003)"/>
  <circle id="Ellipse_331" data-name="Ellipse 331" class="cls-4" cx="6.43" cy="6.43" r="6.43" transform="translate(96.455 48.702)"/>
  <circle id="Ellipse_332" data-name="Ellipse 332" class="cls-4" cx="6.43" cy="6.43" r="6.43" transform="translate(126.31 65.467)"/>
  <circle id="Ellipse_333" data-name="Ellipse 333" class="cls-4" cx="6.43" cy="6.43" r="6.43" transform="translate(156.166 14.024)"/>
  <circle id="Ellipse_334" data-name="Ellipse 334" class="cls-4" cx="6.43" cy="6.43" r="6.43" transform="translate(213.58 68.682)"/>
  <ellipse id="Ellipse_335" data-name="Ellipse 335" class="cls-1" cx="4.29" cy="0.726" rx="4.29" ry="0.726" transform="translate(49.375 165.147)"/>
  <path id="Path_1600" data-name="Path 1600" class="cls-7" d="M264.35,761.3s2.446-.076,3.183-.6,3.764-1.148,3.948-.31,3.674,4.189.919,4.212-6.419-.432-7.154-.88S264.35,761.3,264.35,761.3Z" transform="translate(-213.564 -598.792)"/>
  <path id="Path_1601" data-name="Path 1601" class="cls-8" d="M272.443,768.729c-2.756.023-6.417-.43-7.154-.877-.56-.342-.783-1.566-.859-2.131h-.08s.154,1.973.891,2.421,4.391.9,7.154.88c.8,0,1.073-.289,1.056-.71C273.341,768.565,273.038,768.724,272.443,768.729Z" transform="translate(-213.564 -603.218)"/>
  <ellipse id="Ellipse_336" data-name="Ellipse 336" class="cls-1" cx="7.88" cy="1.332" rx="7.88" ry="1.332" transform="translate(236.428 170.696)"/>
  <path id="Path_1602" data-name="Path 1602" class="cls-7" d="M1084,772.107s4.494-.138,5.849-1.1,6.913-2.115,7.248-.57,6.756,7.694,1.681,7.735-11.791-.79-13.143-1.608S1084,772.107,1084,772.107Z" transform="translate(-844.976 -606.269)"/>
  <path id="Path_1603" data-name="Path 1603" class="cls-8" d="M1098.84,785.822c-5.076.041-11.791-.79-13.143-1.608-1.029-.627-1.44-2.878-1.578-3.9h-.149s.285,3.626,1.635,4.448,8.07,1.656,13.143,1.608c1.465,0,1.971-.533,1.943-1.3C1100.487,785.521,1099.929,785.813,1098.84,785.822Z" transform="translate(-844.953 -614.458)"/>
  <path id="Path_1604" data-name="Path 1604" class="cls-9" d="M892.687,388.858a2.067,2.067,0,0,0,.459,1.1,3.975,3.975,0,0,0,1.279.774,5.052,5.052,0,0,1,2.471,2.841c.765,2.232.864,4.593,1.837,6.747s2.117,4.223,2.958,6.43a21.557,21.557,0,0,0,1.559,3.693,5.726,5.726,0,0,0,1.279,1.472c-.053.808-.073,1.608-.069,2.416a.919.919,0,0,1,.785.413,2.391,2.391,0,0,1,.344.861c.315,1.3-.073,2.689.209,4a20.339,20.339,0,0,1-.689,10.941c-.315.891-.71,3.84-.374,4.724,1.249-.126,2.356.641,3.525,1.148a4.85,4.85,0,0,1-.165,2.067,11.382,11.382,0,0,0-.411,3.805l.057,9.476a14.294,14.294,0,0,0,.317,3.583c.342,1.311,1.061,2.648,1.038,4-.062,2.917,1.316,5.7,1.206,8.589-.021.556-.1,1.107-.149,1.658a18.864,18.864,0,0,0,.11,4.407c.418,2.907,1.523,5.767,1.247,8.69-.018.2-.085.459-.271.535.23.26.473.517.721.763a.656.656,0,0,1-.2.209,2.03,2.03,0,0,1-.877.23,1.859,1.859,0,0,0-1,.326,1.445,1.445,0,0,0-.418.767,2.067,2.067,0,0,0,.276,1.718,1.919,1.919,0,0,0,.779.583,5,5,0,0,0,3.385-.209l4.336-1.314a1.46,1.46,0,0,0,.705-.367.772.772,0,0,0,.172-.372,5.932,5.932,0,0,0,2.986-.344l4.336-1.316a1.44,1.44,0,0,0,.705-.367.841.841,0,0,0,.177-.689c.032-.014.064-.023.1-.039.331-.149.689-.441.609-.792-.057-.23-.287-.363-.386-.574a.829.829,0,0,1,.161-.811c.17-.23.4-.42.556-.661.5-.767.161-1.775-.028-2.673-.406-1.918-.03-3.92-.287-5.863-.087-.654-.246-1.3-.372-1.947a39.812,39.812,0,0,1-.531-4.644c-.165-2.223-.783-4.414-.429-6.619a25.707,25.707,0,0,0,.218-3.9,17,17,0,0,0-.108-2.489c-.09-.616-.248-1.219-.317-1.837a16.663,16.663,0,0,1-.037-2.088,20.649,20.649,0,0,0-.427-4.621c-.459-2.088-1.323-4.086-1.69-6.178.124.028.248.055.367.087.014-1.608-1.394-5.1-1.915-6.628a1.926,1.926,0,0,1-.138-.586,6.306,6.306,0,0,1,.145-.788,6.457,6.457,0,0,0-.31-1.64,3.846,3.846,0,0,1,.085-1.167c.37-2.055.829-4.095,1.288-6.132a6.532,6.532,0,0,0,.2-2.267,2.845,2.845,0,0,1,.689-2.258,2.676,2.676,0,0,0,.51-.641,1.627,1.627,0,0,0,.1-.641,10.3,10.3,0,0,0-.413-2.79,7.222,7.222,0,0,0,.671-2.483,40.312,40.312,0,0,0,.505-5.656,9.587,9.587,0,0,0-.413-2.986,11.844,11.844,0,0,0-.786-1.732,56.352,56.352,0,0,0-3.888-6.906c-.459-.648-.17-1.541-.138-2.34a6.684,6.684,0,0,0-.721-2.777,4.557,4.557,0,0,0-.864-1.486,1.4,1.4,0,0,0-1.01-.459,1.522,1.522,0,0,0-1.077.659,3.553,3.553,0,0,0-.645,2.657,5.137,5.137,0,0,0,1.169,2.51,5.682,5.682,0,0,0,1.008.958q.57,1.81,1.148,3.617a45.13,45.13,0,0,0,2.067,5.659,4.465,4.465,0,0,1,.556,1.642,4.824,4.824,0,0,1-.439,1.814,12.805,12.805,0,0,0-.739,3.826,1.308,1.308,0,0,0-.193.106c-.723.473-.951,1.5-1.7,1.927a5.333,5.333,0,0,1-1.463.342.5.5,0,0,0-.133.037c-.018-.092-.037-.181-.048-.276a.745.745,0,0,1,0-.177,7.714,7.714,0,0,0,2.855-2.719,2.487,2.487,0,0,0,.338-.689,2.663,2.663,0,0,0,.034-.9,14.293,14.293,0,0,0-.425-2.951,4.908,4.908,0,0,0-1.536-2.5c-.377-.3-.811-.531-1.185-.836-.73-.59-1.231-1.463-2.067-1.9a2.487,2.487,0,0,0-3.126.808,1.81,1.81,0,0,1-.459.583,4.718,4.718,0,0,0-.427.23.875.875,0,0,0-.184.9,9.417,9.417,0,0,1,.262,1.973,4.823,4.823,0,0,0-.014,6.24c0,.427,0,.854-.016,1.281a1.237,1.237,0,0,1-.016.243,1.657,1.657,0,0,1-.689-.459c-.257-.321-.3-.795-.618-1.059a1.743,1.743,0,0,0-.753-.276,4.678,4.678,0,0,1-1.837-.87,3.691,3.691,0,0,0-1.362-.845,30.22,30.22,0,0,0-2.986-4.556,8.869,8.869,0,0,1-.781-1.073,14.9,14.9,0,0,1-.953-2.818c-.873-2.646-3.05-4.768-3.58-7.505a12.386,12.386,0,0,0-1.254-2.77,3.536,3.536,0,0,0-1.2-1.624,2.037,2.037,0,0,0-2.414.37A2.9,2.9,0,0,0,892.687,388.858Zm27.267,92.94a2.03,2.03,0,0,1-.877.23,4.232,4.232,0,0,0-.459.073c-.057-.482-.09-.971-.126-1.447-.122-1.559-.365-3.107-.606-4.653a27.712,27.712,0,0,0-.919-4.91,21.158,21.158,0,0,1-1.658-7.762c.025-.6.1-1.2.133-1.805a22.743,22.743,0,0,1,.23-4.462c.163-.659.441-1.288.547-1.959a9.3,9.3,0,0,0,.023-1.823,24.235,24.235,0,0,1,.521-6.281,4.433,4.433,0,0,1,.689,1.97l.861,4.671c.512,2.772.965,5.712,2.322,8.178a4.87,4.87,0,0,0-.064,2.687c.135.367.358.689.5,1.061a7.907,7.907,0,0,1,.266,1.952c.149,1.378.719,2.733.3,4.063a19.817,19.817,0,0,0-.834,4.216,10.274,10.274,0,0,1-.138,1.187c-.073.354-.193.689-.26,1.052a3.485,3.485,0,0,0,.067,1.532,3.126,3.126,0,0,1,.188.861c0,.294-.361.505-.65.551.085.11.177.216.271.319A1.007,1.007,0,0,1,919.954,481.8Z" transform="translate(-697.572 -309.802)"/>
  <path id="Path_1605" data-name="Path 1605" class="cls-3" d="M967.021,814.551a1.858,1.858,0,0,0-1,.326,1.415,1.415,0,0,0-.418.762,2.039,2.039,0,0,0,.276,1.7,1.913,1.913,0,0,0,.778.581,5.012,5.012,0,0,0,3.385-.209l4.336-1.3a1.455,1.455,0,0,0,.705-.365.958.958,0,0,0,.018-1.116,2.169,2.169,0,0,0-.919-.733,10.289,10.289,0,0,0-4.35-.834c-.551,0-1.1-.133-1.47.292-.2.23-.161.475-.459.671A2.067,2.067,0,0,1,967.021,814.551Z" transform="translate(-753.708 -639.905)"/>
  <path id="Path_1606" data-name="Path 1606" class="cls-3" d="M1002.692,804.173a1.877,1.877,0,0,0-1,.326,1.424,1.424,0,0,0-.418.762,2.046,2.046,0,0,0,.276,1.706,1.929,1.929,0,0,0,.779.579,5.011,5.011,0,0,0,3.385-.207l4.336-1.307a1.456,1.456,0,0,0,.705-.365.955.955,0,0,0,.018-1.114,2.175,2.175,0,0,0-.919-.733,10.306,10.306,0,0,0-4.352-.836c-.551,0-1.093-.131-1.47.294-.2.23-.161.473-.459.668A2,2,0,0,1,1002.692,804.173Z" transform="translate(-781.187 -631.911)"/>
  <path id="Path_1607" data-name="Path 1607" class="cls-10" d="M965.673,600.554a53.41,53.41,0,0,1,7.691-.216,1.533,1.533,0,0,1,.5.078c.565.23.652.969.705,1.573.23,2.453,1.3,4.738,1.837,7.14a20.4,20.4,0,0,1,.427,4.593,16.461,16.461,0,0,0,.037,2.067c.069.613.23,1.215.317,1.826a16.769,16.769,0,0,1,.108,2.473,25.387,25.387,0,0,1-.218,3.874c-.354,2.189.264,4.363.429,6.577a39.268,39.268,0,0,0,.521,4.618c.126.645.285,1.284.372,1.934.257,1.931-.119,3.92.287,5.826.188.891.528,1.892.028,2.655-.156.23-.386.425-.556.657a.82.82,0,0,0-.161.806c.1.209.328.347.386.57.09.351-.278.638-.609.788a6.341,6.341,0,0,1-7.386-1.824c.289-.046.643-.255.65-.549a3.1,3.1,0,0,0-.188-.854,3.443,3.443,0,0,1-.067-1.52c.067-.354.186-.689.259-1.045a10.143,10.143,0,0,0,.138-1.18,19.572,19.572,0,0,1,.834-4.189c.418-1.321-.152-2.657-.3-4.035a7.925,7.925,0,0,0-.266-1.941c-.138-.363-.361-.689-.5-1.052a4.813,4.813,0,0,1,.064-2.671c-1.357-2.451-1.81-5.372-2.322-8.125l-.861-4.639a4.561,4.561,0,0,0-.689-1.959,23.919,23.919,0,0,0-.521,6.24,9.2,9.2,0,0,1-.023,1.812c-.106.666-.384,1.293-.547,1.945a23.921,23.921,0,0,0-.23,4.432c-.032.6-.108,1.194-.133,1.794a20.913,20.913,0,0,0,1.658,7.714,28.489,28.489,0,0,1,.919,4.876c.23,1.536.485,3.073.606,4.623.113,1.424.163,2.965,1.05,4.083a7.526,7.526,0,0,1-2.6,1.242,4.791,4.791,0,0,1-3.2-.62,10.057,10.057,0,0,1-2.526-2.147c.186-.064.253-.335.271-.531.276-2.907-.829-5.741-1.247-8.635a18.6,18.6,0,0,1-.11-4.377c.053-.549.129-1.1.149-1.649.11-2.873-1.275-5.64-1.224-8.516.023-1.348-.689-2.675-1.038-3.978a14.4,14.4,0,0,1-.317-3.56l-.057-9.416a11.639,11.639,0,0,1,.411-3.778c.505-1.447-.073-3.107-.161-4.637A19.112,19.112,0,0,0,965.673,600.554Z" transform="translate(-747.936 -475.349)"/>
  <path id="Path_1608" data-name="Path 1608" class="cls-11" d="M907.119,413.462a30,30,0,0,0-3.516-5.551,8.8,8.8,0,0,1-.781-1.066,14.783,14.783,0,0,1-.953-2.8c-.873-2.627-3.05-4.738-3.58-7.455a12.465,12.465,0,0,0-1.254-2.756,3.478,3.478,0,0,0-1.2-1.608,2.04,2.04,0,0,0-2.414.367,2.868,2.868,0,0,0-.739,2.423,2.05,2.05,0,0,0,.459,1.089,4.005,4.005,0,0,0,1.279.769,5.025,5.025,0,0,1,2.471,2.823c.765,2.216.864,4.563,1.837,6.7s2.117,4.194,2.958,6.382a22.006,22.006,0,0,0,1.559,3.674,4.523,4.523,0,0,0,3.114,2.283,7.684,7.684,0,0,1,.374-2.453C907.025,415.385,907.535,414.319,907.119,413.462Z" transform="translate(-697.57 -315.31)"/>
  <path id="Path_1609" data-name="Path 1609" class="cls-11" d="M1001.447,411.952a12.69,12.69,0,0,1,.746-4.772,4.947,4.947,0,0,0,.439-1.8,4.421,4.421,0,0,0-.556-1.633,41.871,41.871,0,0,1-2.067-5.62l-1.148-3.594a5.585,5.585,0,0,1-1.008-.953,5.075,5.075,0,0,1-1.169-2.494,3.5,3.5,0,0,1,.645-2.636,1.527,1.527,0,0,1,1.077-.657,1.41,1.41,0,0,1,1.01.459,4.526,4.526,0,0,1,.864,1.474,6.611,6.611,0,0,1,.721,2.756c-.032.795-.328,1.681.138,2.326a55.817,55.817,0,0,1,3.888,6.862,11.615,11.615,0,0,1,.786,1.72,9.46,9.46,0,0,1,.413,2.972,41.243,41.243,0,0,1-.505,5.62,5.025,5.025,0,0,1-1.261,3.215A18.206,18.206,0,0,0,1001.447,411.952Z" transform="translate(-777.679 -312.082)"/>
  <circle id="Ellipse_337" data-name="Ellipse 337" class="cls-11" cx="4.765" cy="4.765" r="4.765" transform="translate(213.16 91.235)"/>
  <path id="Path_1610" data-name="Path 1610" class="cls-11" d="M972.768,487.783a6.375,6.375,0,0,0,1.027,2.377c.271.459.618.948,1.148,1a23.147,23.147,0,0,1-4.329,1.741,4.894,4.894,0,0,1-1.58.255,3.866,3.866,0,0,1-1.316-.338A6.543,6.543,0,0,1,964,488.472a8.635,8.635,0,0,0,1.771-.135,1.3,1.3,0,0,0,.868-.427,1.377,1.377,0,0,0,.179-.767c.023-.795.025-1.591,0-2.386a9.417,9.417,0,0,1,3.463.427c.459.149.919.328,1.378.445.289.074,1.086,0,1.3.168C973.31,486.033,972.688,487.2,972.768,487.783Z" transform="translate(-752.535 -386.765)"/>
  <path id="Path_1611" data-name="Path 1611" class="cls-12" d="M955.234,487.7a3,3,0,0,1,2.283-2.666,5.33,5.33,0,0,0,1.463-.34c.753-.42.981-1.445,1.7-1.915a2.014,2.014,0,0,1,2.379.386,5.108,5.108,0,0,1,1.206,2.271,11.5,11.5,0,0,1,.618,3.479,1.607,1.607,0,0,1-.1.636,2.653,2.653,0,0,1-.51.636,2.816,2.816,0,0,0-.689,2.244,6.43,6.43,0,0,1-.2,2.251c-.459,2.026-.919,4.049-1.288,6.093a3.783,3.783,0,0,0-.085,1.148,6.81,6.81,0,0,1,.31,1.631,6.174,6.174,0,0,0-.145.783,1.9,1.9,0,0,0,.138.581c.521,1.513,1.929,4.981,1.915,6.584a39.981,39.981,0,0,0-8.578-.779,19.1,19.1,0,0,0-2.081.092c-1.66.179-3.36.664-4.97.216-1.5-.416-2.818-1.608-4.363-1.458-.335-.877.06-3.805.374-4.692a20.081,20.081,0,0,0,.689-10.87c-.282-1.3.106-2.68-.209-3.971a2.367,2.367,0,0,0-.344-.857.919.919,0,0,0-.785-.411,29.253,29.253,0,0,1,.574-6.185c.152-.723.459-1.578,1.2-1.7.657-.113,1.208.443,1.736.85a4.665,4.665,0,0,0,1.837.864,1.742,1.742,0,0,1,.753.276c.315.262.361.733.618,1.052.459.572,1.486.524,1.812,1.183a4.513,4.513,0,0,1,.172.6,2.208,2.208,0,0,0,.758.978A4.263,4.263,0,0,0,955.234,487.7Z" transform="translate(-737.096 -383.791)"/>
  <path id="Path_1612" data-name="Path 1612" class="cls-13" d="M975.118,444.848a.871.871,0,0,1,.184-.9c.126-.1.292-.135.427-.23a1.839,1.839,0,0,0,.459-.581,2.494,2.494,0,0,1,3.121-.792c.829.434,1.33,1.3,2.067,1.888.374.3.808.528,1.185.831a4.87,4.87,0,0,1,1.536,2.485,14.1,14.1,0,0,1,.425,2.93,2.636,2.636,0,0,1-.034.891,2.5,2.5,0,0,1-.338.689,7.672,7.672,0,0,1-3.009,2.783,4.65,4.65,0,0,1-4.01.069.689.689,0,0,1-.308-.246.884.884,0,0,1-.048-.531,3.63,3.63,0,0,0-.4-2.032c-.23-.459-.574-.854-.758-1.33a4.632,4.632,0,0,1-.216-1.649A17.808,17.808,0,0,0,975.118,444.848Z" transform="translate(-761.065 -353.914)"/>
</svg>
