<svg id="instagram" xmlns="http://www.w3.org/2000/svg" width="30.969" height="30.969" viewBox="0 0 30.969 30.969">
  <defs>
    <style>
      .cls-1 {
        fill: #3f3d56;
      }
    </style>
  </defs>
  <path id="Path_489" data-name="Path 489" class="cls-1" d="M212.928,209.93a2.964,2.964,0,1,1-2.964-2.93A2.947,2.947,0,0,1,212.928,209.93Zm0,0" transform="translate(-194.479 -194.446)"/>
  <path id="Path_490" data-name="Path 490" class="cls-1" d="M149.706,137.511a2.721,2.721,0,0,0-.665-1.011,2.756,2.756,0,0,0-1.022-.658,4.969,4.969,0,0,0-1.651-.3c-.938-.042-1.219-.051-3.593-.051s-2.656.009-3.593.051a4.972,4.972,0,0,0-1.651.3,2.754,2.754,0,0,0-1.022.658,2.722,2.722,0,0,0-.665,1.011,4.817,4.817,0,0,0-.306,1.632c-.043.927-.052,1.2-.052,3.552s.009,2.625.052,3.552a4.815,4.815,0,0,0,.306,1.632,2.722,2.722,0,0,0,.665,1.011,2.757,2.757,0,0,0,1.022.658,4.964,4.964,0,0,0,1.651.3c.938.042,1.218.051,3.593.051s2.656-.009,3.593-.051a4.964,4.964,0,0,0,1.651-.3,2.928,2.928,0,0,0,1.687-1.668,4.82,4.82,0,0,0,.306-1.632c.043-.927.052-1.205.052-3.552s-.009-2.625-.052-3.552A4.809,4.809,0,0,0,149.706,137.511Zm-6.931,9.7a4.514,4.514,0,1,1,4.566-4.514A4.54,4.54,0,0,1,142.774,147.209Zm4.746-8.151A1.055,1.055,0,1,1,148.588,138,1.061,1.061,0,0,1,147.521,139.058Zm0,0" transform="translate(-127.29 -127.21)"/>
  <path id="Path_491" data-name="Path 491" class="cls-1" d="M15.485,0A15.485,15.485,0,1,0,30.969,15.485,15.486,15.486,0,0,0,15.485,0Zm8.838,19.15a6.524,6.524,0,0,1-.413,2.158,4.546,4.546,0,0,1-2.6,2.6,6.528,6.528,0,0,1-2.158.413c-.948.043-1.251.054-3.666.054s-2.718-.01-3.666-.054a6.528,6.528,0,0,1-2.158-.413,4.546,4.546,0,0,1-2.6-2.6,6.522,6.522,0,0,1-.413-2.158C6.6,18.2,6.593,17.9,6.593,15.485s.01-2.718.054-3.666A6.524,6.524,0,0,1,7.06,9.66a4.55,4.55,0,0,1,2.6-2.6,6.53,6.53,0,0,1,2.158-.413c.948-.043,1.251-.054,3.666-.054s2.718.01,3.666.054a6.531,6.531,0,0,1,2.158.413,4.548,4.548,0,0,1,2.6,2.6,6.523,6.523,0,0,1,.413,2.158c.043.948.053,1.251.053,3.666S24.366,18.2,24.323,19.15Zm0,0"/>
</svg>
