<svg id="linkedin" xmlns="http://www.w3.org/2000/svg" width="30.969" height="30.969" viewBox="0 0 30.969 30.969">
  <defs>
    <style>
      .cls-1 {
        fill: #3f3d56;
      }
    </style>
  </defs>
  <path id="linkedin-2" data-name="linkedin" class="cls-1" d="M15.485,0A15.485,15.485,0,1,0,30.969,15.485,15.486,15.486,0,0,0,15.485,0Zm-4.5,23.408H7.214V12.063h3.771ZM9.1,10.513H9.075a1.966,1.966,0,1,1,.05-3.92,1.966,1.966,0,1,1-.025,3.92Zm15.484,12.9H20.812v-6.07c0-1.525-.546-2.566-1.911-2.566a2.064,2.064,0,0,0-1.935,1.379,2.583,2.583,0,0,0-.124.92v6.336H13.072s.049-10.281,0-11.346h3.771v1.606a3.744,3.744,0,0,1,3.4-1.873c2.481,0,4.342,1.622,4.342,5.106Zm0,0"/>
</svg>
