<svg id="Component_1_1" data-name="Component 1 – 1" xmlns="http://www.w3.org/2000/svg" width="43.386" height="29.224" viewBox="0 0 43.386 29.224">
  <defs>
    <style>
      .cls-1 {
        fill: #6c63ff;
      }

      .cls-2 {
        fill: rgba(108,99,255,0.8);
      }

      .cls-3 {
        fill: rgba(108,99,255,0.7);
      }

      .cls-4 {
        fill: rgba(108,99,255,0.9);
      }
    </style>
  </defs>
  <path id="Path_920" data-name="Path 920" class="cls-1" d="M159.979,219.536c5.99,5.831,6.722,14.8,6.722,14.8s-8.981-.49-14.971-6.322-6.722-14.8-6.722-14.8S153.988,213.7,159.979,219.536Z" transform="translate(-145.008 -205.114)"/>
  <path id="Path_921" data-name="Path 921" class="cls-2" d="M207.989,208.276c-2.183,8.07-9.661,13.068-9.661,13.068s-3.938-8.086-1.755-16.156,9.661-13.068,9.661-13.068S210.172,200.206,207.989,208.276Z" transform="translate(-176.366 -192.12)"/>
  <path id="Path_922" data-name="Path 922" class="cls-3" d="M208.222,219.536c-5.99,5.831-6.722,14.8-6.722,14.8s8.981-.49,14.971-6.322,6.722-14.8,6.722-14.8S214.212,213.7,208.222,219.536Z" transform="translate(-179.807 -205.114)"/>
  <path id="Path_923" data-name="Path 923" class="cls-4" d="M174.583,208.276c2.183,8.07,9.661,13.068,9.661,13.068s3.938-8.086,1.755-16.156-9.661-13.068-9.661-13.068S172.4,200.206,174.583,208.276Z" transform="translate(-162.82 -192.12)"/>
</svg>
