<svg id="Component_40_1" data-name="Component 40 – 1" xmlns="http://www.w3.org/2000/svg" width="38.709" height="38.709" viewBox="0 0 38.709 38.709">
  <defs>
    <style>
      .cls-1 {
        fill: #6c63ff;
      }

      .cls-2 {
        fill: #fff;
      }
    </style>
  </defs>
  <ellipse id="Ellipse_139" data-name="Ellipse 139" class="cls-1" cx="19.355" cy="19.355" rx="19.355" ry="19.355"/>
  <path id="Path_775" data-name="Path 775" class="cls-2" d="M566.447,522.269l-5.8,5.9a.1.1,0,0,0,0,.151l4.066,4.324a.7.7,0,1,1-.989.989l-4.045-4.308a.11.11,0,0,0-.155,0l-.986,1a4.332,4.332,0,0,1-3.1,1.3,4.426,4.426,0,0,1-3.152-1.34l-.947-.968a.11.11,0,0,0-.155,0l-4.035,4.3a.7.7,0,1,1-.989-.989l4.051-4.314a.116.116,0,0,0,0-.151l-5.8-5.9a.107.107,0,0,0-.182.075v11.8a1.727,1.727,0,0,0,1.721,1.721h18.95a1.727,1.727,0,0,0,1.721-1.721V522.344a.107.107,0,0,0-.186-.076Z" transform="translate(-536.085 -508.762)"/>
  <path id="Path_776" data-name="Path 776" class="cls-2" d="M558.189,522.48a2.932,2.932,0,0,0,2.114-.871l8.44-8.591a1.685,1.685,0,0,0-1.065-.387H548.715a1.673,1.673,0,0,0-1.065.387l8.442,8.591A2.92,2.92,0,0,0,558.189,522.48Z" transform="translate(-538.834 -501.022)"/>
</svg>
