<svg xmlns="http://www.w3.org/2000/svg" xmlns:xlink="http://www.w3.org/1999/xlink" width="154.332" height="154.332" viewBox="0 0 154.332 154.332">
  <defs>
    <linearGradient id="linear-gradient" x1="0.5" y1="1" x2="0.5" gradientUnits="objectBoundingBox">
      <stop offset="0" stop-color="gray" stop-opacity="0.251"/>
      <stop offset="0.54" stop-color="gray" stop-opacity="0.122"/>
      <stop offset="1" stop-color="gray" stop-opacity="0.102"/>
    </linearGradient>
  </defs>
  <g id="Group_82" data-name="Group 82" transform="translate(0)">
    <g id="Group_75" data-name="Group 75" transform="translate(0 0)" opacity="0.5">
      <circle id="Ellipse_400" data-name="Ellipse 400" cx="77.166" cy="77.166" r="77.166" transform="translate(0 0)" fill="url(#linear-gradient)"/>
    </g>
    <circle id="Ellipse_401" data-name="Ellipse 401" cx="75.535" cy="75.535" r="75.535" transform="translate(1.778 1.132)" fill="#f5f5f5"/>
    <path id="Path_1921" data-name="Path 1921" d="M849.064,286.512a75.182,75.182,0,0,0,41.523-12.425C887.8,258.872,877.209,258,877.209,258h-58.4s-9.988.819-13.117,14.815a75.188,75.188,0,0,0,43.374,13.7Z" transform="translate(-771.685 -134.005)" fill="#6c63ff"/>
    <circle id="Ellipse_402" data-name="Ellipse 402" cx="36.462" cy="36.462" r="36.462" transform="translate(40.124 38.613)" fill="#72351c"/>
    <path id="Path_1922" data-name="Path 1922" d="M642.68,158.36h23.365v18.691a11.679,11.679,0,0,1-11.679,11.7h0a11.679,11.679,0,0,1-11.679-11.679V158.36Z" transform="translate(-577.866 -52.915)" opacity="0.1"/>
    <path id="Path_1923" data-name="Path 1923" d="M644.884,157.06h18.9a2.231,2.231,0,0,1,2.231,2.231v16.46a11.679,11.679,0,0,1-11.679,11.679h0a11.679,11.679,0,0,1-11.679-11.679v-16.46a2.231,2.231,0,0,1,2.231-2.231Z" transform="translate(-577.859 -52.481)" fill="#fda57d"/>
    <path id="Path_1924" data-name="Path 1924" d="M852,241.983a33.625,33.625,0,0,0,23.365.067v-2.87H852Z" transform="translate(-787.159 -127.716)" opacity="0.1"/>
    <circle id="Ellipse_403" data-name="Ellipse 403" cx="33.486" cy="33.486" r="33.486" transform="translate(43.101 48.86)" fill="#fda57d"/>
    <path id="Path_1925" data-name="Path 1925" d="M833.82,145.47s14.109,28.632,53.934,11.985l-9.269-14.536-16.427-5.9Z" transform="translate(-781.084 -93.58)" opacity="0.1"/>
    <path id="Path_1926" data-name="Path 1926" d="M833.82,144.84s14.109,28.632,53.934,11.985l-9.269-14.536-16.427-5.9Z" transform="translate(-781.084 -93.369)" fill="#72351c"/>
    <path id="Path_1927" data-name="Path 1927" d="M833.279,134.572a19.342,19.342,0,0,1,4.794-7.8c6.585-6.512,17.385-7.884,22.925-15.315a4.335,4.335,0,0,1-2,6.113c5.327-.033,11.459-.5,14.456-4.867a9.928,9.928,0,0,1-1.671,10.481c4.7.213,9.721,3.4,10.028,8.1.2,3.13-1.758,6.093-4.335,7.89a23.831,23.831,0,0,1-8.743,3.269C859.8,144.446,827.447,152.71,833.279,134.572Z" transform="translate(-780.67 -85.039)" fill="#72351c"/>
    <path id="Path_1928" data-name="Path 1928" d="M886.332,195.89h-.886l-17.272,15.388c-16.646-7.79-28.858,0-28.858,0L821.2,196.536l-1.824.226a33.484,33.484,0,1,0,66.962-.859ZM852.8,217.164c-6.512,0-11.792-1.332-11.792-2.95s5.28-2.95,11.792-2.95,11.792,1.332,11.792,2.95-5.28,2.95-11.8,2.95Z" transform="translate(-776.259 -113.251)" fill="#72351c"/>
    <ellipse id="Ellipse_404" data-name="Ellipse 404" cx="3.116" cy="5.84" rx="3.116" ry="5.84" transform="translate(39.971 76.473)" fill="#fda57d"/>
    <ellipse id="Ellipse_405" data-name="Ellipse 405" cx="3.116" cy="5.84" rx="3.116" ry="5.84" transform="translate(106.949 76.473)" fill="#fda57d"/>
  </g>
</svg>
