<svg id="8abbfe23-26e0-4ef7-83d7-6944c41cdadc" data-name="Layer 1" xmlns="http://www.w3.org/2000/svg" xmlns:xlink="http://www.w3.org/1999/xlink" width="829" height="744.16" viewBox="0 0 829 744.16" style=""><defs><linearGradient id="8d3987ee-7da6-4397-b7c6-fc969519ed63" x1="382.9" y1="692.59" x2="382.9" y2="45.25" gradientUnits="userSpaceOnUse"><stop offset="0" stop-color="gray" stop-opacity="0.25"></stop><stop offset="0.54" stop-color="gray" stop-opacity="0.12"></stop><stop offset="1" stop-color="gray" stop-opacity="0.1"></stop></linearGradient><linearGradient id="41a98616-cc8d-45ca-bf5b-bcdeacba7b4f" x1="577.21" y1="539.76" x2="577.21" y2="383.34" xlink:href="#8d3987ee-7da6-4397-b7c6-fc969519ed63"></linearGradient><linearGradient id="cbeba5be-4290-4dae-bc1b-44a303762a01" x1="422.99" y1="586.26" x2="422.99" y2="284.95" xlink:href="#8d3987ee-7da6-4397-b7c6-fc969519ed63"></linearGradient><linearGradient id="d7c56f50-4219-4953-bdbb-ce8107747d0c" x1="809.48" y1="657.06" x2="809.48" y2="582.42" xlink:href="#8d3987ee-7da6-4397-b7c6-fc969519ed63"></linearGradient><linearGradient id="65800a0c-0f7d-440b-866d-d9a2d0291c31" x1="728.61" y1="677.75" x2="728.61" y2="553.95" gradientTransform="translate(-210.42 971.61) rotate(-62.55)" xlink:href="#8d3987ee-7da6-4397-b7c6-fc969519ed63"></linearGradient></defs><title>startman1</title><path fill="url(#8d3987ee-7da6-4397-b7c6-fc969519ed63)" d="M59.22999999999996,368.92A323.67,323.67 0,1,1 706.5699999999999,368.92A323.67,323.67 0,1,1 59.22999999999996,368.92" class="NbGMzRJv_0"></path><path fill="#6c63ff" d="M67.16999999999996,368.92A315.73,315.73 0,1,1 698.63,368.92A315.73,315.73 0,1,1 67.16999999999996,368.92" class="NbGMzRJv_1"></path><path opacity="0.05" d="M241.59,186.43A39.22,39.22 0,1,1 320.03,186.43A39.22,39.22 0,1,1 241.59,186.43" class="NbGMzRJv_2"></path><path opacity="0.05" d="M361.54999999999995,606.43A39.22,39.22 0,1,1 439.99,606.43A39.22,39.22 0,1,1 361.54999999999995,606.43" class="NbGMzRJv_3"></path><path opacity="0.05" d="M359.8,324.03A80.19,80.19 0,1,1 520.1800000000001,324.03A80.19,80.19 0,1,1 359.8,324.03" class="NbGMzRJv_4"></path><path d="M694.73,539.76c-39.72,0-82-1.9-125.22-5.72-96.07-8.48-185.62-25.41-252.14-47.66-67-22.43-102.8-47.77-100.72-71.35,1.05-11.94,11.57-22.6,31.25-31.68l1,2.25c-18.82,8.68-28.85,18.65-29.82,29.65s7.35,22.84,24.75,34.82c17.1,11.77,42.09,23.19,74.29,34,66.35,22.2,155.69,39.08,251.58,47.54s186.81,7.49,256-2.74c33.58-5,60.19-11.84,79.09-20.43,19.24-8.74,29.49-18.82,30.47-29.95,1.12-12.67-10.33-26.56-33.1-40.16l1.27-2.13c24,14.33,35.53,28.63,34.3,42.51-2.08,23.59-41.74,42.27-111.66,52.6C788,536.92,743.23,539.75,694.73,539.76Z" transform="translate(-185 -76.87)" fill="url(#41a98616-cc8d-45ca-bf5b-bcdeacba7b4f)" class="NbGMzRJv_5"></path><path d="M902.83,434.76c22.71,13.57,34.91,27.67,33.7,41.33-4.19,47.47-168.46,71.75-366.91,54.23s-355.93-70.2-351.74-117.67c1-11.73,11.85-22,30.53-30.66" transform="translate(-185 -76.87)" fill="none" stroke="#bdbdbd" stroke-miterlimit="10" stroke-width="3" opacity="0.5" class="NbGMzRJv_6"></path><path d="M608.39,586.26c-28.62-12.34-57.83-26.11-86.81-40.94-85.87-43.92-162.52-93.21-215.83-138.81-53.72-45.94-77.36-82.85-66.58-103.94,5.46-10.68,19.21-16.61,40.85-17.64l.12,2.47c-20.7,1-33.74,6.46-38.77,16.29s-1.76,23.93,9.88,41.56c11.43,17.32,30.31,37.3,56.11,59.36C360.52,450.11,437,499.29,522.7,543.12c28.94,14.8,58.09,28.55,86.67,40.87Z" transform="translate(-185 -76.87)" fill="url(#cbeba5be-4290-4dae-bc1b-44a303762a01)" class="NbGMzRJv_7"></path><path d="M613,585.12c-28.09-12.11-57.19-25.79-86.74-40.9C348.89,453.51,222.7,345.57,244.4,303.15c5.36-10.48,19.25-16,39.81-17" transform="translate(-185 -76.87)" fill="none" stroke="#bdbdbd" stroke-miterlimit="10" stroke-width="3" class="NbGMzRJv_8"></path><path d="M840.73,657.06c-26,0-62.67-8.5-112.17-25.56l.81-2.34c94.46,32.54,141.19,33.86,156.25,4.41,5.79-11.32.39-28.49-15.61-49.65l2-1.49c16.86,22.28,22.19,39.87,15.84,52.27C880.2,649.59,865.12,657.05,840.73,657.06Z" transform="translate(-185 -76.87)" fill="url(#d7c56f50-4219-4953-bdbb-ce8107747d0c)" class="NbGMzRJv_9"></path><path d="M871,580.69c16,21.1,22,38.75,15.73,51-14.39,28.13-56.6,31-157.76-3.8" transform="translate(-185 -76.87)" fill="none" stroke="#bdbdbd" stroke-miterlimit="10" stroke-width="3" class="NbGMzRJv_10"></path><g opacity="0.5"><path width="3.22" height="18.23" fill="#47e6b1" d="M94.38 661.7 L97.6 661.7 L97.6 679.9300000000001 L94.38 679.9300000000001 Z" class="NbGMzRJv_11"></path><path width="3.22" height="18.23" transform="translate(843.66 389.83) rotate(90)" fill="#47e6b1" d="M279.38 738.56 L282.6 738.56 L282.6 756.79 L279.38 756.79 Z" class="NbGMzRJv_12"></path></g><g opacity="0.5"><path width="3.22" height="18.23" fill="#47e6b1" d="M748.57 3.22 L751.7900000000001 3.22 L751.7900000000001 21.45 L748.57 21.45 Z" class="NbGMzRJv_13"></path><path width="3.22" height="18.23" transform="translate(839.37 -922.84) rotate(90)" fill="#47e6b1" d="M933.57 80.08 L936.7900000000001 80.08 L936.7900000000001 98.31 L933.57 98.31 Z" class="NbGMzRJv_14"></path></g><g opacity="0.5"><path width="3.22" height="18.23" fill="#47e6b1" d="M818.28 500.83 L821.5 500.83 L821.5 519.06 L818.28 519.06 Z" class="NbGMzRJv_15"></path><path width="3.22" height="18.23" transform="translate(1406.7 -494.94) rotate(90)" fill="#47e6b1" d="M1003.28 577.7 L1006.5 577.7 L1006.5 595.9300000000001 L1003.28 595.9300000000001 Z" class="NbGMzRJv_16"></path></g><g opacity="0.5"><path width="3.22" height="18.23" fill="#47e6b1" d="M105.1 47.19 L108.32 47.19 L108.32 65.42 L105.1 65.42 Z" class="NbGMzRJv_17"></path><path width="3.22" height="18.23" transform="translate(239.88 -235.4) rotate(90)" fill="#47e6b1" d="M290.1 124.05 L293.32000000000005 124.05 L293.32000000000005 142.28 L290.1 142.28 Z" class="NbGMzRJv_18"></path></g><path d="M385.22,801.09a3.94,3.94,0,0,1-2.2-4.76,1.89,1.89,0,0,0,.09-.44h0a2,2,0,0,0-3.55-1.31h0a1.89,1.89,0,0,0-.22.39,3.94,3.94,0,0,1-4.76,2.2,1.89,1.89,0,0,0-.44-.09h0a2,2,0,0,0-1.31,3.55h0a1.89,1.89,0,0,0,.39.22,3.94,3.94,0,0,1,2.2,4.76,1.89,1.89,0,0,0-.09.44h0a2,2,0,0,0,3.55,1.31h0a1.89,1.89,0,0,0,.22-.39,3.94,3.94,0,0,1,4.76-2.2,1.89,1.89,0,0,0,.44.09h0a2,2,0,0,0,1.31-3.55h0A1.89,1.89,0,0,0,385.22,801.09Z" transform="translate(-185 -76.87)" fill="#4d8af0" opacity="0.5" class="NbGMzRJv_19"></path><path d="M581.47,814a3.94,3.94,0,0,1-2.2-4.76,1.89,1.89,0,0,0,.09-.44h0a2,2,0,0,0-3.55-1.31h0a1.89,1.89,0,0,0-.22.39,3.94,3.94,0,0,1-4.76,2.2,1.89,1.89,0,0,0-.44-.09h0a2,2,0,0,0-1.31,3.55h0a1.89,1.89,0,0,0,.39.22,3.94,3.94,0,0,1,2.2,4.76,1.89,1.89,0,0,0-.09.44h0a2,2,0,0,0,3.55,1.31h0a1.89,1.89,0,0,0,.22-.39,3.94,3.94,0,0,1,4.76-2.2,1.89,1.89,0,0,0,.44.09h0a2,2,0,0,0,1.31-3.55h0A1.89,1.89,0,0,0,581.47,814Z" transform="translate(-185 -76.87)" fill="#4d8af0" opacity="0.5" class="NbGMzRJv_20"></path><path d="M969.7,296a3.94,3.94,0,0,1-2.2-4.76,1.89,1.89,0,0,0,.09-.44h0a2,2,0,0,0-3.55-1.31h0a1.89,1.89,0,0,0-.22.39,3.94,3.94,0,0,1-4.76,2.2,1.89,1.89,0,0,0-.44-.09h0a2,2,0,0,0-1.31,3.55h0a1.89,1.89,0,0,0,.39.22,3.94,3.94,0,0,1,2.2,4.76,1.89,1.89,0,0,0-.09.44h0a2,2,0,0,0,3.55,1.31h0a1.89,1.89,0,0,0,.22-.39,3.94,3.94,0,0,1,4.76-2.2,1.89,1.89,0,0,0,.44.09h0a2,2,0,0,0,1.31-3.55h0A1.89,1.89,0,0,0,969.7,296Z" transform="translate(-185 -76.87)" fill="#4d8af0" opacity="0.5" class="NbGMzRJv_21"></path><path d="M205.26,579.8a3.94,3.94,0,0,1-2.2-4.76,1.89,1.89,0,0,0,.09-.44h0a2,2,0,0,0-3.55-1.31h0a1.89,1.89,0,0,0-.22.39,3.94,3.94,0,0,1-4.76,2.2,1.89,1.89,0,0,0-.44-.09h0a2,2,0,0,0-1.31,3.55h0a1.89,1.89,0,0,0,.39.22,3.94,3.94,0,0,1,2.2,4.76,1.89,1.89,0,0,0-.09.44h0a2,2,0,0,0,3.55,1.31h0a1.89,1.89,0,0,0,.22-.39,3.94,3.94,0,0,1,4.76-2.2,1.89,1.89,0,0,0,.44.09h0a2,2,0,0,0,1.31-3.55h0A1.89,1.89,0,0,0,205.26,579.8Z" transform="translate(-185 -76.87)" fill="#4d8af0" opacity="0.5" class="NbGMzRJv_22"></path><path fill="#f55f44" opacity="0.5" d="M0,238.08A6.43,6.43 0,1,1 12.86,238.08A6.43,6.43 0,1,1 0,238.08" class="NbGMzRJv_23"></path><path fill="#4d8af0" opacity="0.5" d="M524.4300000000001,22.52A6.43,6.43 0,1,1 537.29,22.52A6.43,6.43 0,1,1 524.4300000000001,22.52" class="NbGMzRJv_24"></path><path fill="#47e6b1" opacity="0.5" d="M170.51999999999998,6.43A6.43,6.43 0,1,1 183.38,6.43A6.43,6.43 0,1,1 170.51999999999998,6.43" class="NbGMzRJv_25"></path><path fill="#f55f44" opacity="0.5" d="M646.69,691.73A6.43,6.43 0,1,1 659.55,691.73A6.43,6.43 0,1,1 646.69,691.73" class="NbGMzRJv_26"></path><path d="M686.59,566.15a7.62,7.62,0,0,0-10.27,3.25l-.78,1.5-1.78-.93-15.91-8.26-3.46-1.8a3,3,0,0,0-1.57-.33c-15.23-5-27.45,4.63-35.33,19.8h0A49.7,49.7,0,0,0,612,596.06l-.18-.09c-.88,6.25-.06,12.11,3,17.07l.26-.51a24.56,24.56,0,0,0,5.82,6.56,2.32,2.32,0,0,0,1.19,1.52l21.78,11.31-1.66,3.19a7.62,7.62,0,0,0,3.25,10.27h0l5.17-10,26.86,13.95,1.76-3.38,1.76-3.38,2.63-5.07.09,0-6.1,11.74L690.48,656c15.64,8.12,27.59-2.31,36.27-18.47l0-.09.53-1,0,0h0l0-.09h0l0,0,.45-.89,0,0c8.3-16.45,10-32.21-5.72-40.36L709.2,588.5l-7.07,13.62-.09,0,3.61-6.95,1.66-3.19,1.85-3.57L682.3,574.41l4.29-8.26Zm-41,58.08.08.07-.09,0Z" transform="translate(-185 -76.87)" fill="url(#65800a0c-0f7d-440b-866d-d9a2d0291c31)" class="NbGMzRJv_27"></path><path width="57.32" height="28.66" transform="translate(-361.71 855.76) rotate(-62.55)" fill="#4f617d" d="M650.61 597.43 L707.9300000000001 597.43 L707.9300000000001 626.0899999999999 L650.61 626.0899999999999 Z" class="NbGMzRJv_28"></path><path d="M724,634.88l0-.09c-8.21,15.8-19.62,26.25-34.67,18.44l-12.11-6.29L707,589.71,719.1,596C734.15,603.82,732.21,619.08,724,634.88Z" transform="translate(-185 -76.87)" fill="#ff656a" class="NbGMzRJv_29"></path><path d="M724,634.79l0,0,0,0Z" transform="translate(-185 -76.87)" fill="#4a5c81" class="NbGMzRJv_30"></path><path d="M714.65,648.3A55.65,55.65,0,0,0,724,634.84a59.11,59.11,0,0,0,5.17-13.29L724,618.86l-14,27Z" transform="translate(-185 -76.87)" fill="#4a5c81" class="NbGMzRJv_31"></path><path d="M675.15,617.71h37.62a0,0,0,0,1,0,0v1.05a4.32,4.32,0,0,1-4.32,4.32h-29a4.32,4.32,0,0,1-4.32-4.32v-1.05A0,0,0,0,1,675.15,617.71Z" transform="translate(-361.46 873.45) rotate(-62.55)" fill="#4a5c81" class="NbGMzRJv_32"></path><path d="M653.93,599.31h1.4a0,0,0,0,1,0,0v60.9a0,0,0,0,1,0,0h-7.16a0,0,0,0,1,0,0V605.08A5.76,5.76,0,0,1,653.93,599.31Z" transform="translate(-392.52 841.05) rotate(-62.55)" fill="#ff6469" class="NbGMzRJv_33"></path><path d="M674.68,548.27h1.4a5.76,5.76,0,0,1,5.76,5.76v55.14a0,0,0,0,1,0,0h-7.16a0,0,0,0,1,0,0v-60.9A0,0,0,0,1,674.68,548.27Z" transform="translate(-332.93 837.05) rotate(-62.55)" fill="#ff6469" class="NbGMzRJv_34"></path><path d="M673.65,572.28l-29.72,57.23-15-7.77c-16.53-8.59-16.44-24.81-8.24-40.61h0c8.21-15.8,21.43-25.2,38-16.62Z" transform="translate(-185 -76.87)" fill="#ff656a" class="NbGMzRJv_35"></path><path d="M618.18,612.8l6-11.5-8.79-4.56C614.53,602.62,615.31,608.13,618.18,612.8Z" transform="translate(-185 -76.87)" fill="#fff6d5" class="NbGMzRJv_36"></path><path d="M644.89,561.37l-6,11.5-8.79-4.56C634.47,564.24,639.42,561.7,644.89,561.37Z" transform="translate(-185 -76.87)" fill="#fff6d5" class="NbGMzRJv_37"></path><path d="M646.69,633.22h5a0,0,0,0,1,0,0v7.16a0,0,0,0,1,0,0H640.93a0,0,0,0,1,0,0V639A5.76,5.76,0,0,1,646.69,633.22Z" transform="translate(-401.71 840) rotate(-62.55)" fill="#ff6469" class="NbGMzRJv_38"></path><path d="M674.69,568.22h10.75a0,0,0,0,1,0,0v7.16a0,0,0,0,1,0,0h-5a5.76,5.76,0,0,1-5.76-5.76v-1.4A0,0,0,0,1,674.69,568.22Z" transform="translate(1315.95 154.96) rotate(117.45)" fill="#ff6469" class="NbGMzRJv_39"></path><path d="M677.44,580.31l-24.86,47.87L631,608.88a10.15,10.15,0,0,1-2.24-12.24L638,578.86a10.15,10.15,0,0,1,11.35-5.2Z" transform="translate(-185 -76.87)" fill="#53678b" class="NbGMzRJv_40"></path><path d="M653.67,626.5c-10.54-5.47-14.09-19.51-7.93-31.37s19.69-17,30.22-11.55" transform="translate(-185 -76.87)" fill="#658bc8" class="NbGMzRJv_41"></path><path fill="#ff656a" d="M494.16,504.45L469.39,552.14L464.62,549.66L467.98,547.08L488.33,507.91L489.39,501.97L494.16,504.45Z" class="NbGMzRJv_42"></path><path opacity="0.05" d="M494.16,504.45L469.39,552.14L464.62,549.66L467.98,547.08L488.33,507.91L489.39,501.97L494.16,504.45Z" class="NbGMzRJv_43"></path><path width="7.16" height="7.16" transform="translate(-366.06 844.97) rotate(-62.55)" fill="#53678b" d="M664.63 606.36 L671.79 606.36 L671.79 613.52 L664.63 613.52 Z" class="NbGMzRJv_44"></path><path transform="translate(-365.81 848.68) rotate(-62.55)" fill="#53678b" d="M664.24,611.6A7.16,1.79 0,1,1 678.56,611.6A7.16,1.79 0,1,1 664.24,611.6" class="NbGMzRJv_45"></path><path d="M688.86,644.9A12.27,12.27,0,0,0,706.33,641" transform="translate(-185 -76.87)" opacity="0.05" class="NbGMzRJv_46"></path><path d="M711.16,602A12.27,12.27,0,0,1,718,618.52" transform="translate(-185 -76.87)" opacity="0.05" class="NbGMzRJv_47"></path><path d="M633.89,602.21s-1.41-12.84,11.56-22.25" transform="translate(-185 -76.87)" opacity="0.05" class="NbGMzRJv_48"></path><path d="M639.89,605.33s-1.41-12.84,11.56-22.25" transform="translate(-185 -76.87)" opacity="0.05" class="NbGMzRJv_49"></path><path transform="translate(-374.48 830.62) rotate(-62.55)" fill="#4a77be" d="M646.83,609.7A5.37,5.37 0,1,1 657.57,609.7A5.37,5.37 0,1,1 646.83,609.7" class="NbGMzRJv_50"></path><path transform="translate(-354.19 827.4) rotate(-62.55)" fill="#4a77be" d="M656.11,591.39A3.58,3.58 0,1,1 663.2700000000001,591.39A3.58,3.58 0,1,1 656.11,591.39" class="NbGMzRJv_51"></path><path d="M679.67,595.44h1.05a2.16,2.16,0,0,1,2.16,2.16v11.75a2.21,2.21,0,0,1-2.21,2.21h-3.17a0,0,0,0,1,0,0v-14A2.16,2.16,0,0,1,679.67,595.44Z" transform="matrix(-0.2, -0.98, 0.98, -0.2, 38.73, 1313.09)" fill="#cdefff" class="NbGMzRJv_52"></path><path d="M680.15,597.59h5.37a0,0,0,0,1,0,0V604a4.32,4.32,0,0,1-4.32,4.32h-1.05a0,0,0,0,1,0,0V597.59A0,0,0,0,1,680.15,597.59Z" transform="translate(42.41 1315.03) rotate(-101.45)" opacity="0.05" class="NbGMzRJv_53"></path><path d="M672,623.88h9.39a0,0,0,0,1,0,0V635a0,0,0,0,1,0,0H672a4.45,4.45,0,0,1-4.45-4.45v-2.17A4.45,4.45,0,0,1,672,623.88Z" transform="translate(-379.98 861) rotate(-62.55)" fill="#cdefff" class="NbGMzRJv_54"></path><path d="M678.53,633.27l-1.79,3.83c-1.94,3.22-6.64,4.1-10.69,2l-4.7-2.44,2.55-4.92Z" transform="translate(-185 -76.87)" fill="#cdefff" class="NbGMzRJv_55"></path><path d="M657.16,626.1h1.08a2.23,2.23,0,0,1,2.23,2.23v8.85a0,0,0,0,1,0,0h-5.54a0,0,0,0,1,0,0v-8.85A2.23,2.23,0,0,1,657.16,626.1Z" transform="translate(-390.98 847.33) rotate(-62.55)" fill="#cdefff" class="NbGMzRJv_56"></path><path d="M676.92,626a8.27,8.27,0,0,0,5.3.8l.26-.51-9.6-5A8.28,8.28,0,0,0,676.92,626Z" transform="translate(-185 -76.87)" opacity="0.05" class="NbGMzRJv_57"></path><path d="M683.62,601.49H693a0,0,0,0,1,0,0v11.08a0,0,0,0,1,0,0h-9.39a4.45,4.45,0,0,1-4.45-4.45v-2.17a4.45,4.45,0,0,1,4.45-4.45Z" transform="translate(1356.01 201.07) rotate(117.45)" fill="#cdefff" class="NbGMzRJv_58"></path><path d="M684.72,611a8.27,8.27,0,0,1,3.71,3.88l-.26.51-9.6-5A8.28,8.28,0,0,1,684.72,611Z" transform="translate(-185 -76.87)" opacity="0.05" class="NbGMzRJv_59"></path><path transform="translate(-366.56 860.59) rotate(-62.55)" fill="#cdefff" d="M672.5100000000001,618.16A8.31,8.31 0,1,1 689.13,618.16A8.31,8.31 0,1,1 672.5100000000001,618.16" class="NbGMzRJv_60"></path><path transform="translate(-366.9 860.29) rotate(-62.55)" fill="#cdefff" d="M672.1,618.29A8.31,8.31 0,1,1 688.7199999999999,618.29A8.31,8.31 0,1,1 672.1,618.29" class="NbGMzRJv_61"></path><path d="M673,614.46a8.3,8.3,0,0,0,.37,8.3A8.31,8.31,0,0,0,680,610,8.3,8.3,0,0,0,673,614.46Z" transform="translate(-185 -76.87)" fill="#658bc8" class="NbGMzRJv_62"></path><style data-made-with="vivus-instant">.NbGMzRJv_0{stroke-dasharray:2034 2036;stroke-dashoffset:2035;animation:NbGMzRJv_draw 4000ms ease-in-out 0ms forwards;}.NbGMzRJv_1{stroke-dasharray:1985 1987;stroke-dashoffset:1986;animation:NbGMzRJv_draw 4000ms ease-in-out 0ms forwards;}.NbGMzRJv_2{stroke-dasharray:247 249;stroke-dashoffset:248;animation:NbGMzRJv_draw 4000ms ease-in-out 0ms forwards;}.NbGMzRJv_3{stroke-dasharray:247 249;stroke-dashoffset:248;animation:NbGMzRJv_draw 4000ms ease-in-out 0ms forwards;}.NbGMzRJv_4{stroke-dasharray:504 506;stroke-dashoffset:505;animation:NbGMzRJv_draw 4000ms ease-in-out 0ms forwards;}.NbGMzRJv_5{stroke-dasharray:1748 1750;stroke-dashoffset:1749;animation:NbGMzRJv_draw 4000ms ease-in-out 0ms forwards;}.NbGMzRJv_6{stroke-dasharray:872 874;stroke-dashoffset:873;animation:NbGMzRJv_draw 4000ms ease-in-out 0ms forwards;}.NbGMzRJv_7{stroke-dasharray:1058 1060;stroke-dashoffset:1059;animation:NbGMzRJv_draw 4000ms ease-in-out 0ms forwards;}.NbGMzRJv_8{stroke-dasharray:527 529;stroke-dashoffset:528;animation:NbGMzRJv_draw 4000ms ease-in-out 0ms forwards;}.NbGMzRJv_9{stroke-dasharray:455 457;stroke-dashoffset:456;animation:NbGMzRJv_draw 4000ms ease-in-out 0ms forwards;}.NbGMzRJv_10{stroke-dasharray:225 227;stroke-dashoffset:226;animation:NbGMzRJv_draw 4000ms ease-in-out 0ms forwards;}.NbGMzRJv_11{stroke-dasharray:43 45;stroke-dashoffset:44;animation:NbGMzRJv_draw 4000ms ease-in-out 0ms forwards;}.NbGMzRJv_12{stroke-dasharray:43 45;stroke-dashoffset:44;animation:NbGMzRJv_draw 4000ms ease-in-out 0ms forwards;}.NbGMzRJv_13{stroke-dasharray:43 45;stroke-dashoffset:44;animation:NbGMzRJv_draw 4000ms ease-in-out 0ms forwards;}.NbGMzRJv_14{stroke-dasharray:43 45;stroke-dashoffset:44;animation:NbGMzRJv_draw 4000ms ease-in-out 0ms forwards;}.NbGMzRJv_15{stroke-dasharray:43 45;stroke-dashoffset:44;animation:NbGMzRJv_draw 4000ms ease-in-out 0ms forwards;}.NbGMzRJv_16{stroke-dasharray:43 45;stroke-dashoffset:44;animation:NbGMzRJv_draw 4000ms ease-in-out 0ms forwards;}.NbGMzRJv_17{stroke-dasharray:43 45;stroke-dashoffset:44;animation:NbGMzRJv_draw 4000ms ease-in-out 0ms forwards;}.NbGMzRJv_18{stroke-dasharray:43 45;stroke-dashoffset:44;animation:NbGMzRJv_draw 4000ms ease-in-out 0ms forwards;}.NbGMzRJv_19{stroke-dasharray:47 49;stroke-dashoffset:48;animation:NbGMzRJv_draw 4000ms ease-in-out 0ms forwards;}.NbGMzRJv_20{stroke-dasharray:47 49;stroke-dashoffset:48;animation:NbGMzRJv_draw 4000ms ease-in-out 0ms forwards;}.NbGMzRJv_21{stroke-dasharray:47 49;stroke-dashoffset:48;animation:NbGMzRJv_draw 4000ms ease-in-out 0ms forwards;}.NbGMzRJv_22{stroke-dasharray:47 49;stroke-dashoffset:48;animation:NbGMzRJv_draw 4000ms ease-in-out 0ms forwards;}.NbGMzRJv_23{stroke-dasharray:41 43;stroke-dashoffset:42;animation:NbGMzRJv_draw 4000ms ease-in-out 0ms forwards;}.NbGMzRJv_24{stroke-dasharray:41 43;stroke-dashoffset:42;animation:NbGMzRJv_draw 4000ms ease-in-out 0ms forwards;}.NbGMzRJv_25{stroke-dasharray:41 43;stroke-dashoffset:42;animation:NbGMzRJv_draw 4000ms ease-in-out 0ms forwards;}.NbGMzRJv_26{stroke-dasharray:41 43;stroke-dashoffset:42;animation:NbGMzRJv_draw 4000ms ease-in-out 0ms forwards;}.NbGMzRJv_27{stroke-dasharray:434 436;stroke-dashoffset:435;animation:NbGMzRJv_draw 4000ms ease-in-out 0ms forwards;}.NbGMzRJv_28{stroke-dasharray:172 174;stroke-dashoffset:173;animation:NbGMzRJv_draw 4000ms ease-in-out 0ms forwards;}.NbGMzRJv_29{stroke-dasharray:181 183;stroke-dashoffset:182;animation:NbGMzRJv_draw 4000ms ease-in-out 0ms forwards;}.NbGMzRJv_30{stroke-dasharray:0 2;stroke-dashoffset:1;animation:NbGMzRJv_draw 4000ms ease-in-out 0ms forwards;}.NbGMzRJv_31{stroke-dasharray:73 75;stroke-dashoffset:74;animation:NbGMzRJv_draw 4000ms ease-in-out 0ms forwards;}.NbGMzRJv_32{stroke-dasharray:83 85;stroke-dashoffset:84;animation:NbGMzRJv_draw 4000ms ease-in-out 0ms forwards;}.NbGMzRJv_33{stroke-dasharray:134 136;stroke-dashoffset:135;animation:NbGMzRJv_draw 4000ms ease-in-out 0ms forwards;}.NbGMzRJv_34{stroke-dasharray:134 136;stroke-dashoffset:135;animation:NbGMzRJv_draw 4000ms ease-in-out 0ms forwards;}.NbGMzRJv_35{stroke-dasharray:193 195;stroke-dashoffset:194;animation:NbGMzRJv_draw 4000ms ease-in-out 0ms forwards;}.NbGMzRJv_36{stroke-dasharray:40 42;stroke-dashoffset:41;animation:NbGMzRJv_draw 4000ms ease-in-out 0ms forwards;}.NbGMzRJv_37{stroke-dasharray:40 42;stroke-dashoffset:41;animation:NbGMzRJv_draw 4000ms ease-in-out 0ms forwards;}.NbGMzRJv_38{stroke-dasharray:34 36;stroke-dashoffset:35;animation:NbGMzRJv_draw 4000ms ease-in-out 0ms forwards;}.NbGMzRJv_39{stroke-dasharray:34 36;stroke-dashoffset:35;animation:NbGMzRJv_draw 4000ms ease-in-out 0ms forwards;}.NbGMzRJv_40{stroke-dasharray:159 161;stroke-dashoffset:160;animation:NbGMzRJv_draw 4000ms ease-in-out 0ms forwards;}.NbGMzRJv_41{stroke-dasharray:72 74;stroke-dashoffset:73;animation:NbGMzRJv_draw 4000ms ease-in-out 0ms forwards;}.NbGMzRJv_42{stroke-dasharray:119 121;stroke-dashoffset:120;animation:NbGMzRJv_draw 4000ms ease-in-out 0ms forwards;}.NbGMzRJv_43{stroke-dasharray:119 121;stroke-dashoffset:120;animation:NbGMzRJv_draw 4000ms ease-in-out 0ms forwards;}.NbGMzRJv_44{stroke-dasharray:29 31;stroke-dashoffset:30;animation:NbGMzRJv_draw 4000ms ease-in-out 0ms forwards;}.NbGMzRJv_45{stroke-dasharray:31 33;stroke-dashoffset:32;animation:NbGMzRJv_draw 4000ms ease-in-out 0ms forwards;}.NbGMzRJv_46{stroke-dasharray:21 23;stroke-dashoffset:22;animation:NbGMzRJv_draw 4000ms ease-in-out 0ms forwards;}.NbGMzRJv_47{stroke-dasharray:21 23;stroke-dashoffset:22;animation:NbGMzRJv_draw 4000ms ease-in-out 0ms forwards;}.NbGMzRJv_48{stroke-dasharray:27 29;stroke-dashoffset:28;animation:NbGMzRJv_draw 4000ms ease-in-out 0ms forwards;}.NbGMzRJv_49{stroke-dasharray:27 29;stroke-dashoffset:28;animation:NbGMzRJv_draw 4000ms ease-in-out 0ms forwards;}.NbGMzRJv_50{stroke-dasharray:34 36;stroke-dashoffset:35;animation:NbGMzRJv_draw 4000ms ease-in-out 0ms forwards;}.NbGMzRJv_51{stroke-dasharray:23 25;stroke-dashoffset:24;animation:NbGMzRJv_draw 4000ms ease-in-out 0ms forwards;}.NbGMzRJv_52{stroke-dasharray:41 43;stroke-dashoffset:42;animation:NbGMzRJv_draw 4000ms ease-in-out 0ms forwards;}.NbGMzRJv_53{stroke-dasharray:31 33;stroke-dashoffset:32;animation:NbGMzRJv_draw 4000ms ease-in-out 0ms forwards;}.NbGMzRJv_54{stroke-dasharray:47 49;stroke-dashoffset:48;animation:NbGMzRJv_draw 4000ms ease-in-out 0ms forwards;}.NbGMzRJv_55{stroke-dasharray:42 44;stroke-dashoffset:43;animation:NbGMzRJv_draw 4000ms ease-in-out 0ms forwards;}.NbGMzRJv_56{stroke-dasharray:32 34;stroke-dashoffset:33;animation:NbGMzRJv_draw 4000ms ease-in-out 0ms forwards;}.NbGMzRJv_57{stroke-dasharray:24 26;stroke-dashoffset:25;animation:NbGMzRJv_draw 4000ms ease-in-out 0ms forwards;}.NbGMzRJv_58{stroke-dasharray:47 49;stroke-dashoffset:48;animation:NbGMzRJv_draw 4000ms ease-in-out 0ms forwards;}.NbGMzRJv_59{stroke-dasharray:24 26;stroke-dashoffset:25;animation:NbGMzRJv_draw 4000ms ease-in-out 0ms forwards;}.NbGMzRJv_60{stroke-dasharray:53 55;stroke-dashoffset:54;animation:NbGMzRJv_draw 4000ms ease-in-out 0ms forwards;}.NbGMzRJv_61{stroke-dasharray:53 55;stroke-dashoffset:54;animation:NbGMzRJv_draw 4000ms ease-in-out 0ms forwards;}.NbGMzRJv_62{stroke-dasharray:35 37;stroke-dashoffset:36;animation:NbGMzRJv_draw 4000ms ease-in-out 0ms forwards;}@keyframes NbGMzRJv_draw{100%{stroke-dashoffset:0;}}@keyframes NbGMzRJv_fade{0%{stroke-opacity:1;}95.1219512195122%{stroke-opacity:1;}100%{stroke-opacity:0;}}</style></svg>