<svg id="Group_94" data-name="Group 94" xmlns="http://www.w3.org/2000/svg" width="527" height="328.413" viewBox="0 0 527 328.413">
  <circle id="Ellipse_427" data-name="Ellipse 427" cx="119.324" cy="119.324" r="119.324" transform="translate(281.306 53.554)" fill="#f2f2f2"/>
  <circle id="Ellipse_428" data-name="Ellipse 428" cx="45.568" cy="45.568" r="45.568" transform="translate(19.17)" fill="#ff6584"/>
  <circle id="Ellipse_429" data-name="Ellipse 429" cx="119.324" cy="119.324" r="119.324" transform="translate(27.156 6.107)" fill="#f2f2f2"/>
  <ellipse id="Ellipse_430" data-name="Ellipse 430" cx="131.068" cy="7.047" rx="131.068" ry="7.047" transform="translate(9.774 237.238)" fill="#3f3d56"/>
  <ellipse id="Ellipse_431" data-name="Ellipse 431" cx="98.184" cy="4.86" rx="98.184" ry="4.86" transform="translate(16.351 239.668)" opacity="0.1"/>
  <ellipse id="Ellipse_432" data-name="Ellipse 432" cx="131.068" cy="7.751" rx="131.068" ry="7.751" transform="translate(264.864 285.625)" fill="#3f3d56"/>
  <ellipse id="Ellipse_433" data-name="Ellipse 433" cx="98.184" cy="5.346" rx="98.184" ry="5.346" transform="translate(271.441 288.298)" opacity="0.1"/>
  <ellipse id="Ellipse_434" data-name="Ellipse 434" cx="83.641" cy="4.228" rx="83.641" ry="4.228" transform="translate(104.695 271.062)" fill="#3f3d56"/>
  <ellipse id="Ellipse_435" data-name="Ellipse 435" cx="40.355" cy="2.04" rx="40.355" ry="2.04" transform="translate(0 259.157)" fill="#3f3d56"/>
  <ellipse id="Ellipse_436" data-name="Ellipse 436" cx="75.108" cy="3.797" rx="75.108" ry="3.797" transform="translate(372.557 320.82)" fill="#3f3d56"/>
  <rect id="Rectangle_581" data-name="Rectangle 581" width="150.329" height="89.258" transform="translate(289.292 203.414)" fill="#3f3d56"/>
  <circle id="Ellipse_437" data-name="Ellipse 437" cx="33.824" cy="33.824" r="33.824" transform="translate(303.855 215.158)" fill="#6c63ff"/>
  <rect id="Rectangle_582" data-name="Rectangle 582" width="11.275" height="11.275" transform="translate(381.839 217.507)" fill="#6c63ff"/>
  <rect id="Rectangle_583" data-name="Rectangle 583" width="11.275" height="11.275" transform="translate(395.932 217.507)" fill="#6c63ff" opacity="0.5"/>
  <rect id="Rectangle_584" data-name="Rectangle 584" width="11.275" height="11.275" transform="translate(410.025 217.507)" fill="#6c63ff" opacity="0.2"/>
  <rect id="Rectangle_585" data-name="Rectangle 585" width="11.275" height="11.275" transform="translate(381.839 231.601)" fill="#2f2e41"/>
  <rect id="Rectangle_586" data-name="Rectangle 586" width="11.275" height="11.275" transform="translate(395.932 231.601)" fill="#2f2e41" opacity="0.5"/>
  <rect id="Rectangle_587" data-name="Rectangle 587" width="11.275" height="11.275" transform="translate(410.025 231.601)" fill="#2f2e41" opacity="0.2"/>
  <rect id="Rectangle_588" data-name="Rectangle 588" width="11.275" height="11.275" transform="translate(381.839 245.694)" fill="#ff6584"/>
  <rect id="Rectangle_589" data-name="Rectangle 589" width="11.275" height="11.275" transform="translate(395.932 245.694)" fill="#ff6584" opacity="0.5"/>
  <rect id="Rectangle_590" data-name="Rectangle 590" width="11.275" height="11.275" transform="translate(410.025 245.694)" fill="#ff6584" opacity="0.2"/>
  <path id="Path_1957" data-name="Path 1957" d="M757.9,558.459v67.648c18.68,0,34.764-15.144,34.764-33.824S776.583,558.459,757.9,558.459Z" transform="translate(-420.224 -343.301)" fill="#3f3d56" opacity="0.5"/>
  <path id="Path_1958" data-name="Path 1958" d="M1012.042,546.959s19.731,8.926,12.684,19.261-28.187,30.066-28.656,34.294a18.771,18.771,0,0,1-3.289,7.986s-9.4-9.865-8.456-10.8,10.335-9.865,10.805-12.214,14.563-20.67,14.563-20.67l-12.684-11.275Z" transform="translate(-540.243 -337.203)" fill="#ffb9b9"/>
  <path id="Path_1959" data-name="Path 1959" d="M1012.042,546.959s19.731,8.926,12.684,19.261-28.187,30.066-28.656,34.294a18.771,18.771,0,0,1-3.289,7.986s-9.4-9.865-8.456-10.8,10.335-9.865,10.805-12.214,14.563-20.67,14.563-20.67l-12.684-11.275Z" transform="translate(-540.243 -337.203)" opacity="0.1"/>
  <path id="Path_1960" data-name="Path 1960" d="M990.4,581.006s13.624,5.637,12.684,14.563,16.442,34.294,16.442,34.294,1.879,6.107,1.409,7.986,12.214,1.409,12.214,1.409V635.03s-9.865-16.912-10.8-21.61-6.577-23.019-6.577-23.019-1.879-16.442-11.275-16.442a17.616,17.616,0,0,0-14.093,7.047Z" transform="translate(-543.5 -351.519)" fill="#ffb9b9"/>
  <path id="Path_1961" data-name="Path 1961" d="M982.159,498.459s28.187,23.019,27.247,24.9-14.563,8.926-16.912,9.4-18.969-34.294-18.969-34.294Z" transform="translate(-534.551 -311.487)" fill="#2f2e41"/>
  <path id="Path_1962" data-name="Path 1962" d="M982.159,498.459s28.187,23.019,27.247,24.9-14.563,8.926-16.912,9.4-18.969-34.294-18.969-34.294Z" transform="translate(-534.551 -311.487)" opacity="0.1"/>
  <path id="Path_1963" data-name="Path 1963" d="M926.319,502.568s-2.819,12.684,4.7,17.852,20.2,25.368,21.61,25.368,21.61-10.8,20.67-12.684-11.275-18.321-11.275-18.321L958.733,497.4S930.077,496.461,926.319,502.568Z" transform="translate(-509.247 -310.898)" fill="#2f2e41"/>
  <path id="Path_1964" data-name="Path 1964" d="M991.9,420.459l4.228,27.247,7.517,19.261s11.275,11.744,4.7,12.684-10.335-12.684-10.335-12.684L991.9,455.692Z" transform="translate(-544.296 -270.13)" fill="#ffb9b9"/>
  <path id="Path_1965" data-name="Path 1965" d="M991.9,420.459l4.228,27.247,7.517,19.261s11.275,11.744,4.7,12.684-10.335-12.684-10.335-12.684L991.9,455.692Z" transform="translate(-544.296 -270.13)" opacity="0.1"/>
  <path id="Path_1966" data-name="Path 1966" d="M954.2,355.959s0,9.865-3.288,10.8,13.154,13.624,13.154,13.624-1.879-16.442,4.7-20.67Z" transform="translate(-522.331 -235.931)" fill="#ffb9b9"/>
  <path id="Path_1967" data-name="Path 1967" d="M954.2,355.959s0,9.865-3.288,10.8,13.154,13.624,13.154,13.624-1.879-16.442,4.7-20.67Z" transform="translate(-522.331 -235.931)" opacity="0.1"/>
  <circle id="Ellipse_438" data-name="Ellipse 438" cx="10.805" cy="10.805" r="10.805" transform="translate(428.581 106.405)" fill="#ffb9b9"/>
  <path id="Path_1968" data-name="Path 1968" d="M945.906,384.689s-9.865-12.214-11.275-11.744-11.745,10.8-12.684,14.093-2.819,26.777-1.409,31.475,1.409,16.912.94,17.852-3.288,3.288-.47,3.288,12.684-7.047,19.261-5.637,15.5-.47,15.973-1.409-.47-25.368,0-27.247-.94-11.275-1.409-13.154-.47-9.4-5.168-11.275l-2-.2-.112,4.647Z" transform="translate(-506.05 -244.93)" fill="#6c63ff"/>
  <path id="Path_1969" data-name="Path 1969" d="M931.4,449.959s.939,14.563,7.986,20.67,22.079,16.442,23.019,18.321,9.865,11.745,11.745,7.516a7.03,7.03,0,0,0,.377-4.165,10.36,10.36,0,0,0-4.652-6.771l-4.18-2.687-20.67-21.61-.94-11.275Z" transform="translate(-512.217 -285.772)" fill="#ffb9b9"/>
  <path id="Path_1970" data-name="Path 1970" d="M980.091,651.229s-5.4-1.174-7.282,2.114,1.879,12.214,1.879,12.214,10.8,22.549,12.684,19.731-1.409-13.154-1.409-13.154,4.7-10.335,2.819-10.8S980.091,656.866,980.091,651.229Z" transform="translate(-533.893 -392.381)" fill="#2f2e41"/>
  <path id="Path_1971" data-name="Path 1971" d="M1053.915,704.717s-2.819-1.409-3.289,0-3.288,8.456,0,9.4,35.7,1.879,34.764,0-6.107-4.228-9.4-5.168-11.744-7.986-11.744-7.986S1059.552,707.066,1053.915,704.717Z" transform="translate(-574.598 -418.857)" fill="#2f2e41"/>
  <path id="Path_1972" data-name="Path 1972" d="M967.994,318.85a2.893,2.893,0,0,0-1.255-1.638,6.638,6.638,0,0,0-.265-2.162c-.69-2.041-2.326-1.924-3.869-2.826-.669-.391-.628-.738-.977-1.381a5.123,5.123,0,0,0-1.974-2.014,7.1,7.1,0,0,0-3.206-1.36c-2.461-.168-4.348,2.147-6.7,2.89-1.037.327-2.151.341-3.193.65a2.937,2.937,0,0,0-2.237,2.125c-.072.5.055,1.007-.018,1.5-.145.987-1.011,1.679-1.59,2.491a6.136,6.136,0,0,0-.11,6.286,8.831,8.831,0,0,0,.739,1.157,7.117,7.117,0,0,0,.781,2.643,13.172,13.172,0,0,0,4.633,4.626,10.937,10.937,0,0,1-.273-1.973,1.36,1.36,0,0,1,.084-.654c.205-.429.748-.543,1.161-.778a2.934,2.934,0,0,0,1.217-2.549c.025-.985-.184-1.971-.081-2.951a1.612,1.612,0,0,1,.552-1.186,1.907,1.907,0,0,1,1.041-.248,11.747,11.747,0,0,0,5.136-.934,7.613,7.613,0,0,1,1.6-.809,3.4,3.4,0,0,1,3.418,1.707c.758,1.128,1.136,2.471,1.836,3.637a3.694,3.694,0,0,0,3.26,2.067.541.541,0,0,0,.4-.18.606.606,0,0,0,.074-.344l.076-5.17A7.814,7.814,0,0,0,967.994,318.85Z" transform="translate(-517.724 -210.215)" fill="#2f2e41"/>
  <path id="Path_1973" data-name="Path 1973" d="M931.729,398.959s10.335,4.7,9.865,14.563,2.819,10.8-5.168,11.744-9.865,0-10.335.94-3.288-21.61-1.409-23.959S931.729,398.959,931.729,398.959Z" transform="translate(-508.315 -258.73)" fill="#6c63ff"/>
  <circle id="Ellipse_439" data-name="Ellipse 439" cx="15.033" cy="15.033" r="15.033" transform="translate(200.504 30.536)" fill="#2f2e41"/>
  <path id="Path_1974" data-name="Path 1974" d="M505.153,547.959,496.7,570.978s-7.047,5.637-2.819,7.517,12.684-1.879,12.684-1.879l6.577-16.912-.94-11.745Z" transform="translate(-279.516 -337.733)" fill="#2f2e41"/>
  <path id="Path_1975" data-name="Path 1975" d="M505.153,547.959,496.7,570.978s-7.047,5.637-2.819,7.517,12.684-1.879,12.684-1.879l6.577-16.912-.94-11.745Z" transform="translate(-279.516 -337.733)" opacity="0.1"/>
  <path id="Path_1976" data-name="Path 1976" d="M517.3,257.459l7.047.94s3.288,25.838,1.879,27.717-8.456,9.4-11.275,7.516S517.3,257.459,517.3,257.459Z" transform="translate(-290.96 -183.704)" fill="#575a89"/>
  <path id="Path_1977" data-name="Path 1977" d="M360.848,357.959s-9.865,4.228-11.744,4.7-4.7,5.168-1.409,6.107,15.973-8.456,15.973-8.456Z" transform="translate(-201.92 -236.991)" fill="#a0616a"/>
  <path id="Path_1978" data-name="Path 1978" d="M526.4,564.38l5.168,19.261s.47,7.047,2.819,7.516,9.4-2.349,9.4-3.288-2.819-8.456-2.819-8.456,0-5.637-2.819-7.986-5.358-10.218-5.358-10.218Z" transform="translate(-297.477 -344.759)" fill="#2f2e41"/>
  <path id="Path_1979" data-name="Path 1979" d="M517.6,424.648c.949,2.213.831,18.265-.207,28.948-.5,5.191-1.222,9.114-2.142,9.574l-6.732-1.682-2.664-.667-.07-5.844-.4-32.208L497.4,389.415v-8.456l20.2,1.879,3.2,5.031.084.136S516.194,421.36,517.6,424.648Z" transform="translate(-282.101 -249.186)" fill="#2f2e41"/>
  <path id="Path_1980" data-name="Path 1980" d="M513.375,434.984c1.005,1.508,2.682,10.537,4.021,18.613-.5,5.191-1.222,9.114-2.142,9.574l-6.732-1.682c-.1-.216-.207-.442-.315-.667-.86-1.8-1.668-3.8-2.419-5.844l-.4-32.208L497.4,389.415v-8.456l20.2,1.879,3.2,5.031L502.1,386.6l4.228,18.321,5.168,19.261S511.5,432.165,513.375,434.984Z" transform="translate(-282.101 -249.186)" opacity="0.1"/>
  <path id="Path_1981" data-name="Path 1981" d="M457.877,334.066S451.3,348.629,460.7,368.83a410.633,410.633,0,0,1,15.5,38.522s3.288,15.5,7.986,25.368,3.758,10.335,3.758,10.335l7.516-4.228s-4.228-29.126-6.107-31.945-1.879-10.8-1.879-10.8l-5.168-19.261-4.228-18.321,20.67,1.409s0-26.777-9.4-31.945Z" transform="translate(-259.957 -221.084)" fill="#2f2e41"/>
  <path id="Path_1982" data-name="Path 1982" d="M464.58,212.459s0,7.516-2.349,7.986-7.047.47-8.456,2.819,10.8,33.354,10.8,33.354l12.684-7.986,4.228-21.14s-6.107-3.758-6.107-5.637V213.4Z" transform="translate(-258.908 -159.844)" fill="#a0616a"/>
  <path id="Path_1983" data-name="Path 1983" d="M464.58,212.459s0,7.516-2.349,7.986-7.047.47-8.456,2.819,10.8,33.354,10.8,33.354l12.684-7.986,4.228-21.14s-6.107-3.758-6.107-5.637V213.4Z" transform="translate(-258.908 -159.844)" opacity="0.1"/>
  <circle id="Ellipse_440" data-name="Ellipse 440" cx="11.275" cy="11.275" r="11.275" transform="translate(201.679 38.287)" fill="#a0616a"/>
  <path id="Path_1984" data-name="Path 1984" d="M452.331,256.236s-4.228-26.777-5.168-26.777-14.093,2.819-15.033,3.288-4.228,4.7-4.228,4.7l6.577,18.791s2.819,13.154,4.7,15.5,5.637,8.926,3.758,9.865-3.758,2.349-1.879,2.349,17.382-2.819,18.321-1.409,16.442-5.168,16.442-5.637-1.879-22.549-1.879-22.549l4.7-10.8-14.093-9.865Z" transform="translate(-245.25 -168.858)" fill="#575a89"/>
  <path id="Path_1985" data-name="Path 1985" d="M403.969,241.459l-4.7,2.349s-13.154,30.066-14.093,30.536-5.637,9.4-6.107,11.275-1.409,7.986-2.819,8.926a24.411,24.411,0,0,1-2.349,1.409s2.819,4.7,4.228,4.7,6.107-6.577,6.107-6.577,10.335,6.577,13.154,1.409,9.865-38.052,9.865-38.052Z" transform="translate(-216.618 -175.22)" fill="#575a89"/>
  <path id="Path_1986" data-name="Path 1986" d="M503.476,255.879s-6.577-15.972-10.335-14.093,2.819,13.154,7.047,15.033Z" transform="translate(-279.249 -175.312)" fill="#a0616a"/>
  <path id="Path_1987" data-name="Path 1987" d="M497.929,271.277l6.591-1.49,1.4,7.127s6.107,10.8,4.7,15.5-9.865,12.214-12.684,7.986-5.168-10.8-3.288-14.563S499.339,273.156,497.929,271.277Z" transform="translate(-280.278 -190.241)" opacity="0.1"/>
  <path id="Path_1988" data-name="Path 1988" d="M500.929,269.277l6.591-1.49,1.395,7.127s6.107,10.8,4.7,15.5-9.865,12.214-12.684,7.986-5.168-10.8-3.288-14.563S502.339,271.156,500.929,269.277Z" transform="translate(-281.869 -189.18)" fill="#575a89"/>
  <ellipse id="Ellipse_441" data-name="Ellipse 441" cx="5.402" cy="11.275" rx="5.402" ry="11.275" transform="translate(203.505 42.624) rotate(-64.899)" fill="#2f2e41"/>
  <circle id="Ellipse_442" data-name="Ellipse 442" cx="6.577" cy="6.577" r="6.577" transform="translate(217.886 26.308)" fill="#2f2e41"/>
  <path id="Path_1989" data-name="Path 1989" d="M502.3,158.036a6.577,6.577,0,0,1,5.871-6.538,6.577,6.577,0,1,0,0,13.076A6.577,6.577,0,0,1,502.3,158.036Z" transform="translate(-283.945 -127.5)" fill="#2f2e41"/>
  <rect id="Rectangle_591" data-name="Rectangle 591" width="164.422" height="114.156" transform="translate(30.444 130.129)" fill="#3f3d56"/>
  <rect id="Rectangle_592" data-name="Rectangle 592" width="21.61" height="21.61" transform="translate(43.598 141.403)" fill="#f2f2f2"/>
  <rect id="Rectangle_593" data-name="Rectangle 593" width="21.61" height="21.61" transform="translate(43.598 176.637)" fill="#6c63ff"/>
  <rect id="Rectangle_594" data-name="Rectangle 594" width="21.61" height="21.61" transform="translate(43.598 211.87)" fill="#f2f2f2"/>
  <rect id="Rectangle_595" data-name="Rectangle 595" width="102.881" height="1.879" transform="translate(75.543 148.215)" fill="#f2f2f2"/>
  <rect id="Rectangle_596" data-name="Rectangle 596" width="31.945" height="1.879" transform="translate(75.543 154.322)" fill="#f2f2f2"/>
  <rect id="Rectangle_597" data-name="Rectangle 597" width="102.881" height="1.879" transform="translate(75.543 183.448)" fill="#f2f2f2"/>
  <rect id="Rectangle_598" data-name="Rectangle 598" width="31.945" height="1.879" transform="translate(75.543 189.555)" fill="#f2f2f2"/>
  <rect id="Rectangle_599" data-name="Rectangle 599" width="102.881" height="1.879" transform="translate(75.543 218.682)" fill="#f2f2f2"/>
  <rect id="Rectangle_600" data-name="Rectangle 600" width="31.945" height="1.879" transform="translate(75.543 224.789)" fill="#f2f2f2"/>
  <path id="Path_1990" data-name="Path 1990" d="M1000.238,744.869c0,9.563-5.684,12.9-12.7,12.9-.162,0-.325,0-.486-.006-.325-.007-.648-.022-.965-.044-6.329-.448-11.246-3.958-11.246-12.852,0-9.2,11.759-20.815,12.645-21.676h0l.051-.05S1000.238,735.307,1000.238,744.869Z" transform="translate(-535.25 -430.619)" fill="#6c63ff"/>
  <path id="Path_1991" data-name="Path 1991" d="M995.13,756.308l4.644-6.488-4.656,7.2-.012.745c-.325-.007-.647-.022-.965-.044l.5-9.566,0-.075.008-.013.048-.9-4.667-7.219,4.682,6.541.012.192.377-7.228-4-7.459,4.045,6.191.394-14.987v0l-.065,11.817,3.978-4.685-3.994,5.7-.105,6.472,3.715-6.211-3.73,7.164-.058,3.6,5.391-8.646-5.412,9.9Z" transform="translate(-543.301 -430.619)" fill="#3f3d56"/>
  <path id="Path_1992" data-name="Path 1992" d="M123.241,605.869c0,9.563-5.684,12.9-12.7,12.9-.162,0-.325,0-.486-.006-.325-.007-.647-.022-.965-.044-6.329-.448-11.246-3.958-11.246-12.852,0-9.2,11.759-20.815,12.645-21.676h0l.051-.05S123.241,596.307,123.241,605.869Z" transform="translate(-70.247 -356.918)" fill="#6c63ff"/>
  <path id="Path_1993" data-name="Path 1993" d="M118.13,617.308l4.644-6.488-4.656,7.2-.012.744c-.325-.007-.647-.022-.965-.044l.5-9.566,0-.075.008-.013.048-.9-4.668-7.219,4.682,6.541.012.192.377-7.228-4-7.459,4.045,6.191.394-14.987v0l-.065,11.817,3.978-4.685-3.994,5.7-.105,6.472,3.715-6.211-3.73,7.164-.058,3.6,5.391-8.646-5.412,9.9Z" transform="translate(-78.296 -356.918)" fill="#3f3d56"/>
</svg>
