<svg id="Component_15_1" data-name="Component 15 – 1" xmlns="http://www.w3.org/2000/svg" width="292.304" height="165.363" viewBox="0 0 292.304 165.363">
  <defs>
    <style>
      .cls-1, .cls-11, .cls-6 {
        fill: #6c63ff;
      }

      .cls-1, .cls-3 {
        opacity: 0.1;
      }

      .cls-2 {
        fill: #d0d2d5;
      }

      .cls-4 {
        fill: #3f3d56;
      }

      .cls-5 {
        fill: #fff;
      }

      .cls-7 {
        fill: #e6e8ec;
      }

      .cls-8 {
        fill: #393859;
      }

      .cls-9 {
        fill: #a0616a;
      }

      .cls-10 {
        fill: #ff6f61;
      }

      .cls-11 {
        opacity: 0.3;
      }
    </style>
  </defs>
  <ellipse id="Ellipse_174" data-name="Ellipse 174" class="cls-1" cx="146.152" cy="9.187" rx="146.152" ry="9.187" transform="translate(0 146.99)"/>
  <path id="Path_1034" data-name="Path 1034" class="cls-2" d="M368.505,490.644,318.9,490.01l.148-1.272,2.4-20.987h43.564l3.2,20.987.245,1.59Z" transform="translate(-230.123 -337.538)"/>
  <path id="Path_1035" data-name="Path 1035" class="cls-3" d="M368.458,544.73H343.7l-24.8-.317.148-1.272h49.166Z" transform="translate(-230.123 -391.941)"/>
  <rect id="Rectangle_356" data-name="Rectangle 356" class="cls-2" width="65.824" height="1.59" transform="translate(80.509 151.516)"/>
  <path id="Path_1036" data-name="Path 1036" class="cls-4" d="M328.383,157.156a4.14,4.14,0,0,0-4.12-4.156H140.44a4.14,4.14,0,0,0-4.12,4.159V268.585H328.383Z" transform="translate(-119.249 -153)"/>
  <path id="Path_1037" data-name="Path 1037" class="cls-2" d="M136.32,564.2v13.051a4.12,4.12,0,0,0,4.12,4.12H324.263a4.12,4.12,0,0,0,4.12-4.12V564.2Z" transform="translate(-119.249 -449.728)"/>
  <rect id="Rectangle_357" data-name="Rectangle 357" class="cls-5" width="177.117" height="100.166" transform="translate(25.021 6.993)"/>
  <path id="Path_1038" data-name="Path 1038" class="cls-6" d="M473.6,585.817a4.3,4.3,0,0,0,3.377-1.637h0a4.465,4.465,0,0,0,.334-.49l-2.358-.4,2.547.019a4.3,4.3,0,0,0,.081-3.4l-3.416,1.771,3.151-2.316a4.293,4.293,0,1,0-7.09,4.8h0A4.3,4.3,0,0,0,473.6,585.817Z" transform="translate(-359.541 -459.127)"/>
  <path id="Path_1039" data-name="Path 1039" class="cls-3" d="M425.13,472.89l19.79,19.874-3.037-19.874Z" transform="translate(-306.78 -341.247)"/>
  <path id="Path_1040" data-name="Path 1040" class="cls-1" d="M379.8,261.436a.406.406,0,0,0,0-.058,15.391,15.391,0,0,0-.74-4.056c-.025-.075-.047-.15-.075-.223a15.451,15.451,0,0,0-26.171-5.289,21.859,21.859,0,0,0-1.233-4.321,69.162,69.162,0,0,1-12.249.457,49.456,49.456,0,0,0,7.77,2.823l-.095.354a49.757,49.757,0,0,1-8.683-3.249l-.835-.406.935.061a69.522,69.522,0,0,0,13.034-.376,22.04,22.04,0,0,0-3.842-6.1,65.663,65.663,0,0,1-20.456-5.094l.15-.331a64.575,64.575,0,0,0,19.935,5.011,21.889,21.889,0,0,0-34.8,3.7,30.079,30.079,0,0,0-7.472-16.892,70.256,70.256,0,0,1-29.581,4.927,49.526,49.526,0,0,0,7.767,2.823l-.095.351a49.832,49.832,0,0,1-8.683-3.246l-.835-.409.933.061a69.29,69.29,0,0,0,30.238-4.785c-.359-.4-.732-.782-1.114-1.161-11.987.242-25.041.125-36.858-4.176a30.144,30.144,0,0,0-14.309,25.659c0,5.657,1.553,13.438,4.259,21.244a90.637,90.637,0,0,0,4.248,10.231c.835,1.67,1.7,3.313,2.628,4.877h0a55.287,55.287,0,0,0,3.664,5.487c.239.315.482.624.724.924a33.507,33.507,0,0,0,4.571,4.733h0q.507.423,1.022.807a19.345,19.345,0,0,0,2.931,1.807A13.456,13.456,0,0,0,282,299.1h.457v.064H364.3V299.1h.061a4.1,4.1,0,0,0,1.392-.245c2.9-1.027,5.568-5.15,7.775-10.359.49-1.155.958-2.363,1.392-3.605.393-1.094.766-2.227,1.114-3.341a103.457,103.457,0,0,0,2.575-10.055,52.969,52.969,0,0,0,1.211-9.376C379.818,261.9,379.818,261.667,379.8,261.436Z" transform="translate(-203.043 -202.669)"/>
  <path id="Path_1041" data-name="Path 1041" class="cls-1" d="M341.374,214a30.035,30.035,0,0,0-36.084-4.067C316.854,214.076,329.618,214.23,341.374,214Z" transform="translate(-241.181 -191.035)"/>
  <path id="Path_1042" data-name="Path 1042" class="cls-1" d="M608.291,419.816l-12.63-21.878a.4.4,0,0,0-.7,0l-12.63,21.878a.4.4,0,0,0,.348.6h3.769a.406.406,0,0,1,.4.4V425.5a.4.4,0,0,0,.4.4h4.916a.4.4,0,0,0,.4-.4V423.24a.4.4,0,0,1,.4-.4h4.674a.4.4,0,0,1,.4.4V425.5a.4.4,0,0,0,.4.4h4.9a.4.4,0,0,0,.381-.278.371.371,0,0,0,.022-.128v-4.671a.4.4,0,0,1,.4-.4h3.767a.4.4,0,0,0,.359-.6Zm-17.611,2.419a.39.39,0,0,1-.278.12h-1.773a.4.4,0,0,1-.4-.4.409.409,0,0,1,.4-.4H590.4a.4.4,0,0,1,.4.4A.39.39,0,0,1,590.681,422.235Zm11.6,0a.39.39,0,0,1-.278.12h-1.773a.4.4,0,0,1-.278-.688.39.39,0,0,1,.278-.12h1.773a.4.4,0,0,1,.4.4A.39.39,0,0,1,602.284,422.235Z" transform="translate(-441.06 -329.605)"/>
  <path id="Path_1043" data-name="Path 1043" class="cls-1" d="M332.449,420.512l-12.63-21.878a.4.4,0,0,0-.7,0L308.21,417.522a33.378,33.378,0,0,0,4.571,4.733h1.773a.4.4,0,0,1,.4.4.409.409,0,0,1-.4.4h-.749a19.545,19.545,0,0,0,2.926,1.818v-.955a.4.4,0,0,1,.4-.4h4.674a.4.4,0,0,1,.4.4v2.255a.421.421,0,0,0,.036.17.4.4,0,0,0,.367.234h4.916a.393.393,0,0,0,.32-.161.4.4,0,0,0,.081-.242v-4.66a.4.4,0,0,1,.4-.4h3.758a.4.4,0,0,0,.356-.6Zm-8.352,1.851a.4.4,0,0,1,.278-.12h1.771a.4.4,0,1,1,0,.807h-1.771a.4.4,0,0,1-.276-.688Zm-7.934-8.1a.4.4,0,0,1-.4-.4V410.8a.4.4,0,0,1,.4-.4h6.609a.4.4,0,0,1,.4.4v3.062a.4.4,0,0,1-.4.4Z" transform="translate(-243.288 -330.11)"/>
  <path id="Path_1044" data-name="Path 1044" class="cls-1" d="M447.012,315.059H431.381v-3.382a.807.807,0,0,0-.807-.807h-4.591v-3.6a.507.507,0,0,0-.509-.507h-5.918a.509.509,0,0,0-.509.507v3.6h-5.39a.807.807,0,0,0-.807.807v3.38h-14.9a.161.161,0,0,0-.164.164V360.1a.161.161,0,0,0,.164.164h9.919a.161.161,0,0,0,.164-.164v-6.033a.167.167,0,0,1,.164-.167h4.176a.167.167,0,0,1,.164.167V360.1a.161.161,0,0,0,.164.164h19.576a.164.164,0,0,0,.164-.164v-6.035a.164.164,0,0,1,.161-.167h4.176a.164.164,0,0,1,.164.167V360.1a.164.164,0,0,0,.164.164h9.908a.164.164,0,0,0,.164-.164V315.223a.164.164,0,0,0-.162-.164ZM406.24,351.805a.161.161,0,0,1-.164.164h-6.124a.161.161,0,0,1-.164-.164v-2.088a.164.164,0,0,1,.164-.167h6.124a.164.164,0,0,1,.164.167Zm0-5.4a.164.164,0,0,1-.164.164h-6.124a.164.164,0,0,1-.164-.164v-2.091a.164.164,0,0,1,.164-.164h6.124a.164.164,0,0,1,.164.164Zm0-5.4a.161.161,0,0,1-.164.164h-6.124a.161.161,0,0,1-.164-.164v-2.088a.161.161,0,0,1,.164-.164h6.124a.161.161,0,0,1,.164.164Zm0-5.4a.162.162,0,0,1-.164.164h-6.124a.161.161,0,0,1-.164-.164v-2.088a.161.161,0,0,1,.164-.164h6.124a.161.161,0,0,1,.164.164Zm0-5.4a.164.164,0,0,1-.164.164h-6.124a.164.164,0,0,1-.161-.164V328.12a.164.164,0,0,1,.164-.164h6.124a.164.164,0,0,1,.164.164Zm0-5.4a.161.161,0,0,1-.164.164h-6.124a.161.161,0,0,1-.164-.164v-2.088a.161.161,0,0,1,.164-.164h6.124a.161.161,0,0,1,.164.164Zm0-5.4a.162.162,0,0,1-.164.164h-6.124a.161.161,0,0,1-.164-.164v-2.088a.161.161,0,0,1,.164-.164h6.124a.161.161,0,0,1,.164.164Zm14.5,32.393a.161.161,0,0,1-.164.164h-6.124a.161.161,0,0,1-.164-.164v-2.088a.164.164,0,0,1,.164-.167h6.124a.164.164,0,0,1,.164.167Zm0-5.4a.164.164,0,0,1-.164.164h-6.124a.164.164,0,0,1-.164-.164v-2.091a.164.164,0,0,1,.164-.164h6.124a.164.164,0,0,1,.164.164Zm0-5.4a.161.161,0,0,1-.164.164h-6.124a.161.161,0,0,1-.164-.164v-2.088a.161.161,0,0,1,.164-.164h6.124a.161.161,0,0,1,.164.164Zm0-5.4a.162.162,0,0,1-.164.164h-6.124a.161.161,0,0,1-.164-.164v-2.088a.161.161,0,0,1,.164-.164h6.124a.161.161,0,0,1,.164.164Zm0-5.4a.164.164,0,0,1-.164.164h-6.124a.164.164,0,0,1-.164-.164V328.12a.164.164,0,0,1,.164-.164h6.124a.164.164,0,0,1,.164.164Zm0-5.4a.161.161,0,0,1-.164.164h-6.124a.161.161,0,0,1-.164-.164v-2.088a.161.161,0,0,1,.164-.164h6.124a.161.161,0,0,1,.164.164Zm0-5.4a.161.161,0,0,1-.164.164h-6.124a.161.161,0,0,1-.164-.164v-2.088a.161.161,0,0,1,.164-.164h6.124a.161.161,0,0,1,.164.164Zm9.913,32.393a.164.164,0,0,1-.164.164h-6.124a.164.164,0,0,1-.164-.164v-2.088a.167.167,0,0,1,.164-.167h6.124a.167.167,0,0,1,.164.167Zm0-5.4a.167.167,0,0,1-.164.164h-6.124a.167.167,0,0,1-.164-.164v-2.091a.167.167,0,0,1,.164-.164h6.124a.167.167,0,0,1,.164.164Zm0-5.4a.164.164,0,0,1-.164.164h-6.124a.164.164,0,0,1-.164-.164v-2.088a.164.164,0,0,1,.164-.164h6.124a.164.164,0,0,1,.164.164Zm0-5.4a.164.164,0,0,1-.164.164h-6.124a.164.164,0,0,1-.164-.164v-2.088a.164.164,0,0,1,.164-.164h6.124a.164.164,0,0,1,.164.164Zm0-5.4a.167.167,0,0,1-.164.164h-6.124a.167.167,0,0,1-.164-.164V328.12a.167.167,0,0,1,.164-.164h6.124a.167.167,0,0,1,.164.164Zm0-5.4a.164.164,0,0,1-.164.164h-6.124a.164.164,0,0,1-.164-.164v-2.088a.164.164,0,0,1,.164-.164h6.124a.164.164,0,0,1,.164.164Zm0-5.4a.164.164,0,0,1-.164.164h-6.124a.164.164,0,0,1-.164-.164v-2.088a.164.164,0,0,1,.164-.164h6.124a.164.164,0,0,1,.164.164ZM445.167,351.8a.164.164,0,0,1-.164.164h-6.124a.162.162,0,0,1-.164-.164v-2.088a.164.164,0,0,1,.164-.167H445a.167.167,0,0,1,.164.167Zm0-5.4a.167.167,0,0,1-.164.164h-6.125a.164.164,0,0,1-.164-.164v-2.091a.164.164,0,0,1,.164-.164H445a.167.167,0,0,1,.164.164Zm0-5.4a.164.164,0,0,1-.164.164h-6.124a.161.161,0,0,1-.164-.164v-2.088a.162.162,0,0,1,.164-.164H445a.164.164,0,0,1,.164.164Zm0-5.4a.164.164,0,0,1-.164.164h-6.124a.162.162,0,0,1-.164-.164v-2.088a.162.162,0,0,1,.164-.164H445a.164.164,0,0,1,.164.164Zm0-5.392a.167.167,0,0,1-.164.164h-6.125a.164.164,0,0,1-.164-.164V328.12a.164.164,0,0,1,.164-.164H445a.167.167,0,0,1,.164.164Zm0-5.4a.164.164,0,0,1-.164.164h-6.124a.161.161,0,0,1-.164-.164v-2.088a.162.162,0,0,1,.164-.164H445a.164.164,0,0,1,.164.164Zm0-5.4a.164.164,0,0,1-.164.164h-6.124a.162.162,0,0,1-.164-.164v-2.088a.162.162,0,0,1,.164-.164H445a.164.164,0,0,1,.164.164Z" transform="translate(-307.923 -263.956)"/>
  <path id="Path_1045" data-name="Path 1045" class="cls-1" d="M387.336,280.718a3.508,3.508,0,0,0-2.041.223,3,3,0,0,1-2.453,0,3.444,3.444,0,0,0-2.884.056,1.762,1.762,0,0,1-.835.209c-1.169,0-2.144-1.178-2.344-2.731a2.257,2.257,0,0,0,.582-.632,3.289,3.289,0,0,1,5.868-.019,2.255,2.255,0,0,0,1.949,1.066h.031A2.444,2.444,0,0,1,387.336,280.718Z" transform="translate(-292.769 -241.78)"/>
  <path id="Path_1046" data-name="Path 1046" class="cls-1" d="M390.921,264.576l-1.89,1.2,1.147-2.088a1.873,1.873,0,0,0-1.141-.406h-.031a2.29,2.29,0,0,1-.393-.028l-.64.4.278-.5a2.28,2.28,0,0,1-1.114-.849l-1.147.727.724-1.317a3.355,3.355,0,0,0-2.567-1.3,3.525,3.525,0,0,0-2.943,1.815,2.191,2.191,0,0,1-1.949,1.047h-.064c-1.314,0-2.383,1.492-2.383,3.341s1.069,3.341,2.383,3.341a1.8,1.8,0,0,0,.835-.206,3.424,3.424,0,0,1,2.884-.056,3.034,3.034,0,0,0,2.453,0,3.438,3.438,0,0,1,2.859.053,1.757,1.757,0,0,0,.835.2c1.314,0,2.383-1.492,2.383-3.341A4.237,4.237,0,0,0,390.921,264.576Z" transform="translate(-292.791 -230.516)"/>
  <rect id="Rectangle_358" data-name="Rectangle 358" class="cls-4" width="103.431" height="124.555" rx="6" transform="translate(140.712 28.662)"/>
  <rect id="Rectangle_359" data-name="Rectangle 359" class="cls-5" width="93.537" height="99.425" transform="translate(145.317 41.229)"/>
  <circle id="Ellipse_175" data-name="Ellipse 175" class="cls-5" cx="3.641" cy="3.641" r="3.641" transform="translate(188.787 143.566)"/>
  <path id="Path_1047" data-name="Path 1047" class="cls-5" d="M761.9,279.511a1.67,1.67,0,1,1,1.67-1.67A1.67,1.67,0,0,1,761.9,279.511Z" transform="translate(-569.472 -241.881)"/>
  <path id="Path_1048" data-name="Path 1048" class="cls-5" d="M761.5,275.858a1.545,1.545,0,1,1-1.542,1.545,1.545,1.545,0,0,1,1.542-1.545m0-.278a1.821,1.821,0,1,0,1.288.534A1.823,1.823,0,0,0,761.5,275.58Z" transform="translate(-569.068 -241.456)"/>
  <path id="Path_1049" data-name="Path 1049" class="cls-1" d="M707.315,426.608v-.033a8.941,8.941,0,0,0-.432-2.358l-.042-.128a8.992,8.992,0,0,0-15.217-3.071,13.116,13.116,0,0,0-.715-2.505,40.153,40.153,0,0,1-7.124.278A28.6,28.6,0,0,0,688.3,420.4l-.056.206a28.829,28.829,0,0,1-5.047-1.876l-.49-.237.557.036a40.259,40.259,0,0,0,7.578-.217,12.827,12.827,0,0,0-2.227-3.544,38.218,38.218,0,0,1-11.893-2.962l.086-.195a37.59,37.59,0,0,0,11.589,2.92,12.725,12.725,0,0,0-20.227,2.149,17.466,17.466,0,0,0-4.34-9.835,41.106,41.106,0,0,1-6.709,2.032,40.619,40.619,0,0,1-10.49.835,28.6,28.6,0,0,0,4.515,1.64l-.056.2a28.6,28.6,0,0,1-5.047-1.887l-.49-.237.557.036a40.285,40.285,0,0,0,17.583-2.784c-.209-.231-.426-.454-.649-.674-6.96.139-14.557.072-21.436-2.43a17.519,17.519,0,0,0-8.321,14.927,40.7,40.7,0,0,0,2.478,12.349,52.316,52.316,0,0,0,2.453,5.944c.479.977.988,1.926,1.526,2.834h0a32.567,32.567,0,0,0,2.13,3.19c.139.181.278.362.423.537a19.388,19.388,0,0,0,2.656,2.748h0c.2.164.4.32.6.468a11.222,11.222,0,0,0,1.7,1.061,7.8,7.8,0,0,0,3.218.88h.264v.036H698.3v-.036h.033a2.439,2.439,0,0,0,.8-.142c1.67-.6,3.232-3,4.518-6.024.278-.671.557-1.372.818-2.093.228-.638.443-1.289.649-1.949a59.854,59.854,0,0,0,1.5-5.846,30.694,30.694,0,0,0,.7-5.451C707.324,426.878,707.321,426.744,707.315,426.608Z" transform="translate(-477.87 -333.822)"/>
  <path id="Path_1050" data-name="Path 1050" class="cls-1" d="M684.965,399.055A17.46,17.46,0,0,0,664,396.691C670.712,399.1,678.131,399.183,684.965,399.055Z" transform="translate(-500.031 -327.081)"/>
  <path id="Path_1051" data-name="Path 1051" class="cls-1" d="M840.1,518.723,832.759,506a.234.234,0,0,0-.406,0l-7.344,12.719a.234.234,0,0,0,.2.351H827.4a.237.237,0,0,1,.234.234v2.717a.237.237,0,0,0,.234.234h2.859a.237.237,0,0,0,.234-.234v-1.311a.231.231,0,0,1,.234-.234h2.717a.234.234,0,0,1,.234.234v1.311a.237.237,0,0,0,.234.234h2.851a.234.234,0,0,0,.223-.159.237.237,0,0,0,0-.075v-2.717a.234.234,0,0,1,.234-.234h2.191a.234.234,0,0,0,.22-.351Zm-10.236,1.392a.24.24,0,0,1-.167.07h-1.03a.237.237,0,0,1-.234-.234.225.225,0,0,1,.07-.167.234.234,0,0,1,.164-.07h1.03a.237.237,0,0,1,.237.237A.234.234,0,0,1,829.864,520.115Zm6.745,0a.24.24,0,0,1-.167.07h-1.03a.237.237,0,0,1,0-.47h1.03a.237.237,0,0,1,.237.237.234.234,0,0,1-.07.164Z" transform="translate(-616.195 -407.648)"/>
  <path id="Path_1052" data-name="Path 1052" class="cls-1" d="M679.749,519.093l-7.341-12.719a.234.234,0,0,0-.406,0l-6.342,10.985a19.334,19.334,0,0,0,2.656,2.745h1.03a.234.234,0,0,1,.167.4.225.225,0,0,1-.167.07h-.434a11.413,11.413,0,0,0,1.7,1.058v-.557a.234.234,0,0,1,.234-.234h2.717a.237.237,0,0,1,.234.234v1.311a.217.217,0,0,0,.022.1.231.231,0,0,0,.212.136h2.859a.234.234,0,0,0,.187-.095.24.24,0,0,0,.047-.139v-2.717a.234.234,0,0,1,.234-.234h2.191a.234.234,0,0,0,.2-.34Zm-4.852,1.075a.231.231,0,0,1,.164-.067h1.033a.231.231,0,0,1,.164.4.223.223,0,0,1-.164.07h-1.033a.237.237,0,0,1-.234-.234A.239.239,0,0,1,674.9,520.168Zm-4.613-4.7a.234.234,0,0,1-.234-.237v-1.779a.234.234,0,0,1,.234-.234h3.842a.237.237,0,0,1,.234.234v1.779a.237.237,0,0,1-.234.237Z" transform="translate(-501.229 -407.915)"/>
  <path id="Path_1053" data-name="Path 1053" class="cls-1" d="M746.341,457.773h-9.086V455.81a.471.471,0,0,0-.471-.47h-2.667v-2.1a.3.3,0,0,0-.3-.3h-3.438a.292.292,0,0,0-.3.3v2.093h-3.137a.471.471,0,0,0-.471.47v1.963h-8.663a.1.1,0,0,0-.1.095v26.09a.1.1,0,0,0,.1.095h5.757a.1.1,0,0,0,.095-.095v-3.5a.1.1,0,0,1,.1-.095h2.43a.1.1,0,0,1,.1.095v3.51a.1.1,0,0,0,.095.095h11.38a.1.1,0,0,0,.095-.095v-3.51a.1.1,0,0,1,.095-.095h2.433a.1.1,0,0,1,.095.095v3.51a.1.1,0,0,0,.1.095h5.757a.1.1,0,0,0,.095-.095v-26.09a.1.1,0,0,0-.095-.095Zm-23.7,21.352a.1.1,0,0,1-.095.095h-3.558a.1.1,0,0,1-.095-.095v-1.217a.1.1,0,0,1,.095-.095h3.558a.1.1,0,0,1,.095.095Zm0-3.14a.1.1,0,0,1-.095.095h-3.558a.1.1,0,0,1-.095-.095v-1.214a.1.1,0,0,1,.095-.095h3.558a.1.1,0,0,1,.095.095Zm0-3.137a.1.1,0,0,1-.095.095h-3.558a.1.1,0,0,1-.095-.095v-1.217a.1.1,0,0,1,.095-.095h3.558a.1.1,0,0,1,.095.095Zm0-3.14a.1.1,0,0,1-.095.1h-3.558a.1.1,0,0,1-.095-.1v-1.214a.1.1,0,0,1,.095-.095h3.558a.1.1,0,0,1,.095.095Zm0-3.137a.1.1,0,0,1-.095.095h-3.558a.1.1,0,0,1-.095-.095v-1.217a.1.1,0,0,1,.095-.095h3.558a.1.1,0,0,1,.095.095Zm0-3.137a.1.1,0,0,1-.095.095h-3.558a.1.1,0,0,1-.095-.095v-1.216a.1.1,0,0,1,.095-.095h3.558a.1.1,0,0,1,.095.095Zm0-3.14a.1.1,0,0,1-.095.095h-3.558a.1.1,0,0,1-.095-.095v-1.211a.1.1,0,0,1,.095-.095h3.558a.1.1,0,0,1,.095.095Zm8.432,18.833a.1.1,0,0,1-.095.095h-3.558a.1.1,0,0,1-.095-.095v-1.217a.1.1,0,0,1,.095-.095h3.558a.1.1,0,0,1,.095.095Zm0-3.14a.1.1,0,0,1-.095.095h-3.558a.1.1,0,0,1-.095-.095v-1.214a.1.1,0,0,1,.095-.095h3.558a.1.1,0,0,1,.095.095Zm0-3.137a.1.1,0,0,1-.095.095h-3.558a.1.1,0,0,1-.095-.095v-1.217a.1.1,0,0,1,.095-.095h3.558a.1.1,0,0,1,.095.095Zm0-3.14a.1.1,0,0,1-.095.1h-3.558a.1.1,0,0,1-.095-.1v-1.214a.1.1,0,0,1,.095-.095h3.558a.1.1,0,0,1,.095.095Zm0-3.137a.1.1,0,0,1-.095.095h-3.558a.1.1,0,0,1-.095-.095v-1.217a.1.1,0,0,1,.095-.095h3.558a.1.1,0,0,1,.095.095Zm0-3.137a.1.1,0,0,1-.095.095h-3.558a.1.1,0,0,1-.095-.095v-1.216a.1.1,0,0,1,.095-.095h3.558a.1.1,0,0,1,.095.095Zm0-3.14a.1.1,0,0,1-.095.095h-3.558a.1.1,0,0,1-.095-.095v-1.211a.1.1,0,0,1,.095-.095h3.558a.1.1,0,0,1,.095.095Zm5.763,18.833a.1.1,0,0,1-.095.095h-3.558a.1.1,0,0,1-.095-.095v-1.217a.1.1,0,0,1,.095-.095h3.547a.1.1,0,0,1,.095.095Zm0-3.14a.1.1,0,0,1-.095.095h-3.558a.1.1,0,0,1-.095-.095v-1.214a.1.1,0,0,1,.095-.095h3.547a.1.1,0,0,1,.095.095Zm0-3.137a.1.1,0,0,1-.095.095h-3.558a.1.1,0,0,1-.095-.095v-1.217a.1.1,0,0,1,.095-.095h3.547a.1.1,0,0,1,.095.095Zm0-3.14a.1.1,0,0,1-.095.1h-3.558a.1.1,0,0,1-.095-.1v-1.214a.1.1,0,0,1,.095-.095h3.547a.1.1,0,0,1,.095.095Zm0-3.137a.1.1,0,0,1-.095.095h-3.558a.1.1,0,0,1-.095-.095v-1.217a.1.1,0,0,1,.095-.095h3.547a.1.1,0,0,1,.095.095Zm0-3.137a.1.1,0,0,1-.095.095h-3.558a.1.1,0,0,1-.095-.095v-1.216a.1.1,0,0,1,.095-.095h3.547a.1.1,0,0,1,.095.095Zm0-3.14a.1.1,0,0,1-.095.095h-3.558a.1.1,0,0,1-.095-.095v-1.211a.1.1,0,0,1,.095-.095h3.547a.1.1,0,0,1,.095.095Zm8.432,18.833a.1.1,0,0,1-.095.095h-3.558a.1.1,0,0,1-.095-.095v-1.217a.1.1,0,0,1,.095-.095h3.558a.1.1,0,0,1,.095.095Zm0-3.14a.1.1,0,0,1-.095.095h-3.558a.1.1,0,0,1-.095-.095v-1.214a.1.1,0,0,1,.095-.095h3.558a.1.1,0,0,1,.095.095Zm0-3.137a.1.1,0,0,1-.095.095h-3.558a.1.1,0,0,1-.095-.095v-1.217a.1.1,0,0,1,.095-.095h3.558a.1.1,0,0,1,.095.095Zm0-3.14a.1.1,0,0,1-.095.1h-3.558a.1.1,0,0,1-.095-.1v-1.214a.1.1,0,0,1,.095-.095h3.558a.1.1,0,0,1,.095.095Zm0-3.137a.1.1,0,0,1-.095.095h-3.558a.1.1,0,0,1-.095-.095v-1.217a.1.1,0,0,1,.095-.095h3.558a.1.1,0,0,1,.095.095Zm0-3.137a.1.1,0,0,1-.095.095h-3.558a.1.1,0,0,1-.095-.095v-1.216a.1.1,0,0,1,.095-.095h3.558a.1.1,0,0,1,.095.095Zm0-3.14a.1.1,0,0,1-.095.095h-3.558a.1.1,0,0,1-.095-.095v-1.211a.1.1,0,0,1,.095-.095h3.558a.1.1,0,0,1,.095.095Z" transform="translate(-538.796 -369.441)"/>
  <path id="Path_1054" data-name="Path 1054" class="cls-1" d="M711.684,437.835a2.058,2.058,0,0,0-1.186.128,1.765,1.765,0,0,1-.71.15,1.737,1.737,0,0,1-.715-.153,2,2,0,0,0-1.67.033,1.036,1.036,0,0,1-.482.12c-.679,0-1.244-.685-1.361-1.587a1.342,1.342,0,0,0,.34-.367,1.91,1.91,0,0,1,3.41,0,1.3,1.3,0,0,0,1.114.621h.019A1.392,1.392,0,0,1,711.684,437.835Z" transform="translate(-530.022 -356.574)"/>
  <path id="Path_1055" data-name="Path 1055" class="cls-1" d="M713.712,428.475l-1.114.7.668-1.214a1.091,1.091,0,0,0-.665-.237h0a1.544,1.544,0,0,1-.228-.017l-.373.234.161-.278a1.314,1.314,0,0,1-.651-.493l-.668.42.423-.766a1.949,1.949,0,0,0-1.495-.754,2.046,2.046,0,0,0-1.709,1.055,1.281,1.281,0,0,1-1.13.61h-.036c-.766,0-1.392.866-1.392,1.949s.621,1.949,1.392,1.949a1.038,1.038,0,0,0,.482-.122,2,2,0,0,1,1.67-.031,1.785,1.785,0,0,0,.715.153,1.765,1.765,0,0,0,.71-.15,2,2,0,0,1,1.67.031,1.013,1.013,0,0,0,.476.12c.766,0,1.392-.869,1.392-1.949A2.467,2.467,0,0,0,713.712,428.475Z" transform="translate(-529.978 -350.052)"/>
  <rect id="Rectangle_360" data-name="Rectangle 360" class="cls-4" width="1.492" height="12.296" rx="0.746" transform="translate(275.222 74.93)"/>
  <rect id="Rectangle_361" data-name="Rectangle 361" class="cls-4" width="0.838" height="4.048" rx="0.419" transform="translate(225.645 65.298)"/>
  <rect id="Rectangle_362" data-name="Rectangle 362" class="cls-4" width="0.944" height="7.046" rx="0.472" transform="translate(225.614 72.708)"/>
  <rect id="Rectangle_363" data-name="Rectangle 363" class="cls-4" width="0.899" height="7.107" rx="0.45" transform="translate(225.628 82.218)"/>
  <rect id="Rectangle_364" data-name="Rectangle 364" class="cls-4" width="49.912" height="101.435" rx="6" transform="translate(226.118 51.919)"/>
  <rect id="Rectangle_365" data-name="Rectangle 365" class="cls-7" width="6.971" height="1.414" rx="0.707" transform="translate(246.259 54.948)"/>
  <circle id="Ellipse_176" data-name="Ellipse 176" class="cls-7" cx="0.802" cy="0.802" r="0.802" transform="translate(254.282 54.856)"/>
  <path id="Path_1056" data-name="Path 1056" class="cls-5" d="M938.1,349h-5.712v.688a3.265,3.265,0,0,1-3.257,3.263H910.909a3.265,3.265,0,0,1-3.265-3.265V349h-5.359a3.967,3.967,0,0,0-3.964,3.964v88.22a3.964,3.964,0,0,0,3.964,3.964H938.1a3.961,3.961,0,0,0,3.964-3.964V352.961A3.964,3.964,0,0,0,938.1,349Z" transform="translate(-669.12 -294.437)"/>
  <path id="Path_1057" data-name="Path 1057" class="cls-1" d="M950.642,497.756h0a3.986,3.986,0,0,0-.195-1.066.481.481,0,0,0-.02-.058,4.053,4.053,0,0,0-6.862-1.392,5.693,5.693,0,0,0-.323-1.133,18.279,18.279,0,0,1-3.215.12,13.3,13.3,0,0,0,2.038.74l-.025.092a13.032,13.032,0,0,1-2.277-.852l-.22-.109.245.017a18.2,18.2,0,0,0,3.419-.1,5.785,5.785,0,0,0-1.008-1.6,17.236,17.236,0,0,1-5.364-1.333l.039-.089a16.951,16.951,0,0,0,5.228,1.317,5.743,5.743,0,0,0-9.125.972,7.892,7.892,0,0,0-1.949-4.437,18.463,18.463,0,0,1-7.759,1.292,13.02,13.02,0,0,0,2.038.74l-.025.092a13.033,13.033,0,0,1-2.277-.852l-.22-.106.245.017a18.167,18.167,0,0,0,7.931-1.258c-.095-.1-.192-.2-.292-.3-3.143.064-6.567.033-9.666-1.1a7.906,7.906,0,0,0-3.753,6.734,18.373,18.373,0,0,0,1.114,5.568,23.292,23.292,0,0,0,1.114,2.684q.326.663.688,1.281h0a15.04,15.04,0,0,0,.96,1.439l.192.242a8.9,8.9,0,0,0,1.2,1.239h0a3.051,3.051,0,0,0,.278.212,5.271,5.271,0,0,0,.766.479,3.6,3.6,0,0,0,1.448.393h.12v.014h21.461v-.014h.017a1.091,1.091,0,0,0,.362-.064c.76-.278,1.459-1.35,2.038-2.717.131-.3.253-.621.37-.947s.2-.579.292-.877c.278-.891.507-1.807.677-2.636a14.014,14.014,0,0,0,.317-2.458A1.373,1.373,0,0,1,950.642,497.756Z" transform="translate(-682.781 -394.286)"/>
  <path id="Path_1058" data-name="Path 1058" class="cls-1" d="M940.535,485.362a7.878,7.878,0,0,0-9.465-1.066A27.43,27.43,0,0,0,940.535,485.362Z" transform="translate(-692.753 -391.268)"/>
  <path id="Path_1059" data-name="Path 1059" class="cls-1" d="M1010.542,539.289l-3.313-5.737a.106.106,0,0,0-.184,0l-3.313,5.737a.106.106,0,0,0,.092.159h.988a.106.106,0,0,1,.106.106v1.225a.106.106,0,0,0,.106.106h1.278a.106.106,0,0,0,.106-.106v-.59a.106.106,0,0,1,.106-.106h1.225a.106.106,0,0,1,.106.106v.59a.106.106,0,0,0,.106.106h1.289a.106.106,0,0,0,.1-.072.1.1,0,0,0,0-.033v-1.225a.106.106,0,0,1,.106-.106h.988a.106.106,0,0,0,.109-.159Zm-4.618.635a.108.108,0,0,1-.075.031h-.465a.106.106,0,0,1-.106-.106.1.1,0,0,1,.031-.072.111.111,0,0,1,.075-.033h.465a.106.106,0,0,1,.106.106.1.1,0,0,1-.031.075Zm3.043,0a.1.1,0,0,1-.075.031h-.465a.106.106,0,0,1-.106-.106.1.1,0,0,1,.031-.072.111.111,0,0,1,.075-.033h.465a.106.106,0,0,1,.106.106.1.1,0,0,1-.031.075Z" transform="translate(-745.178 -427.573)"/>
  <path id="Path_1060" data-name="Path 1060" class="cls-1" d="M938.206,539.469l-3.313-5.737a.106.106,0,0,0-.184,0l-2.859,4.955a8.91,8.91,0,0,0,1.2,1.239h.465a.106.106,0,1,1,0,.209h-.195a5.268,5.268,0,0,0,.766.479v-.245a.106.106,0,0,1,.106-.106h1.228a.106.106,0,0,1,.1.106v.59a.109.109,0,0,0,.106.106h1.292a.106.106,0,0,0,.083-.042.1.1,0,0,0,.02-.064v-1.225a.106.106,0,0,1,.106-.106h.988a.106.106,0,0,0,.092-.159Zm-2.188.487a.1.1,0,0,1,.072-.031h.465a.106.106,0,1,1,0,.209h-.465a.106.106,0,0,1-.106-.106A.1.1,0,0,1,936.017,539.956Zm-2.082-2.124a.106.106,0,0,1-.106-.106v-.8a.106.106,0,0,1,.106-.106h1.734a.106.106,0,0,1,.106.106v.8a.106.106,0,0,1-.106.106Z" transform="translate(-693.316 -427.703)"/>
  <path id="Path_1061" data-name="Path 1061" class="cls-1" d="M968.28,511.817h-4.1v-.888a.212.212,0,0,0-.212-.212h-1.208v-.944a.133.133,0,0,0-.131-.134h-1.551a.134.134,0,0,0-.134.134v.944h-1.417a.212.212,0,0,0-.212.212v.888h-3.9a.042.042,0,0,0-.042.042v11.77a.045.045,0,0,0,.042.045h2.6a.045.045,0,0,0,.045-.045v-1.584a.042.042,0,0,1,.042-.042h1.1a.045.045,0,0,1,.044.042v1.584a.045.045,0,0,0,.042.045h5.133a.045.045,0,0,0,.045-.045v-1.584a.042.042,0,0,1,.042-.042h1.1a.045.045,0,0,1,.044.042v1.584a.045.045,0,0,0,.042.045h2.6a.045.045,0,0,0,.042-.045v-11.77a.042.042,0,0,0-.053-.042Zm-10.693,9.635a.044.044,0,0,1-.045.044h-1.6a.045.045,0,0,1-.045-.044V520.9a.044.044,0,0,1,.044-.042h1.6a.045.045,0,0,1,.044.042Zm0-1.414a.045.045,0,0,1-.045.042h-1.6a.045.045,0,0,1-.045-.042v-.557a.044.044,0,0,1,.044-.044h1.6a.044.044,0,0,1,.044.044Zm0-1.417a.045.045,0,0,1-.044.044h-1.6a.045.045,0,0,1-.045-.044v-.557a.044.044,0,0,1,.044-.042h1.6a.045.045,0,0,1,.044.042Zm0-1.417a.044.044,0,0,1-.045.044h-1.6a.045.045,0,0,1-.045-.044v-.557a.044.044,0,0,1,.044-.045h1.6a.044.044,0,0,1,.044.045Zm0-1.414a.045.045,0,0,1-.045.042h-1.6a.045.045,0,0,1-.044-.042v-.557a.044.044,0,0,1,.044-.042h1.6a.045.045,0,0,1,.044.042Zm0-1.417a.045.045,0,0,1-.045.044h-1.6a.045.045,0,0,1-.045-.044v-.557a.044.044,0,0,1,.044-.042h1.6a.045.045,0,0,1,.044.042Zm0-1.414a.045.045,0,0,1-.045.042h-1.6a.045.045,0,0,1-.045-.042V512.4a.044.044,0,0,1,.044-.044h1.6a.044.044,0,0,1,.044.044Zm3.811,8.494a.045.045,0,0,1-.042.044h-1.606a.044.044,0,0,1-.042-.044V520.9a.042.042,0,0,1,.042-.042h1.606a.042.042,0,0,1,.042.042Zm0-1.414a.042.042,0,0,1-.042.042h-1.606a.042.042,0,0,1-.042-.042v-.557a.044.044,0,0,1,.042-.044h1.606a.045.045,0,0,1,.042.044Zm0-1.417a.045.045,0,0,1-.042.044h-1.606a.044.044,0,0,1-.042-.044v-.557a.042.042,0,0,1,.042-.042h1.606a.042.042,0,0,1,.042.042Zm0-1.417a.045.045,0,0,1-.042.044h-1.606a.044.044,0,0,1-.042-.044v-.557a.044.044,0,0,1,.042-.045h1.606a.044.044,0,0,1,.042.044Zm0-1.414a.042.042,0,0,1-.042.042h-1.606a.042.042,0,0,1-.042-.042v-.557a.042.042,0,0,1,.042-.042h1.606a.042.042,0,0,1,.042.042Zm0-1.417a.045.045,0,0,1-.042.044h-1.606a.044.044,0,0,1-.042-.044v-.557a.042.042,0,0,1,.042-.042h1.606a.042.042,0,0,1,.042.042Zm0-1.414a.042.042,0,0,1-.042.042h-1.606a.042.042,0,0,1-.042-.042V512.4a.044.044,0,0,1,.042-.044h1.606a.044.044,0,0,1,.042.044Zm2.6,8.494a.045.045,0,0,1-.045.044h-1.6a.045.045,0,0,1-.045-.045V520.9a.045.045,0,0,1,.045-.042h1.6a.044.044,0,0,1,.044.042Zm0-1.414a.045.045,0,0,1-.045.042h-1.6a.045.045,0,0,1-.045-.042v-.557a.045.045,0,0,1,.045-.045h1.6a.045.045,0,0,1,.045.045Zm0-1.417a.045.045,0,0,1-.045.044h-1.6a.045.045,0,0,1-.045-.044v-.557a.045.045,0,0,1,.045-.042h1.6a.045.045,0,0,1,.044.042Zm0-1.417a.045.045,0,0,1-.045.045h-1.6a.045.045,0,0,1-.045-.045v-.557a.045.045,0,0,1,.045-.045h1.6a.045.045,0,0,1,.045.044Zm0-1.414a.045.045,0,0,1-.045.042h-1.6a.045.045,0,0,1-.045-.042v-.557a.045.045,0,0,1,.045-.042h1.6a.045.045,0,0,1,.044.042Zm0-1.417a.045.045,0,0,1-.045.044h-1.6a.045.045,0,0,1-.045-.044v-.557a.045.045,0,0,1,.045-.042h1.6a.045.045,0,0,1,.045.042Zm0-1.414a.044.044,0,0,1-.045.042h-1.6a.045.045,0,0,1-.045-.042V512.4a.045.045,0,0,1,.045-.044h1.6a.045.045,0,0,1,.045.044Zm3.8,8.494a.045.045,0,0,1-.042.044h-1.606a.044.044,0,0,1-.042-.044V520.9a.042.042,0,0,1,.042-.042h1.606a.042.042,0,0,1,.042.042Zm0-1.414a.042.042,0,0,1-.042.042h-1.606a.042.042,0,0,1-.042-.042v-.557a.044.044,0,0,1,.042-.044h1.606a.045.045,0,0,1,.042.044Zm0-1.417a.045.045,0,0,1-.042.044h-1.606a.044.044,0,0,1-.042-.044v-.557a.042.042,0,0,1,.042-.042h1.606a.042.042,0,0,1,.042.042Zm0-1.417a.045.045,0,0,1-.042.044h-1.606a.044.044,0,0,1-.042-.044v-.557a.044.044,0,0,1,.042-.045h1.606a.045.045,0,0,1,.042.044Zm0-1.414a.042.042,0,0,1-.042.042h-1.606a.042.042,0,0,1-.042-.042v-.557a.042.042,0,0,1,.042-.042h1.606a.042.042,0,0,1,.042.042Zm0-1.417a.045.045,0,0,1-.042.044h-1.606a.044.044,0,0,1-.042-.044v-.557a.042.042,0,0,1,.042-.042h1.606a.042.042,0,0,1,.042.042Zm0-1.414a.042.042,0,0,1-.042.042h-1.606a.042.042,0,0,1-.042-.042V512.4a.044.044,0,0,1,.042-.044h1.606a.045.045,0,0,1,.042.044Z" transform="translate(-710.296 -410.357)"/>
  <path id="Path_1062" data-name="Path 1062" class="cls-1" d="M952.6,502.819a.927.927,0,0,0-.534.058.785.785,0,0,1-.32.067.757.757,0,0,1-.323-.07.91.91,0,0,0-.757.017.481.481,0,0,1-.217.053c-.306,0-.557-.309-.615-.715a.574.574,0,0,0,.153-.164.863.863,0,0,1,1.539,0,.587.587,0,0,0,.509.278h0A.635.635,0,0,1,952.6,502.819Z" transform="translate(-706.291 -404.549)"/>
  <path id="Path_1063" data-name="Path 1063" class="cls-1" d="M953.554,498.567l-.5.312.3-.557a.487.487,0,0,0-.3-.109h0a.418.418,0,0,1-.1,0l-.17.106.072-.131a.61.61,0,0,1-.292-.223l-.3.189.189-.345a.88.88,0,0,0-.674-.34.919.919,0,0,0-.768.482.582.582,0,0,1-.509.278h-.017c-.345,0-.626.393-.626.874s.278.874.626.874a.457.457,0,0,0,.217-.053.9.9,0,0,1,.757,0,.807.807,0,0,0,.643,0,.9.9,0,0,1,.749,0,.446.446,0,0,0,.214.053c.345,0,.626-.39.626-.874A1.114,1.114,0,0,0,953.554,498.567Z" transform="translate(-706.312 -401.575)"/>
  <path id="Path_1064" data-name="Path 1064" class="cls-4" d="M142.156,672.288a10.3,10.3,0,0,1-.223,2.16c-.028.134-.058.264-.089.392-.791,3.171-3.02,5.49-5.682,5.637h-.278c-2.814,0-5.195-2.427-5.98-5.771-.022-.089-.042-.178-.061-.278a10.3,10.3,0,0,1-.223-2.16c0-4.529,2.8-8.2,6.264-8.2S142.156,667.759,142.156,672.288Z" transform="translate(-114.414 -521.796)"/>
  <path id="Path_1065" data-name="Path 1065" class="cls-3" d="M142.184,672.324a10.3,10.3,0,0,1-.223,2.16c-.028.134-.058.265-.089.393h-.278a12.741,12.741,0,0,1-2.049-.278,12.5,12.5,0,0,1-1.826.418,12.758,12.758,0,0,1-1.431.134H135.8a12.916,12.916,0,0,1-1.716-.114,12.573,12.573,0,0,1-2.691-.668,12.686,12.686,0,0,1-1.453.39c-.022-.089-.042-.178-.061-.278a10.3,10.3,0,0,1-.223-2.16c0-4.529,2.8-8.2,6.264-8.2S142.184,667.795,142.184,672.324Z" transform="translate(-114.443 -521.832)"/>
  <path id="Path_1066" data-name="Path 1066" class="cls-6" d="M116.621,590.882a12.694,12.694,0,0,0-1.364-5.738l-7.366,2.291,6.467-3.8a12.725,12.725,0,0,0-9.565-5.454,12.7,12.7,0,0,0-.994-1.314L93.22,580.161l8.677-5.1a12.731,12.731,0,0,0-20.044,6.79l9.061,10.431-9.83-7.11A12.733,12.733,0,0,0,92.48,607.635a12.783,12.783,0,0,0,8.151.226,12.733,12.733,0,0,0,15.484-12.433c0-.278,0-.557-.028-.835a12.734,12.734,0,0,0,.535-3.711Z" transform="translate(-75.518 -455.665)"/>
  <path id="Path_1067" data-name="Path 1067" class="cls-3" d="M116.352,639.62a34,34,0,0,0-11.787-.15c-4.424.732-8.945,2.344-13.271,1.166-2.539-.69-4.733-2.288-7.213-3.176a13.691,13.691,0,0,0-7.447-.445,12.739,12.739,0,0,0,15.782,17,12.783,12.783,0,0,0,8.151.225A12.733,12.733,0,0,0,116.051,641.8c0-.278,0-.557-.028-.835A12.805,12.805,0,0,0,116.352,639.62Z" transform="translate(-75.468 -502.042)"/>
  <path id="Path_1068" data-name="Path 1068" class="cls-8" d="M533.515,358.257l-5.289-.234c-1.211-.053-2.592-.036-3.4.866-.86.96-.635,2.469-.128,3.658a10.434,10.434,0,0,1,1.286,3.619c.058,2.032-1.609,3.641-3.121,5.011s-3.126,3.062-2.906,5.086c.173,1.578,1.431,2.8,2.673,3.783a35.7,35.7,0,0,0,6.083,3.9,9.1,9.1,0,0,0,3.931,1.2,10.213,10.213,0,0,0,3.53-.807,14.791,14.791,0,0,0,5.529-2.956,11.113,11.113,0,0,0,1.921-2.656A18.214,18.214,0,0,0,544.8,363.1a8.782,8.782,0,0,0-1.949-2.968c-2.255-2.135-5.7-2.227-8.8-2.2a3.449,3.449,0,0,0-1.648.292,1.185,1.185,0,0,0-.607,1.414" transform="translate(-396.074 -300.873)"/>
  <path id="Path_1069" data-name="Path 1069" class="cls-9" d="M544.2,586.685a114.5,114.5,0,0,0,.624,16.778c.072.638.148,1.275.278,1.9a53.969,53.969,0,0,0,1.656,5.718,13.792,13.792,0,0,1,.713,5.866q1.837-.192,3.68-.315l.017-.946c.033-1.815-.679-3.586-.5-5.392a44.853,44.853,0,0,0,.7-5.1,34.511,34.511,0,0,0-.81-4.791,27.211,27.211,0,0,1-.228-3.229,40.8,40.8,0,0,1,.028-4.454c.234-3.012,1.13-6.013.715-9.006C548.8,584.767,546.453,585.649,544.2,586.685Z" transform="translate(-413.524 -463.814)"/>
  <path id="Path_1070" data-name="Path 1070" class="cls-4" d="M551.922,704.325a.836.836,0,0,0,.409-.067.891.891,0,0,0,.326-.6,7.3,7.3,0,0,1,.935-2.1,3.069,3.069,0,0,0,.7-1.545c0-.927-.969-1.576-1.172-2.48a4,4,0,0,0-.173-.857,1.792,1.792,0,0,0-1.359-.763c-.713-.15-1.634-.212-1.988.423-.3.54.033,1.2.078,1.812a3.35,3.35,0,0,1-.974,2.247c-.626.757-2.272,2.569-1.269,3.619.376.4,1.194.262,1.67.278Z" transform="translate(-415.692 -544.702)"/>
  <path id="Path_1071" data-name="Path 1071" class="cls-9" d="M584.424,586.685a114.1,114.1,0,0,1-.626,16.778c-.07.638-.145,1.275-.262,1.9a50.959,50.959,0,0,1-1.67,5.718,13.576,13.576,0,0,0-.71,5.866q-1.837-.192-3.68-.315l-.017-.946c-.033-1.815.676-3.586.5-5.392a45.458,45.458,0,0,1-.7-5.1,34.916,34.916,0,0,1,.807-4.791,26.63,26.63,0,0,0,.231-3.229,40.794,40.794,0,0,0-.028-4.454c-.234-3.012-1.133-6.013-.715-9.006C579.833,584.767,582.174,585.649,584.424,586.685Z" transform="translate(-437.436 -463.814)"/>
  <path id="Path_1072" data-name="Path 1072" class="cls-4" d="M576.883,704.325a.837.837,0,0,1-.406-.067.891.891,0,0,1-.337-.6,7.3,7.3,0,0,0-.935-2.1,3.045,3.045,0,0,1-.7-1.545c0-.927.969-1.576,1.169-2.48a4.006,4.006,0,0,1,.175-.857,1.792,1.792,0,0,1,1.359-.763c.713-.15,1.631-.212,1.988.423.3.54-.036,1.2-.078,1.812a3.337,3.337,0,0,0,.974,2.247c.626.757,2.272,2.569,1.269,3.619-.376.4-1.194.262-1.67.278Z" transform="translate(-435.447 -544.702)"/>
  <circle id="Ellipse_177" data-name="Ellipse 177" class="cls-9" cx="5.704" cy="5.704" r="5.704" transform="translate(131.348 62.105)"/>
  <path id="Path_1073" data-name="Path 1073" class="cls-9" d="M547.27,408.53a1.948,1.948,0,0,1,.084.821,1.6,1.6,0,0,1-.479.741,8.513,8.513,0,0,1-2.826,1.885,1.3,1.3,0,0,0,.3,1.041c.685,1.055,1.409,2.08,2.135,3.107a20.8,20.8,0,0,0,4.852,5.225l1.67-2.1a13.571,13.571,0,0,0,.969-1.317,13.137,13.137,0,0,0,.869-1.779l2.041-4.733a4.9,4.9,0,0,1-3.524-1,1.375,1.375,0,0,1-.512-.49,1.392,1.392,0,0,1-.111-.607q-.05-1.475-.042-2.948a37.893,37.893,0,0,0-4.454-.348c-.579,0-.969-.122-1.114.49A5.077,5.077,0,0,0,547.27,408.53Z" transform="translate(-413.451 -335.579)"/>
  <path id="Path_1074" data-name="Path 1074" class="cls-10" d="M530.547,430.035a21.928,21.928,0,0,0-3.341-4.454,3.006,3.006,0,0,1-.7-.916,2.783,2.783,0,0,1-.156-.885l-.1-1.473a.343.343,0,0,0-.075-.228.331.331,0,0,0-.225-.064,1.885,1.885,0,0,0-1.033.15,2.894,2.894,0,0,0-.557.512,6.867,6.867,0,0,1-2.375,1.317,19.092,19.092,0,0,0-1.832.882,2.4,2.4,0,0,0-1.166,1.058,2.613,2.613,0,0,0-.15,1l-.206,11.842a.626.626,0,0,1-.468.7,1.7,1.7,0,0,0-.646.493.668.668,0,0,0-.025.766c.083.109.212.175.3.278.278.331.036.81-.15,1.194a2.594,2.594,0,0,0-.278,1.617,1.392,1.392,0,0,0,1.091,1.114c.22-.71-.278-1.514,0-2.2a1.578,1.578,0,0,1,.952-.793,3.422,3.422,0,0,1,1.737-.189l.334,1.217c1.2,4.382.367,9.089-.727,13.5-.253,1.03-.573,2.043-.763,3.087a27.183,27.183,0,0,0-.278,4.76v4.354a1.862,1.862,0,0,0,.437,1.47c.4.342,1.147.317,1.45.791.175.278.142.637.3.921a1.219,1.219,0,0,0,.473.431,3.185,3.185,0,0,0,4.151-1.019,4.789,4.789,0,0,1,.927-1.392,2.761,2.761,0,0,1,1.86-.356l3.792.181a7.847,7.847,0,0,1,1.926.253,14.889,14.889,0,0,1,1.637.707,8.432,8.432,0,0,0,3.833.7,2.227,2.227,0,0,0,1.036-.251c.362-.217.612-.612,1.011-.76.448-.167,1.024,0,1.372-.326a1.244,1.244,0,0,0,.278-.882l.159-3.722c.167-3.839.315-7.795-.952-11.414-.309-.882-.7-1.737-.935-2.642a26.131,26.131,0,0,1-.448-2.837c-.392-2.647-1.286-5.253-1.114-7.923,0-.2.178-.251.379-.278a2.47,2.47,0,0,1,1.982.557,2.721,2.721,0,0,1,.657,1.734,1.949,1.949,0,0,1-.239,1.3l1.047-.768c.334-.245.707-.582.64-.991-.2-1.217-.131-2.578-.278-3.8a55.494,55.494,0,0,0-1-6.169,16.21,16.21,0,0,1-.4-1.759c-.1-.813-.045-1.634-.1-2.453a9.236,9.236,0,0,0-.874-3.341,3.414,3.414,0,0,0-.557-.885,3.881,3.881,0,0,0-1.08-.746,22.254,22.254,0,0,0-5.465-1.985,1.362,1.362,0,0,0-1.114.092,1.2,1.2,0,0,0-.173,1.367,2.929,2.929,0,0,1,.362,1.414,2.761,2.761,0,0,1-.835,1.258c-.882,1.033-1.283,2.425-2.227,3.41C531.224,429.008,530.639,429.411,530.547,430.035Z" transform="translate(-394.195 -346.35)"/>
  <path id="Path_1075" data-name="Path 1075" class="cls-8" d="M545.182,370c.482.4.885.958,1.5,1.089,1.475.312,2.628-2.074,4.048-1.565.518.187.835.7,1.233,1.063a2.441,2.441,0,0,0,3.341-.242,4.756,4.756,0,0,0,.727-3.277,2.464,2.464,0,0,0-.248-1.23,1.982,1.982,0,0,0-.493-.518c-1.684-1.317-3.959-1.506-6.091-1.642a4.453,4.453,0,0,0-1.392.058,4.541,4.541,0,0,0-1.67,1.008c-.958.8-3.288,2.311-3.58,3.594S544.236,369.211,545.182,370Z" transform="translate(-412.373 -305.004)"/>
  <rect id="Rectangle_366" data-name="Rectangle 366" class="cls-6" width="20.678" height="22.39" rx="2.61" transform="translate(126.142 82.14)"/>
  <rect id="Rectangle_367" data-name="Rectangle 367" class="cls-5" width="17.115" height="13.543" rx="2.61" transform="translate(127.923 84.072)"/>
  <path id="Path_1076" data-name="Path 1076" class="cls-11" d="M555.2,470.2h0a1.616,1.616,0,0,0-.075-.406v-.019a1.539,1.539,0,0,0-2.606-.529,2.044,2.044,0,0,0-.122-.429,6.876,6.876,0,0,1-1.219.045,4.512,4.512,0,0,0,.774.278v.036a5.031,5.031,0,0,1-.863-.323l-.083-.042h.092a6.73,6.73,0,0,0,1.3-.036,2.15,2.15,0,0,0-.381-.607,6.539,6.539,0,0,1-2.038-.507l.017-.033a6.441,6.441,0,0,0,1.985.5,2.18,2.18,0,0,0-3.466.37,2.99,2.99,0,0,0-.743-1.684,7,7,0,0,1-2.945.49,5.145,5.145,0,0,0,.774.278v.033a5.026,5.026,0,0,1-.863-.323l-.084-.039h.092a6.9,6.9,0,0,0,3.012-.479c-.036-.039-.072-.078-.111-.114a10.374,10.374,0,0,1-3.669-.418,3.007,3.007,0,0,0-1.425,2.558,7.052,7.052,0,0,0,.423,2.116,9.034,9.034,0,0,0,.423,1.019c.083.167.17.328.262.484h0a5.809,5.809,0,0,0,.365.557l.072.092a3.19,3.19,0,0,0,.457.47h0a1.266,1.266,0,0,0,.1.081,2.112,2.112,0,0,0,.292.184,1.357,1.357,0,0,0,.557.148h8.2a.452.452,0,0,0,.136-.022,1.884,1.884,0,0,0,.777-1.033c.047-.114.095-.234.139-.359s.075-.22.111-.331c.106-.34.192-.688.256-1a5.227,5.227,0,0,0,.12-.933Z" transform="translate(-412.391 -379.039)"/>
  <path id="Path_1077" data-name="Path 1077" class="cls-11" d="M551.334,465.506a2.984,2.984,0,0,0-3.594-.4A10.132,10.132,0,0,0,551.334,465.506Z" transform="translate(-416.136 -377.913)"/>
  <path id="Path_1078" data-name="Path 1078" class="cls-11" d="M577.914,486l-1.258-2.177a.039.039,0,0,0-.07,0L575.327,486a.042.042,0,0,0,.036.061h.376a.039.039,0,0,1,.039.039v.468a.039.039,0,0,0,.039.039h.49a.042.042,0,0,0,.042-.039v-.225a.042.042,0,0,1,.039-.042h.465a.042.042,0,0,1,.042.042v.225a.039.039,0,0,0,.039.039h.49a.036.036,0,0,0,.036-.028h0v-.468a.042.042,0,0,1,.042-.039h.373a.042.042,0,0,0,.039-.072Zm-1.754.242a.036.036,0,0,1-.028,0h-.178a.039.039,0,0,1-.039-.039.042.042,0,0,1,0-.028.039.039,0,0,1,.028-.014h.178a.042.042,0,0,1,.039.042.036.036,0,0,1,0,.039Zm1.155,0a.036.036,0,0,1-.028,0h-.178a.039.039,0,0,1-.039-.039.042.042,0,0,1,0-.028.039.039,0,0,1,.028-.014h.178a.042.042,0,0,1,.039.042A.036.036,0,0,1,577.315,486.244Z" transform="translate(-436.04 -391.713)"/>
  <path id="Path_1079" data-name="Path 1079" class="cls-11" d="M550.422,486.107l-1.255-2.163a.039.039,0,0,0-.07,0l-1.1,1.868a3.317,3.317,0,0,0,.457.468h.175a.042.042,0,0,1,.042.042.039.039,0,0,1-.014.028.041.041,0,0,1-.028,0h-.075a2.372,2.372,0,0,0,.292.181v-.081a.042.042,0,0,1,.039-.042h.468a.042.042,0,0,1,.039.042v.223a.109.109,0,0,0,0,.017.047.047,0,0,0,.036.025h.49a.039.039,0,0,0,.033-.017.034.034,0,0,0,0-.025v-.465a.039.039,0,0,1,.039-.039h.376a.04.04,0,1,0,.053-.061Zm-.835.184a.041.041,0,0,1,.028,0h.175a.042.042,0,0,1,.042.042.039.039,0,0,1-.014.028.042.042,0,0,1-.028,0h-.175a.042.042,0,0,1-.042-.039.044.044,0,0,1,.019-.031Zm-.791-.8a.042.042,0,0,1-.042-.042v-.3a.042.042,0,0,1,.042-.039h.657a.042.042,0,0,1,.042.039v.3a.042.042,0,0,1-.042.042Z" transform="translate(-416.324 -391.799)"/>
  <path id="Path_1080" data-name="Path 1080" class="cls-11" d="M561.845,475.574H560.3v-.334a.081.081,0,0,0-.081-.081h-.476V474.8a.05.05,0,0,0-.05-.05h-.59a.05.05,0,0,0-.05.05v.359h-.537a.081.081,0,0,0-.081.081v.334h-1.475a.017.017,0,0,0-.017.017v4.471a.017.017,0,0,0,.017.014h.986s.017,0,.017-.014v-.6a.017.017,0,0,1,.017-.017h.418a.017.017,0,0,1,.017.017v.6a.015.015,0,0,0,.017.014h1.949a.017.017,0,0,0,.017-.014v-.618h.418a.017.017,0,0,1,.017.017v.6a.017.017,0,0,0,.017.014h.985a.017.017,0,0,0,.017-.014v-4.471a.017.017,0,0,0,0-.017Zm-4.053,3.661a.017.017,0,0,1-.017.017h-.61a.017.017,0,0,1-.017-.017v-.209a.017.017,0,0,1,.017-.017h.61a.017.017,0,0,1,.017.017Zm0-.537a.017.017,0,0,1-.017.017h-.61a.017.017,0,0,1-.017-.017v-.209a.017.017,0,0,1,.017-.017h.61a.017.017,0,0,1,.017.017Zm0-.537a.017.017,0,0,1-.017.014h-.61a.017.017,0,0,1-.017-.014v-.209a.017.017,0,0,1,.017-.017h.61a.017.017,0,0,1,.017.017Zm0-.54a.017.017,0,0,1-.017.017h-.61a.017.017,0,0,1-.017-.017v-.206a.017.017,0,0,1,.017-.017h.61a.017.017,0,0,1,.017.017Zm0-.537a.017.017,0,0,1-.017.017h-.61a.017.017,0,0,1-.017-.017v-.206a.017.017,0,0,1,.017-.017h.61a.017.017,0,0,1,.017.017Zm0-.537a.017.017,0,0,1-.017.017h-.61a.017.017,0,0,1-.017-.017v-.209a.017.017,0,0,1,.017-.014h.61a.017.017,0,0,1,.017.014Zm0-.537a.017.017,0,0,1-.017.017h-.61a.017.017,0,0,1-.017-.017V475.8a.017.017,0,0,1,.017-.017h.61a.017.017,0,0,1,.017.017Zm1.445,3.226a.017.017,0,0,1-.017.017h-.61a.017.017,0,0,1-.017-.017v-.209a.017.017,0,0,1,.017-.017h.61a.017.017,0,0,1,.017.017Zm0-.537a.017.017,0,0,1-.017.017h-.61a.017.017,0,0,1-.017-.017v-.209a.017.017,0,0,1,.017-.017h.61a.017.017,0,0,1,.017.017Zm0-.537a.017.017,0,0,1-.017.014h-.61a.017.017,0,0,1-.017-.014v-.209a.017.017,0,0,1,.017-.017h.61a.017.017,0,0,1,.017.017Zm0-.54a.017.017,0,0,1-.017.017h-.61a.017.017,0,0,1-.017-.017v-.206a.017.017,0,0,1,.017-.017h.61a.017.017,0,0,1,.017.017Zm0-.537a.017.017,0,0,1-.017.017h-.61a.017.017,0,0,1-.017-.017v-.206a.017.017,0,0,1,.017-.017h.61a.017.017,0,0,1,.017.017Zm0-.537a.017.017,0,0,1-.017.017h-.61a.017.017,0,0,1-.017-.017v-.209a.017.017,0,0,1,.017-.014h.61a.017.017,0,0,1,.017.014Zm0-.537a.017.017,0,0,1-.017.017h-.61a.017.017,0,0,1-.017-.017V475.8a.017.017,0,0,1,.017-.017h.61a.017.017,0,0,1,.017.017Zm.985,3.226a.017.017,0,0,1-.017.017h-.61a.017.017,0,0,1-.014-.017v-.209a.017.017,0,0,1,.014-.017h.61a.017.017,0,0,1,.017.017Zm0-.537a.017.017,0,0,1-.017.017h-.61a.017.017,0,0,1-.014-.017v-.209a.017.017,0,0,1,.014-.017h.61a.017.017,0,0,1,.017.017Zm0-.537a.015.015,0,0,1-.017.014h-.61l-.014-.014v-.209a.017.017,0,0,1,.014-.017h.61a.017.017,0,0,1,.017.017Zm0-.54a.014.014,0,0,1-.017.017h-.61a.015.015,0,0,1-.014-.017v-.206s0-.017.014-.017h.61a.014.014,0,0,1,.017.017Zm0-.537a.014.014,0,0,1-.017.017h-.61a.015.015,0,0,1-.014-.017v-.206s0-.017.014-.017h.61a.014.014,0,0,1,.017.017Zm0-.537a.017.017,0,0,1-.017.017h-.61a.017.017,0,0,1-.014-.017v-.209l.014-.014h.61s.017,0,.017.014Zm0-.537a.017.017,0,0,1-.017.017h-.61a.017.017,0,0,1-.014-.017V475.8a.017.017,0,0,1,.014-.017h.61a.017.017,0,0,1,.017.017Zm1.445,3.226a.017.017,0,0,1-.017.017h-.61a.017.017,0,0,1-.017-.017v-.209a.017.017,0,0,1,.017-.017h.61a.017.017,0,0,1,.017.017Zm0-.537a.017.017,0,0,1-.017.017h-.61a.017.017,0,0,1-.017-.017v-.209a.017.017,0,0,1,.017-.017h.61a.017.017,0,0,1,.017.017Zm0-.537a.017.017,0,0,1-.017.014h-.61a.017.017,0,0,1-.017-.014v-.209a.017.017,0,0,1,.017-.017h.61a.017.017,0,0,1,.017.017Zm0-.54a.017.017,0,0,1-.017.017h-.61a.017.017,0,0,1-.017-.017v-.206a.017.017,0,0,1,.017-.017h.61a.017.017,0,0,1,.017.017Zm0-.537a.017.017,0,0,1-.017.017h-.61a.017.017,0,0,1-.017-.017v-.206a.017.017,0,0,1,.017-.017h.61a.017.017,0,0,1,.017.017Zm0-.537a.017.017,0,0,1-.017.017h-.61a.017.017,0,0,1-.017-.017v-.209a.017.017,0,0,1,.017-.014h.61a.017.017,0,0,1,.017.014Zm0-.537a.017.017,0,0,1-.017.017h-.61a.017.017,0,0,1-.017-.017V475.8a.017.017,0,0,1,.017-.017h.61a.017.017,0,0,1,.017.017Z" transform="translate(-422.775 -385.18)"/>
  <path id="Path_1081" data-name="Path 1081" class="cls-1" d="M555.934,472.119a.384.384,0,0,0-.2.022.278.278,0,0,1-.245,0,.343.343,0,0,0-.278,0,.169.169,0,0,1-.083.022c-.117,0-.214-.12-.234-.278a.214.214,0,0,0,.058-.064.3.3,0,0,1,.557,0,.226.226,0,0,0,.192.106h0A.242.242,0,0,1,555.934,472.119Z" transform="translate(-421.296 -382.935)"/>
  <path id="Path_1082" data-name="Path 1082" class="cls-1" d="M556.288,470.552l-.187.12.114-.209a.2.2,0,0,0-.114-.039h-.042l-.064.039.025-.05a.22.22,0,0,1-.111-.083l-.114.072.072-.131a.334.334,0,0,0-.256-.131.356.356,0,0,0-.292.181.22.22,0,0,1-.192.106h0c-.131,0-.237.148-.237.331s.106.331.237.331a.2.2,0,0,0,.083-.02.334.334,0,0,1,.278,0,.311.311,0,0,0,.122.025.3.3,0,0,0,.122-.025.337.337,0,0,1,.278,0,.2.2,0,0,0,.083.02c.131,0,.237-.148.237-.331a.424.424,0,0,0-.045-.206Z" transform="translate(-421.296 -381.853)"/>
  <ellipse id="Ellipse_178" data-name="Ellipse 178" class="cls-9" cx="1.712" cy="2.853" rx="1.712" ry="2.853" transform="translate(123.787 94.762)"/>
  <ellipse id="Ellipse_179" data-name="Ellipse 179" class="cls-9" cx="1.712" cy="2.853" rx="1.712" ry="2.853" transform="translate(146.322 93.334)"/>
</svg>
