<svg id="Component_34_1" data-name="Component 34 – 1" xmlns="http://www.w3.org/2000/svg" xmlns:xlink="http://www.w3.org/1999/xlink" width="216.906" height="193.784" viewBox="0 0 216.906 193.784">
  <defs>
    <style>
      .cls-1 {
        fill: #3f3d56;
      }

      .cls-11, .cls-2 {
        fill: #6c63ff;
      }

      .cls-2 {
        opacity: 0.04;
      }

      .cls-3 {
        opacity: 0.7;
      }

      .cls-4 {
        fill: url(#linear-gradient);
      }

      .cls-5 {
        fill: #3ad29f;
      }

      .cls-6 {
        fill: #4d8af0;
      }

      .cls-6, .cls-7, .cls-8, .cls-9 {
        opacity: 0.5;
      }

      .cls-7 {
        fill: #f55f44;
      }

      .cls-10, .cls-8 {
        fill: #47e6b1;
      }

      .cls-12 {
        fill: #ffb9b9;
      }

      .cls-13 {
        fill: #575a89;
      }

      .cls-14 {
        opacity: 0.1;
      }

      .cls-15 {
        fill: #2f2e41;
      }
    </style>
    <linearGradient id="linear-gradient" y1="0.5" x2="1" y2="0.5" gradientUnits="objectBoundingBox">
      <stop offset="0" stop-color="gray" stop-opacity="0.251"/>
      <stop offset="0.535" stop-color="gray" stop-opacity="0.122"/>
      <stop offset="1" stop-color="gray" stop-opacity="0.102"/>
    </linearGradient>
  </defs>
  <path id="Path_1509" data-name="Path 1509" class="cls-1" d="M400.069,76.854,332,118.744s0,86.4,68.071,133.524c68.071-47.126,68.071-133.524,68.071-133.524Z" transform="translate(-291.188 -74.142)"/>
  <path id="Path_1510" data-name="Path 1510" class="cls-2" d="M599.863,76.854l-1.164.716V251.451c.386.273.773.546,1.164.817,68.071-47.126,68.071-133.524,68.071-133.524Z" transform="translate(-490.575 -74.142)"/>
  <g id="Group_49" data-name="Group 49" class="cls-3" transform="translate(87.055 76.412)">
    <path id="Path_1511" data-name="Path 1511" class="cls-4" d="M350.268,313.936,363.1,325.7l15.908-22.949,6.416,5.347-22.324,28.3-18.179-20.318Z" transform="translate(-344.921 -302.75)"/>
  </g>
  <path id="Path_1512" data-name="Path 1512" class="cls-5" d="M365.258,313.895l10.409,9.542,14.747-21.687,5.2,4.337-19.952,26.024L360.921,315.63Z" transform="translate(-269.828 -225.59)"/>
  <path id="Path_1513" data-name="Path 1513" class="cls-6" d="M326.406,108.978a.927.927,0,0,1-.517-1.121.444.444,0,0,0,.02-.1h0a.465.465,0,0,0-.835-.308h0a.445.445,0,0,0-.051.091.927.927,0,0,1-1.121.517.447.447,0,0,0-.1-.02h0a.465.465,0,0,0-.308.836h0a.446.446,0,0,0,.091.051.927.927,0,0,1,.517,1.121.449.449,0,0,0-.02.1h0a.465.465,0,0,0,.836.308h0a.448.448,0,0,0,.051-.091.927.927,0,0,1,1.121-.517.446.446,0,0,0,.1.02h0a.465.465,0,0,0,.308-.836h0A.446.446,0,0,0,326.406,108.978Z" transform="translate(-284.689 -96.874)"/>
  <path id="Path_1514" data-name="Path 1514" class="cls-6" d="M180.406,433.978a.927.927,0,0,1-.517-1.121.447.447,0,0,0,.02-.1h0a.465.465,0,0,0-.836-.308h0a.446.446,0,0,0-.051.091.927.927,0,0,1-1.121.517.446.446,0,0,0-.1-.02h0a.465.465,0,0,0-.308.836h0a.445.445,0,0,0,.091.051.927.927,0,0,1,.517,1.121.445.445,0,0,0-.02.1h0a.465.465,0,0,0,.836.308h0a.446.446,0,0,0,.051-.091.927.927,0,0,1,1.121-.517.446.446,0,0,0,.1.02h0a.465.465,0,0,0,.308-.836h0A.447.447,0,0,0,180.406,433.978Z" transform="translate(-175.538 -339.846)"/>
  <circle id="Ellipse_305" data-name="Ellipse 305" class="cls-7" cx="1.514" cy="1.514" r="1.514" transform="translate(187.376 62.594)"/>
  <circle id="Ellipse_306" data-name="Ellipse 306" class="cls-7" cx="1.514" cy="1.514" r="1.514" transform="translate(29.125 170.871)"/>
  <circle id="Ellipse_307" data-name="Ellipse 307" class="cls-7" cx="1.514" cy="1.514" r="1.514" transform="translate(213.12 120.897)"/>
  <path id="Path_1515" data-name="Path 1515" class="cls-6" d="M865.406,137.978a.927.927,0,0,1-.517-1.121.444.444,0,0,0,.02-.1h0a.465.465,0,0,0-.835-.308h0a.449.449,0,0,0-.051.091.927.927,0,0,1-1.121.517.446.446,0,0,0-.1-.02h0a.465.465,0,0,0-.308.836h0a.448.448,0,0,0,.091.051.928.928,0,0,1,.517,1.121.444.444,0,0,0-.02.1h0a.465.465,0,0,0,.835.308h0a.441.441,0,0,0,.052-.091.927.927,0,0,1,1.121-.517.446.446,0,0,0,.1.02h0a.465.465,0,0,0,.308-.836h0A.446.446,0,0,0,865.406,137.978Z" transform="translate(-687.648 -118.555)"/>
  <path id="Path_1516" data-name="Path 1516" class="cls-6" d="M965.406,765.978a.928.928,0,0,1-.517-1.121.447.447,0,0,0,.02-.1h0a.465.465,0,0,0-.836-.308h0a.448.448,0,0,0-.052.091.928.928,0,0,1-1.121.517.444.444,0,0,0-.1-.02h0a.465.465,0,0,0-.308.836h0a.445.445,0,0,0,.091.051.927.927,0,0,1,.517,1.121.449.449,0,0,0-.02.1h0a.465.465,0,0,0,.836.308h0a.45.45,0,0,0,.052-.091.927.927,0,0,1,1.121-.517.444.444,0,0,0,.1.02h0a.465.465,0,0,0,.308-.835h0A.439.439,0,0,0,965.406,765.978Z" transform="translate(-762.409 -588.051)"/>
  <path id="Path_1517" data-name="Path 1517" class="cls-6" d="M173.406,243.978a.927.927,0,0,1-.517-1.121.447.447,0,0,0,.02-.1h0a.465.465,0,0,0-.836-.308h0a.445.445,0,0,0-.051.091.927.927,0,0,1-1.121.517.445.445,0,0,0-.1-.02h0a.465.465,0,0,0-.308.836h0a.446.446,0,0,0,.091.051.927.927,0,0,1,.517,1.121.446.446,0,0,0-.02.1h0a.465.465,0,0,0,.836.308h0a.445.445,0,0,0,.051-.091.927.927,0,0,1,1.121-.517.448.448,0,0,0,.1.02h0a.465.465,0,0,0,.308-.836h0A.445.445,0,0,0,173.406,243.978Z" transform="translate(-170.305 -197.801)"/>
  <circle id="Ellipse_308" data-name="Ellipse 308" class="cls-8" cx="1.514" cy="1.514" r="1.514" transform="translate(18.524 70.166)"/>
  <circle id="Ellipse_309" data-name="Ellipse 309" class="cls-8" cx="1.514" cy="1.514" r="1.514" transform="translate(213.877 82.281)"/>
  <g id="Group_50" data-name="Group 50" class="cls-9" transform="translate(145.479)">
    <rect id="Rectangle_528" data-name="Rectangle 528" class="cls-10" width="0.757" height="4.291" transform="translate(1.767)"/>
    <rect id="Rectangle_529" data-name="Rectangle 529" class="cls-10" width="0.757" height="4.291" transform="translate(4.291 1.767) rotate(90)"/>
  </g>
  <g id="Group_51" data-name="Group 51" class="cls-9" transform="translate(148.255 168.094)">
    <rect id="Rectangle_530" data-name="Rectangle 530" class="cls-10" width="0.757" height="4.291" transform="translate(1.767)"/>
    <rect id="Rectangle_531" data-name="Rectangle 531" class="cls-10" width="0.757" height="4.291" transform="translate(4.291 1.767) rotate(90)"/>
  </g>
  <g id="Group_52" data-name="Group 52" class="cls-9" transform="translate(4.895 177.181)">
    <rect id="Rectangle_532" data-name="Rectangle 532" class="cls-10" width="0.757" height="4.291" transform="translate(1.767)"/>
    <rect id="Rectangle_533" data-name="Rectangle 533" class="cls-10" width="0.757" height="4.291" transform="translate(4.291 1.767) rotate(90)"/>
  </g>
  <g id="Group_53" data-name="Group 53" class="cls-9" transform="translate(177.28 99.948)">
    <rect id="Rectangle_534" data-name="Rectangle 534" class="cls-10" width="0.757" height="4.291" transform="translate(1.767)"/>
    <rect id="Rectangle_535" data-name="Rectangle 535" class="cls-10" width="0.757" height="4.291" transform="translate(4.291 1.767) rotate(90)"/>
  </g>
  <path id="Path_1518" data-name="Path 1518" class="cls-8" d="M793.6,117.4l1.626,1.491,2.3-3.388.813.678-3.117,4.066-2.3-2.575Z" transform="translate(-592.794 -86.349)"/>
  <rect id="Rectangle_536" data-name="Rectangle 536" class="cls-11" width="5.614" height="7.218" transform="translate(148.77 60.607) rotate(-2.221)"/>
  <path id="Path_1519" data-name="Path 1519" class="cls-12" d="M659.063,400.1s-7.768-3.712-7.644-.506,7.831,5.314,7.831,5.314Z" transform="translate(-529.988 -314.446)"/>
  <path id="Path_1520" data-name="Path 1520" class="cls-11" d="M677.661,500.212a112.093,112.093,0,0,0-5.019,15.444c-1.354,6.473-3.416,15.382-.764,21.7s10.195,24.886,10.272,26.889-.646,4.038.957,3.976,10.325-2.808,10.679-4.026-2.976-4.3-2.976-4.3l-8.223-25.765,8.579-16.786,6.188,25.041,1.212,31.253s5.948-1.836,6.812-.264c0,0,2.665-3.715,3-5.333s-1.259-32.456-1.259-32.456,5.46-35.124,1.052-34.953S686.5,490.238,677.661,500.212Z" transform="translate(-544.323 -387.44)"/>
  <path id="Path_1521" data-name="Path 1521" class="cls-13" d="M701.495,767.84s-4.066,8.986-4.451,9.4-3.035,4.532-1.031,4.454,6.734-2.268,10.216-5.613,8.073-9.141,7.656-9.527a23.638,23.638,0,0,0-3.268-1.478Z" transform="translate(-562.773 -588.663)"/>
  <path id="Path_1522" data-name="Path 1522" class="cls-13" d="M780.119,793.632s-.245,4.022-.985,5.656-.646,4.038,1.357,3.96,7.181-1.081,7.181-1.081.307-2.42-.109-2.8-2.19-4.731-1.435-5.964S780.119,793.632,780.119,793.632Z" transform="translate(-625.152 -609.466)"/>
  <path id="Path_1523" data-name="Path 1523" class="cls-12" d="M778.814,278.6s4.271,6.656,5.936,8.2-3.019,4.932-3.019,4.932l-8.383,1.128s.106-7.629-.326-8.414S778.814,278.6,778.814,278.6Z" transform="translate(-620.883 -224.969)"/>
  <path id="Path_1524" data-name="Path 1524" class="cls-11" d="M740.771,307.677s1.727,3.143,3.33,3.081,9.893-3.594,10.247-4.812,2.746,8.722,2.746,8.722l-20.285,35.7-4.948-3.42,2.4-20.96,1.969-11.312Z" transform="translate(-590.127 -245.336)"/>
  <path id="Path_1525" data-name="Path 1525" class="cls-13" d="M724.915,332.483a11.228,11.228,0,0,0-1.245,5.265c0,.08.006.16.013.24.192,3.708,1.558,8,2.048,11.117.356,2.237.254,3.871-1.055,4.254-3.174.926.463,1.587-11.819,5.675s-14.425.559-14.456-.242,1.739-6.889,1.323-7.275-5.824,5.041-7.458,4.3-.187-4.808-.187-4.808,3.681-8.57,3.6-10.573,5.575-11.452,5.575-11.452l3.845-25.029s1.479-3.268,3.466-3.746a4.924,4.924,0,0,1,3.637.662l-3.327,7.352-3.51,12.977.587,4.793s4.081-8.585,6.762-11.9,8.4-11.16,8.4-11.16,1.334-4.5.327-5.847,4.2-1.551,6.422,3.981c1.177,2.932,3.088,7.3,4.286,11.375,1.067,3.606,1.571,6.978.514,8.9C731.05,324.292,726.987,328.161,724.915,332.483Z" transform="translate(-559.946 -238.193)"/>
  <path id="Path_1526" data-name="Path 1526" class="cls-14" d="M826.893,366.247c-1.615,2.944-5.679,6.813-7.75,11.135-.541-1.949-1.2-3.966-1.2-3.966s-2.532-13.546,4.957-17.046a5.012,5.012,0,0,1,3.481.973C827.446,360.949,827.95,364.32,826.893,366.247Z" transform="translate(-654.174 -283.092)"/>
  <path id="Path_1527" data-name="Path 1527" class="cls-13" d="M689.24,392.191l-6.349,1.851-8.815.342-.907,7.66,14.487,1.043S691.275,392.915,689.24,392.191Z" transform="translate(-546.249 -309.89)"/>
  <path id="Path_1528" data-name="Path 1528" class="cls-12" d="M757.593,494.231s-8.493,1.409-6.555,3.965,9.463-.131,9.463-.131Z" transform="translate(-604.249 -386.175)"/>
  <path id="Path_1529" data-name="Path 1529" class="cls-14" d="M782.038,461.5c.192,3.709,1.558,8,2.048,11.117-2.706,2.561-5.279,4.82-6.248,4.857-2,.078-5.225-.2-6.411.249s-1.883-7.15-1.883-7.15a6.57,6.57,0,0,1,3.867-3.761A43.994,43.994,0,0,0,782.038,461.5Z" transform="translate(-618.3 -361.708)"/>
  <path id="Path_1530" data-name="Path 1530" class="cls-13" d="M786.655,346.833s6.781-1.066,6.414,10.185.715,18.432-2.012,20.544-11.585,11.685-13.589,11.763-5.225-.2-6.411.249-1.882-7.15-1.882-7.15a6.571,6.571,0,0,1,3.867-3.762c3.159-1.326,10.6-6.029,10.539-7.632s-1.882-7.15-1.882-7.15S779.166,350.334,786.655,346.833Z" transform="translate(-618.023 -275.959)"/>
  <circle id="Ellipse_310" data-name="Ellipse 310" class="cls-12" cx="8.822" cy="8.822" r="8.822" transform="translate(143.13 45.845)"/>
  <path id="Path_1531" data-name="Path 1531" class="cls-15" d="M734.9,227.325a1.7,1.7,0,0,1-.742.372.529.529,0,0,1-.613-.425,2.2,2.2,0,0,1-.842,1.079c-.412.215-1.049.035-1.109-.426a1.944,1.944,0,0,1-.448.945.671.671,0,0,1-.943.032,24.19,24.19,0,0,1,.126,3,3.821,3.821,0,0,0,1.08,2.72c1.1.96,2.761.723,4.212.541a1.278,1.278,0,0,1,.66.036c.543.231.519.988.526,1.578a4.385,4.385,0,0,0,3.84,4.164,2.2,2.2,0,0,0,1.634-.4c.412-.349.622-.918,1.094-1.181.768-.427,1.7.2,2.26.871s1.115,1.507,1.984,1.63c1.15.164,2.026-1.009,2.456-2.088a12.171,12.171,0,0,0-.242-9.457C747.435,225.085,739.232,224.257,734.9,227.325Z" transform="translate(-588.891 -185.303)"/>
</svg>
