<svg xmlns="http://www.w3.org/2000/svg" xmlns:xlink="http://www.w3.org/1999/xlink" width="439.177" height="356.691" viewBox="0 0 439.177 356.691">
  <defs>
    <linearGradient id="linear-gradient" x1="0.5" y1="1" x2="0.5" gradientUnits="objectBoundingBox">
      <stop offset="0" stop-color="gray" stop-opacity="0.251"/>
      <stop offset="0.54" stop-color="gray" stop-opacity="0.122"/>
      <stop offset="1" stop-color="gray" stop-opacity="0.102"/>
    </linearGradient>
  </defs>
  <g id="Group_95" data-name="Group 95" transform="translate(-0.008 -0.075)">
    <path id="Path_1994" data-name="Path 1994" d="M169.421,322.135s-24.285-47.585-13.626-87.95a80.927,80.927,0,0,0-2.93-51.11A136.137,136.137,0,0,0,141.4,161" transform="translate(-111.566 -102.162)" fill="none" stroke="#535461" stroke-miterlimit="10" stroke-width="2"/>
    <path id="Path_1995" data-name="Path 1995" d="M125.4,86.615c1.159,6.174-6.658,26.168-6.658,26.168s-14.532-15.8-15.691-21.972a11.371,11.371,0,0,1,22.344-4.2Z" transform="translate(-88.996 -53.278)" fill="#6c63ff"/>
    <path id="Path_1996" data-name="Path 1996" d="M186.451,151.4c-2.383,5.793-19.812,18.347-19.812,18.347s-3.612-21.161-1.241-26.975a11.371,11.371,0,1,1,21.041,8.628Z" transform="translate(-125.161 -87.335)" fill="#6c63ff"/>
    <path id="Path_1997" data-name="Path 1997" d="M204.652,286.26c-4.99,3.815-26.362,5.834-26.362,5.834s7.564-20.093,12.554-23.9a11.371,11.371,0,1,1,13.808,18.07Z" transform="translate(-133.191 -163.629)" fill="#6c63ff"/>
    <path id="Path_1998" data-name="Path 1998" d="M201,399.383c-4.274,4.6-25,10.2-25,10.2s4.059-21.082,8.334-25.684A11.371,11.371,0,1,1,201,399.379Z" transform="translate(-131.849 -230.702)" fill="#6c63ff"/>
    <path id="Path_1999" data-name="Path 1999" d="M106.154,201.941c5.234,3.472,26.693,4.055,26.693,4.055s-8.9-19.539-14.131-23.01a11.371,11.371,0,0,0-12.567,18.955Z" transform="translate(-87.918 -113.939)" fill="#6c63ff"/>
    <path id="Path_2000" data-name="Path 2000" d="M96.9,330.105c6.033,1.746,26.685-4.138,26.685-4.138s-14.333-15.98-20.366-17.726A11.37,11.37,0,1,0,96.9,330.086Z" transform="translate(-80.665 -188.212)" fill="#6c63ff"/>
    <path id="Path_2001" data-name="Path 2001" d="M112.112,458.331c5.652,2.739,27,.451,27,.451s-11.429-18.173-17.077-20.913a11.372,11.372,0,1,0-9.931,20.462Z" transform="translate(-90.632 -263.797)" fill="#6c63ff"/>
    <path id="Path_2002" data-name="Path 2002" d="M125.4,86.615c1.159,6.174-6.658,26.168-6.658,26.168s-14.532-15.8-15.691-21.972a11.371,11.371,0,0,1,22.344-4.2Z" transform="translate(-88.996 -53.278)" fill="#fc6681"/>
    <path id="Path_2003" data-name="Path 2003" d="M186.451,151.4c-2.383,5.793-19.812,18.347-19.812,18.347s-3.612-21.161-1.241-26.975a11.371,11.371,0,1,1,21.041,8.628Z" transform="translate(-125.161 -87.335)" fill="#fc6681"/>
    <path id="Path_2004" data-name="Path 2004" d="M204.652,286.26c-4.99,3.815-26.362,5.834-26.362,5.834s7.564-20.093,12.554-23.9a11.371,11.371,0,1,1,13.808,18.07Z" transform="translate(-133.191 -163.629)" fill="#fc6681"/>
    <path id="Path_2005" data-name="Path 2005" d="M201,399.383c-4.274,4.6-25,10.2-25,10.2s4.059-21.082,8.334-25.684A11.371,11.371,0,1,1,201,399.379Z" transform="translate(-131.849 -230.702)" fill="#fc6681"/>
    <path id="Path_2006" data-name="Path 2006" d="M106.154,201.941c5.234,3.472,26.693,4.055,26.693,4.055s-8.9-19.539-14.131-23.01a11.371,11.371,0,0,0-12.567,18.955Z" transform="translate(-87.918 -113.939)" fill="#fc6681"/>
    <path id="Path_2007" data-name="Path 2007" d="M96.9,330.105c6.033,1.746,26.685-4.138,26.685-4.138s-14.333-15.98-20.366-17.726A11.37,11.37,0,1,0,96.9,330.086Z" transform="translate(-80.665 -188.212)" fill="#fc6681"/>
    <path id="Path_2008" data-name="Path 2008" d="M112.112,458.331c5.652,2.739,27,.451,27,.451s-11.429-18.173-17.077-20.913a11.372,11.372,0,1,0-9.931,20.462Z" transform="translate(-90.632 -263.797)" fill="#fc6681"/>
    <path id="Path_2009" data-name="Path 2009" d="M987.94,181.858s30.823-48.446,34.547-69.135A266.355,266.355,0,0,1,1033.245,73" transform="translate(-607.822 -50.575)" fill="none" stroke="#535461" stroke-miterlimit="10" stroke-width="2"/>
    <path id="Path_2010" data-name="Path 2010" d="M1086.878,173l-19.448,1.655S1077.775,192.448,1086.878,173Z" transform="translate(-654.42 -109.196)" fill="#6c63ff"/>
    <path id="Path_2011" data-name="Path 2011" d="M1031.473,147l15.4,12.335S1026.922,167.275,1031.473,147Z" transform="translate(-632.946 -93.955)" fill="#6c63ff"/>
    <path id="Path_2012" data-name="Path 2012" d="M1095.621,132l-17.511,2.346S1093.552,146.9,1095.621,132Z" transform="translate(-660.681 -85.162)" fill="#6c63ff"/>
    <path id="Path_2013" data-name="Path 2013" d="M1050.013,117l11.561,8.114S1047.53,131.069,1050.013,117Z" transform="translate(-644.038 -76.368)" fill="#6c63ff"/>
    <path id="Path_2014" data-name="Path 2014" d="M1088.74,94.808s14.354-3.8,16.423-2.975.828,9.931-4.965,10.345S1088.74,94.808,1088.74,94.808Z" transform="translate(-666.912 -61.546)" fill="#6c63ff"/>
    <path id="Path_2015" data-name="Path 2015" d="M1060.484,73s9.1,8.689,9.517,10.758-7.448,7.034-11.586,0S1060.484,73,1060.484,73Z" transform="translate(-648.302 -50.575)" fill="#6c63ff"/>
    <circle id="Ellipse_443" data-name="Ellipse 443" cx="4.138" cy="4.138" r="4.138" transform="translate(425.005 19.115)" fill="#ffd037"/>
    <circle id="Ellipse_444" data-name="Ellipse 444" cx="4.138" cy="4.138" r="4.138" transform="translate(417.557 17.046)" fill="#ffd037"/>
    <path id="Path_2016" data-name="Path 2016" d="M499.471,128.548c-1.61-19.94-10.68-39.156-24.914-50.411-15.235-12.049-34.481-14.3-51.818-21.517-17.9-7.473-33.831-20.321-51.562-28.332a105.432,105.432,0,0,0-90.937,2.069c-19.3,9.74-38.854,32.511-60.346,34.224-15.31,1.221-45.98-14.118-57.93.393-2.181,2.648-3.025,6.372-3.964,9.877-7.572,28.216-26.221,50.9-47.457,67.132-9,6.869-19.944,16.08-17.979,28.39,1.059,6.621,5.71,11.478,9.169,16.866,7.245,11.276,9.6,26.606,6.141,40.1-.07.269-.145.538-.219.828l-9.037,4.593c-4.783,2.429-9.931,5.272-11.9,10.266-2.019,5.181.1,11.044,2.946,15.827,2.036,3.422,4.469,6.691,6.178,10.254a27.612,27.612,0,0,0,.521,3.476,26.805,26.805,0,0,0,1.655,5.023c.153,5.615-1.974,11.292-4.965,16.138-3.724,6.045-8.689,11.2-12.873,16.924-5.814,7.9-10.171,17.168-10.8,26.983s2.868,20.168,10.469,26.408c6.976,5.727,16.4,7.448,25.415,7.862q3.426.17,6.848.145c16.071,0,32.06-2.954,47.9-5.909l17.135-3.194c7.862-1.469,16.075-3.124,23.586-5.95a37.786,37.786,0,0,1-.914,4.676,44.689,44.689,0,0,0-1.614,13.775h84.346a.963.963,0,0,0,.046.211h52.269l-.091-.211h.091s-.8-2.516-1.866-7.1a15.558,15.558,0,0,0,3.4-2.234,16.551,16.551,0,0,0,5.685-6.372s2.516-45.036.058-70.612c27.09-18.024,50.349-44.432,78.8-59.837,14.789-7.982,30.885-12.947,44.585-23.267a83.294,83.294,0,0,0,19.6-21.21A91.676,91.676,0,0,0,499.471,128.548Z" transform="translate(-69.31 -18.91)" fill="url(#linear-gradient)"/>
    <path id="Path_2017" data-name="Path 2017" d="M204.425,74.477c-2.127,2.582-2.946,6.207-3.865,9.629-7.382,27.512-25.564,49.654-46.273,65.452-8.768,6.7-19.448,15.678-17.528,27.678,1.03,6.447,5.565,11.172,8.942,16.444,7.067,10.994,9.356,25.944,5.987,39.1-3.832,14.975-14.532,28.965-11.218,44.093,2.044,9.335,8.979,15.955,15.649,21.657q15.6,13.336,32.2,24.98c7.419,5.205,15.31,10.27,23.954,10.928,7.614.583,15.07-2.309,22.295-5.168,6.314-2.483,12.79-5.094,17.888-10.1,3.31-3.265,5.983-7.481,9.678-10.15,8.689-6.277,19.837-2.3,29.792.377a103.744,103.744,0,0,0,71.005-6.5c34.3-16.138,60.441-49.964,93.978-68.125,14.424-7.812,30.115-12.658,43.472-22.717A81.208,81.208,0,0,0,519.5,191.371a89.412,89.412,0,0,0,13.994-54.88c-1.568-19.44-10.415-38.18-24.289-49.153-14.855-11.747-33.616-13.94-50.523-21-17.457-7.287-32.983-19.812-50.27-27.624a102.8,102.8,0,0,0-88.665,2c-18.815,9.5-37.882,31.7-58.84,33.367C245.965,75.3,216.086,60.346,204.425,74.477Z" transform="translate(-108.713 -25.156)" fill="#6c63ff"/>
    <path id="Path_2018" data-name="Path 2018" d="M665.637,381.8v.828c0,8.52-6.484,18.339-18.339,18.339a18.206,18.206,0,0,1-9.9-2.9,13.341,13.341,0,0,0,1.556.079,12.91,12.91,0,0,0,8-2.752,6.455,6.455,0,0,1-6-4.456,8.129,8.129,0,0,0,1.216.1,6.816,6.816,0,0,0,1.7-.219,6.447,6.447,0,0,1-5.168-6.327v-.079a6.492,6.492,0,0,0,2.9.828,6.455,6.455,0,0,1-1.994-8.619,18.322,18.322,0,0,0,13.291,6.745,7.28,7.28,0,0,1-.161-1.477,6.451,6.451,0,0,1,11.172-4.411A12.69,12.69,0,0,0,668,375.922a6.426,6.426,0,0,1-2.834,3.55,12.922,12.922,0,0,0,3.724-1,13.853,13.853,0,0,1-3.232,3.331Z" transform="translate(-402.329 -227.86)" opacity="0.2"/>
    <path id="Path_2019" data-name="Path 2019" d="M499.535,363.368c-13.481,39.421-11.95,52.716-11.95,52.716l2.9,22.344s-58.343,8.276-49.24-19.034c5.218-15.658,4.047-40.84,2.094-59.473C441.883,346.051,440,335.81,440,335.81l67.033,7.034C504.136,350.371,501.654,357.186,499.535,363.368Z" transform="translate(-286.61 -204.638)" fill="#ffd5d8"/>
    <path id="Path_2020" data-name="Path 2020" d="M507.033,342.844c-2.9,7.518-5.379,14.342-7.514,20.524a44.275,44.275,0,0,1-56.184-3.447C441.883,346.051,440,335.81,440,335.81Z" transform="translate(-286.61 -204.638)" opacity="0.1"/>
    <circle id="Ellipse_445" data-name="Ellipse 445" cx="44.275" cy="44.275" r="44.275" transform="translate(142.648 77.794)" fill="#ffd5d8"/>
    <path id="Path_2021" data-name="Path 2021" d="M556.068,524.74,530,513.568l4.552-34.758a56.273,56.273,0,0,1,11.2,2.483c10.038,3.252,23.586,10.6,26.437,26.826a.585.585,0,0,1,0,.083C576.757,534.671,556.068,524.74,556.068,524.74Z" transform="translate(-339.37 -288.467)" fill="#ffd5d8"/>
    <path id="Path_2022" data-name="Path 2022" d="M591.281,510.744l-3.5,5.255-14.019.935v-9.422s-3.36-10.961-3.36-11.789-5.6-10.655-5.6-10.655l-2.259-1.759,2.3.608C574.883,487.171,588.451,494.515,591.281,510.744Z" transform="translate(-358.445 -291.105)" opacity="0.05"/>
    <path id="Path_2023" data-name="Path 2023" d="M562.54,483.31l8.069,15.1v18.62l11.172,2.9-7.034-19.448S566.678,484.965,562.54,483.31Z" transform="translate(-358.445 -291.105)" fill="#6c63ff"/>
    <path id="Path_2024" data-name="Path 2024" d="M383.069,642.807h0a43.592,43.592,0,0,1,1.572-13.431c5.28-19.4-3.641-82.55-3.641-82.55s2.483-53.792,35.585-62.9c31.609-8.689,53.792,27.132,55.72,30.384.1.153.141.236.141.236l13.158-5.756.083-.037v.207c.1,2.942,2.367,8.743,5.5,15.451a196.132,196.132,0,0,1,12.364,34.654A200.49,200.49,0,0,1,509.513,599c1.287,26.42,6.794,43.807,6.794,43.807Z" transform="translate(-252.023 -290.675)" fill="#6c63ff"/>
    <path id="Path_2025" data-name="Path 2025" d="M632.855,595.829l1.787,11.963L601.54,551.1l.066-.029,13.175-5.764.124.244.087.17c.1,2.942,2.367,8.743,5.5,15.451A196.132,196.132,0,0,1,632.855,595.829Z" transform="translate(-381.307 -327.451)" opacity="0.1"/>
    <path id="Path_2026" data-name="Path 2026" d="M244.556,165.1c-17.445-1.97-35.9,2.309-49.484,13.436s-21.517,29.428-18.467,46.716c2.553,14.383,12.194,28.183,8.756,42.376-3.265,13.481-16.924,21.335-29.288,27.62l-43.195,21.955c-4.663,2.371-9.7,5.139-11.586,10.009-1.97,5.052.1,10.758,2.872,15.43s6.31,9.025,7.605,14.292c1.655,6.716-.687,13.845-4.3,19.737S99,387.6,94.919,393.177c-5.681,7.738-9.914,16.787-10.543,26.354s2.8,19.663,10.2,25.75c6.8,5.586,15.989,7.245,24.781,7.68,17.635.869,35.172-2.383,52.55-5.619l16.7-3.116c15.38-2.868,32.052-6.467,42.057-18.5,11.586-13.911,10.249-34.129,7.974-52.079s-4.436-37.861,6.078-52.6c6.873-9.654,18.38-15.641,23.846-26.155,10.005-19.228-4.552-42.913.145-64.07,1.332-5.992,4.179-11.532,5.954-17.408,3.157-10.456,3.492-25.53-1.92-35.486C267.773,168.8,253.94,166.159,244.556,165.1Z" transform="translate(-78.094 -104.296)" opacity="0.1"/>
    <path id="Path_2027" data-name="Path 2027" d="M242.556,165.1c-17.445-1.97-35.9,2.309-49.484,13.436s-21.517,29.428-18.467,46.716c2.553,14.383,12.194,28.183,8.756,42.376-3.265,13.481-16.924,21.335-29.288,27.62l-43.195,21.955c-4.663,2.371-9.7,5.139-11.586,10.009-1.97,5.052.1,10.758,2.872,15.43s6.31,9.025,7.605,14.292c1.655,6.716-.687,13.845-4.3,19.737S97,387.6,92.919,393.177c-5.681,7.738-9.914,16.787-10.543,26.354s2.8,19.663,10.2,25.75c6.8,5.586,15.989,7.245,24.781,7.68,17.635.869,35.172-2.383,52.55-5.619l16.7-3.116c15.38-2.868,32.052-6.467,42.057-18.5,11.586-13.911,10.249-34.129,7.974-52.079s-4.436-37.861,6.078-52.6c6.873-9.654,18.38-15.641,23.846-26.155,10.005-19.228-4.552-42.913.145-64.07,1.332-5.992,4.179-11.532,5.954-17.408,3.157-10.456,3.492-25.53-1.92-35.486C265.773,168.8,251.94,166.159,242.556,165.1Z" transform="translate(-76.922 -104.296)" fill="#6c63ff"/>
    <path id="Path_2028" data-name="Path 2028" d="M242.556,165.1c-17.445-1.97-35.9,2.309-49.484,13.436s-21.517,29.428-18.467,46.716c2.553,14.383,12.194,28.183,8.756,42.376-3.265,13.481-16.924,21.335-29.288,27.62l-43.195,21.955c-4.663,2.371-9.7,5.139-11.586,10.009-1.97,5.052.1,10.758,2.872,15.43s6.31,9.025,7.605,14.292c1.655,6.716-.687,13.845-4.3,19.737S97,387.6,92.919,393.177c-5.681,7.738-9.914,16.787-10.543,26.354s2.8,19.663,10.2,25.75c6.8,5.586,15.989,7.245,24.781,7.68,17.635.869,35.172-2.383,52.55-5.619l16.7-3.116c15.38-2.868,32.052-6.467,42.057-18.5,11.586-13.911,10.249-34.129,7.974-52.079s-4.436-37.861,6.078-52.6c6.873-9.654,18.38-15.641,23.846-26.155,10.005-19.228-4.552-42.913.145-64.07,1.332-5.992,4.179-11.532,5.954-17.408,3.157-10.456,3.492-25.53-1.92-35.486C265.773,168.8,251.94,166.159,242.556,165.1Z" transform="translate(-76.922 -104.296)" opacity="0.1"/>
    <path id="Path_2029" data-name="Path 2029" d="M562.54,475.675l31.034,56.974,21.517-11.044s-38.482-52.137-43.447-51.309S562.54,475.675,562.54,475.675Z" transform="translate(-358.445 -283.471)" fill="#6c63ff"/>
    <path id="Path_2030" data-name="Path 2030" d="M645.793,476l-7.034-20.689s-4.965-50.9-24.413-52.55,4.965,54.206,4.965,54.206S628,473.1,624.69,485.1,645.793,476,645.793,476Z" transform="translate(-384.406 -243.864)" fill="#ffd5d8"/>
    <path id="Path_2031" data-name="Path 2031" d="M447.361,580.031l48.375,58.484s46.344,33.1,59.171,8.689c0,0,5.379-66.619-.828-82.343s-8.276-25.655-8.276-25.655-25.655,9.931-27.31,2.9l.621,67.24s-29.172-107.377-57.309-94.136q-.588.277-1.159.559C436.565,527.741,430.2,559.292,447.361,580.031Z" transform="translate(-285.244 -309.141)" opacity="0.1"/>
    <path id="Path_2032" data-name="Path 2032" d="M451.361,577.226l48.375,58.484s46.344,33.1,59.171,8.689c0,0,3.724-66.619-2.483-82.343S549.8,536.4,549.8,536.4s-25.655,9.931-27.31,2.9l1.034,83.377S493.944,499.162,465.806,512.4q-.588.277-1.159.559C440.566,524.936,434.2,556.487,451.361,577.226Z" transform="translate(-287.589 -307.578)" fill="#6c63ff"/>
    <circle id="Ellipse_446" data-name="Ellipse 446" cx="3.31" cy="3.31" r="3.31" transform="translate(283.128 44.484)" fill="#fff"/>
    <circle id="Ellipse_447" data-name="Ellipse 447" cx="1.655" cy="1.655" r="1.655" transform="translate(274.024 92.069)" fill="#fff"/>
    <circle id="Ellipse_448" data-name="Ellipse 448" cx="1.655" cy="1.655" r="1.655" transform="translate(211.957 46.139)" fill="#fff"/>
    <circle id="Ellipse_449" data-name="Ellipse 449" cx="1.655" cy="1.655" r="1.655" transform="translate(74.357 113.457)" fill="#fff"/>
    <circle id="Ellipse_450" data-name="Ellipse 450" cx="1.655" cy="1.655" r="1.655" transform="translate(170.165 233.169)" fill="#fff"/>
    <circle id="Ellipse_451" data-name="Ellipse 451" cx="1.655" cy="1.655" r="1.655" transform="translate(58.03 157.033)" fill="#fff"/>
    <circle id="Ellipse_452" data-name="Ellipse 452" cx="1.655" cy="1.655" r="1.655" transform="translate(345.609 58.553)" fill="#fff"/>
    <circle id="Ellipse_453" data-name="Ellipse 453" cx="1.655" cy="1.655" r="1.655" transform="translate(251.68 125.585)" fill="#fff"/>
    <circle id="Ellipse_454" data-name="Ellipse 454" cx="1.655" cy="1.655" r="1.655" transform="translate(393.194 104.069)" fill="#fff"/>
    <circle id="Ellipse_455" data-name="Ellipse 455" cx="1.655" cy="1.655" r="1.655" transform="translate(284.973 227.248)" fill="#fff"/>
    <path id="Path_2033" data-name="Path 2033" d="M828.678,259.339H825.24V255.9h-.575v3.439H821.23v.575h3.434v3.434h.575v-3.434h3.439Z" transform="translate(-481.414 -149.969)" fill="#fff"/>
    <path id="Path_2034" data-name="Path 2034" d="M418.54,758.431h-1.527V756.9h-.257v1.531H415.23v.252h1.527v1.527h.257v-1.527h1.527Z" transform="translate(-243.41 -443.664)" fill="#fff"/>
    <path id="Path_2035" data-name="Path 2035" d="M583.54,645.431h-1.531V643.9h-.252v1.531H580.23v.252h1.527v1.527h.252v-1.527h1.531Z" transform="translate(-340.136 -377.421)" fill="#fff"/>
    <path id="Path_2036" data-name="Path 2036" d="M829.54,415.431h-1.531V413.9h-.252v1.531H826.23v.252h1.527v1.527h.252v-1.527h1.531Z" transform="translate(-484.345 -242.592)" fill="#fff"/>
    <path id="Path_2037" data-name="Path 2037" d="M661.54,473.431h-1.531V471.9h-.252v1.531H658.23v.252h1.527v1.527h.252v-1.527h1.531Z" transform="translate(-385.861 -276.592)" fill="#fff"/>
    <path id="Path_2038" data-name="Path 2038" d="M186.54,411.431h-1.531V409.9h-.252v1.531H183.23v.252h1.527v1.527h.252v-1.527h1.531Z" transform="translate(-107.408 -240.247)" fill="#fff"/>
    <path id="Path_2039" data-name="Path 2039" d="M587.54,176.431h-1.531V174.9h-.252v1.531H584.23v.252h1.527v1.527h.252v-1.527h1.531Z" transform="translate(-342.481 -102.486)" fill="#fff"/>
    <path id="Path_2040" data-name="Path 2040" d="M264.54,141.431h-1.527V139.9h-.257v1.531H261.23v.252h1.527v1.527h.257v-1.527h1.527Z" transform="translate(-153.133 -81.968)" fill="#fff"/>
    <path id="Path_2041" data-name="Path 2041" d="M786.927,172.4l-2.388,6.1v24.918h8.466v4.5h4.771l4.5-4.5h6.9l9.277-9.277V172.4Zm28.365,20.143-5.321,5.3h-8.483l-4.5,4.5v-4.5h-7.158v-22.27h25.448Zm-5.321-10.87v9.269h-3.178v-9.269Zm-8.483,0v9.269h-3.178v-9.269Z" transform="translate(-488.585 -108.845)" opacity="0.2"/>
    <path id="Path_2042" data-name="Path 2042" d="M918.567,313.89l-6.807-2.839,9.1-21.91,6.807,2.826Zm6.947-26.312a4.287,4.287,0,1,1,5.594-2.338A4.287,4.287,0,0,1,925.514,287.577Zm18.529,36.9-6.79-2.822,4.432-10.663c1.055-2.541,2.359-5.822-1.125-7.27s-5.226,1.068-6.414,3.923L929.627,318.5l-6.8-2.826,9.1-21.91,6.525,2.71-1.241,2.987.1.041a7.734,7.734,0,0,1,7.907-.861c6.885,2.859,6.269,7.92,3.823,13.812l-5,12.033Z" transform="translate(-563.164 -171.525)" opacity="0.2"/>
    <path id="Path_2043" data-name="Path 2043" d="M622.891,76.753a6.757,6.757,0,1,0,4.8,1.972A6.77,6.77,0,0,0,622.891,76.753Zm0,11.172a4.4,4.4,0,1,1,4.4-4.4,4.4,4.4,0,0,1-4.4,4.4Zm8.623-11.445a1.577,1.577,0,1,1-.463-1.12,1.581,1.581,0,0,1,.463,1.12Zm4.481,1.6a7.307,7.307,0,0,0-7.663-7.663c-2.181-.124-8.714-.124-10.891,0a7.3,7.3,0,0,0-7.663,7.659c-.124,2.181-.124,8.714,0,10.891a7.307,7.307,0,0,0,7.663,7.663c2.181.124,8.714.124,10.891,0A7.307,7.307,0,0,0,636,88.968C636.12,86.787,636.12,80.279,636,78.081Zm-2.814,13.241a4.456,4.456,0,0,1-2.507,2.508c-1.738.691-5.863.53-7.783.53s-6.049.153-7.783-.53a4.457,4.457,0,0,1-2.508-2.508c-.691-1.738-.53-5.863-.53-7.783s-.153-6.05.53-7.783a4.457,4.457,0,0,1,2.508-2.508c1.738-.691,5.863-.53,7.783-.53s6.05-.153,7.783.53a4.456,4.456,0,0,1,2.507,2.508c.691,1.738.53,5.863.53,7.783s.157,6.033-.53,7.754Z" transform="translate(-386.082 -49.007)" opacity="0.2"/>
    <path id="Path_2044" data-name="Path 2044" d="M819.85,451.866v24.293a1.506,1.506,0,0,1-1.506,1.506h-6.96V467.073h3.546l.53-4.138h-4.084V460.3c0-1.2.331-2.007,2.044-2.007H815.6V454.61a29.334,29.334,0,0,0-3.182-.165c-3.145,0-5.3,1.92-5.3,5.449v3.041h-3.559v4.138h3.559v10.576H794.046a1.51,1.51,0,0,1-1.506-1.506V451.866a1.51,1.51,0,0,1,1.506-1.506h24.293A1.51,1.51,0,0,1,819.85,451.866Z" transform="translate(-493.275 -271.79)" opacity="0.2"/>
    <path id="Path_2045" data-name="Path 2045" d="M972.073,181.87a4.34,4.34,0,0,0-2.251-3.7c-2.45-1.337-12.947-3.865-12.947-3.865s-10.5-2.528-13.291-2.454a4.341,4.341,0,0,0-3.687,2.272,45.965,45.965,0,0,0-2.661,7.965,44.552,44.552,0,0,0-1.241,8.3,4.274,4.274,0,0,0,2.259,3.654c2.45,1.337,12.947,3.865,12.947,3.865s10.5,2.528,13.291,2.454a4.274,4.274,0,0,0,3.678-2.226,48.33,48.33,0,0,0,3.9-16.266ZM949.389,190.3l2.4-9.985,7.576,7.1-9.976,2.9Z" transform="translate(-577.368 -108.52)" opacity="0.2"/>
  </g>
</svg>
