<svg id="Component_31_1" data-name="Component 31 – 1" xmlns="http://www.w3.org/2000/svg" xmlns:xlink="http://www.w3.org/1999/xlink" width="282.685" height="195.121" viewBox="0 0 282.685 195.121">
  <defs>
    <style>
      .cls-1, .cls-3 {
        fill: #6c63ff;
      }

      .cls-1, .cls-16, .cls-7 {
        opacity: 0.1;
      }

      .cls-2 {
        fill: #30374e;
      }

      .cls-4 {
        fill: #444053;
      }

      .cls-5 {
        fill: #afc0e0;
      }

      .cls-6 {
        fill: #fff;
        opacity: 0.2;
      }

      .cls-8 {
        fill: #e3e8f4;
      }

      .cls-9 {
        fill: none;
        stroke: #535461;
        stroke-miterlimit: 10;
        stroke-width: 2px;
      }

      .cls-10 {
        opacity: 0.25;
      }

      .cls-11 {
        fill: url(#linear-gradient);
      }

      .cls-12 {
        fill: #434175;
      }

      .cls-13 {
        opacity: 0.05;
      }

      .cls-14 {
        fill: #565387;
      }

      .cls-15 {
        fill: #ee8e9e;
      }
    </style>
    <linearGradient id="linear-gradient" x1="0.5" y1="1" x2="0.5" gradientUnits="objectBoundingBox">
      <stop offset="0" stop-color="gray" stop-opacity="0.251"/>
      <stop offset="0.54" stop-color="gray" stop-opacity="0.122"/>
      <stop offset="1" stop-color="gray" stop-opacity="0.102"/>
    </linearGradient>
  </defs>
  <path id="Path_1364" data-name="Path 1364" class="cls-1" d="M31.89,232.136c5-8.162,16.3-6.739,24.309-2.478s16.008,10.62,24.827,9.4c7.435-1.031,13.532-7.515,16.826-14.995s4.26-15.914,5.187-24.175q1.747-15.567,3.492-31.154c.426-3.8.929-7.81,3.066-10.816,2.823-3.966,8-5.185,12.424-3.993s8.2,4.389,11.431,7.956c10.345,11.421,16.207,26.859,25.25,39.568,1.841,2.587,3.921,5.145,6.672,6.394,3.966,1.8,8.518.525,12.392-1.475,12.64-6.516,21.131-19.813,29.476-32.22,4.06-6.03,9.009-12.479,15.763-13.136,7.106-.706,13.275,5.348,17.451,11.76,13.4,20.631,16.276,48.8,32.468,66.789a26.321,26.321,0,0,0,6.784,5.678,17.509,17.509,0,0,0,2.627,1.152c14.127,4.89,18.836,24.519,8.387,36.158-.226.248-.456.5-.689.744-1.552,1.638-3.309,3.187-5.405,3.676a11.806,11.806,0,0,1-5.9-.632c-12.358-3.606-24.566-9.118-37.343-8.851-12.432.248-24.224,5.99-36.517,8.057-8.266,1.39-16.675,1.113-25.032.813q-41.752-1.5-83.486-3.495c-13.81-.634-27.625-1.239-41.432-1.946C44.28,280.364,37.5,279.147,36.27,266.8,35.189,255.991,25.484,242.6,31.89,232.136Z" transform="translate(-29.719 -129.414)"/>
  <ellipse id="Ellipse_300" data-name="Ellipse 300" class="cls-2" cx="66.916" cy="9.351" rx="66.916" ry="9.351" transform="translate(128.857 176.418)"/>
  <path id="Path_1365" data-name="Path 1365" class="cls-3" d="M178.46,642.763s3.272-.744,5.415,1.455c0,0-1.378,1.239-4.62-.134Z" transform="translate(-141.595 -497.335)"/>
  <path id="Path_1366" data-name="Path 1366" class="cls-3" d="M173.61,643s-1.938,2.746-.709,5.564c0,0,1.675-.806,1.628-4.325Z" transform="translate(-137.107 -497.604)"/>
  <path id="Path_1367" data-name="Path 1367" class="cls-3" d="M168.2,623.334s1.162-2.516,6.692.525a2.977,2.977,0,0,1-2.944,1.705A3.6,3.6,0,0,1,168.2,623.334Z" transform="translate(-133.878 -482.078)"/>
  <path id="Path_1368" data-name="Path 1368" class="cls-3" d="M158.833,625.679s-2.768-.129-2.612,6.176a2.972,2.972,0,0,0,2.87-1.829A3.6,3.6,0,0,0,158.833,625.679Z" transform="translate(-124.863 -484.577)"/>
  <path id="Path_1369" data-name="Path 1369" class="cls-3" d="M159,598.077s1.239-4.382,7.056-1.705c0,0-1.016,4.013-6.394,3.133Z" transform="translate(-126.958 -461.881)"/>
  <path id="Path_1370" data-name="Path 1370" class="cls-3" d="M150.29,573.6s2.622-4.521,8.052-.853c0,0-1.534,4.181-7.507,2.367Z" transform="translate(-120.407 -443.682)"/>
  <path id="Path_1371" data-name="Path 1371" class="cls-3" d="M146.15,549.922s3.13-4.2,8.516-.573c0,0-2.989,3.7-8.449,1.586Z" transform="translate(-117.293 -426.054)"/>
  <path id="Path_1372" data-name="Path 1372" class="cls-3" d="M142.41,525.746s3.162-4.377,8.325-.781c0,0-3.638,3.923-8.261,1.752Z" transform="translate(-114.48 -407.758)"/>
  <path id="Path_1373" data-name="Path 1373" class="cls-3" d="M142.23,501.078s3.259-5.584,8.092-2.273c0,0-3.574,4.85-8.023,3.286Z" transform="translate(-114.345 -388.359)"/>
  <path id="Path_1374" data-name="Path 1374" class="cls-3" d="M144,476.793s3.47-5.552,8.2-1.78c0,0-4.238,4.895-8.147,2.763Z" transform="translate(-115.676 -370.265)"/>
  <path id="Path_1375" data-name="Path 1375" class="cls-3" d="M147.292,451.866s4.213-5.282,8.315-3.562c0,0-4.382,5.6-8.427,4.9Z" transform="translate(-118.068 -350.904)"/>
  <path id="Path_1376" data-name="Path 1376" class="cls-3" d="M151.72,427.323s4.843-6.444,8.023-4.615c0,0-3.547,4.979-8.323,5.787Z" transform="translate(-121.257 -331.665)"/>
  <path id="Path_1377" data-name="Path 1377" class="cls-3" d="M158.67,404.023s4.255-5.284,7.683-4.273c0,0-3.581,5.425-8.2,5.869Z" transform="translate(-126.319 -314.546)"/>
  <path id="Path_1378" data-name="Path 1378" class="cls-3" d="M166.641,380.473s4.754-5.106,7.016-4.417c0,0-3.309,5.542-7.168,5.49Z" transform="translate(-132.592 -296.773)"/>
  <path id="Path_1379" data-name="Path 1379" class="cls-3" d="M173.87,355.181s3.988-5.985,6.4-5.7c0,0-2.307,5.252-6.36,6.278Z" transform="translate(-138.143 -276.824)"/>
  <path id="Path_1380" data-name="Path 1380" class="cls-3" d="M180.664,329.174s3.566-4.625,5.653-4.754c0,0-2.654,6.033-5.718,6.2Z" transform="translate(-143.205 -257.983)"/>
  <path id="Path_1381" data-name="Path 1381" class="cls-3" d="M183.792,296.041l3.118-9.341s.744,8.2-3.47,11.059Z" transform="translate(-145.341 -229.611)"/>
  <path id="Path_1382" data-name="Path 1382" class="cls-3" d="M187.25,258.581s.109-7.631-.33-8.221c0,0,3.091,6.132.53,11.577Z" transform="translate(-147.959 -202.278)"/>
  <path id="Path_1383" data-name="Path 1383" class="cls-3" d="M139.729,604.4s-4.03-2.136-6.139,3.9c0,0,3.594,2.052,6.692-2.431Z" transform="translate(-107.846 -468.292)"/>
  <path id="Path_1384" data-name="Path 1384" class="cls-3" d="M129.149,578.821s-4.887-1.846-6.779,4.431c0,0,3.834,2.268,7.314-2.915Z" transform="translate(-99.407 -449.142)"/>
  <path id="Path_1385" data-name="Path 1385" class="cls-3" d="M119.516,553.1s-3.666-3.745-8.516.578c0,0,3.455,3.269,8.583.444Z" transform="translate(-90.855 -428.854)"/>
  <path id="Path_1386" data-name="Path 1386" class="cls-3" d="M116.585,527.465s-3.718-3.918-8.355.337c0,0,4.129,3.4,8.427.632Z" transform="translate(-88.772 -409.467)"/>
  <path id="Path_1387" data-name="Path 1387" class="cls-3" d="M118.329,500.487s-2.816-5.817-7.889-2.892c0,0,3.187,5.113,7.743,3.9Z" transform="translate(-90.434 -387.619)"/>
  <path id="Path_1388" data-name="Path 1388" class="cls-3" d="M121.056,474.827s-2.808-5.923-7.946-2.744c0,0,3.633,5.356,7.767,3.7Z" transform="translate(-92.442 -368.343)"/>
  <path id="Path_1389" data-name="Path 1389" class="cls-3" d="M131.987,442.737s-1.4-6.605-5.837-6.907c0,0,1.408,6.972,5.331,8.149Z" transform="translate(-102.25 -341.78)"/>
  <path id="Path_1390" data-name="Path 1390" class="cls-3" d="M139.205,417.925s-.91-8.008-4.575-8.045c0,0,.533,6.09,4.241,9.207Z" transform="translate(-108.628 -322.262)"/>
  <path id="Path_1391" data-name="Path 1391" class="cls-3" d="M146.323,394.537s-1.539-6.608-5.073-7.187c0,0,.867,6.444,4.84,8.853Z" transform="translate(-113.608 -305.316)"/>
  <path id="Path_1392" data-name="Path 1392" class="cls-3" d="M160.209,370.367s-.5-6.957-2.7-7.837c0,0-.895,6.389,2.144,8.769Z" transform="translate(-125.743 -286.647)"/>
  <path id="Path_1393" data-name="Path 1393" class="cls-3" d="M165.209,347.85s-.781-7.15-3.051-8.01c0,0-.372,5.723,2.751,8.5Z" transform="translate(-129.324 -269.581)"/>
  <path id="Path_1394" data-name="Path 1394" class="cls-3" d="M175.186,324.3s-.406-5.827-2.07-7.091c0,0-1.135,6.491,1.326,8.318Z" transform="translate(-137.38 -252.56)"/>
  <path id="Path_1395" data-name="Path 1395" class="cls-3" d="M176.47,294.141l-2.181-9.6s-1.544,8.09,2.372,11.346Z" transform="translate(-138.232 -227.987)"/>
  <path id="Path_1396" data-name="Path 1396" class="cls-3" d="M169.474,263.054s-4.37-6.265-4.335-6.994c0,0,.877,6.811,6.05,9.887Z" transform="translate(-131.576 -206.565)"/>
  <path id="Path_1397" data-name="Path 1397" class="cls-3" d="M165.625,247.056s-4.327-9.019-6.055-9.666a11.776,11.776,0,0,1,6.347,9.369Z" transform="translate(-127.387 -192.523)"/>
  <path id="Path_1398" data-name="Path 1398" class="cls-4" d="M179.788,292.724l-.248-.062c2.441-10.409,2.786-16.972.967-18.479l.169-.2C182.593,275.576,182.291,282.06,179.788,292.724Z" transform="translate(-142.408 -220.044)"/>
  <path id="Path_1399" data-name="Path 1399" class="cls-4" d="M151.094,371.716l-.384-.107c.27-.957.563-1.931.875-2.89,2.726-8.357,4.992-16.11,6.382-22.043l.315-.186c-1.393,5.948-3.6,13.986-6.318,22.351C151.654,369.8,151.362,370.764,151.094,371.716Z" transform="translate(-120.723 -274.583)"/>
  <path id="Path_1400" data-name="Path 1400" class="cls-4" d="M155.156,501.246a51.644,51.644,0,0,1-9.7-14.93,57.591,57.591,0,0,1-4.612-17.54,67.471,67.471,0,0,1,2.478-24.016l.317.327c-4.957,17.674-1.534,32.3,2.288,40.993a51.215,51.215,0,0,0,9.592,14.786Z" transform="translate(-113.124 -348.497)"/>
  <path id="Path_1401" data-name="Path 1401" class="cls-3" d="M223.53,558.234a3.754,3.754,0,0,1,3.277.88s-.835.744-2.793-.082Z" transform="translate(-175.495 -433.792)"/>
  <path id="Path_1402" data-name="Path 1402" class="cls-3" d="M220.616,558.39a3.75,3.75,0,0,0-.426,3.363s1.011-.5.991-2.615Z" transform="translate(-172.796 -433.965)"/>
  <path id="Path_1403" data-name="Path 1403" class="cls-3" d="M217.34,546.491s.7-1.519,4.04.32a1.8,1.8,0,0,1-1.78,1.029A2.171,2.171,0,0,1,217.34,546.491Z" transform="translate(-170.839 -424.571)"/>
  <path id="Path_1404" data-name="Path 1404" class="cls-3" d="M211.67,547.91s-1.675-.077-1.581,3.733a1.8,1.8,0,0,0,1.735-1.105A2.174,2.174,0,0,0,211.67,547.91Z" transform="translate(-165.382 -426.082)"/>
  <path id="Path_1405" data-name="Path 1405" class="cls-3" d="M211.75,531.215s.761-2.649,4.27-1.036c0,0-.612,2.426-3.864,1.893Z" transform="translate(-166.635 -412.354)"/>
  <path id="Path_1406" data-name="Path 1406" class="cls-3" d="M206.51,516.431s1.584-2.726,4.868-.516c0,0-.929,2.528-4.538,1.43Z" transform="translate(-162.693 -401.367)"/>
  <path id="Path_1407" data-name="Path 1407" class="cls-3" d="M204,502.109s1.894-2.54,5.148-.347a4.42,4.42,0,0,1-5.106.959Z" transform="translate(-160.805 -390.7)"/>
  <path id="Path_1408" data-name="Path 1408" class="cls-3" d="M201.74,487.5s1.913-2.647,5.034-.471c0,0-2.2,2.372-4.994,1.058Z" transform="translate(-159.106 -379.641)"/>
  <path id="Path_1409" data-name="Path 1409" class="cls-3" d="M201.64,472.58s1.983-3.373,4.89-1.373c0,0-2.161,2.932-4.85,1.983Z" transform="translate(-159.03 -367.912)"/>
  <path id="Path_1410" data-name="Path 1410" class="cls-3" d="M202.68,457.89s2.1-3.358,4.957-1.086c0,0-2.563,2.959-4.927,1.67Z" transform="translate(-159.813 -356.963)"/>
  <path id="Path_1411" data-name="Path 1411" class="cls-3" d="M204.712,442.838s2.545-3.192,5.026-2.151c0,0-2.649,3.386-5.088,2.959Z" transform="translate(-161.294 -345.276)"/>
  <path id="Path_1412" data-name="Path 1412" class="cls-3" d="M207.371,427.994s2.927-3.894,4.85-2.791c0,0-2.144,3.011-5.031,3.5Z" transform="translate(-163.205 -333.639)"/>
  <path id="Path_1413" data-name="Path 1413" class="cls-3" d="M211.6,413.926s2.573-3.195,4.65-2.583c0,0-2.164,3.279-4.957,3.547Z" transform="translate(-166.289 -323.304)"/>
  <path id="Path_1414" data-name="Path 1414" class="cls-3" d="M216.392,399.672s2.873-3.086,4.241-2.669c0,0-2,3.348-4.332,3.319Z" transform="translate(-170.057 -312.547)"/>
  <path id="Path_1415" data-name="Path 1415" class="cls-3" d="M220.76,384.373s2.412-3.618,3.869-3.45c0,0-1.393,3.175-3.844,3.8Z" transform="translate(-173.412 -300.477)"/>
  <path id="Path_1416" data-name="Path 1416" class="cls-3" d="M224.88,368.655s2.156-2.8,3.418-2.875c0,0-1.606,3.648-3.457,3.74Z" transform="translate(-176.48 -289.092)"/>
  <path id="Path_1417" data-name="Path 1417" class="cls-3" d="M226.733,348.641,228.614,343s.446,4.957-2.1,6.692Z" transform="translate(-177.736 -271.958)"/>
  <path id="Path_1418" data-name="Path 1418" class="cls-3" d="M228.851,325.979s.064-4.612-.2-4.969c0,0,1.869,3.705.32,7Z" transform="translate(-179.346 -255.418)"/>
  <path id="Path_1419" data-name="Path 1419" class="cls-3" d="M200.1,535.044s-2.434-1.294-3.718,2.355c0,0,2.174,1.239,4.047-1.467Z" transform="translate(-155.074 -416.237)"/>
  <path id="Path_1420" data-name="Path 1420" class="cls-3" d="M193.729,519.536s-2.957-1.115-4.1,2.679c0,0,2.317,1.371,4.422-1.76Z" transform="translate(-149.997 -404.625)"/>
  <path id="Path_1421" data-name="Path 1421" class="cls-3" d="M187.9,504.028s-2.213-2.263-5.148.347a4.4,4.4,0,0,0,5.19.268Z" transform="translate(-144.822 -392.391)"/>
  <path id="Path_1422" data-name="Path 1422" class="cls-3" d="M186.131,488.535s-2.248-2.367-5.051.206c0,0,2.5,2.055,5.091.382Z" transform="translate(-143.566 -380.675)"/>
  <path id="Path_1423" data-name="Path 1423" class="cls-3" d="M187.181,472.183s-1.7-3.517-4.771-1.75c0,0,1.928,3.091,4.682,2.359Z" transform="translate(-144.566 -367.434)"/>
  <path id="Path_1424" data-name="Path 1424" class="cls-3" d="M188.811,456.7s-1.7-3.581-4.811-1.658c0,0,2.2,3.239,4.7,2.231Z" transform="translate(-145.762 -355.801)"/>
  <path id="Path_1425" data-name="Path 1425" class="cls-3" d="M195.439,437.326s-.845-4-3.529-4.176c0,0,.85,4.213,3.222,4.925Z" transform="translate(-151.712 -339.765)"/>
  <path id="Path_1426" data-name="Path 1426" class="cls-3" d="M199.776,422.305s-.545-4.84-2.776-4.865c0,0,.322,3.683,2.563,5.569Z" transform="translate(-155.54 -327.948)"/>
  <path id="Path_1427" data-name="Path 1427" class="cls-3" d="M204.106,408.167s-.929-4-3.066-4.347c0,0,.525,3.894,2.927,5.351Z" transform="translate(-158.579 -317.704)"/>
  <path id="Path_1428" data-name="Path 1428" class="cls-3" d="M212.5,393.559s-.3-4.213-1.631-4.739c0,0-.543,3.864,1.294,5.3Z" transform="translate(-165.918 -306.422)"/>
  <path id="Path_1429" data-name="Path 1429" class="cls-3" d="M215.529,379.943s-.471-4.322-1.844-4.843c0,0-.226,3.47,1.663,5.14Z" transform="translate(-168.083 -296.102)"/>
  <path id="Path_1430" data-name="Path 1430" class="cls-3" d="M221.589,365.708s-.248-3.522-1.239-4.288c0,0-.687,3.926.8,5.029Z" transform="translate(-172.984 -285.813)"/>
  <path id="Path_1431" data-name="Path 1431" class="cls-3" d="M222.357,347.474l-1.319-5.8s-.934,4.892,1.433,6.86Z" transform="translate(-173.484 -270.957)"/>
  <path id="Path_1432" data-name="Path 1432" class="cls-3" d="M218.109,328.688s-2.64-3.785-2.62-4.228c0,0,.528,4.117,3.656,5.976Z" transform="translate(-169.447 -258.013)"/>
  <path id="Path_1433" data-name="Path 1433" class="cls-3" d="M215.751,319.027s-2.617-5.453-3.661-5.837a7.115,7.115,0,0,1,3.837,5.666Z" transform="translate(-166.89 -249.536)"/>
  <path id="Path_1434" data-name="Path 1434" class="cls-4" d="M224.316,346.611l-.156-.037c1.487-6.293,1.685-10.261.585-11.17l.1-.124C226.014,336.247,225.83,340.167,224.316,346.611Z" transform="translate(-175.969 -266.151)"/>
  <path id="Path_1435" data-name="Path 1435" class="cls-4" d="M206.993,394.4l-.233-.067c.164-.577.342-1.165.53-1.735,1.643-5.054,3.016-9.74,3.856-13.327l.191-.114c-.843,3.594-2.174,8.456-3.819,13.515C207.33,393.247,207.154,393.825,206.993,394.4Z" transform="translate(-162.881 -299.156)"/>
  <path id="Path_1436" data-name="Path 1436" class="cls-4" d="M209.443,472.681a31.263,31.263,0,0,1-5.862-9.026,34.877,34.877,0,0,1-2.788-10.6,40.661,40.661,0,0,1,1.5-14.521l.191.2a36.894,36.894,0,0,0,1.383,24.784,30.808,30.808,0,0,0,5.8,8.937Z" transform="translate(-158.282 -343.811)"/>
  <path id="Path_1437" data-name="Path 1437" class="cls-5" d="M186.286,517.34a9.477,9.477,0,0,0-1.859.53c-13.369,5.339-13.146,40.285-13.146,40.285h-3.936a248.475,248.475,0,0,0-6.64-36.393c-4.865-19.25,15.089-36.5,19.141-39.774.456-.364.709-.558.709-.558C200.654,488.816,186.286,517.34,186.286,517.34Z" transform="translate(-127.671 -376.079)"/>
  <path id="Path_1438" data-name="Path 1438" class="cls-6" d="M182.056,482.052c-.463-.213-.942-.416-1.45-.6,0,0-.248.193-.709.558-4.052,3.272-24.006,20.524-19.141,39.774a247.232,247.232,0,0,1,6.627,36.389H169.6a246.429,246.429,0,0,0-6.64-36.393C158.112,502.616,177.872,485.428,182.056,482.052Z" transform="translate(-127.708 -376.094)"/>
  <path id="Path_1439" data-name="Path 1439" class="cls-5" d="M441.023,521.767a245.693,245.693,0,0,0-6.632,36.389h-3.943s.248-36.522-14.06-40.6a7.81,7.81,0,0,0-.944-.221s-14.375-28.524,5.73-35.905c0,0,.2.151.57.446C425.468,484.858,445.942,502.294,441.023,521.767Z" transform="translate(-316.099 -376.079)"/>
  <path id="Path_1440" data-name="Path 1440" class="cls-7" d="M246.679,517.355a9.477,9.477,0,0,0-1.859.53,242.694,242.694,0,0,1-4.58-35.878c.456-.364.709-.558.709-.558C261.047,488.831,246.679,517.355,246.679,517.355Z" transform="translate(-188.064 -376.094)"/>
  <path id="Path_1441" data-name="Path 1441" class="cls-7" d="M421.773,481.925a223.311,223.311,0,0,1-5.356,35.69,7.81,7.81,0,0,0-.944-.221s-14.375-28.524,5.73-35.905C421.2,481.479,421.4,481.63,421.773,481.925Z" transform="translate(-316.121 -376.122)"/>
  <path id="Path_1442" data-name="Path 1442" class="cls-8" d="M287.706,203.029q-2.082,8.214-4.88,16.853s-8.853,9.222-30.237,0a162.192,162.192,0,0,1-4.486-16.261c-5.173-22.512-11.376-65.411,1.841-109.475a164.012,164.012,0,0,1,16.65-37.786s11.292,12.965,19.58,37.779S299.736,155.622,287.706,203.029Z" transform="translate(-189.413 -56.36)"/>
  <circle id="Ellipse_301" data-name="Ellipse 301" class="cls-5" cx="17.753" cy="17.753" r="17.753" transform="translate(61.225 55.014)"/>
  <path id="Path_1443" data-name="Path 1443" class="cls-3" d="M322.768,311.8a12.59,12.59,0,0,1-20.571,9.738,12.721,12.721,0,0,1-2.359-2.56,12.392,12.392,0,0,1-.813-1.336,12.566,12.566,0,0,1-1.435-5.842v-.3a12.605,12.605,0,0,1,9.17-11.827,13.019,13.019,0,0,1,3.034-.461h.377A12.591,12.591,0,0,1,322.768,311.8Z" transform="translate(-231.2 -239.021)"/>
  <path id="Path_1444" data-name="Path 1444" class="cls-5" d="M310.14,94.139c-20.142,9.644-36.24,0-36.24,0A164.013,164.013,0,0,1,290.563,56.36S301.854,69.325,310.14,94.139Z" transform="translate(-213.381 -56.36)"/>
  <path id="Path_1445" data-name="Path 1445" class="cls-5" d="M306.093,648.14q-1.413,5.562-3.148,11.314-.823,2.744-1.735,5.532s-8.853,9.222-30.237,0c0,0-.694-1.955-1.735-5.532-.778-2.7-1.747-6.323-2.759-10.729a53.65,53.65,0,0,0,19.26,3.4,53.065,53.065,0,0,0,20.353-3.983Z" transform="translate(-207.8 -501.471)"/>
  <path id="Path_1446" data-name="Path 1446" class="cls-8" d="M311.317,693.79q-.823,2.744-1.735,5.532s-8.853,9.222-30.237,0c0,0-.694-1.956-1.735-5.532C277.608,693.79,299.4,700.06,311.317,693.79Z" transform="translate(-216.172 -535.806)"/>
  <path id="Path_1447" data-name="Path 1447" class="cls-6" d="M306.783,299.6l-.027.02-9.145,11.807v.3a12.566,12.566,0,0,0,1.435,5.842l10.776-18.43Z" transform="translate(-231.215 -238.968)"/>
  <path id="Path_1448" data-name="Path 1448" class="cls-6" d="M316.509,341.2l-7.49,11.215a12.723,12.723,0,0,1-2.359-2.56l8.922-9.577Z" transform="translate(-238.022 -269.912)"/>
  <path id="Path_1449" data-name="Path 1449" class="cls-6" d="M257.335,219.885a162.446,162.446,0,0,1-4.486-16.261c-5.173-22.514-11.376-65.414,1.841-109.478a164.612,164.612,0,0,1,14.586-34.225c-1.678-2.352-2.726-3.552-2.726-3.552a163.994,163.994,0,0,0-16.655,37.776c-13.218,44.064-7.014,86.964-1.841,109.478a162.451,162.451,0,0,0,4.486,16.261c8.449,3.641,14.94,4.4,19.7,4A46.94,46.94,0,0,1,257.335,219.885Z" transform="translate(-189.376 -56.367)"/>
  <path id="Path_1450" data-name="Path 1450" class="cls-9" d="M966.7,625.479s11.584-14.415,10.816-28.852a28.018,28.018,0,0,1,4.6-17.116,47.129,47.129,0,0,1,5.453-6.692" transform="translate(-734.475 -444.818)"/>
  <path id="Path_1451" data-name="Path 1451" class="cls-3" d="M1048.245,528.739c-.828,2.01.411,9.339.411,9.339s6.04-4.332,6.868-6.342a3.936,3.936,0,1,0-7.279-3Z" transform="translate(-795.595 -409.828)"/>
  <path id="Path_1452" data-name="Path 1452" class="cls-3" d="M1006.126,556.942c.4,2.136,5.423,7.614,5.423,7.614s2.726-6.917,2.317-9.056a3.937,3.937,0,0,0-7.74,1.443Z" transform="translate(-764.078 -429.371)"/>
  <path id="Path_1453" data-name="Path 1453" class="cls-3" d="M972.886,628.537c1.423,1.643,8.526,3.837,8.526,3.837s-1.15-7.344-2.573-8.989a3.935,3.935,0,1,0-5.949,5.153Z" transform="translate(-738.408 -481.828)"/>
  <path id="Path_1454" data-name="Path 1454" class="cls-3" d="M964.116,693.8c1.123,1.861,7.753,5.222,7.753,5.222s.109-7.435-1.014-9.294a3.937,3.937,0,1,0-6.739,4.072Z" transform="translate(-732.104 -531.322)"/>
  <path id="Path_1455" data-name="Path 1455" class="cls-3" d="M1030.074,593.025c-2.017.805-9.334-.508-9.334-.508s4.392-6,6.412-6.8a3.937,3.937,0,1,1,2.922,7.311Z" transform="translate(-775.121 -454.304)"/>
  <path id="Path_1456" data-name="Path 1456" class="cls-3" d="M1019.254,666.476c-2.166.166-8.754-3.276-8.754-3.276s5.983-4.409,8.152-4.575a3.938,3.938,0,1,1,.6,7.853Z" transform="translate(-767.419 -509.347)"/>
  <path id="Path_1457" data-name="Path 1457" class="cls-3" d="M995.823,737.31c-2.109.53-9.183-1.75-9.183-1.75s5.153-5.356,7.262-5.884a3.936,3.936,0,1,1,1.921,7.634Z" transform="translate(-749.472 -562.708)"/>
  <path id="Path_1458" data-name="Path 1458" class="cls-10" d="M1048.245,528.739c-.828,2.01.411,9.339.411,9.339s6.04-4.332,6.868-6.342a3.936,3.936,0,1,0-7.279-3Z" transform="translate(-795.595 -409.828)"/>
  <path id="Path_1459" data-name="Path 1459" class="cls-10" d="M1006.126,556.942c.4,2.136,5.423,7.614,5.423,7.614s2.726-6.917,2.317-9.056a3.937,3.937,0,0,0-7.74,1.443Z" transform="translate(-764.078 -429.371)"/>
  <path id="Path_1460" data-name="Path 1460" class="cls-10" d="M972.886,628.537c1.423,1.643,8.526,3.837,8.526,3.837s-1.15-7.344-2.573-8.989a3.935,3.935,0,1,0-5.949,5.153Z" transform="translate(-738.408 -481.828)"/>
  <path id="Path_1461" data-name="Path 1461" class="cls-10" d="M964.116,693.8c1.123,1.861,7.753,5.222,7.753,5.222s.109-7.435-1.014-9.294a3.937,3.937,0,1,0-6.739,4.072Z" transform="translate(-732.104 -531.322)"/>
  <path id="Path_1462" data-name="Path 1462" class="cls-10" d="M1030.074,593.025c-2.017.805-9.334-.508-9.334-.508s4.392-6,6.412-6.8a3.937,3.937,0,1,1,2.922,7.311Z" transform="translate(-775.121 -454.304)"/>
  <path id="Path_1463" data-name="Path 1463" class="cls-10" d="M1019.254,666.476c-2.166.166-8.754-3.276-8.754-3.276s5.983-4.409,8.152-4.575a3.938,3.938,0,1,1,.6,7.853Z" transform="translate(-767.419 -509.347)"/>
  <path id="Path_1464" data-name="Path 1464" class="cls-10" d="M995.823,737.31c-2.109.53-9.183-1.75-9.183-1.75s5.153-5.356,7.262-5.884a3.936,3.936,0,1,1,1.921,7.634Z" transform="translate(-749.472 -562.708)"/>
  <path id="Path_1465" data-name="Path 1465" class="cls-9" d="M967.12,662.417s16.432-8.486,21.58-21.994a28.007,28.007,0,0,1,11.138-13.788,47.072,47.072,0,0,1,7.683-3.906" transform="translate(-734.79 -482.358)"/>
  <path id="Path_1466" data-name="Path 1466" class="cls-3" d="M1133.078,585.123c-1.571,1.5-3.408,8.707-3.408,8.707s7.277-1.514,8.848-3.016a3.94,3.94,0,0,0-5.44-5.7Z" transform="translate(-857.053 -453.245)"/>
  <path id="Path_1467" data-name="Path 1467" class="cls-3" d="M1089.953,593.883c-.5,2.117,1.871,9.17,1.871,9.17s5.276-5.222,5.787-7.351a3.936,3.936,0,1,0-7.658-1.819Z" transform="translate(-827.129 -458.384)"/>
  <path id="Path_1468" data-name="Path 1468" class="cls-3" d="M1030.418,645.857c.634,2.079,6.241,6.962,6.241,6.962s1.926-7.187,1.291-9.257a3.937,3.937,0,1,0-7.532,2.3Z" transform="translate(-782.271 -495.928)"/>
  <path id="Path_1469" data-name="Path 1469" class="cls-3" d="M995.964,701.979c.273,2.159,4.972,7.916,4.972,7.916s3.113-6.749,2.838-8.908a3.936,3.936,0,0,0-7.81.991Z" transform="translate(-756.461 -538.632)"/>
  <path id="Path_1470" data-name="Path 1470" class="cls-3" d="M1094.258,641.423c-2.174-.079-8.328-4.246-8.328-4.246s6.444-3.7,8.618-3.621a3.936,3.936,0,0,1-.29,7.867Z" transform="translate(-824.154 -490.5)"/>
  <path id="Path_1471" data-name="Path 1471" class="cls-3" d="M1057.667,705.008c-2.05-.726-6.677-6.543-6.677-6.543s7.259-1.6,9.307-.877a3.936,3.936,0,1,1-2.63,7.42Z" transform="translate(-797.874 -538.521)"/>
  <path id="Path_1472" data-name="Path 1472" class="cls-3" d="M1005.8,759.946c-2.141-.369-7.683-5.321-7.683-5.321s6.883-2.806,9.024-2.436a3.936,3.936,0,0,1-1.338,7.758Z" transform="translate(-758.107 -579.706)"/>
  <path id="Path_1473" data-name="Path 1473" class="cls-11" d="M746.988,440.548l-12.737-18.472s-.248-4.573-1.071-5.641S733,412.99,733,412.99s.892-1.306.119-1.425-.119-3.031-.119-3.031l-.059-4.632s.714-4.461.119-5.522a1.752,1.752,0,0,1,.059-1.9s.714-2.555,0-3.207-.535-4.635-.357-7.782-1.252-4.93-1.252-5.406-4.709-5.108-4.709-5.522-2.974-2.139-4.761-2.615-2.679-.83-2.62-1.068-2.8-1.187-2.8-1.187-2.5-.178-3.455-1.428-3.864-1.606-3.948-1.618c-.017-.082-.037-.166-.055-.248s-.037-.178-.055-.268c.226-.379.434-.766.622-1.165.057-.121.112-.248.164-.362a5.084,5.084,0,0,0,2.932-.91,3.993,3.993,0,0,0,1.425-2.848,6.242,6.242,0,0,0-.7-3.165c-.521-1.071-1.286-2.179-1.024-3.338.117-.5.416-.942.57-1.433a3.773,3.773,0,0,0-.429-2.813c-.451-.863-1.078-1.621-1.579-2.456a9.592,9.592,0,0,1-1.257-3.47,5.424,5.424,0,0,0-.466-1.891,3.521,3.521,0,0,0-1.044-1.053,10.426,10.426,0,0,0-6.4-1.941,30.668,30.668,0,0,1-4.845.295,17.437,17.437,0,0,1-2.83-.744c-2-.59-4.3-.833-6.04.31s-2.431,3.391-3.609,5.148c-1.041,1.556-2.568,2.86-3.361,4.506a.355.355,0,0,1,.025-.094,5.39,5.39,0,0,0-.444,1.2,8.547,8.547,0,0,0,.265,3.938,2.733,2.733,0,0,0,.962,1.76,5.723,5.723,0,0,0,2.079.409c-.025.112-.055.226-.079.34a13.607,13.607,0,0,0,9.44,15.862v.362a8.978,8.978,0,0,1-.062,1.021h0s-5.985-1.239-7.594-.4-4.764,1.487-5.239,1.958-1.666.119-2.726,2.912-1.19,5.641-2.56,6.94-2.082,2.2-2.141,3.15.178,1.187-.359,1.487-1.309,1.544-1.071,2.02a1.689,1.689,0,0,1-.654,1.78,1.99,1.99,0,0,0-.835,1.782s-.357,1.309-1.19,1.6-1.371,2.258-1.371,2.258l-2.709,3.11-5.351-5.923a2.255,2.255,0,0,0-3.185-.164l-2.627,2.369a5.19,5.19,0,0,0-2.63,1.566,6.778,6.778,0,0,0-1.361,2.027l-1.44,1.294a3.656,3.656,0,0,0-.369,4.035l3.428,3.79.022.032a6.054,6.054,0,0,0-3.316,1.351c-5.118,4.513-5.18,8.675-4.4,10.571s7.262,9.207,7.262,9.207a29.017,29.017,0,0,0,9.212,7.507h0l-.042.042c-.107.114-.213.248-.317.372l-.089.114-.082.114-.1.144c-.027.037-.052.077-.077.116s-.069.112-.1.171l-.067.114c-.04.074-.082.151-.121.23l-.04.077c-.05.1-.1.211-.146.322-.017.04-.032.082-.049.121-.03.077-.062.156-.092.248s-.037.1-.055.154-.052.154-.077.233-.035.112-.05.166-.05.173-.072.263-.027.1-.042.161c-.032.136-.064.278-.092.426a1.045,1.045,0,0,1-.03.169q-.03.149-.052.3c-.012.072-.02.144-.03.216s-.025.2-.037.295l-.022.228c0,.109-.02.223-.027.337a1.175,1.175,0,0,1-.012.208c0,.188-.02.377-.022.575-.119,6.94.288,7.958.288,7.958a3.855,3.855,0,0,0,3.16,2.372,4.041,4.041,0,0,0,1.019-.055c3.1-.535,10.357-1.782,12.918-1.306a22.07,22.07,0,0,0,6.419-.52l.533-.1.372,1.18,1.177-.322.991.577.632.362c1.175,3.985,5.948,2.627,5.948,2.627l1.12.649,11.49.3a23.538,23.538,0,0,0,4.067,1.953,3.775,3.775,0,0,0,.578.126,26.069,26.069,0,0,0,3.2.059c.88-.022,1.561-.059,1.561-.059s-.116-3.12-.285-6.612a94.147,94.147,0,0,0,10.643-.872c6.137-1.078,8.7-6.657,9.639-9.639a28.042,28.042,0,0,1,.6,3.7,26.46,26.46,0,0,0,.954,3.207,10.835,10.835,0,0,0,1.309,2.374c4.526-1.544,1.787-3.859.833-4.87s.657-1.841.657-1.841,1.239-.83,1.13-1.6-.178-1.6,3.869-1.544S746.988,440.548,746.988,440.548Zm-62.868-37.92a27.533,27.533,0,0,0,1.128,4.957,6.541,6.541,0,0,1,.134,1.955c-2.4-.191-4.9-.292-4.9-.292a.576.576,0,0,1,.129.3l-.377-.084-.548-.134,4.419-6.722Zm-8.754,13.929,4.151.659.349.055a13.658,13.658,0,0,0-.216,1.96c0,.062.094.136.228.223a5.339,5.339,0,0,0-.082.991c.067.33,2.008,1.039,4.233,1.628-.03.119-.059.233-.089.34h0c-1.965-1.034-5.063-1.517-5.42-2.285s-10.905-4.461-10.905-4.461-.384-.2-1.048-.525l2.776.525.763-.077a41.61,41.61,0,0,0,5.259.962Z" transform="translate(-491.294 -268.455)"/>
  <path id="Path_1474" data-name="Path 1474" class="cls-12" d="M779.081,693.443s-1.651,9.971-10.03,11.445-36.349,1.18-36.349,1.18-15.991-2.3-21.773-15.812-9.5-18.883-4.543-19.119,31.687,9.029,33.211,9.145S780.556,659.748,779.081,693.443Z" transform="translate(-536.94 -518.764)"/>
  <path id="Path_1475" data-name="Path 1475" class="cls-13" d="M779.081,693.443s-1.651,9.971-10.03,11.445-36.349,1.18-36.349,1.18-15.991-2.3-21.773-15.812-9.5-18.883-4.543-19.119,31.687,9.029,33.211,9.145S780.556,659.748,779.081,693.443Z" transform="translate(-536.94 -518.764)"/>
  <path id="Path_1476" data-name="Path 1476" class="cls-14" d="M703.136,760.049a3.826,3.826,0,0,0,3.133,2.357,4.072,4.072,0,0,0,1.009-.054c3.068-.53,10.268-1.77,12.8-1.3a21.811,21.811,0,0,0,6.36-.515c1.338-.248,2.315-.5,2.315-.5s-2.359-7.847-2.657-8.082-10.62-6.432-10.62-6.432l-8.179-.587h-.025a4.3,4.3,0,0,0-2.771,1.628,8.7,8.7,0,0,0-1.656,5.569C702.734,759.045,703.136,760.049,703.136,760.049Z" transform="translate(-536.002 -574.279)"/>
  <path id="Path_1477" data-name="Path 1477" class="cls-13" d="M703.139,760.071a3.826,3.826,0,0,0,3.133,2.357,33.618,33.618,0,0,1-2.231-3.242l.042-5.723a10.06,10.06,0,0,1,3.222-8.494h-.025s-4.308.292-4.427,7.188S703.139,760.071,703.139,760.071Z" transform="translate(-536.004 -574.302)"/>
  <path id="Path_1478" data-name="Path 1478" class="cls-7" d="M832.744,701.117l7.611-5.948,11.978-11.8s-1.294-.062-3.244-.146c-.5.31-1.846,1.284-1.9,2.478-.059,1.442-3.239.1-4.89.924s-9.735,11.173-11.153,11.106-2.535-.719-3.128.285c0,.022-.027.042-.042.064Z" transform="translate(-630.135 -527.856)"/>
  <path id="Path_1479" data-name="Path 1479" class="cls-7" d="M709.6,746.573c.27.131.543.248.823.377,5.785,2.479,12.923,7.683,13.456,8.615.322.575,4.461,3.088,7.656,4.972,1.338-.248,2.315-.5,2.315-.5s-2.359-7.847-2.657-8.082-10.62-6.432-10.62-6.432l-8.179-.587h-.025A4.318,4.318,0,0,0,709.6,746.573Z" transform="translate(-541.095 -574.279)"/>
  <path id="Path_1480" data-name="Path 1480" class="cls-12" d="M643.738,647.162c.766,1.889,7.188,9.148,7.188,9.148a28.208,28.208,0,0,0,9.854,7.787c5.785,2.478,12.923,7.683,13.453,8.615.342.607,4.957,3.383,8.2,5.292l.726.424,1.611.934.853.5s1.983-1.586,3.943-3.182,3.874-3.16,3.906-3.249c.057-.176.823-2.184.647-2.3-.092-.062-.5-.88-1.239-1.827a8.383,8.383,0,0,0-3.006-2.478,8.469,8.469,0,0,1-3.894-4.06s-.248-.188-.652-.436a7.892,7.892,0,0,0-2.652-1.182c-1.3-.164-3.718-2.818-3.718-2.818a7.288,7.288,0,0,1-2.3-2.419c-.62-1.294-9.77-7.579-10.618-8.159l22.185,14.246,5.309,3.413,7.611-5.948,11.981-11.8s-1.611-.079-3.966-.179c-5.822-.248-16.162-.647-17.468-.352a9.957,9.957,0,0,1-3.247.211,11.368,11.368,0,0,1-4.892-.895c-1.948-1.029-5.019-1.509-5.373-2.27s-10.8-4.424-10.8-4.424-14.219-7.552-19.295-3.066S642.97,645.276,643.738,647.162Z" transform="translate(-491.284 -491.781)"/>
  <path id="Path_1481" data-name="Path 1481" class="cls-15" d="M829.82,455.423l1.829,6.077,2.359,13.688,8.675.59,2.511-4.164,2.516-4.156s1.561-5.532,2.684-10.883c.991-4.734,1.641-9.329.56-9.827-.957-.444-1.586-2.037-1.983-3.752-.052-.211-.1-.426-.144-.642a33.388,33.388,0,0,1-.575-4.4s-18.174-.942-15.636,6.551a11.941,11.941,0,0,1,.684,3.985,9.488,9.488,0,0,1-.062,1.014A8.5,8.5,0,0,1,829.82,455.423Z" transform="translate(-631.519 -343.35)"/>
  <path id="Path_1482" data-name="Path 1482" class="cls-8" d="M814.58,489.532l.649,10.325,1.475,8.791,1.653,4.072L819.832,535s14.229,1.646,17.689-.03a1.522,1.522,0,0,0,.627-.5c4.179-6.3,2.808-24.584,2.808-24.584l1.594-11.8-1.063-6.127-2.565-.273-1.983-.211s-.446.55-1.091,1.4c-1.75,2.31-4.957,6.853-4.751,8.749.292,2.6-.354,5.252-1.358,5.666s-1.829,1.12-2.005.414a3.208,3.208,0,0,1-.178-1.889c.176-1-.768-4.072-.768-4.072s-1.591-3.6-1.487-5.133-.176-3.306-.649-3.718-1.12-.828-.59-2.726-2.327-5.564-2.327-5.564Z" transform="translate(-620.057 -378.463)"/>
  <path id="Path_1483" data-name="Path 1483" class="cls-7" d="M890.334,495.253l.59,17.644,3.408,1.889a1.524,1.524,0,0,0,.627-.5c4.181-6.313,2.811-24.591,2.811-24.591l1.594-11.8-1.063-6.124-2.568-.273c.991-4.734,1.641-9.329.563-9.827-.959-.444-1.589-2.037-2-3.752h0l-1.834,12.491s.154,1.125.208,2.285a6.552,6.552,0,0,1-.149,2.2,7.339,7.339,0,0,0-.119,2.952c-1.063,1.874-1.594,5.346-1.854,8.7C890.2,491,890.334,495.253,890.334,495.253Z" transform="translate(-677.016 -358.396)"/>
  <path id="Path_1484" data-name="Path 1484" class="cls-14" d="M895.337,456.82s2.974.369,3.916,1.609,3.423,1.41,3.423,1.41,2.833.944,2.773,1.18.825.592,2.6,1.063,4.709,2.184,4.709,2.6,4.662,5.014,4.662,5.487,1.418,2.231,1.239,5.368-.354,7.081.354,7.73,0,3.187,0,3.187a1.735,1.735,0,0,0-.037,1.889c.59,1.063-.116,5.49-.116,5.49l.057,4.6s-.649,2.89.119,3.009-.119,1.415-.119,1.415-.649,2.362.178,3.423,1.061,5.606,1.061,5.606l12.64,18.34s.178,3.363-3.834,3.3-3.966.768-3.837,1.534-1.12,1.594-1.12,1.594-1.594.825-.649,1.829,3.658,3.3-.825,4.838a10.7,10.7,0,0,1-1.3-2.359,26.721,26.721,0,0,1-.944-3.185s-.414-4.486-1.239-5.076-.709-3.423-.709-3.423,1.18-2.3-.471-3.244-25.635-14.209-25.635-14.209l-.59-17.644s-.414-13.039,2.065-17.406a7.328,7.328,0,0,1,.119-2.949c.414-1.061-.059-4.486-.059-4.486Z" transform="translate(-677.999 -357.568)"/>
  <path id="Path_1485" data-name="Path 1485" class="cls-7" d="M778.78,483.308s-5.931-1.222-7.525-.4-4.709,1.487-5.2,1.948-1.653.119-2.714,2.892-1.182,5.6-2.538,6.9-2.064,2.184-2.124,3.128.176,1.18-.354,1.487-1.3,1.534-1.063,2.008,12.3,10.843,12.3,10.843a28.187,28.187,0,0,0,1.123,4.957c.53.991-.59,14.811-1.77,15.755s7.966.858,7.966.858.411-9.059.766-9.532S777.39,514,777.39,514s-.06-8.261.709-10.444.682-9.433.682-9.433.679-4.355,1.5-5.371S778.78,483.308,778.78,483.308Z" transform="translate(-576.908 -376.978)"/>
  <path id="Path_1486" data-name="Path 1486" class="cls-14" d="M778.07,482.6s-5.933-1.222-7.527-.4-4.709,1.475-5.192,1.948-1.651.116-2.726,2.89-1.18,5.606-2.538,6.9-2.065,2.183-2.124,3.128.178,1.18-.352,1.475-1.3,1.534-1.063,2.005,12.273,10.858,12.273,10.858a28.13,28.13,0,0,0,1.12,4.957c.53.991-.59,14.809-1.77,15.753s7.966.858,7.966.858.414-9.059.768-9.53-.248-10.162-.248-10.162-.057-8.261.709-10.444.682-9.443.682-9.443.679-4.355,1.5-5.368S778.07,482.6,778.07,482.6Z" transform="translate(-576.374 -376.444)"/>
  <path id="Path_1487" data-name="Path 1487" class="cls-7" d="M840.264,444.505a11.941,11.941,0,0,1,.684,3.985,13.54,13.54,0,0,0,15.528-6.137,33.358,33.358,0,0,1-.575-4.4S837.728,437.013,840.264,444.505Z" transform="translate(-639.192 -343.35)"/>
  <path id="Path_1488" data-name="Path 1488" class="cls-15" d="M804.82,385.831a13.513,13.513,0,1,0,.292-2.808,13.513,13.513,0,0,0-.292,2.808Z" transform="translate(-612.716 -294)"/>
  <path id="Path_1489" data-name="Path 1489" class="cls-14" d="M733.829,553.06l-3.244,1a1.682,1.682,0,0,1-.649,1.77,1.975,1.975,0,0,0-.825,1.772s-.354,1.3-1.18,1.591-1.358,2.231-1.358,2.231l-2.714,3.128s-1,.825-.825,1.239-1.063.53-1.063.53l.649,10.514,5.606,1.063,3.47-.354,2.833-1.063L737.007,575l1.13-2.867,4.957-7.552Z" transform="translate(-550.399 -429.956)"/>
  <path id="Path_1490" data-name="Path 1490" class="cls-15" d="M681.387,590.452s-7.187-10.387-12.568-4.781,2.184,14.692,3.953,14.4,10.209-.766,10.209-.766Z" transform="translate(-508.991 -453.235)"/>
  <rect id="Rectangle_525" data-name="Rectangle 525" class="cls-2" width="15.223" height="17.3" rx="7.611" transform="translate(155.189 138.08) rotate(-42.05)"/>
  <rect id="Rectangle_526" data-name="Rectangle 526" class="cls-7" width="15.223" height="17.3" rx="7.611" transform="translate(155.189 138.08) rotate(-42.05)"/>
  <rect id="Rectangle_527" data-name="Rectangle 527" class="cls-2" width="15.223" height="17.3" rx="7.611" transform="translate(155.392 137.224) rotate(-42.05)"/>
  <circle id="Ellipse_302" data-name="Ellipse 302" class="cls-3" cx="3.363" cy="3.363" r="3.363" transform="translate(163.285 135.613)"/>
  <circle id="Ellipse_303" data-name="Ellipse 303" class="cls-7" cx="3.363" cy="3.363" r="3.363" transform="translate(163.285 135.613)"/>
  <circle id="Ellipse_304" data-name="Ellipse 304" class="cls-3" cx="3.363" cy="3.363" r="3.363" transform="translate(163.473 135.187)"/>
  <path id="Path_1491" data-name="Path 1491" class="cls-15" d="M706.5,607.679c-.06,7.79,16.05,9.44,16.05,9.44l4.114.654,1.844.292.768-7.6s-.845-.126-1.9-.372c-1.559-.364-3.579-.991-4-1.871C722.666,606.745,706.557,599.892,706.5,607.679Z" transform="translate(-538.763 -468.289)"/>
  <path id="Path_1492" data-name="Path 1492" class="cls-7" d="M806,383.193a1.6,1.6,0,0,1,.991.441c.456.483.481,1.341,1.073,1.638a1.219,1.219,0,0,0,.7.082c1.569-.223,2.478-1.983,3.983-2.478a4.015,4.015,0,0,1,2.64.226,1.965,1.965,0,0,1,.875.563c.5.652.151,1.611.384,2.4.325,1.1,1.633,1.532,2.766,1.675s2.409.223,3.165,1.078a2.872,2.872,0,0,1,.563,2.283,1.808,1.808,0,0,0,0,.845c.312.885,1.844.744,2.243.055.292-.508.2-.929.892-1.071a2.938,2.938,0,0,1,1.445.248,10.585,10.585,0,0,0,3.737.575A13.515,13.515,0,1,0,806,383.193Z" transform="translate(-613.603 -294.169)"/>
  <path id="Path_1493" data-name="Path 1493" class="cls-12" d="M813.061,369.619a1.808,1.808,0,0,1,0-.845,2.875,2.875,0,0,0-.563-2.283c-.744-.855-2.032-.937-3.165-1.078s-2.441-.577-2.766-1.673c-.233-.791.119-1.752-.384-2.4a1.933,1.933,0,0,0-.872-.56,4.072,4.072,0,0,0-2.642-.228c-1.5.5-2.414,2.26-3.983,2.478a1.219,1.219,0,0,1-.7-.082c-.592-.3-.617-1.155-1.073-1.636-.716-.758-2.077-.27-2.954-.833a2.715,2.715,0,0,1-.952-1.747,8.51,8.51,0,0,1-.263-3.913c.513-2.2,2.478-3.7,3.718-5.574,1.167-1.747,1.822-3.966,3.576-5.116s4.008-.895,5.985-.307a18.48,18.48,0,0,0,2.8.744c1.6.2,3.2-.248,4.8-.292a10.315,10.315,0,0,1,6.342,1.926A3.509,3.509,0,0,1,821,347.244a5.364,5.364,0,0,1,.459,1.879,9.6,9.6,0,0,0,1.239,3.452c.5.83,1.118,1.584,1.566,2.441a3.746,3.746,0,0,1,.424,2.793c-.151.5-.451.924-.563,1.423-.263,1.152.5,2.253,1.014,3.316a6.221,6.221,0,0,1,.689,3.145,3.966,3.966,0,0,1-1.413,2.828,5.076,5.076,0,0,1-2.992.907,10.6,10.6,0,0,1-3.812-.573,2.968,2.968,0,0,0-1.445-.248c-.689.141-.6.563-.892,1.071C814.9,370.373,813.374,370.5,813.061,369.619Z" transform="translate(-603.529 -272.199)"/>
  <path id="Path_1494" data-name="Path 1494" class="cls-7" d="M829.621,702.449l7.611-5.948,11.981-11.8s-1.611-.079-3.966-.178a2.56,2.56,0,0,0-.835,1.611c-.06,1.442-3.239.1-4.89.927s-9.735,11.17-11.153,11.1-2.535-.719-3.128.285a.6.6,0,0,1-.042.067,1.678,1.678,0,0,1-.9.533Z" transform="translate(-627.368 -528.834)"/>
  <path id="Path_1495" data-name="Path 1495" class="cls-12" d="M783.87,689.582l3.824,12.209.6,1.918,1.822-.5,4.015-1.1,17.884-4.912a15.58,15.58,0,0,0,6.444-1.718,19.5,19.5,0,0,1,11.113-2.424c2.364.221,4.994-.8,7.187-4.828,0,0,4.957-14.623-7.554-18.836s-13.106,2.231-13.106,2.231-.064.035-.169.1c-.5.31-1.846,1.284-1.9,2.478-.06,1.443-3.239.1-4.89.924s-9.735,11.173-11.153,11.106-2.535-.719-3.128.285c0,.022-.027.042-.042.064-.436.6-1.75.744-2.62.766-.473.015-.818,0-.818,0l-.112.035-.927.258Z" transform="translate(-596.958 -516.381)"/>
  <path id="Path_1496" data-name="Path 1496" class="cls-7" d="M787.86,636.183l1.844.292.768-7.6s-.845-.126-1.9-.372C788.851,629.553,788.217,633.66,787.86,636.183Z" transform="translate(-599.959 -486.698)"/>
  <path id="Path_1497" data-name="Path 1497" class="cls-7" d="M836.934,515.448s5.487-1.594,4.129,13.986a43.5,43.5,0,0,1-11.5,25.421s-11.683,5.133-16.935,4.308a90.019,90.019,0,0,0-9.086-.991,13.332,13.332,0,0,0-5.311-1.415c-2.952-.119-9.145-1.948-9.264-2.538s1.534-9.264.825-9.914c0,0,8.261.34,9.088.937s2.005.169,2.89,0,3.6-2.531,8.969-.464a5.439,5.439,0,0,0,2.538-.295,2.536,2.536,0,0,1,1.844-.119,4.835,4.835,0,0,0,1.284-.662c.171-.248,1.591,0,1.591,0a.629.629,0,0,0,.887-.414,3.857,3.857,0,0,1,.825-1.3s1.594-8.969,4.6-12.333a1.927,1.927,0,0,0,.649-1.713C824.72,527,829.861,513.557,836.934,515.448Z" transform="translate(-600.783 -401.528)"/>
  <path id="Path_1498" data-name="Path 1498" class="cls-14" d="M836.357,510.609s5.487-1.594,4.132,13.986a43.5,43.5,0,0,1-11.52,25.431s-11.683,5.133-16.935,4.307-9.086-1-9.086-1a13.314,13.314,0,0,0-5.311-1.415c-2.949-.119-9.145-1.948-9.264-2.538s1.534-9.264.828-9.914c0,0,8.261.34,9.086.937s2.008.169,2.892,0,3.6-2.528,8.969-.463a5.427,5.427,0,0,0,2.536-.295,2.544,2.544,0,0,1,1.846-.119,5.2,5.2,0,0,0,1.281-.649c.176-.235,1.594,0,1.594,0a.627.627,0,0,0,.885-.411,3.851,3.851,0,0,1,.825-1.3s1.594-8.969,4.6-12.333a1.924,1.924,0,0,0,.649-1.71C824.13,522.179,829.263,508.721,836.357,510.609Z" transform="translate(-600.339 -397.89)"/>
  <path id="Path_1499" data-name="Path 1499" class="cls-7" d="M810,746.513l7.792,9.418c.03-.027.05-.047.05-.055.06-.178.825-2.184.649-2.3s-1.534-3.068-4.248-4.308a7.987,7.987,0,0,1-3.336-3.036Z" transform="translate(-616.612 -575.25)"/>
  <path id="Path_1500" data-name="Path 1500" class="cls-7" d="M809.927,781.6l.853.5s1.983-1.586,3.943-3.182,3.874-3.16,3.906-3.249c.057-.176.823-2.183.647-2.3-.092-.062-.5-.88-1.239-1.827-5.284-1.487-1.921,2.189-1.472,2.357,0,0-6.444-1.487-6.786,5.529A8.268,8.268,0,0,0,809.927,781.6Z" transform="translate(-616.432 -594.019)"/>
  <path id="Path_1501" data-name="Path 1501" class="cls-14" d="M818.1,784.591l1.123.649,11.4.295a22.024,22.024,0,0,0,4.03,1.938,3.45,3.45,0,0,0,.573.126,25.607,25.607,0,0,0,3.172.06c.872-.022,1.549-.06,1.549-.06s-.54-14.375-.947-15.862c-.193-.724-1.147-.565-2.089-.2a13.68,13.68,0,0,0-2.04,1.034s-4.838.468-5.606.885-2.949-.248-4.308,0-3.775-1.6-3.775-1.6c-6.61-2.181-2.892,1.889-2.421,2.067,0,0-6.429-1.487-6.784,5.529S818.1,784.591,818.1,784.591Z" transform="translate(-618.088 -594.041)"/>
  <path id="Path_1502" data-name="Path 1502" class="cls-14" d="M903.134,779.092c.124,2.974,2.441,6.665,3.822,8.615.872-.022,1.549-.06,1.549-.06s-.54-14.375-.947-15.862c-.193-.724-1.148-.565-2.089-.2C904.336,773.714,903.035,776.7,903.134,779.092Z" transform="translate(-686.659 -594.088)"/>
  <path id="Path_1503" data-name="Path 1503" class="cls-7" d="M903.134,779.092c.124,2.974,2.441,6.665,3.822,8.615.872-.022,1.549-.06,1.549-.06s-.54-14.375-.947-15.862c-.193-.724-1.148-.565-2.089-.2C904.336,773.714,903.035,776.7,903.134,779.092Z" transform="translate(-686.659 -594.088)"/>
  <path id="Path_1504" data-name="Path 1504" class="cls-13" d="M894.708,779.486c.783,2.87.776,6.09,2.025,8.035a3.447,3.447,0,0,0,.573.126,25.593,25.593,0,0,0,3.172.06c.872-.022,1.549-.06,1.549-.06s-.54-14.375-.947-15.862c-.193-.724-1.148-.565-2.089-.2a13.682,13.682,0,0,0-2.04,1.034S893.707,775.813,894.708,779.486Z" transform="translate(-680.181 -594.088)"/>
  <path id="Path_1505" data-name="Path 1505" class="cls-7" d="M736.77,686.94s5.656,1.837,10.449,8.36Z" transform="translate(-561.531 -530.654)"/>
  <g id="Group_47" data-name="Group 47" class="cls-16" transform="translate(189.066 81.427)">
    <path id="Path_1506" data-name="Path 1506" d="M921.531,401.26a1.147,1.147,0,0,1-.035.124,3.989,3.989,0,0,1-.2.5A3.688,3.688,0,0,1,921.531,401.26Z" transform="translate(-889.392 -397.205)"/>
    <path id="Path_1507" data-name="Path 1507" d="M792.7,386.092a5.326,5.326,0,0,1,.439-1.192c-.03.1-.062.2-.087.307a8.511,8.511,0,0,0,.263,3.913,2.726,2.726,0,0,0,.952,1.747c.88.563,2.231.072,2.954.83.456.483.481,1.341,1.076,1.638a1.217,1.217,0,0,0,.7.082c1.566-.223,2.478-1.983,3.983-2.478a4,4,0,0,1,2.64.228,1.933,1.933,0,0,1,.872.56c.5.652.151,1.613.384,2.4.325,1.1,1.633,1.532,2.766,1.673s2.409.223,3.165,1.081a2.869,2.869,0,0,1,.563,2.283,1.841,1.841,0,0,0,0,.845c.312.885,1.844.744,2.231.055.292-.508.206-.929.895-1.071a2.933,2.933,0,0,1,1.442.248,10.6,10.6,0,0,0,3.812.573,5.053,5.053,0,0,0,2.991-.907,3.471,3.471,0,0,0,.917-1.115,3.754,3.754,0,0,1-1.264,2,5.065,5.065,0,0,1-2.992.907,10.58,10.58,0,0,1-3.809-.573,2.968,2.968,0,0,0-1.445-.248c-.689.141-.6.563-.892,1.071-.4.7-1.931.83-2.245-.055a1.837,1.837,0,0,1,0-.845,2.864,2.864,0,0,0-.56-2.283c-.758-.855-2.035-.937-3.167-1.078s-2.441-.577-2.763-1.673c-.235-.791.119-1.752-.384-2.4a1.953,1.953,0,0,0-.875-.56,4.065,4.065,0,0,0-2.64-.228c-1.507.5-2.417,2.26-3.983,2.478a1.217,1.217,0,0,1-.7-.082c-.595-.3-.62-1.155-1.076-1.636-.716-.758-2.074-.27-2.952-.833a2.718,2.718,0,0,1-.954-1.747A8.554,8.554,0,0,1,792.7,386.092Z" transform="translate(-792.558 -384.9)"/>
  </g>
  <path id="Path_1508" data-name="Path 1508" class="cls-7" d="M911.537,571.678c-1.081,1.46-2.315,2.811-3.272,4.355a8.261,8.261,0,0,0-1.432,5.15,13.471,13.471,0,0,0,2.067-3.693,53.019,53.019,0,0,1,3.966-5.968c.248-.379,1.886-2.565,1.061-2.669C913.247,568.766,911.906,571.18,911.537,571.678Z" transform="translate(-689.418 -441.833)"/>
</svg>
