<svg id="twitter" xmlns="http://www.w3.org/2000/svg" width="30.969" height="30.969" viewBox="0 0 30.969 30.969">
  <defs>
    <style>
      .cls-1 {
        fill: #3f3d56;
      }
    </style>
  </defs>
  <path id="twitter-2" data-name="twitter" class="cls-1" d="M15.485,0A15.485,15.485,0,1,0,30.969,15.485,15.486,15.486,0,0,0,15.485,0Zm7.07,12.073q.01.229.01.459A10.044,10.044,0,0,1,12.452,22.645h0A10.06,10.06,0,0,1,7,21.049a7.229,7.229,0,0,0,.848.049,7.131,7.131,0,0,0,4.414-1.521,3.558,3.558,0,0,1-3.32-2.469,3.542,3.542,0,0,0,1.605-.061A3.555,3.555,0,0,1,7.7,13.563c0-.016,0-.03,0-.045a3.53,3.53,0,0,0,1.61.444,3.557,3.557,0,0,1-1.1-4.745,10.091,10.091,0,0,0,7.326,3.714,3.556,3.556,0,0,1,6.056-3.241,7.129,7.129,0,0,0,2.257-.863,3.568,3.568,0,0,1-1.563,1.966,7.088,7.088,0,0,0,2.041-.56,7.223,7.223,0,0,1-1.773,1.841Zm0,0"/>
</svg>
